<svg width="390" height="844" viewBox="0 0 390 844" fill="none" xmlns="http://www.w3.org/2000/svg">
<mask id="mask0_258_2746" style="mask-type:alpha" maskUnits="userSpaceOnUse" x="0" y="0" width="390" height="844">
<rect width="390" height="844" fill="#D9D9D9"/>
</mask>
<g mask="url(#mask0_258_2746)">
<path d="M391.857 -14.4302H-2.61475V862.173H391.857V-14.4302Z" fill="url(#paint0_linear_258_2746)"/>
<path d="M166.621 404.384L140.312 303.191L192.602 373.626L250.458 300.506L228.214 393.952L426.008 246.168L287.33 423.373L435.3 393.952L276.788 460.969L515.937 662.938L231.819 490.872L179.759 617.267L185.14 520.654L48.3237 547.402L148.246 467.992L-93.8833 452.794L131.02 427.899L95.7699 373.626L166.621 404.384Z" fill="#FFD4FE" stroke="black" stroke-width="0.821816" stroke-miterlimit="10"/>
<path d="M205.762 440.149L218.1 294.501L278.388 332.316L252.561 194.7L318.909 230.444L243.39 -36L337.921 -21.4374L348.308 281.703L278.958 231.397L312.17 382.26L233.167 328.557L205.959 440.171C205.926 440.292 205.762 440.259 205.773 440.138L205.762 440.149Z" fill="url(#paint1_linear_258_2746)" stroke="black" stroke-width="0.821816" stroke-miterlimit="10"/>
<path d="M208.074 438.418L129.585 496.997L127.076 571.202L19.2755 628.849L65.2205 674.531L10.0383 694.025L58.635 729.034L-145 826.786L-98.3209 860.415L90.1051 731.171L52.0386 697.082L93.743 676.547L46.001 628.433L151.423 581.71L147.665 504.284L208.096 438.791C208.337 438.539 208.315 438.243 208.063 438.418H208.074Z" fill="url(#paint2_linear_258_2746)" stroke="black" stroke-width="0.821816" stroke-miterlimit="10"/>
<path d="M228.674 568.627L241.626 554.305C242.437 553.417 243.478 552.76 244.639 552.431L265.294 546.492C266.62 546.098 268.045 546.164 269.338 546.646L270.839 547.205C278.509 550.054 280.109 560.2 273.666 565.263L263.673 573.108C262.314 574.182 261.229 575.574 260.528 577.162L245.363 610.78C242.919 616.204 233.813 655.312 233.813 655.312L233.956 693.86L153.286 690.661L150.777 665.919C148.75 660.144 142.208 652.331 137.288 645.176C128.128 631.874 122.934 616.182 122.408 599.932L122.244 594.793L124.337 596.108C126.791 597.653 129.728 598.223 132.577 597.73L134.374 597.423C138.165 596.766 141.387 594.3 143.008 590.805C143.742 589.238 144.104 587.55 144.104 585.852C144.104 584.153 143.71 582.356 142.932 580.735L142.493 579.858C141.891 578.609 141.069 577.48 140.072 576.516L134.9 571.541C133.114 571.213 131.601 570.084 130.769 568.473L122.123 551.62C121.038 549.495 120.699 547.073 121.148 544.739L123.022 535.195C123.778 531.294 126.671 528.149 130.484 527.043L136.883 525.18L140.554 523.865C139.316 521.454 138.998 518.562 139.874 515.789L144.992 499.715C145.912 496.833 148.016 494.477 150.777 493.25L158.962 489.579C162.348 488.067 166.271 488.439 169.328 490.543L181.656 499.057C184.077 500.723 185.688 503.331 186.115 506.234L188.8 524.259C189.622 529.683 191.682 534.855 194.859 539.348L200.404 511.439C200.634 510.3 200.678 509.138 200.513 507.977L193.687 456.301C193.314 453.474 194.092 450.603 195.856 448.357L200.185 442.834C203.549 438.561 209.597 437.509 214.199 440.412L214.243 440.445C215.92 441.508 217.268 443.009 218.133 444.795L232.783 475.06C233.353 476.233 233.693 477.482 233.802 478.775L236.597 511.242C236.662 512.009 236.64 512.787 236.542 513.543L230.964 555.62L228.631 568.627H228.674Z" fill="url(#paint3_linear_258_2746)"/>
<path d="M144.126 585.863C144.126 587.561 143.764 589.249 143.03 590.815C141.408 594.3 138.187 596.776 134.395 597.434L132.598 597.741C129.749 598.234 126.813 597.653 124.358 596.119L122.265 594.804C121.29 594.179 120.403 593.423 119.636 592.536L107.966 579.036C105.128 575.749 104.58 571.07 106.563 567.224L115.505 549.889L121.181 544.75C120.731 547.084 121.071 549.506 122.156 551.631L130.801 568.484C131.623 570.095 133.146 571.234 134.932 571.552L140.104 576.527C141.101 577.491 141.923 578.62 142.526 579.869L142.964 580.746C143.742 582.356 144.137 584.109 144.137 585.863H144.126Z" fill="url(#paint4_linear_258_2746)"/>
<path d="M200.798 583.54L219.415 577.568C220.5 577.217 221.475 576.593 222.242 575.738L228.685 568.616L241.637 554.294C242.448 553.406 243.489 552.749 244.65 552.42L265.305 546.481C266.631 546.087 268.055 546.153 269.348 546.635L270.85 547.194C278.52 550.042 280.12 560.189 273.677 565.252L263.683 573.097C262.325 574.171 261.24 575.563 260.539 577.151L245.373 610.769C242.93 616.193 233.824 655.301 233.824 655.301L233.967 693.849L153.297 690.65L150.788 665.908C148.761 660.133 142.219 652.32 137.299 645.165C128.139 631.862 122.945 616.171 122.419 599.921L122.254 594.782" stroke="black" stroke-width="0.931391" stroke-miterlimit="10"/>
<path d="M190.082 563.652L194.903 539.348L200.447 511.439C200.677 510.3 200.721 509.138 200.557 507.977L193.73 456.301C193.358 453.474 194.136 450.603 195.9 448.357L200.228 442.834C203.592 438.561 209.641 437.509 214.243 440.412L214.287 440.445C215.963 441.508 217.311 443.009 218.177 444.795L232.827 475.06C233.397 476.233 233.736 477.482 233.846 478.775L236.64 511.242C236.706 512.009 236.684 512.787 236.585 513.543L231.008 555.62L228.674 568.627" stroke="black" stroke-width="0.931391" stroke-miterlimit="10"/>
<path d="M166.37 521.958L160.124 527.864C157.111 530.702 152.717 531.535 148.881 529.99L146.065 528.872C143.611 527.875 141.726 526.067 140.587 523.876C139.348 521.465 139.031 518.572 139.907 515.8L145.024 499.725C145.945 496.843 148.049 494.488 150.81 493.26L158.995 489.59C162.381 488.077 166.304 488.45 169.361 490.554L181.688 499.068C184.11 500.733 185.721 503.341 186.148 506.245L188.833 524.27C189.654 529.694 191.714 534.866 194.892 539.359" stroke="black" stroke-width="0.931391" stroke-miterlimit="10"/>
<path d="M163.499 557.143L155.171 532.521" stroke="black" stroke-width="0.931391" stroke-miterlimit="10"/>
<path d="M140.586 523.865L136.916 525.179L130.517 527.042C126.703 528.149 123.821 531.294 123.054 535.195L121.181 544.739C120.731 547.073 121.071 549.494 122.156 551.62L130.801 568.473C131.623 570.083 133.146 571.223 134.932 571.541C135.568 571.65 136.203 571.705 136.828 571.705C140.915 571.705 144.728 569.338 146.482 565.514L148.783 560.507" stroke="black" stroke-width="0.931391" stroke-miterlimit="10"/>
<path d="M121.181 544.739L115.505 549.878L106.563 567.213C104.58 571.059 105.128 575.738 107.966 579.025L119.636 592.525C120.392 593.401 121.29 594.168 122.265 594.793L124.358 596.108C126.813 597.653 129.749 598.223 132.598 597.73L134.395 597.423C138.187 596.765 141.408 594.3 143.03 590.805C143.764 589.238 144.126 587.55 144.126 585.852C144.126 584.153 143.731 582.356 142.953 580.735L142.515 579.858C141.912 578.609 141.09 577.48 140.093 576.516L134.921 571.541" stroke="black" stroke-width="0.931391" stroke-miterlimit="10"/>
<path d="M153.308 690.661L150.941 665.502C148.914 659.727 142.372 651.915 137.452 644.759C128.292 631.457 123.098 615.766 122.572 599.516L122.408 594.377" stroke="black" stroke-width="1.09575" stroke-miterlimit="10"/>
<path d="M200.94 583.123L218.494 577.491C220.28 576.922 221.869 575.892 223.129 574.511L240.99 554.765C242.316 553.297 244.025 552.245 245.932 551.697L264.144 546.46C266.324 545.835 268.647 545.923 270.773 546.712C275.265 548.377 277.698 552.508 277.698 556.694C277.698 559.751 276.394 562.841 273.644 565.011L263.848 572.703C262.489 573.777 261.404 575.168 260.703 576.757L245.538 610.375C243.094 615.799 233.988 654.906 233.988 654.906V693.871" stroke="black" stroke-width="1.09575" stroke-miterlimit="10"/>
<path d="M190.224 563.236L200.59 511.023C200.82 509.883 200.864 508.722 200.7 507.56L193.873 455.885C193.5 453.057 194.278 450.187 196.043 447.94L200.371 442.418C203.735 438.144 209.783 437.092 214.385 439.996L214.429 440.029C216.106 441.092 217.454 442.593 218.319 444.379L232.97 474.644C233.539 475.816 233.879 477.065 233.989 478.358L236.783 510.826C236.848 511.593 236.827 512.371 236.728 513.127L231.151 555.204" stroke="black" stroke-width="1.09575" stroke-miterlimit="10"/>
<path d="M190.224 532.105L186.312 505.829C185.885 502.925 184.274 500.328 181.852 498.652L169.525 490.138C166.468 488.034 162.545 487.661 159.159 489.173L150.974 492.844C148.213 494.071 146.098 496.427 145.188 499.309L140.071 515.384C139.195 518.156 139.501 521.049 140.751 523.459C141.879 525.662 143.775 527.47 146.229 528.456L149.045 529.574C152.892 531.119 157.275 530.286 160.288 527.448L166.534 521.542" stroke="black" stroke-width="1.09575" stroke-miterlimit="10"/>
<path d="M163.641 556.737L155.324 532.105" stroke="black" stroke-width="1.09575" stroke-miterlimit="10"/>
<path d="M140.729 523.448L137.058 524.763L130.659 526.626C126.846 527.733 123.964 530.878 123.197 534.779L121.323 544.323C120.874 546.657 121.214 549.078 122.298 551.204L130.944 568.057C131.766 569.667 133.289 570.807 135.075 571.125C135.711 571.234 136.346 571.289 136.971 571.289C141.058 571.289 144.871 568.922 146.624 565.098L148.925 560.091" stroke="black" stroke-width="1.09575" stroke-miterlimit="10"/>
<path d="M121.323 544.323L115.647 549.462L106.706 566.797C104.723 570.643 105.27 575.322 108.108 578.609L119.778 592.109C120.534 592.985 121.433 593.752 122.408 594.377L124.501 595.692C126.955 597.237 129.892 597.807 132.741 597.313L134.538 597.007C138.329 596.349 141.551 593.884 143.173 590.388C143.907 588.821 144.268 587.134 144.268 585.435C144.268 583.737 143.874 581.94 143.096 580.318L142.658 579.442C142.055 578.193 141.233 577.064 140.236 576.1L135.064 571.125" stroke="black" stroke-width="1.09575" stroke-miterlimit="10"/>
<path opacity="0.69" d="M196.7 589.862C193.708 590.553 190.991 592.098 188.723 594.169C183.091 599.308 171.958 611.778 170.752 631.03C169.12 656.934 200.283 600.469 200.283 600.469C200.283 600.469 207.57 587.342 196.7 589.862Z" fill="#383838"/>
<path d="M276.789 694.31C294.989 692.841 302.911 685.576 303.306 661.459C305.158 685.511 313.222 692.282 331.763 692.633C313.277 694.112 305.64 701.366 305.245 725.484C303.393 701.432 295.044 694.66 276.789 694.299V694.31Z" fill="#9CFFA6" stroke="black" stroke-width="0.547877" stroke-miterlimit="10"/>
<path d="M315.666 724.991C326.328 724.268 331.007 721.024 331.336 710.384C332.322 720.98 337.012 723.928 347.859 724.004C337.022 724.739 332.519 727.971 332.19 738.611C331.204 728.015 326.35 725.067 315.655 724.991H315.666Z" fill="#9CFFA6" stroke="black" stroke-width="0.547877" stroke-miterlimit="10"/>
<path d="M45.0696 318.937C52.5011 318.937 58.5255 312.912 58.5255 305.481C58.5255 298.05 52.5011 292.025 45.0696 292.025C37.6382 292.025 31.6138 298.05 31.6138 305.481C31.6138 312.912 37.6382 318.937 45.0696 318.937Z" fill="#9CFFA6" stroke="black" stroke-width="0.547877" stroke-miterlimit="10"/>
<path d="M69.691 323.671C73.5338 323.671 76.649 320.556 76.649 316.713C76.649 312.87 73.5338 309.755 69.691 309.755C65.8481 309.755 62.7329 312.87 62.7329 316.713C62.7329 320.556 65.8481 323.671 69.691 323.671Z" fill="#9CFFA6" stroke="black" stroke-width="0.547877" stroke-miterlimit="10"/>
<path d="M121.422 767.758C126.36 767.758 130.363 763.755 130.363 758.817C130.363 753.878 126.36 749.875 121.422 749.875C116.484 749.875 112.48 753.878 112.48 758.817C112.48 763.755 116.484 767.758 121.422 767.758Z" fill="#9CFFA6" stroke="black" stroke-width="0.547877" stroke-miterlimit="10"/>
<path d="M132.182 761.435C136.273 761.435 139.589 758.119 139.589 754.028C139.589 749.937 136.273 746.621 132.182 746.621C128.091 746.621 124.774 749.937 124.774 754.028C124.774 758.119 128.091 761.435 132.182 761.435Z" fill="#9CFFA6" stroke="black" stroke-width="0.547877" stroke-miterlimit="10"/>
</g>
<defs>
<linearGradient id="paint0_linear_258_2746" x1="194.621" y1="29.0713" x2="194.621" y2="830.539" gradientUnits="userSpaceOnUse">
<stop stop-color="#BFE5FF"/>
<stop offset="0.13" stop-color="#B5E1FE"/>
<stop offset="0.34" stop-color="#9CD8FE"/>
<stop offset="0.61" stop-color="#72CAFE"/>
<stop offset="0.93" stop-color="#39B6FE"/>
<stop offset="0.96" stop-color="#34B5FE"/>
</linearGradient>
<linearGradient id="paint1_linear_258_2746" x1="134.938" y1="181.688" x2="417.81" y2="239.004" gradientUnits="userSpaceOnUse">
<stop offset="0.44" stop-color="#9CFFA6"/>
<stop offset="0.63" stop-color="#6EEC59"/>
<stop offset="0.73" stop-color="#4CDE21"/>
</linearGradient>
<linearGradient id="paint2_linear_258_2746" x1="-90.523" y1="866.566" x2="213.854" y2="444.071" gradientUnits="userSpaceOnUse">
<stop offset="0.44" stop-color="#9CFFA6"/>
<stop offset="0.48" stop-color="#96FC9C"/>
<stop offset="0.55" stop-color="#87F683"/>
<stop offset="0.63" stop-color="#6EEC59"/>
<stop offset="0.73" stop-color="#4CDE21"/>
</linearGradient>
<linearGradient id="paint3_linear_258_2746" x1="199.33" y1="566.315" x2="199.33" y2="409.611" gradientUnits="userSpaceOnUse">
<stop offset="0.24" stop-color="#9CFFA6"/>
<stop offset="0.31" stop-color="#96FC9C"/>
<stop offset="0.42" stop-color="#87F683"/>
<stop offset="0.57" stop-color="#6EEC59"/>
<stop offset="0.73" stop-color="#4CDE21"/>
</linearGradient>
<linearGradient id="paint4_linear_258_2746" x1="124.742" y1="571.322" x2="124.742" y2="532.565" gradientUnits="userSpaceOnUse">
<stop offset="0.24" stop-color="#9CFFA6"/>
<stop offset="0.31" stop-color="#96FC9C"/>
<stop offset="0.42" stop-color="#87F683"/>
<stop offset="0.57" stop-color="#6EEC59"/>
<stop offset="0.73" stop-color="#4CDE21"/>
</linearGradient>
</defs>
</svg>
