<svg width="12" height="12" viewBox="0 0 12 12" fill="none" xmlns="http://www.w3.org/2000/svg">
<path d="M10.1728 0.302341C10.5759 -0.10078 11.2295 -0.10078 11.6327 0.302342C12.0358 0.705463 12.0358 1.35905 11.6327 1.76217L1.77878 11.6161C1.37565 12.0192 0.722064 12.0192 0.318943 11.616C-0.0841787 11.2129 -0.084179 10.5593 0.318943 10.1562L10.1728 0.302341Z" fill="#807979"/>
<path d="M11.6813 10.1562C12.0844 10.5593 12.0844 11.2129 11.6813 11.616C11.2782 12.0192 10.6246 12.0192 10.2215 11.6161L0.367604 1.76217C-0.0355177 1.35905 -0.035517 0.705463 0.367605 0.302341C0.770726 -0.10078 1.42432 -0.100781 1.82744 0.302341L11.6813 10.1562Z" fill="#807979"/>
</svg>
