<svg width="165" height="92" viewBox="0 0 165 92" fill="none" xmlns="http://www.w3.org/2000/svg">
<path d="M4.65771 73.7314C6.83252 73.748 8.37646 75.7402 8.39307 78.8779C8.37646 82.0156 6.83252 84.0078 4.65771 84.0078C2.46631 84.0078 0.938965 82.0156 0.938965 78.8779C0.938965 75.7402 2.46631 73.748 4.65771 73.7314ZM4.65771 74.8936C3.19678 74.9102 2.16748 76.4707 2.16748 78.8779C2.16748 81.2852 3.19678 82.8457 4.65771 82.8457C6.13525 82.8457 7.13135 81.2852 7.13135 78.8779C7.13135 76.4707 6.13525 74.9102 4.65771 74.8936ZM12.1284 72.5859V78.4795H14.6021V79.6084H12.1284V87.3447H10.8335V72.5859H12.1284ZM19.7114 75.3252C19.7114 77.3174 21.2886 79.127 23.4966 79.8408L22.8325 80.8535C21.1143 80.2725 19.7446 79.0522 19.0806 77.4834C18.4331 79.1685 17.0469 80.4966 15.2954 81.1357L14.6147 80.123C16.8228 79.3428 18.3999 77.417 18.3999 75.3252V74.6943H14.9468V73.6318H23.1147V74.6943H19.7114V75.3252ZM26.5845 72.5859V81.5176H25.2896V72.5859H26.5845ZM26.5845 82.2979V87.3447H25.2896V83.377H16.6567V82.2979H26.5845ZM36.355 75.3252C36.355 77.2842 37.7993 79.0771 39.9907 79.8408L39.3267 80.8535C37.6416 80.2559 36.355 79.0439 35.7241 77.5166C35.0933 79.1934 33.7402 80.4966 32.0054 81.1357L31.3081 80.123C33.5161 79.3428 35.0601 77.4336 35.0767 75.3252V74.6943H31.7065V73.6318H39.6753V74.6943H36.355V75.3252ZM42.896 72.5859V76.4873H45.1206V77.5996H42.896V81.4844H41.6011V72.5859H42.896ZM42.896 82.2646V87.3447H41.6011V83.3271H33.2339V82.2646H42.896ZM50.1304 74.9102C50.1138 77.0186 51.6079 78.8779 53.7827 79.6084L53.0522 80.6211C51.4253 80.0068 50.147 78.8115 49.5161 77.251C48.877 79.019 47.5239 80.397 45.7476 81.0693L45.0337 80.0068C47.3081 79.21 48.8188 77.251 48.8354 74.96V73.4326H50.1304V74.9102ZM57.2856 72.5859V81.335H55.9741V76.8359H52.687V75.7568H55.9741V72.5859H57.2856ZM52.3882 81.7666C55.4595 81.7666 57.3354 82.7793 57.3354 84.5557C57.3354 86.3154 55.4595 87.3115 52.3882 87.3115C49.3169 87.3115 47.4409 86.3154 47.4409 84.5557C47.4409 82.7793 49.3169 81.7666 52.3882 81.7666ZM52.3882 82.7959C50.1304 82.7959 48.7192 83.46 48.7358 84.5557C48.7192 85.6182 50.1304 86.2656 52.3882 86.2656C54.646 86.2656 56.0405 85.6182 56.0405 84.5557C56.0405 83.46 54.646 82.7959 52.3882 82.7959ZM70.2808 72.6025V77.4668H72.5054V78.5625H70.2808V83.6592H68.9858V72.6025H70.2808ZM67.5747 74.4121V75.4746H58.7759V74.4121H62.5278V72.6025H63.8228V74.4121H67.5747ZM63.1753 76.2881C65.2837 76.2881 66.7114 77.3672 66.728 79.0439C66.7114 80.7041 65.2837 81.7666 63.1753 81.7666C61.0503 81.7666 59.606 80.7041 59.6226 79.0439C59.606 77.3672 61.0503 76.2881 63.1753 76.2881ZM63.1753 77.3174C61.7808 77.3174 60.8511 77.998 60.8677 79.0439C60.8511 80.0898 61.7808 80.7539 63.1753 80.7373C64.5532 80.7539 65.4829 80.0898 65.4995 79.0439C65.4829 77.998 64.5532 77.3174 63.1753 77.3174ZM70.9614 85.9336V87.0293H61.0503V82.7793H62.3286V85.9336H70.9614ZM87.8706 72.5859V80.2559H86.5923V72.5859H87.8706ZM87.8872 80.9697V84.4893H79.603V86.1328H88.4185V87.1787H78.3247V83.5098H86.5923V81.999H78.2915V80.9697H87.8872ZM81.0142 74.6777C81.0142 76.6035 82.5913 78.2803 84.8159 78.9443L84.1685 79.957C82.4253 79.4092 81.0391 78.2388 80.3833 76.7197C79.7441 78.3799 78.333 79.6748 76.5317 80.2725L75.9175 79.2432C78.1255 78.5127 79.7026 76.7031 79.7026 74.6777V74.5117H76.2495V73.4326H84.4175V74.5117H81.0142V74.6777ZM102.891 80.1396V81.2188H96.8813V84.2402H95.5864V81.2188H89.3774V80.1396H102.891ZM101.131 73.3164V78.4463H91.1372V73.3164H101.131ZM92.4155 74.3457V77.4004H99.8364V74.3457H92.4155ZM101.38 85.9336V87.0293H91.104V82.7793H92.4155V85.9336H101.38ZM115.255 72.5859V87.3779H113.944V72.5859H115.255ZM107.403 73.7314C109.594 73.748 111.171 75.7402 111.171 78.8779C111.171 82.0156 109.594 84.0078 107.403 84.0078C105.195 84.0078 103.634 82.0156 103.634 78.8779C103.634 75.7402 105.195 73.748 107.403 73.7314ZM107.403 74.8936C105.925 74.9102 104.896 76.4707 104.896 78.8779C104.896 81.2852 105.925 82.8457 107.403 82.8457C108.88 82.8457 109.91 81.2852 109.91 78.8779C109.91 76.4707 108.88 74.9102 107.403 74.8936ZM122.984 81.252V83.0947H125.673V81.252H126.885V87.1455H121.755V81.252H122.984ZM122.984 86.1162H125.673V84.0908H122.984V86.1162ZM131.102 82.4141C131.085 83.9746 132.015 85.6016 133.825 86.2656L133.144 87.2617C131.783 86.7139 130.886 85.6763 130.438 84.4395C129.965 85.6514 129.068 86.6973 127.765 87.2617L127.084 86.2656C128.861 85.5352 129.807 83.9082 129.807 82.4141V81.1523H131.102V82.4141ZM124.113 73.25C126.088 73.25 127.599 74.3706 127.881 76.0723H130.969V72.5859H132.281V80.4053H130.969V77.1514H127.898C127.632 78.8945 126.113 80.04 124.113 80.04C121.872 80.04 120.278 78.6621 120.278 76.6367C120.278 74.6279 121.872 73.25 124.113 73.25ZM124.113 74.3457C122.602 74.3457 121.523 75.292 121.523 76.6367C121.523 77.998 122.602 78.9609 124.113 78.9609C125.607 78.9609 126.669 77.998 126.669 76.6367C126.669 75.292 125.607 74.3457 124.113 74.3457ZM137.706 73.7314C139.714 73.748 141.159 75.4663 141.375 78.2305H144.678V72.5859H145.973V87.3779H144.678V79.3096H141.391C141.233 82.1982 139.764 84.0078 137.706 84.0078C135.531 84.0078 134.003 82.0156 134.003 78.8779C134.003 75.7402 135.531 73.748 137.706 73.7314ZM137.706 74.8936C136.245 74.9102 135.249 76.4707 135.249 78.8779C135.249 81.2852 136.245 82.8457 137.706 82.8457C139.15 82.8457 140.163 81.2852 140.163 78.8779C140.163 76.4707 139.15 74.9102 137.706 74.8936ZM160.944 84.3564V85.4521H147.43V84.3564H150.784V80.3721C149.522 79.7163 148.758 78.6538 148.758 77.3174C148.758 75.0264 151 73.5322 154.154 73.5156C157.308 73.5322 159.549 75.0264 159.549 77.3174C159.549 78.6289 158.811 79.6831 157.59 80.3389V84.3564H160.944ZM154.154 74.5947C151.73 74.5781 150.02 75.6738 150.02 77.3174C150.02 78.9609 151.73 80.0732 154.154 80.0732C156.561 80.0732 158.288 78.9609 158.288 77.3174C158.288 75.6738 156.561 74.5781 154.154 74.5947ZM152.062 84.3564H156.279V80.8369C155.64 81.0112 154.926 81.1025 154.154 81.1025C153.398 81.1025 152.693 81.0195 152.062 80.8535V84.3564ZM163.513 73.9805L163.397 82.6133H162.002L161.886 73.9805H163.513ZM162.7 86.0996C162.119 86.0996 161.621 85.6182 161.637 85.0205C161.621 84.4395 162.119 83.958 162.7 83.958C163.281 83.958 163.762 84.4395 163.762 85.0205C163.762 85.6182 163.281 86.0996 162.7 86.0996Z" fill="#1B1F26" fillOpacity="0.72"/>
<g opacity="0.27">
<g clip-path="url(#clip0_1875_5194)">
<path d="M49.4702 56.6209L81.0661 38.5L104.682 56.5299" stroke="black" stroke-width="0.757878" stroke-linecap="round" stroke-linejoin="round"/>
<path d="M58.0571 20.3797L90.752 0.470215L113.276 20.3797" stroke="black" stroke-width="0.757878" stroke-miterlimit="10"/>
<path d="M57.8448 20.3792C57.6326 20.3792 57.4507 20.5232 57.4052 20.7354L49.4702 56.6209L104.674 56.5299L113.617 20.6672C113.655 20.5156 113.541 20.3716 113.39 20.3716" stroke="black" stroke-width="0.757878" stroke-miterlimit="10"/>
<path d="M113.276 20.3794C113.389 20.3794 113.427 20.531 113.329 20.584L81.0657 38.5003L57.9353 20.728C57.7837 20.6143 57.8671 20.3794 58.0566 20.3794" stroke="black" stroke-width="0.757878" stroke-miterlimit="10"/>
<path d="M81.3468 30.5671C80.307 29.6536 79.2955 28.648 77.9019 28.2939C75.6737 27.7274 73.5516 27.9469 71.6064 29.2995C69.7672 30.5741 69.5126 32.4932 69.647 34.3415C69.9158 38.0664 72.1652 40.8777 74.832 43.3775C76.4448 44.8929 78.1778 46.2738 80.0311 47.5273C80.9436 48.1433 81.6085 48.1717 82.5564 47.5273C86.0013 45.1974 89.1632 42.549 91.3843 39.1144C92.9264 36.728 93.5842 33.952 92.4807 31.1407C91.7946 29.3915 89.5593 28.1806 87.7555 28.0319C85.1878 27.8194 83.1082 28.6692 81.4671 30.56" fill="#F42762"/>
<path d="M81.3468 30.5671C80.307 29.6536 79.2955 28.648 77.9019 28.2939C75.6737 27.7274 73.5516 27.9469 71.6064 29.2995C69.7672 30.5741 69.5126 32.4932 69.647 34.3415C69.9158 38.0664 72.1652 40.8777 74.832 43.3775C76.4448 44.8929 78.1778 46.2738 80.0311 47.5272C80.9436 48.1433 81.6085 48.1717 82.5564 47.5272C86.0013 45.1974 89.1632 42.549 91.3843 39.1144C92.9264 36.728 93.5842 33.952 92.4807 31.1407C91.7946 29.3915 89.5593 28.1806 87.7555 28.0319C85.1878 27.8194 83.1082 28.6692 81.4671 30.56" stroke="black" stroke-width="0.685671" stroke-linecap="round" stroke-linejoin="round"/>
</g>
</g>
<defs>
<clipPath id="clip0_1875_5194">
<rect width="65.0032" height="57" fill="white" transform="translate(49)"/>
</clipPath>
</defs>
</svg>
