<svg width="342" height="142" viewBox="0 0 342 142" fill="none" xmlns="http://www.w3.org/2000/svg">
<g clip-path="url(#clip0_1836_10878)">
<rect width="342" height="142" fill="white"/>
<mask id="mask0_1836_10878" style="mask-type:alpha" maskUnits="userSpaceOnUse" x="-19" y="-20" width="221" height="192">
<path d="M200.719 -18.6992L119.819 171.301H-18.4053V-18.6992H200.719Z" fill="#D9D9D9" stroke="black" stroke-width="0.924574"/>
</mask>
<g mask="url(#mask0_1836_10878)">
<mask id="mask1_1836_10878" style="mask-type:alpha" maskUnits="userSpaceOnUse" x="-20" y="-1" width="222" height="145">
<rect x="-19.2295" y="-0.208008" width="220.773" height="143.309" fill="white"/>
</mask>
<g mask="url(#mask1_1836_10878)">
<mask id="mask2_1836_10878" style="mask-type:alpha" maskUnits="userSpaceOnUse" x="-20" y="-1" width="222" height="145">
<rect x="-19.2295" y="-0.208008" width="220.773" height="143.309" fill="white"/>
</mask>
<g mask="url(#mask2_1836_10878)">
<rect x="-19.2295" y="-0.208008" width="220.773" height="143.309" fill="url(#paint0_linear_1836_10878)"/>
<path d="M315.773 28.9133L274.906 22.8141C250.45 19.1598 225.707 27.1352 207.65 44.4784C197.766 53.9705 183.721 57.3306 170.778 53.2971L130.357 40.6999C113.107 35.3263 95.7107 48.6295 95.7616 67.156C95.787 75.2099 87.6074 80.5312 80.5344 77.0534L62.8585 68.3654C58.4697 66.2081 53.5276 70.0062 54.3036 74.9484C57.0259 92.1543 40.832 106.092 24.8289 100.313L-114.613 49.9696L-107.038 97.8809L49.3805 127.834C63.6218 130.561 76.5909 118.852 75.7958 103.98L75.5414 99.2995C75.3061 94.9131 79.4595 91.6771 83.4984 93.0957L95.787 97.3841C103.35 100.032 111.211 94.2659 111.237 86.0551C111.313 66.5219 130.401 53.1141 148.141 60.1416L174.295 70.5096C189.605 76.5827 206.982 72.3466 218.017 59.8539C233.658 42.1316 255.576 31.6066 278.843 30.6522L315.575 29.1421C315.862 29.1356 316.021 28.946 315.773 28.9002L315.773 28.9133Z" fill="url(#paint1_linear_1836_10878)" stroke="black" stroke-width="0.31333" stroke-miterlimit="10"/>
<path d="M87.7027 72.8359C93.1829 62.2029 103.46 54.5581 115.989 52.4699C134.349 49.4059 152.526 60.0136 159.045 77.5886C165.794 95.7704 159.448 115.853 143.637 126.36C133.754 132.928 121.327 134.374 110.357 130.784C110.032 129.641 109.648 128.509 109.21 127.386L107.198 122.239C109.122 121.744 111.055 121.369 113.062 121.278C114.282 121.218 115.522 120.742 116.693 120.272C121.194 118.452 124.195 113.967 124.092 109.002C123.979 103.466 120.865 98.9658 116.034 97.3681C112.9 96.3367 109.968 96.8423 107.174 98.5967C106.731 98.8748 105.969 99.0316 105.526 98.8394C100.926 96.8018 95.9968 99.7445 95.7607 104.942C95.6722 106.934 94.9244 107.445 93.2321 107.738C86.094 108.992 79.0739 108.481 72.0834 106.661C70.824 106.333 69.481 106.338 68.1823 106.14C66.0472 105.812 63.7794 105.812 61.8214 105.018C58.0679 103.491 56.961 100.098 57.0741 96.2002C57.1676 92.8682 58.4811 90.2491 61.5853 88.9396C63.9417 87.9537 66.3916 88.2924 68.7824 88.98C69.0579 89.0559 72.1375 89.6222 72.1375 89.6222C72.1375 89.6222 72.9836 86.4368 76.137 86.5582C77.7358 86.6391 79.0051 87.9132 79.1182 89.5514C79.2264 91.1289 79.0887 92.7468 78.9017 94.3243C78.7001 96.0181 78.9017 96.6046 80.5793 96.6704C81.2877 96.6957 82.67 96.731 83.6343 96.7513C84.0967 96.7614 84.4263 96.2861 84.2541 95.8412C83.9097 94.9311 83.4719 93.3435 83.3981 91.0126C83.3735 84.4043 84.9182 78.2257 87.7076 72.8207L87.7027 72.8359Z" fill="#00FFFF"/>
<path d="M107.193 122.244C104.576 122.906 101.983 123.806 99.2728 124.554C99.1252 124.59 99.0858 124.787 99.2039 124.883C99.4597 125.101 99.6122 125.232 99.7745 125.348C103.026 127.745 106.608 129.56 110.356 130.784C115.497 148.793 106.578 168.214 89.2813 175.353C84.8981 177.163 80.3771 178.018 75.925 178.018C61.698 178.018 48.2334 169.266 42.6105 154.866L22.5933 103.642C15.2092 84.7427 24.133 63.2694 42.522 55.6752C59.7941 48.5511 79.2801 56.2111 87.6973 72.8356C84.908 78.2406 83.3632 84.4191 83.3878 91.0274C83.4616 93.3583 83.8995 94.951 84.2438 95.856C84.4111 96.301 84.0815 96.7712 83.624 96.7661C82.6598 96.7408 81.2774 96.7105 80.569 96.6852C78.8865 96.6195 78.6898 96.033 78.8915 94.3392C79.0784 92.7617 79.2161 91.1488 79.1079 89.5662C78.9948 87.928 77.7256 86.6539 76.1267 86.573C72.9734 86.4517 72.1272 89.637 72.1272 89.637C72.1272 89.637 69.0476 89.0707 68.7722 88.9949C66.3813 88.3073 63.9363 87.9685 61.575 88.9544C58.4708 90.2589 57.1573 92.878 57.0639 96.215C56.9507 100.108 58.0576 103.501 61.8111 105.033C63.7691 105.827 66.0369 105.827 68.172 106.155C69.4707 106.352 70.8088 106.347 72.0731 106.676C79.0587 108.496 86.0837 109.007 93.2218 107.753C94.9141 107.455 95.6619 106.944 95.7504 104.957C95.9866 99.7593 100.916 96.8167 105.516 98.8543C105.958 99.0464 106.721 98.8897 107.164 98.6116C109.958 96.8571 112.89 96.3515 116.023 97.383C120.849 98.9756 123.968 103.476 124.082 109.017C124.185 113.982 121.179 118.467 116.683 120.287C115.517 120.757 114.277 121.233 113.052 121.293C111.045 121.384 109.112 121.753 107.188 122.254L107.193 122.244Z" fill="#37A0FF"/>
<path d="M109.205 127.385C109.643 128.508 110.026 129.64 110.351 130.783C106.602 129.56 103.021 127.744 99.7692 125.348C99.6069 125.232 99.4593 125.1 99.1985 124.883C99.0854 124.787 99.1247 124.589 99.2674 124.554C101.978 123.806 104.571 122.906 107.188 122.243L109.2 127.391L109.205 127.385Z" fill="#00FFFF"/>
<path d="M110.351 130.784C115.492 148.793 106.573 168.214 89.2764 175.353C84.8932 177.163 80.3722 178.018 75.9201 178.018C61.6931 178.018 48.2285 169.266 42.6056 154.866L22.5933 103.642C15.2092 84.7427 24.133 63.2694 42.522 55.6752C59.7941 48.5511 79.2801 56.2111 87.6973 72.8356" stroke="black" stroke-width="0.363446" stroke-miterlimit="10"/>
<path d="M110.351 130.784C106.602 129.56 103.021 127.745 99.7692 125.348C99.6068 125.232 99.4592 125.1 99.1985 124.883C99.0854 124.787 99.1247 124.59 99.2674 124.554C101.978 123.806 104.571 122.906 107.188 122.244C109.111 121.748 111.045 121.374 113.052 121.283C114.272 121.222 115.511 120.747 116.682 120.277C121.184 118.457 124.184 113.972 124.081 109.007C123.968 103.47 120.854 98.9705 116.023 97.3728C112.889 96.3413 109.957 96.847 107.163 98.6014C106.72 98.8795 105.958 99.0362 105.515 98.8441C100.915 96.8065 95.9861 99.7492 95.75 104.947C95.6614 106.939 94.9137 107.45 93.2214 107.743C86.0832 108.997 79.0632 108.486 72.0726 106.666C70.8133 106.337 69.4703 106.342 68.1715 106.145C66.0365 105.816 63.7686 105.816 61.8107 105.023C58.0571 103.496 56.9503 100.103 57.0634 96.2048C57.1569 92.8729 58.4704 90.2538 61.5745 88.9443C63.931 87.9583 66.3808 88.2971 68.7717 88.9847C69.0472 89.0606 72.1268 89.6268 72.1268 89.6268C72.1268 89.6268 72.9729 86.4415 76.1263 86.5628C77.7251 86.6437 78.9943 87.9179 79.1075 89.5561C79.2157 91.1336 79.0779 92.7515 78.891 94.329C78.6893 96.0228 78.891 96.6093 80.5685 96.675C81.2769 96.7003 82.6593 96.7357 83.6235 96.7559C84.086 96.7661 84.4156 96.2908 84.2434 95.8458C83.899 94.9357 83.4612 93.3481 83.3874 91.0173C83.3628 84.4089 84.9075 78.2304 87.6968 72.8254C93.1771 62.1924 103.454 54.5476 115.984 52.4594C134.343 49.3954 152.52 60.0031 159.039 77.5781C165.788 95.7599 159.442 115.843 143.631 126.349C133.748 132.917 121.321 134.363 110.351 130.773V130.784Z" stroke="black" stroke-width="0.374136" stroke-miterlimit="10"/>
<path d="M99.2525 89.4247C102.632 90.1781 106.287 90.35 109.539 88.9595C112.117 87.8573 114.316 85.8247 115.319 83.1096C115.398 82.9023 115.073 82.8164 115 83.0186C113.996 85.7337 111.714 87.741 109.111 88.7674C105.997 89.996 102.544 89.809 99.3411 89.091C99.1345 89.0455 99.041 89.3741 99.2525 89.4196V89.4247Z" fill="black"/>
<path d="M112.614 82.0479C113.548 83.1198 115.068 83.4029 116.318 82.7658C116.51 82.6698 116.342 82.3715 116.151 82.4726C115.029 83.0439 113.681 82.7608 112.85 81.8102C112.707 81.6434 112.471 81.8861 112.614 82.0529V82.0479Z" fill="black"/>
<path d="M102.214 75.1519C101.299 74.8789 100.251 75.4806 99.3856 76.6232L100.355 78.044L98.4263 78.3069C98.2639 78.6912 98.1163 79.1007 97.9983 79.5305C97.1915 82.4024 97.7769 85.0922 99.3019 85.5422C100.827 85.9922 102.711 84.0304 103.518 81.1636C104.325 78.2918 103.739 75.6019 102.214 75.1519Z" fill="black" stroke="black" stroke-width="0.160344" stroke-miterlimit="10" stroke-linecap="round"/>
<path d="M111.07 73.4273C110.155 73.1543 109.107 73.756 108.241 74.8986L109.21 76.3194L107.282 76.5823C107.119 76.9666 106.972 77.3761 106.854 77.8059C106.047 80.6778 106.632 83.3676 108.157 83.8176C109.682 84.2676 111.567 82.3058 112.373 79.439C113.18 76.5671 112.595 73.8773 111.07 73.4273Z" fill="black" stroke="black" stroke-width="0.160344" stroke-miterlimit="10" stroke-linecap="round"/>
<path d="M50.6873 78.6808C55.4985 80.5212 61.2641 80.9207 65.2932 77.0983C65.4506 76.9466 65.2144 76.7089 65.057 76.8556C61.1165 80.5971 55.4641 80.1471 50.7759 78.3522C50.5742 78.2763 50.4856 78.605 50.6873 78.6808Z" fill="black"/>
<path d="M56.6653 64.8219C55.7897 64.4376 54.6779 64.8977 53.6841 65.9241L54.4762 67.4561L52.5281 67.4713C52.3215 67.8303 52.1247 68.2196 51.9574 68.6291C50.8161 71.3746 51.0719 74.1201 52.5281 74.7622C53.9842 75.4043 56.0947 73.6953 57.236 70.9499C58.3773 68.2044 58.1215 65.459 56.6653 64.8168V64.8219Z" fill="black" stroke="black" stroke-width="0.160344" stroke-miterlimit="10" stroke-linecap="round"/>
<path d="M65.6585 64.2352C64.7828 63.851 63.671 64.3111 62.6773 65.3374L63.4693 66.8694L61.5212 66.8846C61.3146 67.2436 61.1178 67.6329 60.9506 68.0425C59.8093 70.7879 60.0651 73.5334 61.5212 74.1755C62.9774 74.8176 65.0878 73.1087 66.2292 70.3632C67.3705 67.6178 67.1147 64.8723 65.6585 64.2302V64.2352Z" fill="black" stroke="black" stroke-width="0.160344" stroke-miterlimit="10" stroke-linecap="round"/>
<path d="M22.0872 61.3467C24.8968 61.3467 27.1744 59.0058 27.1744 56.1182C27.1744 53.2305 24.8968 50.8896 22.0872 50.8896C19.2776 50.8896 17 53.2305 17 56.1182C17 59.0058 19.2776 61.3467 22.0872 61.3467Z" fill="#9CFFA6" stroke="black" stroke-width="0.250433" stroke-miterlimit="10"/>
<path d="M25.822 55.2364C27.2748 55.2364 28.4526 54.026 28.4526 52.5328C28.4526 51.0396 27.2748 49.8291 25.822 49.8291C24.3692 49.8291 23.1914 51.0396 23.1914 52.5328C23.1914 54.026 24.3692 55.2364 25.822 55.2364Z" fill="#9CFFA6" stroke="black" stroke-width="0.250433" stroke-miterlimit="10"/>
<path d="M141 27.067C147.255 26.6264 149.994 24.6863 150.193 18.3003C150.772 24.66 153.523 26.4291 159.888 26.4751C153.53 26.9158 150.887 28.8559 150.694 35.2419C150.122 28.8822 147.268 27.1131 141 27.067Z" fill="#9CFFA6" stroke="black" stroke-width="0.166685" stroke-miterlimit="10"/>
<path d="M151.646 29.9989C154.262 29.6592 155.408 28.1637 155.491 23.2412C155.733 28.1435 156.883 29.5072 159.545 29.5426C156.886 29.8823 155.781 31.3778 155.701 36.3003C155.461 31.3981 154.268 30.0344 151.646 29.9989Z" fill="#9CFFA6" stroke="black" stroke-width="0.166685" stroke-miterlimit="10"/>
</g>
<path d="M65.7411 26.1379V27.427H53.6708V26.1379H65.7411ZM54.9159 22.7249C54.9159 21.1428 56.7909 20.1614 59.6913 20.1614C62.599 20.1614 64.4593 21.1428 64.4667 22.7249C64.4593 24.3289 62.599 25.2883 59.6913 25.2883C56.7909 25.2883 54.9159 24.3289 54.9159 22.7249ZM55.077 30.6936C55.077 29.1409 56.7982 28.2839 59.6913 28.2913C62.5404 28.2839 64.2689 29.1409 64.2762 30.6936C64.2689 32.239 62.5404 33.1033 59.6913 33.0959C56.7982 33.1033 55.077 32.239 55.077 30.6936ZM56.6151 22.7249C56.6004 23.5745 57.7577 24.0212 59.6913 24.0139C61.6249 24.0212 62.7821 23.5745 62.7821 22.7249C62.7821 21.8826 61.6249 21.4358 59.6913 21.4358C57.7577 21.4358 56.6004 21.8826 56.6151 22.7249ZM56.7323 30.6936C56.725 31.448 57.765 31.8435 59.6913 31.8362C61.5882 31.8435 62.6356 31.448 62.6503 30.6936C62.6356 29.9172 61.5882 29.5217 59.6913 29.5217C57.765 29.5217 56.725 29.9172 56.7323 30.6936ZM76.7698 19.8684V29.8879H75.1292V28.7307H72.5364V27.5881H75.1292V19.8684H76.7698ZM65.6077 25.8157C68.0467 25.801 71.3353 25.7791 74.1478 25.4202L74.2357 26.592C73.1444 26.7751 72.0164 26.8923 70.8958 26.9729V29.5217H69.2698V27.0608C68.032 27.1121 66.8528 27.1194 65.8128 27.1194L65.6077 25.8157ZM66.6185 22.6956C66.6185 21.2966 67.9661 20.3445 69.929 20.3518C71.8553 20.3445 73.2103 21.2966 73.2249 22.6956C73.2103 24.1165 71.8553 25.0173 69.929 25.0247C67.9661 25.0173 66.6185 24.1165 66.6185 22.6956ZM67.3655 32.8323V28.9211H68.9915V31.5139H77.0775V32.8323H67.3655ZM68.1566 22.6956C68.1566 23.4133 68.867 23.8308 69.929 23.8381C70.9398 23.8308 71.6649 23.4133 71.6722 22.6956C71.6649 21.9778 70.9398 21.5457 69.929 21.553C68.867 21.5457 68.1566 21.9778 68.1566 22.6956ZM85.0593 21.2307V22.1682C85.0593 23.3474 85.0593 25.0173 84.6931 27.2952L83.0818 27.1633C83.4041 25.1565 83.4407 23.6697 83.448 22.5344H78.2478V21.2307H85.0593ZM77.5447 29.009C78.3284 29.0017 79.2 28.9944 80.1082 28.9724V25.01H81.7195V28.9211C83.0672 28.8625 84.4514 28.7673 85.7185 28.6135L85.8064 29.8293C83.0745 30.2761 80.0423 30.3274 77.7058 30.3127L77.5447 29.009ZM86.407 33.0959V19.8538H88.0476V25.2444H89.9666V26.6213H88.0476V33.0959H86.407ZM102.693 19.8538V22.8713H104.539V24.2043H102.693V27.2952H101.067V19.8538H102.693ZM92.1462 26.2405C95.215 25.4568 96.9582 23.8894 97.2438 21.9778H92.7761V20.6594H99.0163C99.009 24.1018 96.7531 26.4822 92.7907 27.5442L92.1462 26.2405ZM94.1237 32.9202V27.8225H102.693V32.9202H94.1237ZM95.7497 31.6311H101.082V29.1555H95.7497V31.6311ZM108.976 23.0325C108.961 25.3982 110.148 27.7859 112.198 28.7747L111.202 30.0784C109.767 29.3533 108.734 27.9543 108.17 26.2698C107.591 28.0715 106.507 29.5657 104.991 30.3274L103.995 29.0237C106.127 28.0129 107.342 25.4788 107.35 23.0325V20.9231H108.976V23.0325ZM112.989 33.0959V19.8538H114.615V25.0393H116.652V26.4309H114.615V33.0959H112.989Z" fill="#1F1F1F"/>
</g>
</g>
<mask id="mask3_1836_10878" style="mask-type:alpha" maskUnits="userSpaceOnUse" x="119" y="-21" width="224" height="195">
<path d="M119.875 172.601L201.883 -20H341.999V172.601H119.875Z" fill="#D9D9D9" stroke="black" stroke-width="0.937232"/>
</mask>
<g mask="url(#mask3_1836_10878)">
<mask id="mask4_1836_10878" style="mask-type:alpha" maskUnits="userSpaceOnUse" x="121" y="-2" width="224" height="147">
<rect x="121" y="-1.18921" width="224" height="145.272" fill="white"/>
</mask>
<g mask="url(#mask4_1836_10878)">
<mask id="mask5_1836_10878" style="mask-type:alpha" maskUnits="userSpaceOnUse" x="124" y="-1" width="221" height="145">
<rect x="124" y="-0.208252" width="220.973" height="143.309" fill="white"/>
</mask>
<g mask="url(#mask5_1836_10878)">
<rect x="124" y="-0.208252" width="220.973" height="143.309" fill="url(#paint2_linear_1836_10878)"/>
<path fill-rule="evenodd" clip-rule="evenodd" d="M202.243 77.0764C199.32 76.7839 197.729 78.323 196.939 81.4568C195.871 78.8731 194.396 77.2783 191.927 77.3758C190.795 77.4211 190.435 77.052 190.133 76.0248C189.187 72.8039 187.125 70.7286 183.789 70.363C180.157 69.9626 177.519 71.5051 175.925 74.9245C175.471 75.889 175.064 76.2372 173.975 76.0527C169.981 75.3702 166.874 77.9539 166.644 82.1602C166.593 83.0655 166.298 83.5077 165.606 83.9674C163.28 85.5099 162.53 87.3136 163.127 89.9948C163.324 90.8758 163.27 91.5582 162.761 92.3173C161.73 93.8564 161.703 95.4686 162.948 96.8997C163.524 97.5613 163.639 98.1602 163.385 98.975C162.792 100.883 163.49 102.387 165.006 103.463C165.765 104.003 166.064 104.491 165.915 105.493C165.345 109.313 167.393 112.44 171.015 113.492C171.143 113.528 171.29 113.558 171.438 113.588C171.84 113.669 172.257 113.753 172.378 113.99C173.327 115.832 174.385 117.489 176.423 118.241C176.567 118.295 176.61 118.674 176.649 119.013C176.66 119.114 176.671 119.212 176.685 119.296C177.183 122.479 178.875 124.558 182.008 125.167C183.185 125.397 183.575 125.982 183.785 127.166C184.45 130.926 187.407 133.419 191.161 133.489C192.164 133.51 192.86 133.778 193.562 134.589C195.128 136.404 197.478 136.327 199.116 134.492C199.659 133.883 200.174 133.5 201.008 133.5C203.379 133.507 204.999 132.215 205.505 129.944C205.734 128.917 206.44 128.463 207.13 128.021C207.674 127.672 208.208 127.329 208.489 126.717C208.95 125.71 209.723 125.24 210.727 124.881C212.572 124.223 213.63 122.771 214.04 120.811C214.393 119.136 217.36 116.643 219.015 116.612C223.185 116.528 226.18 113.304 225.925 109.049C225.871 108.143 226.075 107.67 226.821 107.203C228.272 106.298 229.049 104.905 228.703 103.15C228.472 101.99 228.869 101.451 229.764 100.848C231.388 99.7585 232.26 97.8816 231.504 96.1859C230.418 93.7519 229.605 91.3249 229.052 88.7204C229.009 88.5163 228.959 88.3244 228.91 88.1391C228.72 87.4168 228.556 86.7937 228.964 85.9347C231.036 81.5822 228.292 76.3521 223.572 75.9412C222.936 75.8857 222.295 75.9043 221.655 75.9229C220.132 75.9673 218.617 76.0113 217.194 75.0498C216.875 74.8374 216.203 75.0324 215.756 75.2065C214.901 75.5373 214.294 75.3563 213.565 74.7608C210.025 71.8742 206.007 72.4244 203.29 76.077C203.219 76.173 203.153 76.2842 203.086 76.397C202.876 76.7505 202.657 77.1186 202.243 77.0764ZM212.87 86.1735C212.982 86.0137 213.098 85.8498 213.219 85.6811V85.6781C213.667 86.0039 213.703 86.3297 213.739 86.6452C213.741 86.6625 213.743 86.6798 213.745 86.6971C214.053 89.3162 215.568 90.9071 217.902 91.7954C219.268 92.3155 220.352 94.9377 219.717 96.2792C219.322 97.1157 219.028 98.0343 219.348 98.8678C219.88 100.249 219.547 101.183 218.591 102.244C218.006 102.898 217.573 103.169 216.717 103.145C212.889 103.035 210.133 106.056 210.374 109.995C210.445 111.185 208.533 113.618 207.38 113.798C204.743 114.208 203.653 115.206 203.045 117.84C202.78 118.986 202.021 119.769 201.268 120.545C200.929 120.894 200.591 121.242 200.301 121.621C199.802 122.269 198.629 122.367 198.073 120.888C196.957 117.907 194.308 116.332 191.192 116.639C190.287 116.727 189.921 116.471 189.654 115.635C188.974 113.512 187.412 112.362 185.342 111.991C184.386 111.82 183.759 111.489 183.379 110.54C183.183 110.047 182.77 109.588 182.345 109.268C181.624 108.73 181.532 108.067 181.567 107.224C181.74 103.324 179.281 100.571 175.462 100.501C174.152 100.478 173.745 99.5811 173.347 98.7061C173.166 98.3073 172.988 97.9132 172.726 97.6085C172.242 97.0427 172.409 95.2936 173.861 94.7704C174.009 94.7187 174.205 94.6213 174.259 94.4905C175.033 92.6405 176.478 91.4661 177.922 90.2929C178.75 89.62 179.578 88.9475 180.278 88.1481C180.754 87.6066 180.991 87.3481 181.71 87.7161C183.812 88.793 185.939 88.7352 187.958 87.4819C188.686 87.0317 189.036 87.1747 189.547 87.8317C190.566 89.1489 191.95 89.7694 193.604 89.3649C194.308 89.1945 194.682 89.45 195.145 89.9398C197.081 91.9931 199.487 91.5733 200.678 89.0242C201.459 87.3511 202.486 87.0956 203.927 88.2241C206.519 90.2531 210.08 89.812 212.12 87.2021C212.376 86.8751 212.615 86.5349 212.87 86.1735Z" fill="#FFD4FE"/>
<path d="M196.939 81.4568L196.754 81.5332L196.985 82.0919L197.133 81.5057L196.939 81.4568ZM202.243 77.0764L202.263 76.8774L202.262 76.8774L202.243 77.0764ZM191.927 77.3758L191.919 77.176L191.919 77.176L191.927 77.3758ZM190.133 76.0248L189.941 76.0812L189.941 76.0812L190.133 76.0248ZM183.789 70.363L183.767 70.5618L183.767 70.5618L183.789 70.363ZM175.925 74.9245L176.106 75.0097L176.106 75.009L175.925 74.9245ZM173.975 76.0527L173.941 76.2498L173.942 76.2499L173.975 76.0527ZM166.644 82.1602L166.843 82.1714L166.843 82.1711L166.644 82.1602ZM165.606 83.9674L165.717 84.1341L165.717 84.134L165.606 83.9674ZM163.127 89.9948L162.932 90.0383L162.932 90.0384L163.127 89.9948ZM162.761 92.3173L162.595 92.206L162.595 92.206L162.761 92.3173ZM162.948 96.8997L162.797 97.031L162.797 97.0311L162.948 96.8997ZM163.385 98.975L163.194 98.9154L163.194 98.9156L163.385 98.975ZM165.006 103.463L165.122 103.3L165.122 103.3L165.006 103.463ZM165.915 105.493L166.113 105.523L166.113 105.523L165.915 105.493ZM171.015 113.492L170.959 113.684L170.96 113.684L171.015 113.492ZM171.438 113.588L171.399 113.784H171.399L171.438 113.588ZM172.378 113.99L172.2 114.081L172.2 114.081L172.378 113.99ZM176.423 118.241L176.493 118.054L176.493 118.054L176.423 118.241ZM176.649 119.013L176.45 119.036L176.649 119.013ZM176.685 119.296L176.487 119.327L176.487 119.327L176.685 119.296ZM182.008 125.167L182.047 124.971L182.047 124.971L182.008 125.167ZM183.785 127.166L183.982 127.131L183.982 127.131L183.785 127.166ZM191.161 133.489L191.165 133.289L191.164 133.289L191.161 133.489ZM193.562 134.589L193.713 134.459L193.713 134.459L193.562 134.589ZM199.116 134.492L199.265 134.625L199.265 134.625L199.116 134.492ZM201.008 133.5L201.009 133.3H201.008V133.5ZM205.505 129.944L205.31 129.901L205.31 129.901L205.505 129.944ZM207.13 128.021L207.238 128.189L207.13 128.021ZM208.489 126.717L208.671 126.8L208.671 126.8L208.489 126.717ZM210.727 124.881L210.66 124.693L210.66 124.693L210.727 124.881ZM214.04 120.811L213.844 120.77L213.844 120.77L214.04 120.811ZM219.015 116.612L219.018 116.812L219.019 116.812L219.015 116.612ZM225.925 109.049L226.125 109.037L226.125 109.037L225.925 109.049ZM226.821 107.203L226.715 107.033L226.715 107.034L226.821 107.203ZM228.703 103.15L228.899 103.111L228.899 103.111L228.703 103.15ZM229.764 100.848L229.653 100.682L229.652 100.682L229.764 100.848ZM231.504 96.1859L231.321 96.2673L231.321 96.2673L231.504 96.1859ZM229.052 88.7204L228.856 88.7615L228.856 88.7619L229.052 88.7204ZM228.91 88.1391L228.716 88.1899V88.1899L228.91 88.1391ZM228.964 85.9347L228.783 85.8488L228.783 85.849L228.964 85.9347ZM223.572 75.9412L223.555 76.1405L223.555 76.1405L223.572 75.9412ZM221.655 75.9229L221.661 76.1228L221.655 75.9229ZM217.194 75.0498L217.305 74.8841L217.304 74.8834L217.194 75.0498ZM215.756 75.2065L215.828 75.393L215.828 75.3929L215.756 75.2065ZM213.565 74.7608L213.692 74.6059L213.692 74.6058L213.565 74.7608ZM203.29 76.077L203.13 75.9577L203.13 75.9577L203.29 76.077ZM203.086 76.397L203.258 76.4992V76.4992L203.086 76.397ZM213.219 85.6811L213.381 85.7977L213.419 85.7454V85.6811H213.219ZM212.87 86.1735L213.033 86.2887L212.87 86.1735ZM213.219 85.6781L213.337 85.5164L213.019 85.2851V85.6781H213.219ZM213.739 86.6452L213.937 86.6229V86.6229L213.739 86.6452ZM213.745 86.6971L213.546 86.7202L213.546 86.7205L213.745 86.6971ZM217.902 91.7954L217.973 91.6085L217.973 91.6084L217.902 91.7954ZM219.717 96.2792L219.536 96.1935L219.536 96.1938L219.717 96.2792ZM219.348 98.8678L219.162 98.9397L219.162 98.9397L219.348 98.8678ZM218.591 102.244L218.443 102.111L218.442 102.111L218.591 102.244ZM216.717 103.145L216.712 103.345L216.712 103.345L216.717 103.145ZM210.374 109.995L210.574 109.983L210.574 109.983L210.374 109.995ZM207.38 113.798L207.411 113.995H207.411L207.38 113.798ZM203.045 117.84L202.85 117.795L202.85 117.795L203.045 117.84ZM201.268 120.545L201.124 120.406L201.268 120.545ZM200.301 121.621L200.459 121.743L200.459 121.743L200.301 121.621ZM198.073 120.888L197.886 120.958L197.886 120.959L198.073 120.888ZM191.192 116.639L191.212 116.838L191.212 116.838L191.192 116.639ZM189.654 115.635L189.844 115.574L189.844 115.574L189.654 115.635ZM185.342 111.991L185.377 111.794L185.377 111.794L185.342 111.991ZM183.379 110.54L183.193 110.614L183.193 110.614L183.379 110.54ZM182.345 109.268L182.466 109.108L182.465 109.108L182.345 109.268ZM181.567 107.224L181.368 107.215L181.368 107.216L181.567 107.224ZM175.462 100.501L175.465 100.301L175.465 100.301L175.462 100.501ZM173.347 98.7061L173.165 98.7887L173.347 98.7061ZM172.726 97.6085L172.574 97.7385L172.575 97.7386L172.726 97.6085ZM173.861 94.7704L173.795 94.5815L173.793 94.5822L173.861 94.7704ZM174.259 94.4905L174.074 94.4133L174.074 94.4148L174.259 94.4905ZM177.922 90.2929L177.796 90.1377L177.922 90.2929ZM180.278 88.1481L180.128 88.0162L180.128 88.0163L180.278 88.1481ZM181.71 87.7161L181.619 87.8942L181.71 87.7161ZM187.958 87.4819L187.853 87.3118L187.853 87.312L187.958 87.4819ZM189.547 87.8317L189.705 87.7094L189.705 87.709L189.547 87.8317ZM193.604 89.3649L193.557 89.1705L193.556 89.1706L193.604 89.3649ZM195.145 89.9398L195.291 89.8026L195.29 89.8024L195.145 89.9398ZM200.678 89.0242L200.859 89.1088L200.859 89.1088L200.678 89.0242ZM203.927 88.2241L203.803 88.3816L203.803 88.3817L203.927 88.2241ZM212.12 87.2021L212.278 87.3252L212.278 87.3252L212.12 87.2021ZM197.133 81.5057C197.523 79.958 198.104 78.8353 198.921 78.1335C199.732 77.4372 200.802 77.1332 202.223 77.2754L202.262 76.8774C200.76 76.7271 199.573 77.0463 198.661 77.83C197.755 78.608 197.145 79.8217 196.745 81.4079L197.133 81.5057ZM191.935 77.5757C193.119 77.5289 194.055 77.8861 194.827 78.5614C195.605 79.2421 196.226 80.2549 196.754 81.5332L197.124 81.3804C196.584 80.075 195.934 78.9986 195.09 78.2604C194.24 77.5168 193.204 77.1253 191.919 77.176L191.935 77.5757ZM189.941 76.0812C190.094 76.6007 190.273 77.0027 190.594 77.2588C190.919 77.5187 191.352 77.599 191.935 77.5757L191.919 77.176C191.37 77.198 191.056 77.1163 190.843 76.9462C190.626 76.7723 190.474 76.4761 190.325 75.9684L189.941 76.0812ZM183.767 70.5618C185.397 70.7404 186.706 71.3347 187.722 72.2703C188.74 73.2074 189.476 74.4968 189.941 76.0812L190.325 75.9684C189.844 74.3319 189.076 72.9732 187.993 71.976C186.908 70.9773 185.517 70.3512 183.81 70.1642L183.767 70.5618ZM176.106 75.009C176.89 73.3272 177.923 72.1222 179.193 71.3842C180.462 70.6467 181.985 70.3653 183.767 70.5618L183.811 70.1642C181.961 69.9602 180.349 70.2499 178.992 71.0384C177.636 71.8264 176.554 73.1023 175.744 74.84L176.106 75.009ZM173.942 76.2499C174.507 76.3457 174.939 76.3112 175.294 76.089C175.641 75.8717 175.876 75.4967 176.106 75.0097L175.744 74.8392C175.519 75.3168 175.324 75.5982 175.082 75.75C174.847 75.8969 174.532 75.9441 174.009 75.8555L173.942 76.2499ZM166.843 82.1711C166.956 80.1154 167.77 78.4728 169.026 77.4268C170.281 76.3815 171.996 75.9174 173.941 76.2498L174.009 75.8555C171.96 75.5054 170.124 75.9919 168.77 77.1194C167.417 78.2463 166.562 79.9987 166.444 82.1492L166.843 82.1711ZM165.717 84.134C166.076 83.8955 166.349 83.6501 166.537 83.3329C166.726 83.0151 166.817 82.6437 166.843 82.1714L166.444 82.149C166.42 82.582 166.338 82.8844 166.193 83.129C166.048 83.3741 165.828 83.5796 165.495 83.8008L165.717 84.134ZM163.323 89.9513C163.03 88.6372 163.072 87.5602 163.455 86.6303C163.839 85.6998 164.575 84.8913 165.717 84.1341L165.496 83.8007C164.311 84.586 163.509 85.4506 163.086 86.4779C162.662 87.5057 162.628 88.6712 162.932 90.0383L163.323 89.9513ZM162.927 92.4287C163.196 92.0274 163.349 91.6389 163.407 91.2295C163.464 90.8221 163.424 90.4057 163.322 89.9512L162.932 90.0384C163.027 90.4649 163.059 90.8302 163.011 91.1741C162.963 91.5159 162.835 91.8481 162.595 92.206L162.927 92.4287ZM163.098 96.7685C162.502 96.0829 162.22 95.3654 162.201 94.6439C162.182 93.9202 162.429 93.1724 162.927 92.4286L162.595 92.206C162.062 93.0013 161.78 93.8292 161.801 94.6541C161.822 95.4812 162.148 96.2854 162.797 97.031L163.098 96.7685ZM163.576 99.0346C163.71 98.6057 163.752 98.2165 163.674 97.8394C163.596 97.4622 163.402 97.1168 163.098 96.7683L162.797 97.0311C163.07 97.3442 163.222 97.6291 163.282 97.9204C163.342 98.2118 163.315 98.5296 163.194 98.9154L163.576 99.0346ZM165.122 103.3C164.387 102.779 163.863 102.163 163.591 101.459C163.319 100.757 163.291 99.9511 163.576 99.0344L163.194 98.9156C162.886 99.9071 162.91 100.807 163.218 101.603C163.525 102.398 164.109 103.072 164.89 103.626L165.122 103.3ZM166.113 105.523C166.191 104.998 166.155 104.581 165.981 104.218C165.809 103.858 165.512 103.578 165.122 103.3L164.89 103.626C165.259 103.889 165.492 104.122 165.621 104.391C165.749 104.658 165.788 104.986 165.717 105.464L166.113 105.523ZM171.071 113.3C167.545 112.276 165.558 109.243 166.113 105.523L165.717 105.464C165.132 109.383 167.242 112.604 170.959 113.684L171.071 113.3ZM171.478 113.392C171.327 113.362 171.189 113.334 171.07 113.299L170.96 113.684C171.097 113.723 171.252 113.754 171.399 113.784L171.478 113.392ZM172.556 113.898C172.458 113.708 172.259 113.606 172.081 113.542C171.895 113.476 171.675 113.432 171.478 113.392L171.399 113.784C171.603 113.825 171.792 113.864 171.946 113.919C172.106 113.976 172.176 114.035 172.2 114.081L172.556 113.898ZM176.493 118.054C174.531 117.33 173.503 115.735 172.556 113.898L172.2 114.081C173.152 115.928 174.24 117.648 176.354 118.429L176.493 118.054ZM176.848 118.991C176.829 118.824 176.807 118.632 176.77 118.475C176.752 118.396 176.727 118.315 176.692 118.245C176.658 118.18 176.598 118.093 176.493 118.054L176.353 118.429C176.32 118.416 176.32 118.397 176.336 118.428C176.35 118.455 176.366 118.5 176.381 118.565C176.411 118.696 176.43 118.863 176.45 119.036L176.848 118.991ZM176.882 119.265C176.87 119.186 176.859 119.093 176.848 118.991L176.45 119.036C176.461 119.136 176.473 119.238 176.487 119.327L176.882 119.265ZM182.047 124.971C180.517 124.673 179.352 124.02 178.508 123.064C177.663 122.106 177.127 120.83 176.882 119.265L176.487 119.327C176.74 120.945 177.3 122.3 178.208 123.329C179.119 124.36 180.366 125.051 181.97 125.363L182.047 124.971ZM183.982 127.131C183.875 126.528 183.718 126.044 183.413 125.68C183.103 125.311 182.663 125.091 182.047 124.971L181.97 125.363C182.531 125.473 182.874 125.661 183.106 125.937C183.343 126.219 183.485 126.619 183.588 127.201L183.982 127.131ZM191.164 133.289C187.506 133.221 184.63 130.797 183.982 127.131L183.588 127.201C184.27 131.056 187.308 133.618 191.157 133.689L191.164 133.289ZM193.713 134.459C193.347 134.036 192.975 133.745 192.555 133.56C192.136 133.375 191.683 133.3 191.165 133.289L191.157 133.689C191.642 133.699 192.038 133.769 192.393 133.926C192.748 134.082 193.074 134.332 193.41 134.72L193.713 134.459ZM198.967 134.359C198.179 135.242 197.232 135.689 196.308 135.709C195.385 135.729 194.461 135.326 193.713 134.459L193.41 134.72C194.228 135.668 195.263 136.132 196.317 136.109C197.369 136.086 198.416 135.577 199.265 134.625L198.967 134.359ZM201.008 133.3C200.092 133.3 199.526 133.73 198.967 134.359L199.265 134.625C199.791 134.035 200.256 133.7 201.008 133.7V133.3ZM205.31 129.901C205.065 130.999 204.555 131.846 203.832 132.419C203.108 132.992 202.157 133.303 201.009 133.3L201.008 133.7C202.23 133.703 203.274 133.371 204.08 132.733C204.886 132.094 205.439 131.16 205.7 129.988L205.31 129.901ZM207.022 127.852C206.336 128.293 205.559 128.785 205.31 129.901L205.7 129.988C205.91 129.049 206.545 128.634 207.238 128.189L207.022 127.852ZM208.307 126.633C208.054 127.184 207.574 127.498 207.022 127.852L207.238 128.189C207.774 127.845 208.361 127.474 208.671 126.8L208.307 126.633ZM210.66 124.693C209.632 125.06 208.8 125.557 208.307 126.633L208.671 126.8C209.1 125.863 209.815 125.42 210.794 125.07L210.66 124.693ZM213.844 120.77C213.445 122.677 212.426 124.063 210.66 124.693L210.794 125.07C212.718 124.384 213.814 122.866 214.236 120.852L213.844 120.77ZM219.011 116.412C218.553 116.42 218.026 116.597 217.498 116.867C216.965 117.14 216.416 117.516 215.91 117.942C215.404 118.368 214.938 118.849 214.573 119.332C214.211 119.813 213.941 120.31 213.844 120.77L214.236 120.852C214.315 120.474 214.548 120.032 214.893 119.573C215.236 119.117 215.681 118.658 216.168 118.248C216.655 117.838 217.179 117.48 217.68 117.223C218.184 116.965 218.648 116.819 219.018 116.812L219.011 116.412ZM225.726 109.061C225.973 113.203 223.067 116.33 219.01 116.412L219.019 116.812C223.304 116.726 226.386 113.404 226.125 109.037L225.726 109.061ZM226.715 107.034C226.323 107.278 226.052 107.539 225.892 107.876C225.734 108.21 225.698 108.594 225.726 109.061L226.125 109.037C226.099 108.598 226.137 108.293 226.254 108.047C226.369 107.804 226.572 107.594 226.927 107.373L226.715 107.034ZM228.506 103.189C228.833 104.848 228.108 106.164 226.715 107.033L226.926 107.373C228.436 106.431 229.264 104.962 228.899 103.111L228.506 103.189ZM229.652 100.682C229.197 100.989 228.839 101.297 228.633 101.699C228.424 102.107 228.386 102.581 228.506 103.189L228.899 103.111C228.789 102.559 228.834 102.184 228.989 101.882C229.148 101.573 229.435 101.31 229.876 101.014L229.652 100.682ZM231.321 96.2673C232.024 97.8444 231.227 99.6261 229.653 100.682L229.875 101.014C231.55 99.8908 232.495 97.9189 231.686 96.1044L231.321 96.2673ZM228.856 88.7619C229.412 91.3814 230.231 93.8217 231.321 96.2673L231.686 96.1045C230.606 93.6822 229.797 91.2685 229.248 88.6789L228.856 88.7619ZM228.716 88.1899C228.765 88.3758 228.814 88.5631 228.856 88.7615L229.248 88.6792C229.204 88.4695 229.152 88.273 229.103 88.0882L228.716 88.1899ZM228.783 85.849C228.342 86.7782 228.526 87.4646 228.716 88.1899L229.103 88.0882C228.914 87.3689 228.77 86.8092 229.144 86.0204L228.783 85.849ZM223.555 76.1405C228.123 76.5381 230.801 81.6098 228.783 85.8488L229.144 86.0207C231.27 81.5545 228.462 76.1661 223.589 75.742L223.555 76.1405ZM221.661 76.1228C222.302 76.1042 222.932 76.0861 223.555 76.1405L223.589 75.742C222.939 75.6852 222.287 75.7045 221.649 75.723L221.661 76.1228ZM217.082 75.2156C218.566 76.218 220.145 76.167 221.661 76.1228L221.649 75.723C220.118 75.7676 218.668 75.8046 217.305 74.8841L217.082 75.2156ZM215.828 75.3929C216.046 75.3082 216.311 75.2213 216.556 75.1805C216.814 75.1375 216.992 75.1559 217.083 75.2163L217.304 74.8834C217.076 74.7314 216.76 74.741 216.49 74.786C216.207 74.8331 215.913 74.9308 215.683 75.0201L215.828 75.3929ZM213.439 74.9157C213.815 75.223 214.177 75.4382 214.57 75.5262C214.966 75.6151 215.373 75.5693 215.828 75.393L215.684 75.02C215.284 75.1746 214.96 75.2037 214.657 75.1358C214.35 75.0671 214.044 74.8941 213.692 74.6059L213.439 74.9157ZM203.451 76.1964C204.784 74.4043 206.422 73.3899 208.145 73.165C209.867 72.9402 211.703 73.5003 213.439 74.9158L213.692 74.6058C211.887 73.1347 209.944 72.5266 208.093 72.7684C206.242 73.0101 204.513 74.0971 203.13 75.9577L203.451 76.1964ZM203.258 76.4992C203.326 76.3845 203.387 76.2825 203.451 76.1963L203.13 75.9577C203.051 76.0635 202.98 76.184 202.914 76.2947L203.258 76.4992ZM202.222 77.2754C202.504 77.3041 202.718 77.1881 202.881 77.0275C203.036 76.875 203.156 76.6703 203.258 76.4992L202.914 76.2947C202.805 76.4772 202.711 76.6333 202.6 76.7427C202.497 76.8439 202.395 76.8909 202.263 76.8774L202.222 77.2754ZM213.056 85.5645C212.935 85.7341 212.819 85.8986 212.706 86.0583L213.033 86.2887C213.146 86.1288 213.261 85.9656 213.381 85.7977L213.056 85.5645ZM213.019 85.6781V85.6811H213.419V85.6781H213.019ZM213.937 86.6229C213.92 86.4683 213.9 86.2792 213.817 86.0865C213.732 85.8882 213.586 85.6979 213.337 85.5164L213.101 85.8398C213.299 85.984 213.396 86.1196 213.45 86.2446C213.506 86.3751 213.522 86.5067 213.54 86.6676L213.937 86.6229ZM213.943 86.674C213.941 86.6572 213.939 86.6403 213.937 86.6229L213.54 86.6676C213.542 86.6848 213.544 86.7025 213.546 86.7202L213.943 86.674ZM217.973 91.6084C216.83 91.1732 215.899 90.5704 215.216 89.766C214.535 88.9629 214.094 87.9483 213.943 86.6737L213.546 86.7205C213.704 88.065 214.174 89.1554 214.911 90.0247C215.647 90.8925 216.641 91.5293 217.831 91.9823L217.973 91.6084ZM219.897 96.3648C220.251 95.6194 220.116 94.5628 219.745 93.6537C219.374 92.7446 218.733 91.8975 217.973 91.6085L217.831 91.9823C218.438 92.2134 219.021 92.9374 219.375 93.8048C219.729 94.6722 219.818 95.5975 219.536 96.1935L219.897 96.3648ZM219.535 98.796C219.247 98.0468 219.504 97.1976 219.898 96.3645L219.536 96.1938C219.139 97.0337 218.809 98.0219 219.162 98.9397L219.535 98.796ZM218.74 102.378C219.228 101.836 219.574 101.309 219.722 100.725C219.87 100.137 219.812 99.5152 219.535 98.796L219.162 98.9397C219.417 99.6015 219.458 100.137 219.334 100.627C219.209 101.121 218.911 101.591 218.443 102.111L218.74 102.378ZM216.712 103.345C217.163 103.358 217.52 103.293 217.846 103.127C218.168 102.964 218.442 102.711 218.74 102.378L218.442 102.111C218.155 102.432 217.92 102.641 217.665 102.771C217.414 102.898 217.127 102.956 216.723 102.945L216.712 103.345ZM210.574 109.983C210.34 106.151 213.011 103.239 216.712 103.345L216.723 102.945C212.768 102.832 209.927 105.961 210.174 110.007L210.574 109.983ZM207.411 113.995C207.751 113.942 208.119 113.731 208.469 113.451C208.824 113.168 209.179 112.798 209.493 112.399C209.807 111.999 210.084 111.565 210.279 111.151C210.472 110.742 210.594 110.33 210.574 109.983L210.174 110.007C210.189 110.255 210.099 110.594 209.917 110.981C209.738 111.363 209.478 111.771 209.179 112.151C208.88 112.532 208.545 112.878 208.219 113.139C207.889 113.403 207.586 113.563 207.35 113.6L207.411 113.995ZM203.239 117.885C203.54 116.585 203.952 115.722 204.588 115.132C205.224 114.541 206.11 114.198 207.411 113.995L207.35 113.6C206.014 113.808 205.036 114.169 204.316 114.839C203.595 115.508 203.158 116.461 202.85 117.795L203.239 117.885ZM201.411 120.685C202.159 119.914 202.961 119.094 203.239 117.885L202.85 117.795C202.6 118.879 201.883 119.624 201.124 120.406L201.411 120.685ZM200.459 121.743C200.742 121.375 201.071 121.035 201.411 120.685L201.124 120.406C200.787 120.754 200.441 121.11 200.142 121.5L200.459 121.743ZM197.886 120.959C198.18 121.743 198.658 122.153 199.171 122.249C199.677 122.343 200.168 122.121 200.459 121.743L200.142 121.499C199.934 121.77 199.589 121.92 199.245 121.856C198.908 121.793 198.521 121.512 198.26 120.818L197.886 120.959ZM191.212 116.838C194.24 116.539 196.802 118.065 197.886 120.958L198.26 120.818C197.111 117.75 194.375 116.124 191.173 116.44L191.212 116.838ZM189.463 115.696C189.601 116.128 189.778 116.455 190.073 116.65C190.369 116.846 190.744 116.883 191.212 116.838L191.173 116.44C190.735 116.482 190.474 116.436 190.294 116.317C190.114 116.198 189.974 115.979 189.844 115.574L189.463 115.696ZM185.307 112.188C187.315 112.548 188.809 113.653 189.463 115.696L189.844 115.574C189.139 113.37 187.509 112.176 185.377 111.794L185.307 112.188ZM183.193 110.614C183.395 111.119 183.669 111.473 184.031 111.722C184.388 111.968 184.816 112.1 185.307 112.188L185.377 111.794C184.911 111.711 184.548 111.592 184.258 111.392C183.972 111.196 183.743 110.91 183.565 110.465L183.193 110.614ZM182.225 109.428C182.631 109.733 183.015 110.165 183.193 110.614L183.565 110.466C183.351 109.928 182.909 109.442 182.466 109.108L182.225 109.428ZM181.368 107.216C181.349 107.643 181.362 108.048 181.482 108.421C181.604 108.801 181.833 109.136 182.226 109.428L182.465 109.108C182.136 108.862 181.958 108.596 181.863 108.299C181.765 107.995 181.75 107.648 181.767 107.232L181.368 107.216ZM175.458 100.701C177.318 100.735 178.833 101.422 179.863 102.561C180.893 103.7 181.452 105.31 181.368 107.215L181.767 107.233C181.855 105.238 181.271 103.521 180.16 102.292C179.048 101.063 177.424 100.337 175.465 100.301L175.458 100.701ZM173.165 98.7887C173.361 99.2198 173.575 99.695 173.916 100.06C174.269 100.436 174.75 100.689 175.458 100.701L175.465 100.301C174.864 100.291 174.486 100.083 174.208 99.7865C173.92 99.4783 173.731 99.0674 173.53 98.6234L173.165 98.7887ZM172.575 97.7386C172.814 98.0177 172.982 98.3839 173.165 98.7887L173.53 98.6234C173.351 98.2308 173.161 97.8086 172.878 97.4783L172.575 97.7386ZM173.793 94.5822C172.996 94.8695 172.552 95.4953 172.375 96.1189C172.287 96.4299 172.264 96.7444 172.297 97.0234C172.329 97.2991 172.419 97.557 172.574 97.7385L172.878 97.4785C172.792 97.377 172.721 97.2042 172.694 96.9764C172.667 96.7519 172.686 96.4904 172.76 96.228C172.908 95.7048 173.274 95.1944 173.929 94.9585L173.793 94.5822ZM174.074 94.4148C174.071 94.4225 174.051 94.4515 173.988 94.4913C173.931 94.5276 173.86 94.5588 173.795 94.5815L173.927 94.9592C174.01 94.9302 174.111 94.8869 174.203 94.8289C174.289 94.7743 174.394 94.6894 174.444 94.5662L174.074 94.4148ZM177.796 90.1377C176.357 91.3065 174.87 92.51 174.074 94.4133L174.443 94.5677C175.195 92.7709 176.599 91.6257 178.048 90.4481L177.796 90.1377ZM180.128 88.0163C179.441 88.8008 178.627 89.4629 177.796 90.1377L178.048 90.4481C178.874 89.7771 179.716 89.0942 180.429 88.2799L180.128 88.0163ZM181.801 87.5381C181.42 87.3429 181.114 87.2872 180.826 87.4062C180.691 87.4624 180.573 87.5519 180.464 87.6549C180.356 87.7572 180.246 87.8824 180.128 88.0162L180.429 88.28C180.549 88.143 180.647 88.0329 180.739 87.9459C180.83 87.8596 180.906 87.806 180.979 87.7759C181.109 87.7223 181.281 87.7213 181.619 87.8942L181.801 87.5381ZM187.853 87.312C185.895 88.5273 183.843 88.5839 181.801 87.5381L181.619 87.8942C183.782 89.0021 185.983 88.9431 188.064 87.6519L187.853 87.312ZM189.705 87.709C189.448 87.3784 189.197 87.1274 188.883 87.0478C188.56 86.9656 188.23 87.0785 187.853 87.3118L188.063 87.652C188.414 87.4351 188.623 87.3944 188.785 87.4354C188.956 87.479 189.135 87.6281 189.389 87.9545L189.705 87.709ZM193.556 89.1706C191.991 89.5534 190.684 88.9746 189.705 87.7094L189.389 87.9541C190.448 89.3232 191.908 89.9855 193.651 89.5591L193.556 89.1706ZM195.29 89.8024C195.055 89.5541 194.823 89.3421 194.544 89.2213C194.257 89.0968 193.942 89.0773 193.557 89.1705L193.651 89.5593C193.97 89.4821 194.193 89.5052 194.385 89.5883C194.585 89.6751 194.771 89.8358 195 90.0772L195.29 89.8024ZM200.496 88.9395C199.92 90.1726 199.068 90.8576 198.158 91.0107C197.249 91.1636 196.226 90.7949 195.291 89.8026L195 90.077C196 91.1379 197.149 91.586 198.224 91.4051C199.299 91.2244 200.244 90.4249 200.859 89.1088L200.496 88.9395ZM204.05 88.0667C203.314 87.4902 202.632 87.225 202.007 87.3794C201.383 87.5335 200.895 88.086 200.496 88.9396L200.859 89.1088C201.241 88.2893 201.658 87.8775 202.103 87.7677C202.546 87.6582 203.099 87.8296 203.803 88.3816L204.05 88.0667ZM211.963 87.0789C209.99 89.6025 206.555 90.027 204.05 88.0666L203.803 88.3817C206.484 90.4792 210.17 90.0216 212.278 87.3252L211.963 87.0789ZM212.706 86.0583C212.451 86.4205 212.214 86.7565 211.962 87.079L212.278 87.3252C212.537 86.9936 212.779 86.6494 213.033 86.2887L212.706 86.0583Z" fill="black"/>
<path fill-rule="evenodd" clip-rule="evenodd" d="M341.774 51.5666C340.253 55.4867 337.859 58.8947 334.998 62.0068L334.991 62.0137C334.793 62.23 334.601 62.4533 334.408 62.6768C333.991 63.1605 333.573 63.6451 333.1 64.0612C329.531 67.204 325.88 70.2996 321.149 69.8867C319.717 69.7619 318.816 70.1491 317.683 71.1859C314.377 74.2132 311.021 77.2504 306.545 77.7505C303.579 78.0811 301.62 76.3608 301.486 73.3636C301.397 71.3548 301.834 69.3616 302.542 67.4225C303.004 66.1585 302.926 65.5394 301.649 65.2277C299.59 64.7242 298.824 63.0217 298.736 60.9296C298.646 58.7909 299.15 56.6671 300.019 54.5792C302.518 48.5792 306.542 43.7592 311.513 39.6838C312.403 38.9553 312.889 38.1488 313.242 37.0651C316.099 28.3095 321.653 21.7593 329.572 17.2839C331.527 16.1776 333.677 15.7197 335.574 16.6304C336.789 17.2126 337.517 16.8912 338.567 15.8972C341.489 13.1347 344.516 10.5186 348.338 9.33565C352.539 8.03315 355.324 10.1621 355.125 14.5274C355.038 16.4188 354.511 18.2467 353.774 19.9968C353.717 20.1328 353.66 20.2658 353.604 20.3954C352.975 21.8509 352.525 22.8912 354.736 23.2876C356.046 23.5215 356.786 24.9532 356.975 26.5018C357.223 28.5602 356.895 30.6131 356.123 32.646C353.677 39.0725 349.76 44.4172 344.225 48.5634C343.159 49.3612 342.277 50.2712 341.774 51.5666ZM333.084 44.9359C332.077 46.8784 330.698 48.6719 329.152 50.3623L329.161 50.3523C329.052 50.4725 328.944 50.5951 328.837 50.7173C328.608 50.9781 328.38 51.2374 328.134 51.4692C326.254 53.2398 324.353 54.9908 322.243 55.2172C321.603 55.2903 321.16 55.5525 320.564 56.1277C318.817 57.8156 317.038 59.5307 314.977 60.1492C313.602 60.5671 312.868 59.936 313.054 58.5632C313.174 57.6447 313.543 56.6779 314.023 55.7221C314.344 55.0927 314.355 54.816 313.805 54.7839C312.917 54.7322 312.708 54.0137 312.843 53.0516C312.981 52.0729 313.386 51.0453 313.952 50.0012C315.59 46.9998 317.803 44.4197 320.396 42.0916C320.85 41.6859 321.144 41.2602 321.391 40.7322C323.409 36.4307 326.469 32.904 330.421 30.1417C331.399 29.4554 332.414 29.0549 333.194 29.3087C333.697 29.4683 334.055 29.2578 334.613 28.7034C336.162 27.1695 337.75 25.6914 339.576 24.8079C341.577 23.8442 342.66 24.5815 342.209 26.6192C342.012 27.5026 341.624 28.3932 341.142 29.2691C341.105 29.336 341.068 29.4015 341.032 29.4654C340.62 30.2021 340.329 30.7219 341.302 30.7081C341.873 30.703 342.09 31.2948 342.044 31.9985C341.992 32.9256 341.676 33.9047 341.153 34.9146C339.511 38.1026 337.292 40.926 334.442 43.3326C333.89 43.7969 333.423 44.2861 333.084 44.9359Z" fill="#FFDBDB"/>
<path d="M334.998 62.0068L334.877 61.8902L334.877 61.8899L334.998 62.0068ZM341.774 51.5666L341.62 51.5034L341.62 51.5034L341.774 51.5666ZM334.408 62.6768L334.284 62.5639L334.408 62.6768ZM333.1 64.0612L332.992 63.932L332.992 63.9319L333.1 64.0612ZM321.149 69.8867L321.163 69.7171L321.163 69.7171L321.149 69.8867ZM317.683 71.1859L317.572 71.0588L317.572 71.0588L317.683 71.1859ZM306.545 77.7505L306.564 77.9197L306.564 77.9197L306.545 77.7505ZM301.486 73.3636L301.32 73.3711L301.32 73.371L301.486 73.3636ZM302.542 67.4225L302.697 67.4825L302.697 67.4825L302.542 67.4225ZM301.649 65.2277L301.611 65.3933L301.611 65.3933L301.649 65.2277ZM298.736 60.9296L298.571 60.9367L298.571 60.9367L298.736 60.9296ZM300.019 54.5792L299.866 54.5121L299.867 54.512L300.019 54.5792ZM311.513 39.6838L311.41 39.5507L311.41 39.5507L311.513 39.6838ZM313.242 37.0651L313.085 37.0109L313.085 37.0108L313.242 37.0651ZM329.572 17.2839L329.653 17.433L329.652 17.4331L329.572 17.2839ZM335.574 16.6304L335.505 16.7846L335.504 16.7846L335.574 16.6304ZM338.567 15.8972L338.454 15.772L338.455 15.7719L338.567 15.8972ZM348.338 9.33565L348.386 9.4986L348.386 9.49863L348.338 9.33565ZM355.125 14.5274L354.959 14.5192L354.959 14.5192L355.125 14.5274ZM353.774 19.9968L353.622 19.9292L353.622 19.929L353.774 19.9968ZM353.604 20.3954L353.452 20.3261L353.452 20.3261L353.604 20.3954ZM354.736 23.2876L354.708 23.4553L354.708 23.4553L354.736 23.2876ZM356.975 26.5018L357.14 26.4809L357.14 26.4812L356.975 26.5018ZM356.123 32.646L356.277 32.708L356.277 32.7082L356.123 32.646ZM344.225 48.5634L344.323 48.701L344.323 48.701L344.225 48.5634ZM333.084 44.9359L332.937 44.8558L332.938 44.8553L333.084 44.9359ZM328.837 50.7173L328.714 50.6032L328.837 50.7173ZM328.134 51.4692L328.022 51.3437L328.022 51.3436L328.134 51.4692ZM322.243 55.2172L322.224 55.0481L322.225 55.0479L322.243 55.2172ZM320.564 56.1277L320.45 56.0036L320.45 56.0035L320.564 56.1277ZM314.977 60.1492L314.929 59.986L314.93 59.9858L314.977 60.1492ZM313.054 58.5632L313.218 58.5862L313.218 58.5869L313.054 58.5632ZM314.023 55.7221L313.875 55.644L313.876 55.6429L314.023 55.7221ZM313.805 54.7839L313.814 54.614L313.814 54.614L313.805 54.7839ZM312.843 53.0516L312.679 53.0271L312.679 53.027L312.843 53.0516ZM313.952 50.0012L313.808 49.9181L313.808 49.9178L313.952 50.0012ZM320.396 42.0916L320.287 41.9634L320.288 41.9632L320.396 42.0916ZM321.391 40.7322L321.242 40.6582L321.242 40.6581L321.391 40.7322ZM330.421 30.1417L330.515 30.2822L330.514 30.2824L330.421 30.1417ZM333.194 29.3087L333.145 29.4714L333.144 29.471L333.194 29.3087ZM334.613 28.7034L334.498 28.581L334.498 28.5808L334.613 28.7034ZM339.576 24.8079L339.505 24.6539L339.505 24.6538L339.576 24.8079ZM342.209 26.6192L342.371 26.6571L342.371 26.6574L342.209 26.6192ZM341.142 29.2691L340.997 29.1852L340.997 29.1851L341.142 29.2691ZM341.032 29.4654L340.889 29.3804L340.889 29.3804L341.032 29.4654ZM341.302 30.7081L341.3 30.5379L341.301 30.5379L341.302 30.7081ZM342.044 31.9985L341.879 31.9884L341.879 31.987L342.044 31.9985ZM341.153 34.9146L341.007 34.8348L341.007 34.8346L341.153 34.9146ZM334.442 43.3326L334.547 43.4642L334.547 43.4644L334.442 43.3326ZM334.877 61.8899C337.729 58.788 340.109 55.3978 341.62 51.5034L341.928 51.6298C340.397 55.5756 337.989 59.0013 335.118 62.1238L334.877 61.8899ZM334.87 61.8971L334.877 61.8902L335.118 62.1234L335.112 62.1303L334.87 61.8971ZM334.284 62.5639C334.476 62.3407 334.671 62.1155 334.87 61.8971L335.112 62.1303C334.916 62.3446 334.725 62.566 334.532 62.7898L334.284 62.5639ZM332.992 63.9319C333.455 63.5246 333.865 63.0491 334.284 62.5639L334.532 62.7898C334.116 63.272 333.691 63.7655 333.208 64.1906L332.992 63.9319ZM321.163 69.7171C325.814 70.1231 329.413 67.0836 332.992 63.932L333.208 64.1905C329.649 67.3245 325.947 70.4762 321.135 70.0563L321.163 69.7171ZM317.572 71.0588C318.147 70.5331 318.673 70.1624 319.245 69.9414C319.82 69.7197 320.428 69.6531 321.163 69.7171L321.135 70.0563C320.438 69.9955 319.88 70.0601 319.363 70.2601C318.843 70.4607 318.352 70.802 317.793 71.3131L317.572 71.0588ZM306.527 77.5813C310.942 77.088 314.259 74.0928 317.572 71.0588L317.793 71.3131C314.495 74.3335 311.101 77.4128 306.564 77.9197L306.527 77.5813ZM301.652 73.356C301.717 74.8178 302.226 75.9486 303.06 76.6752C303.896 77.402 305.078 77.7428 306.527 77.5813L306.564 77.9197C305.046 78.0889 303.766 77.7348 302.846 76.9348C301.927 76.1345 301.389 74.9065 301.32 73.3711L301.652 73.356ZM302.697 67.4825C301.994 69.4081 301.564 71.3776 301.652 73.3561L301.32 73.371C301.23 71.332 301.674 69.3151 302.387 67.3625L302.697 67.4825ZM301.687 65.0621C302.339 65.2212 302.753 65.4738 302.904 65.9114C302.977 66.1234 302.981 66.3603 302.94 66.6174C302.9 66.8744 302.814 67.1622 302.697 67.4825L302.387 67.3625C302.501 67.0508 302.578 66.7872 302.613 66.5629C302.648 66.3387 302.639 66.1643 302.591 66.0246C302.499 65.7587 302.236 65.5459 301.611 65.3933L301.687 65.0621ZM298.902 60.9225C298.945 61.9517 299.155 62.8678 299.594 63.5839C300.029 64.2948 300.698 64.8203 301.687 65.0621L301.611 65.3933C300.54 65.1315 299.797 64.554 299.313 63.7649C298.833 62.9808 298.615 61.9996 298.571 60.9367L298.902 60.9225ZM300.171 54.6463C299.309 56.7183 298.813 58.8163 298.902 60.9226L298.571 60.9367C298.479 58.7655 298.991 56.6159 299.866 54.5121L300.171 54.6463ZM311.617 39.8169C306.662 43.8793 302.657 48.6781 300.171 54.6463L299.867 54.512C302.379 48.4804 306.423 43.6391 311.41 39.5507L311.617 39.8169ZM313.399 37.1194C313.038 38.2285 312.535 39.0646 311.617 39.817L311.41 39.5507C312.27 38.846 312.74 38.0691 313.085 37.0109L313.399 37.1194ZM329.652 17.4331C321.767 21.8892 316.242 28.4068 313.399 37.1194L313.085 37.0108C315.956 28.2123 321.538 21.6294 329.492 17.1348L329.652 17.4331ZM335.504 16.7846C333.675 15.9065 331.584 16.3396 329.653 17.433L329.492 17.1348C331.469 16.0156 333.679 15.5328 335.644 16.4762L335.504 16.7846ZM338.679 16.0225C338.151 16.5229 337.682 16.8758 337.177 17.0189C336.662 17.1647 336.135 17.087 335.505 16.7846L335.644 16.4762C336.228 16.756 336.672 16.8086 337.088 16.6908C337.513 16.5704 337.933 16.2656 338.454 15.772L338.679 16.0225ZM348.386 9.49863C344.604 10.6693 341.601 13.2602 338.679 16.0225L338.455 15.7719C341.377 13.0092 344.428 10.3679 348.29 9.17268L348.386 9.49863ZM354.959 14.5192C355.057 12.373 354.421 10.8133 353.283 9.94256C352.143 9.07053 350.456 8.85686 348.386 9.4986L348.29 9.1727C350.421 8.51193 352.228 8.71151 353.481 9.66967C354.735 10.6291 355.392 12.3165 355.29 14.5357L354.959 14.5192ZM353.622 19.929C354.353 18.1907 354.874 16.3834 354.959 14.5192L355.29 14.5357C355.203 16.4541 354.668 18.3028 353.926 20.0645L353.622 19.929ZM353.452 20.3261C353.508 20.1964 353.565 20.0643 353.622 19.9292L353.926 20.0643C353.869 20.2014 353.811 20.3351 353.755 20.4646L353.452 20.3261ZM354.708 23.4553C354.145 23.3544 353.733 23.2097 353.447 23.015C353.154 22.8159 352.993 22.5645 352.942 22.2683C352.892 21.9819 352.948 21.6714 353.046 21.3535C353.146 21.0346 353.296 20.6876 353.452 20.3261L353.755 20.4646C353.597 20.8309 353.455 21.1598 353.362 21.4577C353.269 21.7567 353.233 22.0039 353.268 22.2091C353.302 22.4045 353.405 22.5784 353.629 22.7313C353.861 22.8886 354.222 23.0226 354.765 23.1199L354.708 23.4553ZM356.811 26.5228C356.718 25.7671 356.492 25.0487 356.138 24.4951C355.784 23.9433 355.307 23.5623 354.708 23.4553L354.764 23.1199C355.475 23.2469 356.024 23.6986 356.414 24.3083C356.804 24.9162 357.043 25.6879 357.14 26.4809L356.811 26.5228ZM355.968 32.5839C356.732 30.5721 357.055 28.5478 356.811 26.5225L357.14 26.4812C357.392 28.5726 357.057 30.654 356.277 32.708L355.968 32.5839ZM344.127 48.4258C349.636 44.2993 353.534 38.9811 355.969 32.5838L356.277 32.7082C353.82 39.1639 349.884 44.5351 344.323 48.701L344.127 48.4258ZM341.62 51.5034C342.139 50.1667 343.048 49.2335 344.127 48.4258L344.323 48.701C343.27 49.4889 342.414 50.3757 341.928 51.6299L341.62 51.5034ZM329.031 50.2457C330.571 48.5616 331.94 46.7803 332.937 44.8558L333.23 45.0161C332.214 46.9764 330.825 48.7822 329.273 50.4789L329.031 50.2457ZM329.282 50.4689L329.273 50.4789L329.031 50.2457L329.041 50.2357L329.282 50.4689ZM328.714 50.6032C328.821 50.4812 328.929 50.3574 329.041 50.2357L329.282 50.4689C329.174 50.5877 329.067 50.7089 328.96 50.8313L328.714 50.6032ZM328.022 51.3436C328.261 51.1182 328.484 50.8651 328.714 50.6032L328.96 50.8313C328.732 51.091 328.499 51.3565 328.246 51.5949L328.022 51.3436ZM322.225 55.0479C323.242 54.9389 324.218 54.4613 325.18 53.782C326.143 53.1024 327.08 52.2302 328.022 51.3437L328.246 51.5948C327.307 52.4789 326.354 53.3674 325.369 54.0626C324.383 54.758 323.354 55.2692 322.26 55.3865L322.225 55.0479ZM320.45 56.0035C321.061 55.4141 321.536 55.1267 322.224 55.0481L322.262 55.3864C321.67 55.4539 321.259 55.6909 320.677 56.2518L320.45 56.0035ZM314.93 59.9858C316.946 59.381 318.695 57.6993 320.45 56.0036L320.678 56.2517C318.938 57.9318 317.13 59.6805 315.023 60.3126L314.93 59.9858ZM313.218 58.5869C313.129 59.2465 313.267 59.6729 313.534 59.8957C313.804 60.1207 314.264 60.1883 314.929 59.986L315.024 60.3124C314.315 60.528 313.72 60.489 313.325 60.1597C312.928 59.8282 312.793 59.2527 312.89 58.5394L313.218 58.5869ZM314.17 55.8002C313.694 56.7482 313.335 57.6953 313.218 58.5862L312.889 58.5401C313.014 57.5942 313.392 56.6076 313.875 55.644L314.17 55.8002ZM313.814 54.614C313.961 54.6226 314.092 54.648 314.196 54.7064C314.309 54.7703 314.382 54.8703 314.404 55C314.424 55.1173 314.399 55.2441 314.358 55.3689C314.317 55.4965 314.251 55.6411 314.169 55.8013L313.876 55.6429C313.954 55.4884 314.011 55.3624 314.044 55.26C314.078 55.155 314.083 55.0925 314.077 55.058C314.073 55.0358 314.066 55.0213 314.036 55.0046C313.997 54.9825 313.924 54.9613 313.796 54.9539L313.814 54.614ZM313.007 53.0762C312.941 53.5457 312.965 53.9243 313.089 54.1844C313.205 54.4273 313.42 54.5911 313.814 54.614L313.796 54.9539C313.301 54.9251 312.968 54.7037 312.791 54.3339C312.623 53.9813 312.61 53.5196 312.679 53.0271L313.007 53.0762ZM314.097 50.0842C313.536 51.1188 313.141 52.1259 313.007 53.0762L312.679 53.027C312.821 52.0199 313.236 50.9719 313.808 49.9181L314.097 50.0842ZM320.506 42.2198C317.922 44.5386 315.723 47.1042 314.097 50.0845L313.808 49.9178C315.456 46.8955 317.683 44.3008 320.287 41.9634L320.506 42.2198ZM321.541 40.8062C321.285 41.3521 320.978 41.7973 320.505 42.2201L320.288 41.9632C320.722 41.5746 321.003 41.1683 321.242 40.6582L321.541 40.8062ZM330.514 30.2824C326.585 33.0293 323.545 36.5338 321.541 40.8063L321.242 40.6581C323.274 36.3276 326.354 32.7786 330.328 30.0009L330.514 30.2824ZM333.144 29.471C332.798 29.3584 332.386 29.387 331.932 29.535C331.478 29.6826 330.995 29.9451 330.515 30.2822L330.327 30.0011C330.825 29.652 331.338 29.3712 331.831 29.2104C332.324 29.05 332.81 29.0053 333.244 29.1465L333.144 29.471ZM334.728 28.8258C334.448 29.1048 334.201 29.3143 333.951 29.4292C333.69 29.5489 333.433 29.5627 333.145 29.4714L333.243 29.1461C333.458 29.2144 333.632 29.2027 333.815 29.1184C334.009 29.0294 334.221 28.8564 334.498 28.581L334.728 28.8258ZM339.647 24.9619C337.848 25.832 336.278 27.2914 334.728 28.826L334.498 28.5808C336.046 27.0476 337.651 25.5507 339.505 24.6539L339.647 24.9619ZM342.048 26.5813C342.269 25.5789 342.094 24.9857 341.72 24.7295C341.334 24.4644 340.638 24.4847 339.646 24.962L339.505 24.6538C340.515 24.1674 341.362 24.0745 341.904 24.4465C342.459 24.8275 342.6 25.6218 342.371 26.6571L342.048 26.5813ZM340.997 29.1851C341.476 28.317 341.856 27.4424 342.048 26.581L342.371 26.6574C342.169 27.5628 341.773 28.4694 341.286 29.3531L340.997 29.1851ZM340.889 29.3804C340.924 29.3164 340.961 29.2515 340.997 29.1852L341.286 29.353C341.249 29.4206 341.212 29.4866 341.176 29.5504L340.889 29.3804ZM341.305 30.8783C341.054 30.8818 340.854 30.8527 340.712 30.7724C340.637 30.7303 340.576 30.6727 340.536 30.5979C340.496 30.5238 340.481 30.4438 340.482 30.3658C340.484 30.2168 340.542 30.0551 340.614 29.8993C340.687 29.7398 340.787 29.5628 340.889 29.3804L341.176 29.5504C341.072 29.7363 340.98 29.9006 340.914 30.0453C340.845 30.1937 340.814 30.2992 340.814 30.3705C340.813 30.4027 340.819 30.4211 340.825 30.4324C340.831 30.4432 340.843 30.4581 340.871 30.4742C340.936 30.5105 341.064 30.5412 341.3 30.5379L341.305 30.8783ZM341.879 31.987C341.901 31.6515 341.858 31.363 341.758 31.1662C341.663 30.9804 341.52 30.8764 341.304 30.8783L341.301 30.5379C341.656 30.5347 341.906 30.724 342.051 31.0089C342.191 31.2826 342.233 31.6418 342.21 32.01L341.879 31.987ZM341.007 34.8346C341.522 33.8385 341.828 32.8835 341.879 31.9884L342.21 32.0086C342.156 32.9676 341.83 33.9709 341.3 34.9947L341.007 34.8346ZM334.336 43.2011C337.169 40.8088 339.375 38.003 341.007 34.8348L341.3 34.9944C339.647 38.2022 337.414 41.0432 334.547 43.4642L334.336 43.2011ZM332.938 44.8553C333.291 44.1782 333.776 43.6726 334.336 43.2009L334.547 43.4644C334.004 43.9213 333.555 44.394 333.23 45.0166L332.938 44.8553Z" fill="black"/>
<path d="M305.602 113.225C306.51 116.272 307.686 119.665 309.064 122.354C309.064 122.354 309.166 122.31 309.353 122.244C313.958 120.607 318.755 124.607 318.024 129.571C317.933 130.193 317.751 130.783 317.441 131.268L318.985 132.612C321.523 134.821 323.607 138.071 323.521 141.492C323.51 141.884 323.484 142.275 323.43 142.671C322.821 147.068 320.321 151.177 314.465 152.153C308.295 152.885 303.118 150.175 299.533 144.715C299.218 144.236 298.945 143.768 298.726 143.31C294.65 134.826 297.674 127.984 297.674 127.984C297.198 127.284 296.723 126.387 296.263 125.367C288.266 132.805 277.677 137.333 266.057 137.333C254.437 137.333 243.875 132.816 235.882 125.395L234.931 127.979C234.931 127.979 238.185 142.517 226.137 150.434C218.049 155.744 209.757 149.238 210.799 140.214C211.232 136.468 212.979 133.686 214.619 131.841C216.259 130 217.792 129.091 217.792 129.091C217.696 128.998 217.611 128.91 217.525 128.816C214.555 125.571 218.15 120.426 222.162 122.106L223.568 122.69C225.144 120.58 226.447 117.991 227.558 115.071H227.553C223.365 108.008 220.944 99.7005 220.944 90.8143C220.944 65.1199 241.144 44.301 266.057 44.301C290.969 44.301 311.169 65.1254 311.169 90.8198C311.169 98.9457 309.15 106.581 305.602 113.231V113.225Z" fill="#FFFD9C"/>
<path d="M227.552 115.071C223.364 108.008 220.943 99.7005 220.943 90.8143C220.943 65.1199 241.143 44.301 266.056 44.301C290.968 44.301 311.168 65.1254 311.168 90.8198C311.168 98.9457 309.149 106.581 305.601 113.231" stroke="black" stroke-width="0.455231" stroke-miterlimit="10"/>
<path d="M296.265 125.367C288.267 132.804 277.678 137.333 266.058 137.333C254.438 137.333 243.876 132.815 235.884 125.395" stroke="black" stroke-width="0.455231" stroke-miterlimit="10"/>
<path d="M292.103 112.443C292.103 112.443 293.988 120.321 296.264 125.362C296.724 126.387 297.199 127.285 297.675 127.984C297.675 127.984 294.651 134.827 298.727 143.311C298.946 143.768 299.219 144.236 299.534 144.716C303.119 150.175 308.296 152.886 314.466 152.153C320.322 151.178 322.822 147.068 323.431 142.672C323.485 142.275 323.511 141.884 323.522 141.493C323.607 138.072 321.524 134.821 318.986 132.612L317.442 131.268C317.752 130.783 317.934 130.194 318.025 129.571C318.756 124.607 313.959 120.608 309.354 122.244C309.167 122.31 309.065 122.354 309.065 122.354C307.687 119.666 306.511 116.272 305.603 113.226C304.321 108.917 303.578 105.292 303.578 105.292" stroke="black" stroke-width="0.455231" stroke-miterlimit="10"/>
<path d="M230.182 106.421C229.418 109.495 228.563 112.415 227.558 115.07C226.447 117.99 225.144 120.58 223.568 122.689L222.162 122.106C218.15 120.425 214.555 125.571 217.525 128.816C217.611 128.909 217.696 128.997 217.792 129.091C217.792 129.091 216.259 130 214.619 131.84C212.979 133.686 211.232 136.468 210.799 140.214C209.757 149.238 218.049 155.744 226.137 150.433C238.185 142.517 234.931 127.978 234.931 127.978L235.882 125.394L241.572 109.925" stroke="black" stroke-width="0.455231" stroke-miterlimit="10"/>
<path d="M276.315 89.5138C276.315 89.5138 275.107 89.6901 274.755 88.2798" stroke="black" stroke-width="0.455231" stroke-miterlimit="10"/>
<path d="M256.66 86.7486C256.66 86.7486 257.504 87.3271 257.232 88.4675L257.905 88.7705C263.066 91.0898 268.681 91.0568 273.89 88.6713L274.75 88.2747C274.552 87.0847 275.311 86.2473 275.311 86.2473" stroke="black" stroke-width="0.455231" stroke-miterlimit="10"/>
<path d="M255.591 89.4306C255.591 89.4306 256.83 89.8493 257.231 88.4666" stroke="black" stroke-width="0.455231" stroke-miterlimit="10"/>
<path d="M253.17 82.9366C253.694 81.5299 253.745 80.6338 253.325 80.2481C252.753 80.6668 252.182 81.091 251.61 81.5097C251.503 81.4326 251.391 81.35 251.284 81.2728C252.064 80.1655 253.314 79.2124 252.486 77.4275C255.51 82.1267 258.769 82.3967 262.482 78.4357C262.215 80.2647 261.077 81.091 259.763 81.6695C259.186 81.9229 258.502 82.0276 257.872 82.0111C256.258 81.9835 254.495 80.8652 253.17 82.9366Z" fill="black"/>
<path d="M269.541 78.3969C270.898 80.0276 272.373 81.2562 274.606 81.0303C276.823 80.8099 278.148 79.4877 278.901 77.3557C279.43 78.8927 279.857 80.1433 280.301 81.438C279.467 81.9393 278.955 79.2178 277.779 80.8981C278.164 81.5316 278.511 82.1046 278.858 82.6775L278.655 83.1568C277.352 80.8375 275.546 82.0384 273.906 82.0219C271.63 81.9944 269.862 80.6446 269.546 78.3914L269.541 78.3969Z" fill="black"/>
<path d="M332.607 97.7987C336.125 97.7987 338.978 94.8699 338.978 91.257C338.978 87.6441 336.125 84.7153 332.607 84.7153C329.089 84.7153 326.236 87.6441 326.236 91.257C326.236 94.8699 329.089 97.7987 332.607 97.7987Z" fill="#FFE09C" stroke="black" stroke-width="0.336014" stroke-miterlimit="10"/>
<path d="M337.285 90.1539C339.104 90.1539 340.579 88.6394 340.579 86.7711C340.579 84.9029 339.104 83.3884 337.285 83.3884C335.465 83.3884 333.99 84.9029 333.99 86.7711C333.99 88.6394 335.465 90.1539 337.285 90.1539Z" fill="#FFE09C" stroke="black" stroke-width="0.336014" stroke-miterlimit="10"/>
</g>
</g>
<path d="M233.497 23.3613V24.8994H238.741V26.2031H226.671V24.8994H231.886V23.3613H233.497ZM227.286 22.8779C230.113 22.5996 231.856 21.3398 231.856 19.8311V19.4795H233.512V19.8311C233.512 21.3398 235.247 22.5996 238.082 22.8779L237.511 24.123C235.291 23.8447 233.534 23.0098 232.677 21.7207C231.827 23.0098 230.077 23.8447 227.857 24.123L227.286 22.8779ZM228.092 28.2539V27.0088H237.232V30.29H229.703V31.2422H237.598V32.4873H228.106V29.1328H235.636V28.2539H228.092ZM243.691 21.6621C243.691 23.2954 244.819 24.9287 246.928 25.5879L246.093 26.8477C244.592 26.3643 243.5 25.3682 242.892 24.1084C242.299 25.478 241.171 26.5693 239.604 27.0967L238.769 25.8369C240.9 25.1191 242.035 23.3979 242.05 21.6621V21.501H239.194V20.1973H246.474V21.501H243.691V21.6621ZM240.659 29.2793V27.9609H249.697V32.6045H248.056V29.2793H240.659ZM248.056 27.3457V19.3623H249.697V27.3457H248.056ZM261.106 19.377V23.5371H262.952V24.8848H261.106V29.2646H259.48V19.377H261.106ZM250.677 22.1455V20.8418H253.797V19.3623H255.423V20.8418H258.528V22.1455H250.677ZM251.35 25.2217C251.35 23.6982 252.676 22.6875 254.602 22.6875C256.514 22.6875 257.832 23.6982 257.84 25.2217C257.832 26.7378 256.514 27.7266 254.602 27.7266C252.676 27.7266 251.35 26.7378 251.35 25.2217ZM252.625 32.3408V28.4883H254.251V31.0225H261.634V32.3408H252.625ZM252.932 25.2217C252.925 26.02 253.599 26.4741 254.602 26.4668C255.606 26.4741 256.287 26.02 256.287 25.2217C256.287 24.416 255.606 23.9473 254.602 23.9473C253.599 23.9473 252.925 24.416 252.932 25.2217ZM276.645 19.3623V32.6045H275.092V25.8516H273.598V31.9307H272.104V19.6113H273.598V24.5479H275.092V19.3623H276.645ZM265.659 29.5137V20.9297H270.61V22.248H267.299V28.1367C268.735 28.1221 269.922 28.0488 271.269 27.7998L271.386 29.1328C269.782 29.4551 268.398 29.499 266.552 29.5137H265.659ZM287.718 19.3623V24.8262H289.578V26.1885H287.718V32.6045H286.077V19.3623H287.718ZM277.083 28.9277C278.087 28.9277 279.251 28.9277 280.467 28.8984V27.6606C279.024 27.4116 278.087 26.5107 278.094 25.2656C278.087 23.7715 279.398 22.7827 281.302 22.7754C283.184 22.7827 284.51 23.7715 284.525 25.2656C284.51 26.5181 283.55 27.4189 282.108 27.6606V28.8398C283.221 28.7812 284.334 28.6934 285.374 28.5469L285.477 29.7334C282.635 30.2534 279.573 30.2754 277.318 30.2754L277.083 28.9277ZM277.332 22.1748V20.8857H280.467V19.4209H282.108V20.8857H285.228V22.1748H277.332ZM279.632 25.2656C279.625 26.0273 280.298 26.4741 281.302 26.4668C282.291 26.4741 282.957 26.0273 282.957 25.2656C282.957 24.4966 282.291 24.0278 281.302 24.0205C280.298 24.0278 279.625 24.4966 279.632 25.2656Z" fill="#1F1F1F"/>
</g>
</g>
<defs>
<linearGradient id="paint0_linear_1836_10878" x1="91.1572" y1="-0.208008" x2="91.1572" y2="143.101" gradientUnits="userSpaceOnUse">
<stop stop-color="#8CEEFF"/>
<stop offset="1" stop-color="#3AB7FF"/>
</linearGradient>
<linearGradient id="paint1_linear_1836_10878" x1="213.39" y1="-76.389" x2="-178.433" y2="280.672" gradientUnits="userSpaceOnUse">
<stop stop-color="#7AAAFF"/>
<stop offset="1" stop-color="#3490E6"/>
</linearGradient>
<linearGradient id="paint2_linear_1836_10878" x1="234.487" y1="-0.208252" x2="234.487" y2="143.101" gradientUnits="userSpaceOnUse">
<stop stop-color="#FFD4FE"/>
<stop offset="1" stop-color="#F884B1"/>
</linearGradient>
<clipPath id="clip0_1836_10878">
<rect width="342" height="142" fill="white"/>
</clipPath>
</defs>
</svg>
