<svg width="342" height="142" viewBox="0 0 342 142" fill="none" xmlns="http://www.w3.org/2000/svg">
<g clip-path="url(#clip0_1836_10878)">
<rect width="342" height="142" fill="white"/>
<mask id="mask0_1836_10878" style="mask-type:alpha" maskUnits="userSpaceOnUse" x="-19" y="-20" width="221" height="192">
<path d="M200.719 -18.6992L119.819 171.301H-18.4053V-18.6992H200.719Z" fill="#D9D9D9" stroke="black" stroke-width="0.924574"/>
</mask>
<g mask="url(#mask0_1836_10878)">
<mask id="mask1_1836_10878" style="mask-type:alpha" maskUnits="userSpaceOnUse" x="-20" y="-1" width="222" height="145">
<rect x="-19.2295" y="-0.20752" width="220.773" height="143.309" fill="white"/>
</mask>
<g mask="url(#mask1_1836_10878)">
<mask id="mask2_1836_10878" style="mask-type:alpha" maskUnits="userSpaceOnUse" x="-20" y="-1" width="222" height="145">
<rect x="-19.2295" y="-0.20752" width="220.773" height="143.309" fill="white"/>
</mask>
<g mask="url(#mask2_1836_10878)">
<rect x="-19.2295" y="-0.20752" width="220.773" height="143.309" fill="url(#paint0_linear_1836_10878)"/>
<path d="M315.773 28.9138L274.906 22.8146C250.45 19.1603 225.707 27.1357 207.65 44.4789C197.766 53.9709 183.721 57.3311 170.778 53.2976L130.357 40.7004C113.107 35.3268 95.7107 48.63 95.7616 67.1565C95.787 75.2104 87.6074 80.5317 80.5344 77.0539L62.8585 68.3659C58.4697 66.2086 53.5276 70.0067 54.3036 74.9489C57.0259 92.1548 40.832 106.092 24.8289 100.313L-114.613 49.9701L-107.038 97.8814L49.3805 127.835C63.6218 130.561 76.5909 118.853 75.7958 103.981L75.5414 99.3C75.3061 94.9136 79.4595 91.6776 83.4984 93.0962L95.787 97.3846C103.35 100.032 111.211 94.2664 111.237 86.0556C111.313 66.5224 130.401 53.1146 148.141 60.1421L174.295 70.5101C189.605 76.5832 206.982 72.3471 218.017 59.8544C233.658 42.132 255.576 31.6071 278.843 30.6527L315.575 29.1426C315.862 29.1361 316.021 28.9465 315.773 28.9007L315.773 28.9138Z" fill="url(#paint1_linear_1836_10878)" stroke="black" stroke-width="0.31333" stroke-miterlimit="10"/>
<path d="M87.7027 72.8362C93.1829 62.2032 103.46 54.5583 115.989 52.4702C134.349 49.4062 152.526 60.0139 159.045 77.5889C165.794 95.7706 159.448 115.853 143.637 126.36C133.754 132.928 121.327 134.374 110.357 130.784C110.032 129.641 109.648 128.509 109.21 127.386L107.198 122.239C109.122 121.744 111.055 121.37 113.062 121.279C114.282 121.218 115.522 120.743 116.693 120.273C121.194 118.452 124.195 113.968 124.092 109.002C123.979 103.466 120.865 98.9661 116.034 97.3684C112.9 96.3369 109.968 96.8425 107.174 98.597C106.731 98.8751 105.969 99.0318 105.526 98.8397C100.926 96.8021 95.9968 99.7447 95.7607 104.942C95.6722 106.935 94.9244 107.445 93.2321 107.738C86.094 108.992 79.0739 108.482 72.0834 106.661C70.824 106.333 69.481 106.338 68.1823 106.141C66.0472 105.812 63.7794 105.812 61.8214 105.018C58.0679 103.491 56.961 100.099 57.0741 96.2004C57.1676 92.8684 58.4811 90.2494 61.5853 88.9398C63.9417 87.9539 66.3916 88.2927 68.7824 88.9803C69.0579 89.0561 72.1375 89.6224 72.1375 89.6224C72.1375 89.6224 72.9836 86.4371 76.137 86.5584C77.7358 86.6393 79.0051 87.9134 79.1182 89.5516C79.2264 91.1291 79.0887 92.7471 78.9017 94.3246C78.7001 96.0184 78.9017 96.6049 80.5793 96.6706C81.2877 96.6959 82.67 96.7313 83.6343 96.7515C84.0967 96.7616 84.4263 96.2864 84.2541 95.8414C83.9097 94.9313 83.4719 93.3437 83.3981 91.0128C83.3735 84.4045 84.9182 78.226 87.7076 72.821L87.7027 72.8362Z" fill="#00FFFF"/>
<path d="M107.193 122.244C104.576 122.907 101.983 123.807 99.2728 124.555C99.1252 124.59 99.0858 124.788 99.2039 124.884C99.4597 125.101 99.6122 125.232 99.7745 125.349C103.026 127.745 106.608 129.56 110.356 130.784C115.497 148.794 106.578 168.214 89.2813 175.354C84.8981 177.164 80.3771 178.018 75.925 178.018C61.698 178.018 48.2334 169.266 42.6105 154.866L22.5933 103.643C15.2092 84.7432 24.133 63.2699 42.522 55.6757C59.7941 48.5516 79.2801 56.2116 87.6973 72.8361C84.908 78.241 83.3632 84.4196 83.3878 91.0279C83.4616 93.3588 83.8995 94.9515 84.2438 95.8565C84.4111 96.3014 84.0815 96.7717 83.624 96.7666C82.6598 96.7413 81.2774 96.711 80.569 96.6857C78.8865 96.62 78.6898 96.0335 78.8915 94.3397C79.0784 92.7622 79.2161 91.1493 79.1079 89.5667C78.9948 87.9285 77.7256 86.6544 76.1267 86.5735C72.9734 86.4522 72.1272 89.6375 72.1272 89.6375C72.1272 89.6375 69.0476 89.0712 68.7722 88.9954C66.3813 88.3077 63.9363 87.969 61.575 88.9549C58.4708 90.2594 57.1573 92.8785 57.0639 96.2155C56.9507 100.109 58.0576 103.501 61.8111 105.033C63.7691 105.827 66.0369 105.827 68.172 106.156C69.4707 106.353 70.8088 106.348 72.0731 106.677C79.0587 108.497 86.0837 109.007 93.2218 107.754C94.9141 107.455 95.6619 106.945 95.7504 104.957C95.9866 99.7598 100.916 96.8172 105.516 98.8548C105.958 99.0469 106.721 98.8902 107.164 98.6121C109.958 96.8576 112.89 96.352 116.023 97.3834C120.849 98.9761 123.968 103.476 124.082 109.018C124.185 113.983 121.179 118.467 116.683 120.288C115.517 120.758 114.277 121.233 113.052 121.294C111.045 121.385 109.112 121.754 107.188 122.254L107.193 122.244Z" fill="#37A0FF"/>
<path d="M109.205 127.386C109.643 128.509 110.026 129.641 110.351 130.784C106.602 129.56 103.021 127.745 99.7692 125.349C99.6069 125.232 99.4593 125.101 99.1985 124.883C99.0854 124.787 99.1247 124.59 99.2674 124.555C101.978 123.806 104.571 122.906 107.188 122.244L109.2 127.391L109.205 127.386Z" fill="#00FFFF"/>
<path d="M110.351 130.784C115.492 148.794 106.573 168.214 89.2764 175.354C84.8932 177.164 80.3722 178.018 75.9201 178.018C61.6931 178.018 48.2285 169.266 42.6056 154.866L22.5933 103.643C15.2092 84.7432 24.133 63.2699 42.522 55.6757C59.7941 48.5516 79.2801 56.2116 87.6973 72.8361" stroke="black" stroke-width="0.363446" stroke-miterlimit="10"/>
<path d="M110.351 130.784C106.602 129.56 103.021 127.745 99.7692 125.349C99.6068 125.232 99.4592 125.101 99.1985 124.884C99.0854 124.787 99.1247 124.59 99.2674 124.555C101.978 123.807 104.571 122.907 107.188 122.244C109.111 121.749 111.045 121.375 113.052 121.284C114.272 121.223 115.511 120.748 116.682 120.277C121.184 118.457 124.184 113.972 124.081 109.007C123.968 103.471 120.854 98.971 116.023 97.3733C112.889 96.3418 109.957 96.8474 107.163 98.6019C106.72 98.88 105.958 99.0367 105.515 98.8446C100.915 96.807 95.9861 99.7496 95.75 104.947C95.6614 106.939 94.9137 107.45 93.2214 107.743C86.0832 108.997 79.0632 108.487 72.0726 106.666C70.8133 106.338 69.4703 106.343 68.1715 106.146C66.0365 105.817 63.7686 105.817 61.8107 105.023C58.0571 103.496 56.9503 100.104 57.0634 96.2053C57.1569 92.8733 58.4704 90.2543 61.5745 88.9448C63.931 87.9588 66.3808 88.2976 68.7717 88.9852C69.0472 89.061 72.1268 89.6273 72.1268 89.6273C72.1268 89.6273 72.9729 86.442 76.1263 86.5633C77.7251 86.6442 78.9943 87.9184 79.1075 89.5565C79.2157 91.134 79.0779 92.752 78.891 94.3295C78.6893 96.0233 78.891 96.6098 80.5685 96.6755C81.2769 96.7008 82.6593 96.7362 83.6235 96.7564C84.086 96.7665 84.4156 96.2913 84.2434 95.8463C83.899 94.9362 83.4612 93.3486 83.3874 91.0178C83.3628 84.4094 84.9075 78.2309 87.6968 72.8259C93.1771 62.1929 103.454 54.5481 115.984 52.4599C134.343 49.3959 152.52 60.0036 159.039 77.5786C165.788 95.7604 159.442 115.843 143.631 126.35C133.748 132.918 121.321 134.364 110.351 130.774V130.784Z" stroke="black" stroke-width="0.374136" stroke-miterlimit="10"/>
<path d="M99.2525 89.4249C102.632 90.1783 106.287 90.3502 109.539 88.9598C112.117 87.8575 114.316 85.825 115.319 83.1099C115.398 82.9026 115.073 82.8166 115 83.0189C113.996 85.734 111.714 87.7413 109.111 88.7676C105.997 89.9963 102.544 89.8092 99.3411 89.0912C99.1345 89.0457 99.041 89.3744 99.2525 89.4199V89.4249Z" fill="black"/>
<path d="M112.614 82.0481C113.548 83.12 115.068 83.4032 116.318 82.7661C116.51 82.67 116.342 82.3717 116.151 82.4728C115.029 83.0442 113.681 82.761 112.85 81.8105C112.707 81.6436 112.471 81.8863 112.614 82.0532V82.0481Z" fill="black"/>
<path d="M102.214 75.1522C101.299 74.8791 100.251 75.4808 99.3856 76.6235L100.355 78.0443L98.4263 78.3072C98.2639 78.6914 98.1163 79.101 97.9983 79.5307C97.1915 82.4026 97.7769 85.0925 99.3019 85.5425C100.827 85.9924 102.711 84.0307 103.518 81.1639C104.325 78.292 103.739 75.6022 102.214 75.1522Z" fill="black" stroke="black" stroke-width="0.160344" stroke-miterlimit="10" stroke-linecap="round"/>
<path d="M111.07 73.4276C110.155 73.1545 109.107 73.7562 108.241 74.8989L109.21 76.3196L107.282 76.5826C107.119 76.9668 106.972 77.3764 106.854 77.8061C106.047 80.678 106.632 83.3678 108.157 83.8178C109.682 84.2678 111.567 82.3061 112.373 79.4393C113.18 76.5674 112.595 73.8775 111.07 73.4276Z" fill="black" stroke="black" stroke-width="0.160344" stroke-miterlimit="10" stroke-linecap="round"/>
<path d="M50.6873 78.6813C55.4985 80.5217 61.2641 80.9212 65.2932 77.0987C65.4506 76.9471 65.2144 76.7094 65.057 76.856C61.1165 80.5976 55.4641 80.1476 50.7759 78.3527C50.5742 78.2768 50.4856 78.6055 50.6873 78.6813Z" fill="black"/>
<path d="M56.6653 64.8226C55.7897 64.4384 54.6779 64.8985 53.6841 65.9249L54.4762 67.4568L52.5281 67.472C52.3215 67.831 52.1247 68.2203 51.9574 68.6299C50.8161 71.3753 51.0719 74.1208 52.5281 74.7629C53.9842 75.405 56.0947 73.6961 57.236 70.9506C58.3773 68.2052 58.1215 65.4597 56.6653 64.8176V64.8226Z" fill="black" stroke="black" stroke-width="0.160344" stroke-miterlimit="10" stroke-linecap="round"/>
<path d="M65.6585 64.2357C64.7828 63.8514 63.671 64.3115 62.6773 65.3379L63.4693 66.8699L61.5212 66.8851C61.3146 67.2441 61.1178 67.6334 60.9506 68.043C59.8093 70.7884 60.0651 73.5339 61.5212 74.176C62.9774 74.8181 65.0878 73.1092 66.2292 70.3637C67.3705 67.6182 67.1147 64.8728 65.6585 64.2306V64.2357Z" fill="black" stroke="black" stroke-width="0.160344" stroke-miterlimit="10" stroke-linecap="round"/>
<path d="M22.0872 61.3472C24.8968 61.3472 27.1744 59.0063 27.1744 56.1187C27.1744 53.231 24.8968 50.8901 22.0872 50.8901C19.2776 50.8901 17 53.231 17 56.1187C17 59.0063 19.2776 61.3472 22.0872 61.3472Z" fill="#9CFFA6" stroke="black" stroke-width="0.250433" stroke-miterlimit="10"/>
<path d="M25.822 55.2369C27.2748 55.2369 28.4526 54.0265 28.4526 52.5333C28.4526 51.0401 27.2748 49.8296 25.822 49.8296C24.3692 49.8296 23.1914 51.0401 23.1914 52.5333C23.1914 54.0265 24.3692 55.2369 25.822 55.2369Z" fill="#9CFFA6" stroke="black" stroke-width="0.250433" stroke-miterlimit="10"/>
<path d="M141 27.0675C147.255 26.6269 149.994 24.6868 150.193 18.3008C150.772 24.6604 153.523 26.4296 159.888 26.4756C153.53 26.9163 150.887 28.8564 150.694 35.2424C150.122 28.8827 147.268 27.1136 141 27.0675Z" fill="#9CFFA6" stroke="black" stroke-width="0.166685" stroke-miterlimit="10"/>
<path d="M151.646 29.9994C154.262 29.6597 155.408 28.1642 155.491 23.2417C155.733 28.1439 156.883 29.5076 159.545 29.5431C156.886 29.8828 155.781 31.3783 155.701 36.3008C155.461 31.3986 154.268 30.0349 151.646 29.9994Z" fill="#9CFFA6" stroke="black" stroke-width="0.166685" stroke-miterlimit="10"/>
</g>
<path d="M65.7411 26.1382V27.4272H53.6708V26.1382H65.7411ZM54.9159 22.7251C54.9159 21.1431 56.7909 20.1616 59.6913 20.1616C62.599 20.1616 64.4593 21.1431 64.4667 22.7251C64.4593 24.3291 62.599 25.2886 59.6913 25.2886C56.7909 25.2886 54.9159 24.3291 54.9159 22.7251ZM55.077 30.6938C55.077 29.1411 56.7982 28.2842 59.6913 28.2915C62.5404 28.2842 64.2689 29.1411 64.2762 30.6938C64.2689 32.2393 62.5404 33.1035 59.6913 33.0962C56.7982 33.1035 55.077 32.2393 55.077 30.6938ZM56.6151 22.7251C56.6004 23.5747 57.7577 24.0215 59.6913 24.0142C61.6249 24.0215 62.7821 23.5747 62.7821 22.7251C62.7821 21.8828 61.6249 21.436 59.6913 21.436C57.7577 21.436 56.6004 21.8828 56.6151 22.7251ZM56.7323 30.6938C56.725 31.4482 57.765 31.8438 59.6913 31.8364C61.5882 31.8438 62.6356 31.4482 62.6503 30.6938C62.6356 29.9175 61.5882 29.522 59.6913 29.522C57.765 29.522 56.725 29.9175 56.7323 30.6938ZM76.7698 19.8687V29.8882H75.1292V28.731H72.5364V27.5884H75.1292V19.8687H76.7698ZM65.6077 25.8159C68.0467 25.8013 71.3353 25.7793 74.1478 25.4204L74.2357 26.5923C73.1444 26.7754 72.0164 26.8926 70.8958 26.9731V29.522H69.2698V27.061C68.032 27.1123 66.8528 27.1196 65.8128 27.1196L65.6077 25.8159ZM66.6185 22.6958C66.6185 21.2969 67.9661 20.3447 69.929 20.3521C71.8553 20.3447 73.2103 21.2969 73.2249 22.6958C73.2103 24.1167 71.8553 25.0176 69.929 25.0249C67.9661 25.0176 66.6185 24.1167 66.6185 22.6958ZM67.3655 32.8325V28.9214H68.9915V31.5142H77.0775V32.8325H67.3655ZM68.1566 22.6958C68.1566 23.4136 68.867 23.8311 69.929 23.8384C70.9398 23.8311 71.6649 23.4136 71.6722 22.6958C71.6649 21.978 70.9398 21.5459 69.929 21.5532C68.867 21.5459 68.1566 21.978 68.1566 22.6958ZM85.0593 21.231V22.1685C85.0593 23.3477 85.0593 25.0176 84.6931 27.2954L83.0818 27.1636C83.4041 25.1567 83.4407 23.6699 83.448 22.5347H78.2478V21.231H85.0593ZM77.5447 29.0093C78.3284 29.002 79.2 28.9946 80.1082 28.9727V25.0103H81.7195V28.9214C83.0672 28.8628 84.4514 28.7676 85.7185 28.6138L85.8064 29.8296C83.0745 30.2764 80.0423 30.3276 77.7058 30.313L77.5447 29.0093ZM86.407 33.0962V19.854H88.0476V25.2446H89.9666V26.6216H88.0476V33.0962H86.407ZM102.693 19.854V22.8716H104.539V24.2046H102.693V27.2954H101.067V19.854H102.693ZM92.1462 26.2407C95.215 25.457 96.9582 23.8896 97.2438 21.978H92.7761V20.6597H99.0163C99.009 24.1021 96.7531 26.4824 92.7907 27.5444L92.1462 26.2407ZM94.1237 32.9204V27.8228H102.693V32.9204H94.1237ZM95.7497 31.6313H101.082V29.1558H95.7497V31.6313ZM108.976 23.0327C108.961 25.3984 110.148 27.7861 112.198 28.7749L111.202 30.0786C109.767 29.3535 108.734 27.9546 108.17 26.27C107.591 28.0718 106.507 29.5659 104.991 30.3276L103.995 29.0239C106.127 28.0132 107.342 25.479 107.35 23.0327V20.9233H108.976V23.0327ZM112.989 33.0962V19.854H114.615V25.0396H116.652V26.4312H114.615V33.0962H112.989Z" fill="#1F1F1F"/>
</g>
</g>
<mask id="mask3_1836_10878" style="mask-type:alpha" maskUnits="userSpaceOnUse" x="119" y="-21" width="224" height="195">
<path d="M119.875 172.601L201.883 -20.0002H341.999V172.601H119.875Z" fill="#D9D9D9" stroke="black" stroke-width="0.937232"/>
</mask>
<g mask="url(#mask3_1836_10878)">
<mask id="mask4_1836_10878" style="mask-type:alpha" maskUnits="userSpaceOnUse" x="121" y="-2" width="224" height="147">
<rect x="121" y="-1.18945" width="224" height="145.272" fill="white"/>
</mask>
<g mask="url(#mask4_1836_10878)">
<mask id="mask5_1836_10878" style="mask-type:alpha" maskUnits="userSpaceOnUse" x="124" y="-1" width="221" height="145">
<rect x="124" y="-0.208496" width="220.973" height="143.309" fill="white"/>
</mask>
<g mask="url(#mask5_1836_10878)">
<rect x="124" y="-0.208496" width="220.973" height="143.309" fill="url(#paint2_linear_1836_10878)"/>
<path fill-rule="evenodd" clip-rule="evenodd" d="M202.243 77.0761C199.32 76.7837 197.729 78.3227 196.939 81.4566C195.871 78.8729 194.396 77.2781 191.927 77.3756C190.795 77.4209 190.435 77.0518 190.133 76.0246C189.187 72.8037 187.125 70.7284 183.789 70.3627C180.157 69.9623 177.519 71.5049 175.925 74.9242C175.471 75.8888 175.064 76.237 173.975 76.0524C169.981 75.3699 166.874 77.9536 166.644 82.1599C166.593 83.0653 166.298 83.5075 165.606 83.9671C163.28 85.5097 162.53 87.3134 163.127 89.9946C163.324 90.8755 163.27 91.558 162.761 92.3171C161.73 93.8562 161.703 95.4683 162.948 96.8995C163.524 97.5611 163.639 98.16 163.385 98.9748C162.792 100.883 163.49 102.387 165.006 103.463C165.765 104.003 166.064 104.49 165.915 105.493C165.345 109.313 167.393 112.44 171.015 113.491C171.143 113.528 171.29 113.558 171.438 113.588C171.84 113.669 172.257 113.753 172.378 113.989C173.327 115.831 174.385 117.489 176.423 118.241C176.567 118.295 176.61 118.673 176.649 119.013C176.66 119.114 176.671 119.212 176.685 119.296C177.183 122.479 178.875 124.557 182.008 125.167C183.185 125.397 183.575 125.982 183.785 127.165C184.45 130.926 187.407 133.419 191.161 133.489C192.164 133.51 192.86 133.778 193.562 134.589C195.128 136.403 197.478 136.327 199.116 134.492C199.659 133.882 200.174 133.499 201.008 133.499C203.379 133.506 204.999 132.214 205.505 129.944C205.734 128.916 206.44 128.463 207.13 128.021C207.674 127.671 208.208 127.329 208.489 126.716C208.95 125.71 209.723 125.24 210.727 124.881C212.572 124.223 213.63 122.771 214.04 120.811C214.393 119.136 217.36 116.643 219.015 116.611C223.185 116.528 226.18 113.303 225.925 109.048C225.871 108.143 226.075 107.669 226.821 107.203C228.272 106.298 229.049 104.905 228.703 103.15C228.472 101.99 228.869 101.451 229.764 100.848C231.388 99.7582 232.26 97.8814 231.504 96.1856C230.418 93.7517 229.605 91.3247 229.052 88.7201C229.009 88.5161 228.959 88.3242 228.91 88.1388C228.72 87.4165 228.556 86.7935 228.964 85.9345C231.036 81.5819 228.292 76.3519 223.572 75.941C222.936 75.8854 222.295 75.9041 221.655 75.9227C220.132 75.967 218.617 76.0111 217.194 75.0496C216.875 74.8372 216.203 75.0322 215.756 75.2063C214.901 75.5371 214.294 75.356 213.565 74.7606C210.025 71.874 206.007 72.4241 203.29 76.0768C203.219 76.1728 203.153 76.284 203.086 76.3967C202.876 76.7502 202.657 77.1184 202.243 77.0761ZM212.87 86.1732C212.982 86.0135 213.098 85.8496 213.219 85.6809V85.6778C213.667 86.0037 213.703 86.3295 213.739 86.645C213.741 86.6623 213.743 86.6796 213.745 86.6969C214.053 89.316 215.568 90.9069 217.902 91.7951C219.268 92.3153 220.352 94.9374 219.717 96.2789C219.322 97.1154 219.028 98.0341 219.348 98.8676C219.88 100.249 219.547 101.182 218.591 102.244C218.006 102.898 217.573 103.169 216.717 103.145C212.889 103.035 210.133 106.056 210.374 109.995C210.445 111.184 208.533 113.618 207.38 113.797C204.743 114.208 203.653 115.206 203.045 117.84C202.78 118.986 202.021 119.769 201.268 120.545C200.929 120.894 200.591 121.242 200.301 121.621C199.802 122.269 198.629 122.366 198.073 120.888C196.957 117.907 194.308 116.331 191.192 116.638C190.287 116.727 189.921 116.471 189.654 115.635C188.974 113.511 187.412 112.362 185.342 111.99C184.386 111.82 183.759 111.489 183.379 110.539C183.183 110.047 182.77 109.587 182.345 109.268C181.624 108.729 181.532 108.066 181.567 107.224C181.74 103.324 179.281 100.571 175.462 100.501C174.152 100.478 173.745 99.5809 173.347 98.7058C173.166 98.3071 172.988 97.9129 172.726 97.6082C172.242 97.0424 172.409 95.2933 173.861 94.7701C174.009 94.7184 174.205 94.6211 174.259 94.4903C175.033 92.6402 176.478 91.4659 177.922 90.2927C178.75 89.6198 179.578 88.9473 180.278 88.1479C180.754 87.6064 180.991 87.3478 181.71 87.7159C183.812 88.7927 185.939 88.7349 187.958 87.4817C188.686 87.0315 189.036 87.1744 189.547 87.8315C190.566 89.1486 191.95 89.7692 193.604 89.3646C194.308 89.1943 194.682 89.4498 195.145 89.9395C197.081 91.9928 199.487 91.5731 200.678 89.0239C201.459 87.3509 202.486 87.0954 203.927 88.2239C206.519 90.2529 210.08 89.8118 212.12 87.2018C212.376 86.8748 212.615 86.5347 212.87 86.1732Z" fill="#FFD4FE"/>
<path d="M196.939 81.4566L196.754 81.533L196.985 82.0916L197.133 81.5055L196.939 81.4566ZM202.243 77.0761L202.263 76.8772L202.262 76.8771L202.243 77.0761ZM191.927 77.3756L191.919 77.1758L191.919 77.1758L191.927 77.3756ZM190.133 76.0246L189.941 76.0809L189.941 76.0809L190.133 76.0246ZM183.789 70.3627L183.767 70.5615L183.767 70.5616L183.789 70.3627ZM175.925 74.9242L176.106 75.0095L176.106 75.0087L175.925 74.9242ZM173.975 76.0524L173.941 76.2496L173.942 76.2496L173.975 76.0524ZM166.644 82.1599L166.843 82.1712L166.843 82.1709L166.644 82.1599ZM165.606 83.9671L165.717 84.1338L165.717 84.1337L165.606 83.9671ZM163.127 89.9946L162.932 90.038L162.932 90.0381L163.127 89.9946ZM162.761 92.3171L162.595 92.2058L162.595 92.2058L162.761 92.3171ZM162.948 96.8995L162.797 97.0307L162.797 97.0309L162.948 96.8995ZM163.385 98.9748L163.194 98.9152L163.194 98.9154L163.385 98.9748ZM165.006 103.463L165.122 103.3L165.122 103.3L165.006 103.463ZM165.915 105.493L166.113 105.523L166.113 105.523L165.915 105.493ZM171.015 113.491L170.959 113.684L170.96 113.684L171.015 113.491ZM171.438 113.588L171.399 113.784H171.399L171.438 113.588ZM172.378 113.989L172.2 114.081L172.2 114.081L172.378 113.989ZM176.423 118.241L176.493 118.054L176.493 118.053L176.423 118.241ZM176.649 119.013L176.45 119.036L176.649 119.013ZM176.685 119.296L176.487 119.327L176.487 119.327L176.685 119.296ZM182.008 125.167L182.047 124.97L182.047 124.97L182.008 125.167ZM183.785 127.165L183.982 127.131L183.982 127.13L183.785 127.165ZM191.161 133.489L191.165 133.289L191.164 133.289L191.161 133.489ZM193.562 134.589L193.713 134.458L193.713 134.458L193.562 134.589ZM199.116 134.492L199.265 134.625L199.265 134.625L199.116 134.492ZM201.008 133.499L201.009 133.299H201.008V133.499ZM205.505 129.944L205.31 129.901L205.31 129.901L205.505 129.944ZM207.13 128.021L207.238 128.189L207.13 128.021ZM208.489 126.716L208.671 126.8L208.671 126.8L208.489 126.716ZM210.727 124.881L210.66 124.693L210.66 124.693L210.727 124.881ZM214.04 120.811L213.844 120.77L213.844 120.77L214.04 120.811ZM219.015 116.611L219.018 116.811L219.019 116.811L219.015 116.611ZM225.925 109.048L226.125 109.036L226.125 109.036L225.925 109.048ZM226.821 107.203L226.715 107.033L226.715 107.033L226.821 107.203ZM228.703 103.15L228.899 103.111L228.899 103.111L228.703 103.15ZM229.764 100.848L229.653 100.682L229.652 100.682L229.764 100.848ZM231.504 96.1856L231.321 96.2671L231.321 96.2671L231.504 96.1856ZM229.052 88.7201L228.856 88.7613L228.856 88.7616L229.052 88.7201ZM228.91 88.1388L228.716 88.1897V88.1897L228.91 88.1388ZM228.964 85.9345L228.783 85.8485L228.783 85.8488L228.964 85.9345ZM223.572 75.941L223.555 76.1402L223.555 76.1402L223.572 75.941ZM221.655 75.9227L221.661 76.1226L221.655 75.9227ZM217.194 75.0496L217.305 74.8838L217.304 74.8832L217.194 75.0496ZM215.756 75.2063L215.828 75.3928L215.828 75.3927L215.756 75.2063ZM213.565 74.7606L213.692 74.6057L213.692 74.6056L213.565 74.7606ZM203.29 76.0768L203.13 75.9575L203.13 75.9575L203.29 76.0768ZM203.086 76.3967L203.258 76.499V76.499L203.086 76.3967ZM213.219 85.6809L213.381 85.7974L213.419 85.7452V85.6809H213.219ZM212.87 86.1732L213.033 86.2884L212.87 86.1732ZM213.219 85.6778L213.337 85.5161L213.019 85.2848V85.6778H213.219ZM213.739 86.645L213.937 86.6226V86.6226L213.739 86.645ZM213.745 86.6969L213.546 86.72L213.546 86.7203L213.745 86.6969ZM217.902 91.7951L217.973 91.6082L217.973 91.6082L217.902 91.7951ZM219.717 96.2789L219.536 96.1933L219.536 96.1935L219.717 96.2789ZM219.348 98.8676L219.162 98.9394L219.162 98.9394L219.348 98.8676ZM218.591 102.244L218.443 102.11L218.442 102.111L218.591 102.244ZM216.717 103.145L216.712 103.344L216.712 103.344L216.717 103.145ZM210.374 109.995L210.574 109.983L210.574 109.983L210.374 109.995ZM207.38 113.797L207.411 113.995H207.411L207.38 113.797ZM203.045 117.84L202.85 117.795L202.85 117.795L203.045 117.84ZM201.268 120.545L201.124 120.406L201.268 120.545ZM200.301 121.621L200.459 121.743L200.459 121.743L200.301 121.621ZM198.073 120.888L197.886 120.958L197.886 120.958L198.073 120.888ZM191.192 116.638L191.212 116.838L191.212 116.838L191.192 116.638ZM189.654 115.635L189.844 115.574L189.844 115.574L189.654 115.635ZM185.342 111.99L185.377 111.794L185.377 111.794L185.342 111.99ZM183.379 110.539L183.193 110.613L183.193 110.614L183.379 110.539ZM182.345 109.268L182.466 109.108L182.465 109.108L182.345 109.268ZM181.567 107.224L181.368 107.215L181.368 107.215L181.567 107.224ZM175.462 100.501L175.465 100.301L175.465 100.301L175.462 100.501ZM173.347 98.7058L173.165 98.7885L173.347 98.7058ZM172.726 97.6082L172.574 97.7383L172.575 97.7384L172.726 97.6082ZM173.861 94.7701L173.795 94.5812L173.793 94.582L173.861 94.7701ZM174.259 94.4903L174.074 94.4131L174.074 94.4146L174.259 94.4903ZM177.922 90.2927L177.796 90.1374L177.922 90.2927ZM180.278 88.1479L180.128 88.0159L180.128 88.0161L180.278 88.1479ZM181.71 87.7159L181.619 87.8939L181.71 87.7159ZM187.958 87.4817L187.853 87.3116L187.853 87.3117L187.958 87.4817ZM189.547 87.8315L189.705 87.7091L189.705 87.7087L189.547 87.8315ZM193.604 89.3646L193.557 89.1702L193.556 89.1704L193.604 89.3646ZM195.145 89.9395L195.291 89.8023L195.29 89.8021L195.145 89.9395ZM200.678 89.0239L200.859 89.1086L200.859 89.1085L200.678 89.0239ZM203.927 88.2239L203.803 88.3813L203.803 88.3814L203.927 88.2239ZM212.12 87.2018L212.278 87.325L212.278 87.3249L212.12 87.2018ZM197.133 81.5055C197.523 79.9578 198.104 78.835 198.921 78.1332C199.732 77.437 200.802 77.133 202.223 77.2752L202.262 76.8771C200.76 76.7268 199.573 77.0461 198.661 77.8297C197.755 78.6078 197.145 79.8215 196.745 81.4077L197.133 81.5055ZM191.935 77.5754C193.119 77.5287 194.055 77.8858 194.827 78.5612C195.605 79.2419 196.226 80.2547 196.754 81.533L197.124 81.3802C196.584 80.0748 195.934 78.9983 195.09 78.2601C194.24 77.5165 193.204 77.125 191.919 77.1758L191.935 77.5754ZM189.941 76.0809C190.094 76.6004 190.273 77.0024 190.594 77.2585C190.919 77.5185 191.352 77.5988 191.935 77.5754L191.919 77.1758C191.37 77.1977 191.056 77.1161 190.843 76.946C190.626 76.7721 190.474 76.4759 190.325 75.9682L189.941 76.0809ZM183.767 70.5616C185.397 70.7402 186.706 71.3345 187.722 72.2701C188.74 73.2071 189.476 74.4966 189.941 76.0809L190.325 75.9682C189.844 74.3317 189.076 72.973 187.993 71.9758C186.908 70.9771 185.517 70.351 183.81 70.1639L183.767 70.5616ZM176.106 75.0087C176.89 73.327 177.923 72.1219 179.193 71.384C180.462 70.6464 181.985 70.3651 183.767 70.5615L183.811 70.164C181.961 69.96 180.349 70.2497 178.992 71.0382C177.636 71.8262 176.554 73.1021 175.744 74.8397L176.106 75.0087ZM173.942 76.2496C174.507 76.3455 174.939 76.3109 175.294 76.0887C175.641 75.8714 175.876 75.4964 176.106 75.0095L175.744 74.839C175.519 75.3166 175.324 75.5979 175.082 75.7497C174.847 75.8966 174.532 75.9439 174.009 75.8552L173.942 76.2496ZM166.843 82.1709C166.956 80.1151 167.77 78.4725 169.026 77.4266C170.281 76.3813 171.996 75.9172 173.941 76.2496L174.009 75.8553C171.96 75.5052 170.124 75.9917 168.77 77.1192C167.417 78.246 166.562 79.9985 166.444 82.149L166.843 82.1709ZM165.717 84.1337C166.076 83.8953 166.349 83.6498 166.537 83.3326C166.726 83.0148 166.817 82.6434 166.843 82.1712L166.444 82.1487C166.42 82.5818 166.338 82.8842 166.193 83.1287C166.048 83.3739 165.828 83.5793 165.495 83.8005L165.717 84.1337ZM163.323 89.9511C163.03 88.637 163.072 87.56 163.455 86.6301C163.839 85.6996 164.575 84.8911 165.717 84.1338L165.496 83.8004C164.311 84.5857 163.509 85.4503 163.086 86.4776C162.662 87.5055 162.628 88.671 162.932 90.038L163.323 89.9511ZM162.927 92.4284C163.196 92.0272 163.349 91.6386 163.407 91.2292C163.464 90.8219 163.424 90.4054 163.322 89.951L162.932 90.0381C163.027 90.4647 163.059 90.8299 163.011 91.1738C162.963 91.5157 162.835 91.8479 162.595 92.2058L162.927 92.4284ZM163.098 96.7682C162.502 96.0827 162.22 95.3652 162.201 94.6436C162.182 93.9199 162.429 93.1721 162.927 92.4284L162.595 92.2058C162.062 93.0011 161.78 93.8289 161.801 94.6539C161.822 95.481 162.148 96.2851 162.797 97.0307L163.098 96.7682ZM163.576 99.0344C163.71 98.6054 163.752 98.2163 163.674 97.8392C163.596 97.4619 163.402 97.1165 163.098 96.7681L162.797 97.0309C163.07 97.344 163.222 97.6288 163.282 97.9201C163.342 98.2116 163.315 98.5293 163.194 98.9152L163.576 99.0344ZM165.122 103.3C164.387 102.779 163.863 102.163 163.591 101.459C163.319 100.757 163.291 99.9508 163.576 99.0342L163.194 98.9154C162.886 99.9069 162.91 100.807 163.218 101.603C163.525 102.397 164.109 103.072 164.89 103.626L165.122 103.3ZM166.113 105.523C166.191 104.998 166.155 104.581 165.981 104.218C165.809 103.858 165.512 103.577 165.122 103.3L164.89 103.626C165.259 103.889 165.492 104.121 165.621 104.391C165.749 104.657 165.788 104.986 165.717 105.464L166.113 105.523ZM171.071 113.299C167.545 112.276 165.558 109.243 166.113 105.523L165.717 105.464C165.132 109.383 167.242 112.604 170.959 113.684L171.071 113.299ZM171.478 113.392C171.327 113.361 171.189 113.333 171.07 113.299L170.96 113.684C171.097 113.723 171.252 113.754 171.399 113.784L171.478 113.392ZM172.556 113.898C172.458 113.708 172.259 113.606 172.081 113.542C171.895 113.476 171.675 113.432 171.478 113.392L171.399 113.784C171.603 113.825 171.792 113.864 171.946 113.919C172.106 113.976 172.176 114.034 172.2 114.081L172.556 113.898ZM176.493 118.053C174.531 117.329 173.503 115.735 172.556 113.898L172.2 114.081C173.152 115.928 174.24 117.648 176.354 118.429L176.493 118.053ZM176.848 118.991C176.829 118.824 176.807 118.632 176.77 118.474C176.752 118.396 176.727 118.315 176.692 118.245C176.658 118.18 176.598 118.093 176.493 118.054L176.353 118.428C176.32 118.416 176.32 118.397 176.336 118.428C176.35 118.455 176.366 118.5 176.381 118.565C176.411 118.695 176.43 118.862 176.45 119.036L176.848 118.991ZM176.882 119.265C176.87 119.186 176.859 119.093 176.848 118.991L176.45 119.036C176.461 119.135 176.473 119.237 176.487 119.327L176.882 119.265ZM182.047 124.97C180.517 124.673 179.352 124.02 178.508 123.064C177.663 122.106 177.127 120.829 176.882 119.265L176.487 119.327C176.74 120.945 177.3 122.299 178.208 123.329C179.119 124.36 180.366 125.051 181.97 125.363L182.047 124.97ZM183.982 127.13C183.875 126.528 183.718 126.044 183.413 125.68C183.103 125.31 182.663 125.091 182.047 124.97L181.97 125.363C182.531 125.473 182.874 125.66 183.106 125.937C183.343 126.219 183.485 126.619 183.588 127.2L183.982 127.13ZM191.164 133.289C187.506 133.221 184.63 130.797 183.982 127.131L183.588 127.2C184.27 131.055 187.308 133.617 191.157 133.689L191.164 133.289ZM193.713 134.458C193.347 134.036 192.975 133.745 192.555 133.56C192.136 133.375 191.683 133.3 191.165 133.289L191.157 133.689C191.642 133.699 192.038 133.769 192.393 133.926C192.748 134.082 193.074 134.332 193.41 134.72L193.713 134.458ZM198.967 134.359C198.179 135.242 197.232 135.689 196.308 135.709C195.385 135.729 194.461 135.325 193.713 134.458L193.41 134.72C194.228 135.667 195.263 136.132 196.317 136.109C197.369 136.086 198.416 135.577 199.265 134.625L198.967 134.359ZM201.008 133.299C200.092 133.299 199.526 133.73 198.967 134.359L199.265 134.625C199.791 134.034 200.256 133.699 201.008 133.699V133.299ZM205.31 129.901C205.065 130.999 204.555 131.846 203.832 132.419C203.108 132.992 202.157 133.303 201.009 133.299L201.008 133.699C202.23 133.703 203.274 133.371 204.08 132.732C204.886 132.094 205.439 131.16 205.7 129.988L205.31 129.901ZM207.022 127.852C206.336 128.292 205.559 128.784 205.31 129.901L205.7 129.988C205.91 129.048 206.545 128.634 207.238 128.189L207.022 127.852ZM208.307 126.633C208.054 127.184 207.574 127.498 207.022 127.852L207.238 128.189C207.774 127.845 208.361 127.474 208.671 126.8L208.307 126.633ZM210.66 124.693C209.632 125.06 208.8 125.557 208.307 126.633L208.671 126.8C209.1 125.863 209.815 125.42 210.794 125.07L210.66 124.693ZM213.844 120.77C213.445 122.677 212.426 124.063 210.66 124.693L210.794 125.07C212.718 124.383 213.814 122.865 214.236 120.852L213.844 120.77ZM219.011 116.411C218.553 116.42 218.026 116.597 217.498 116.867C216.965 117.14 216.416 117.515 215.91 117.942C215.404 118.368 214.938 118.848 214.573 119.332C214.211 119.813 213.941 120.31 213.844 120.77L214.236 120.852C214.315 120.474 214.548 120.031 214.893 119.573C215.236 119.117 215.681 118.658 216.168 118.248C216.655 117.837 217.179 117.48 217.68 117.223C218.184 116.965 218.648 116.818 219.018 116.811L219.011 116.411ZM225.726 109.06C225.973 113.203 223.067 116.33 219.01 116.411L219.019 116.811C223.304 116.725 226.386 113.404 226.125 109.036L225.726 109.06ZM226.715 107.033C226.323 107.278 226.052 107.539 225.892 107.875C225.734 108.209 225.698 108.593 225.726 109.06L226.125 109.036C226.099 108.598 226.137 108.292 226.254 108.047C226.369 107.804 226.572 107.594 226.927 107.372L226.715 107.033ZM228.506 103.188C228.833 104.848 228.108 106.164 226.715 107.033L226.926 107.373C228.436 106.431 229.264 104.961 228.899 103.111L228.506 103.188ZM229.652 100.682C229.197 100.988 228.839 101.297 228.633 101.699C228.424 102.107 228.386 102.581 228.506 103.189L228.899 103.111C228.789 102.559 228.834 102.184 228.989 101.881C229.148 101.573 229.435 101.31 229.876 101.014L229.652 100.682ZM231.321 96.2671C232.024 97.8442 231.227 99.6259 229.653 100.682L229.875 101.014C231.55 99.8906 232.495 97.9186 231.686 96.1042L231.321 96.2671ZM228.856 88.7616C229.412 91.3811 230.231 93.8215 231.321 96.2671L231.686 96.1042C230.606 93.6819 229.797 91.2683 229.248 88.6786L228.856 88.7616ZM228.716 88.1897C228.765 88.3756 228.814 88.5628 228.856 88.7613L229.248 88.679C229.204 88.4693 229.152 88.2728 229.103 88.088L228.716 88.1897ZM228.783 85.8488C228.342 86.778 228.526 87.4644 228.716 88.1897L229.103 88.088C228.914 87.3687 228.77 86.809 229.144 86.0202L228.783 85.8488ZM223.555 76.1402C228.123 76.5379 230.801 81.6095 228.783 85.8485L229.144 86.0204C231.27 81.5543 228.462 76.1659 223.589 75.7417L223.555 76.1402ZM221.661 76.1226C222.302 76.1039 222.932 76.0858 223.555 76.1402L223.589 75.7418C222.939 75.685 222.287 75.7042 221.649 75.7228L221.661 76.1226ZM217.082 75.2153C218.566 76.2178 220.145 76.1667 221.661 76.1226L221.649 75.7228C220.118 75.7673 218.668 75.8044 217.305 74.8838L217.082 75.2153ZM215.828 75.3927C216.046 75.3079 216.311 75.221 216.556 75.1803C216.814 75.1373 216.992 75.1556 217.083 75.216L217.304 74.8832C217.076 74.7311 216.76 74.7408 216.49 74.7857C216.207 74.8329 215.913 74.9305 215.683 75.0199L215.828 75.3927ZM213.439 74.9155C213.815 75.2228 214.177 75.438 214.57 75.5259C214.966 75.6148 215.373 75.569 215.828 75.3928L215.684 75.0198C215.284 75.1743 214.96 75.2034 214.657 75.1356C214.35 75.0669 214.044 74.8938 213.692 74.6057L213.439 74.9155ZM203.451 76.1961C204.784 74.404 206.422 73.3897 208.145 73.1648C209.867 72.9399 211.703 73.5001 213.439 74.9156L213.692 74.6056C211.887 73.1345 209.944 72.5264 208.093 72.7681C206.242 73.0098 204.513 74.0969 203.13 75.9575L203.451 76.1961ZM203.258 76.499C203.326 76.3842 203.387 76.2823 203.451 76.1961L203.13 75.9575C203.051 76.0632 202.98 76.1838 202.914 76.2945L203.258 76.499ZM202.222 77.2751C202.504 77.3039 202.718 77.1879 202.881 77.0272C203.036 76.8748 203.156 76.6701 203.258 76.499L202.914 76.2945C202.805 76.4769 202.711 76.633 202.6 76.7424C202.497 76.8437 202.395 76.8907 202.263 76.8772L202.222 77.2751ZM213.056 85.5643C212.935 85.7338 212.819 85.8984 212.706 86.058L213.033 86.2884C213.146 86.1286 213.261 85.9654 213.381 85.7974L213.056 85.5643ZM213.019 85.6778V85.6809H213.419V85.6778H213.019ZM213.937 86.6226C213.92 86.468 213.9 86.279 213.817 86.0862C213.732 85.888 213.586 85.6977 213.337 85.5161L213.101 85.8395C213.299 85.9838 213.396 86.1193 213.45 86.2443C213.506 86.3748 213.522 86.5064 213.54 86.6673L213.937 86.6226ZM213.943 86.6737C213.941 86.6569 213.939 86.64 213.937 86.6226L213.54 86.6673C213.542 86.6846 213.544 86.7023 213.546 86.72L213.943 86.6737ZM217.973 91.6082C216.83 91.173 215.899 90.5702 215.216 89.7657C214.535 88.9626 214.094 87.9481 213.943 86.6734L213.546 86.7203C213.704 88.0647 214.174 89.1552 214.911 90.0244C215.647 90.8923 216.641 91.529 217.831 91.982L217.973 91.6082ZM219.897 96.3645C220.251 95.6191 220.116 94.5626 219.745 93.6535C219.374 92.7444 218.733 91.8973 217.973 91.6082L217.831 91.982C218.438 92.2131 219.021 92.9372 219.375 93.8046C219.729 94.6719 219.818 95.5972 219.536 96.1933L219.897 96.3645ZM219.535 98.7958C219.247 98.0466 219.504 97.1974 219.898 96.3643L219.536 96.1935C219.139 97.0335 218.809 98.0216 219.162 98.9394L219.535 98.7958ZM218.74 102.378C219.228 101.836 219.574 101.308 219.722 100.725C219.87 100.137 219.812 99.515 219.535 98.7957L219.162 98.9394C219.417 99.6012 219.458 100.137 219.334 100.627C219.209 101.121 218.911 101.591 218.443 102.11L218.74 102.378ZM216.712 103.344C217.163 103.357 217.52 103.292 217.846 103.127C218.168 102.964 218.442 102.71 218.74 102.377L218.442 102.111C218.155 102.432 217.92 102.641 217.665 102.77C217.414 102.898 217.127 102.956 216.723 102.945L216.712 103.344ZM210.574 109.983C210.34 106.151 213.011 103.239 216.712 103.344L216.723 102.945C212.768 102.831 209.927 105.96 210.174 110.007L210.574 109.983ZM207.411 113.995C207.751 113.942 208.119 113.73 208.469 113.451C208.824 113.168 209.179 112.798 209.493 112.399C209.807 111.999 210.084 111.565 210.279 111.151C210.472 110.741 210.594 110.33 210.574 109.983L210.174 110.007C210.189 110.255 210.099 110.593 209.917 110.98C209.738 111.363 209.478 111.771 209.179 112.151C208.88 112.531 208.545 112.878 208.219 113.139C207.889 113.403 207.586 113.563 207.35 113.6L207.411 113.995ZM203.239 117.885C203.54 116.585 203.952 115.722 204.588 115.131C205.224 114.541 206.11 114.198 207.411 113.995L207.35 113.6C206.014 113.808 205.036 114.169 204.316 114.838C203.595 115.508 203.158 116.461 202.85 117.795L203.239 117.885ZM201.411 120.685C202.159 119.913 202.961 119.093 203.239 117.885L202.85 117.795C202.6 118.879 201.883 119.624 201.124 120.406L201.411 120.685ZM200.459 121.743C200.742 121.375 201.071 121.035 201.411 120.685L201.124 120.406C200.787 120.753 200.441 121.11 200.142 121.499L200.459 121.743ZM197.886 120.958C198.18 121.742 198.658 122.153 199.171 122.249C199.677 122.343 200.168 122.121 200.459 121.743L200.142 121.499C199.934 121.769 199.589 121.92 199.245 121.855C198.908 121.792 198.521 121.512 198.26 120.818L197.886 120.958ZM191.212 116.838C194.24 116.539 196.802 118.065 197.886 120.958L198.26 120.818C197.111 117.749 194.375 116.124 191.173 116.439L191.212 116.838ZM189.463 115.696C189.601 116.127 189.778 116.454 190.073 116.65C190.369 116.846 190.744 116.883 191.212 116.838L191.173 116.439C190.735 116.482 190.474 116.436 190.294 116.317C190.114 116.197 189.974 115.979 189.844 115.574L189.463 115.696ZM185.307 112.187C187.315 112.547 188.809 113.653 189.463 115.696L189.844 115.574C189.139 113.37 187.509 112.176 185.377 111.794L185.307 112.187ZM183.193 110.614C183.395 111.118 183.669 111.473 184.031 111.722C184.388 111.968 184.816 112.1 185.307 112.187L185.377 111.794C184.911 111.711 184.548 111.592 184.258 111.392C183.972 111.195 183.743 110.91 183.565 110.465L183.193 110.614ZM182.225 109.428C182.631 109.733 183.015 110.165 183.193 110.613L183.565 110.466C183.351 109.928 182.909 109.442 182.466 109.108L182.225 109.428ZM181.368 107.215C181.349 107.643 181.362 108.048 181.482 108.421C181.604 108.801 181.833 109.135 182.226 109.428L182.465 109.108C182.136 108.862 181.958 108.596 181.863 108.299C181.765 107.995 181.75 107.647 181.767 107.232L181.368 107.215ZM175.458 100.701C177.318 100.735 178.833 101.421 179.863 102.56C180.893 103.7 181.452 105.309 181.368 107.215L181.767 107.233C181.855 105.238 181.271 103.521 180.16 102.292C179.048 101.062 177.424 100.337 175.465 100.301L175.458 100.701ZM173.165 98.7885C173.361 99.2195 173.575 99.6948 173.916 100.06C174.269 100.436 174.75 100.689 175.458 100.701L175.465 100.301C174.864 100.291 174.486 100.083 174.208 99.7863C173.92 99.4781 173.731 99.0672 173.53 98.6232L173.165 98.7885ZM172.575 97.7384C172.814 98.0175 172.982 98.3836 173.165 98.7885L173.53 98.6232C173.351 98.2305 173.161 97.8084 172.878 97.4781L172.575 97.7384ZM173.793 94.582C172.996 94.8693 172.552 95.4951 172.375 96.1186C172.287 96.4296 172.264 96.7442 172.297 97.0232C172.329 97.2988 172.419 97.5568 172.574 97.7383L172.878 97.4782C172.792 97.3768 172.721 97.2039 172.694 96.9762C172.667 96.7517 172.686 96.4902 172.76 96.2278C172.908 95.7045 173.274 95.1942 173.929 94.9583L173.793 94.582ZM174.074 94.4146C174.071 94.4222 174.051 94.4513 173.988 94.491C173.931 94.5274 173.86 94.5586 173.795 94.5812L173.927 94.959C174.01 94.9299 174.111 94.8866 174.203 94.8287C174.289 94.7741 174.394 94.6891 174.444 94.5659L174.074 94.4146ZM177.796 90.1374C176.357 91.3062 174.87 92.5098 174.074 94.4131L174.443 94.5674C175.195 92.7707 176.599 91.6255 178.048 90.4479L177.796 90.1374ZM180.128 88.0161C179.441 88.8006 178.627 89.4627 177.796 90.1374L178.048 90.4479C178.874 89.7768 179.716 89.0939 180.429 88.2796L180.128 88.0161ZM181.801 87.5379C181.42 87.3426 181.114 87.2869 180.826 87.406C180.691 87.4622 180.573 87.5517 180.464 87.6547C180.356 87.757 180.246 87.8822 180.128 88.0159L180.429 88.2798C180.549 88.1428 180.647 88.0326 180.739 87.9457C180.83 87.8594 180.906 87.8057 180.979 87.7756C181.109 87.7221 181.281 87.7211 181.619 87.8939L181.801 87.5379ZM187.853 87.3117C185.895 88.527 183.843 88.5836 181.801 87.5379L181.619 87.8939C183.782 89.0019 185.983 88.9429 188.064 87.6516L187.853 87.3117ZM189.705 87.7087C189.448 87.3781 189.197 87.1272 188.883 87.0475C188.56 86.9654 188.23 87.0783 187.853 87.3116L188.063 87.6518C188.414 87.4349 188.623 87.3942 188.785 87.4352C188.956 87.4787 189.135 87.6278 189.389 87.9542L189.705 87.7087ZM193.556 89.1704C191.991 89.5532 190.684 88.9743 189.705 87.7091L189.389 87.9538C190.448 89.323 191.908 89.9852 193.651 89.5589L193.556 89.1704ZM195.29 89.8021C195.055 89.5538 194.823 89.3419 194.544 89.2211C194.257 89.0966 193.942 89.077 193.557 89.1702L193.651 89.559C193.97 89.4819 194.193 89.5049 194.385 89.588C194.585 89.6748 194.771 89.8355 195 90.077L195.29 89.8021ZM200.496 88.9393C199.92 90.1723 199.068 90.8573 198.158 91.0104C197.249 91.1634 196.226 90.7947 195.291 89.8023L195 90.0768C196 91.1377 197.149 91.5858 198.224 91.4049C199.299 91.2241 200.244 90.4247 200.859 89.1086L200.496 88.9393ZM204.05 88.0665C203.314 87.4899 202.632 87.2248 202.007 87.3791C201.383 87.5332 200.895 88.0857 200.496 88.9393L200.859 89.1085C201.241 88.2891 201.658 87.8773 202.103 87.7675C202.546 87.658 203.099 87.8293 203.803 88.3813L204.05 88.0665ZM211.963 87.0786C209.99 89.6022 206.555 90.0268 204.05 88.0664L203.803 88.3814C206.484 90.479 210.17 90.0214 212.278 87.325L211.963 87.0786ZM212.706 86.058C212.451 86.4202 212.214 86.7563 211.962 87.0787L212.278 87.3249C212.537 86.9934 212.779 86.6491 213.033 86.2884L212.706 86.058Z" fill="black"/>
<path fill-rule="evenodd" clip-rule="evenodd" d="M341.774 51.5664C340.253 55.4864 337.859 58.8944 334.998 62.0066L334.991 62.0135C334.793 62.2298 334.601 62.4531 334.408 62.6766C333.991 63.1603 333.573 63.6448 333.1 64.061C329.531 67.2038 325.88 70.2994 321.149 69.8865C319.717 69.7617 318.816 70.1489 317.683 71.1857C314.377 74.2129 311.021 77.2502 306.545 77.7503C303.579 78.0809 301.62 76.3606 301.486 73.3633C301.397 71.3546 301.834 69.3613 302.542 67.4223C303.004 66.1582 302.926 65.5392 301.649 65.2274C299.59 64.7239 298.824 63.0215 298.736 60.9294C298.646 58.7907 299.15 56.6668 300.019 54.5789C302.518 48.579 306.542 43.759 311.513 39.6836C312.403 38.9551 312.889 38.1486 313.242 37.0649C316.099 28.3093 321.653 21.7591 329.572 17.2837C331.527 16.1774 333.677 15.7194 335.574 16.6301C336.789 17.2123 337.517 16.891 338.567 15.897C341.489 13.1344 344.516 10.5184 348.338 9.33541C352.539 8.0329 355.324 10.1619 355.125 14.5272C355.038 16.4185 354.511 18.2465 353.774 19.9965C353.717 20.1326 353.66 20.2655 353.604 20.3951C352.975 21.8507 352.525 22.891 354.736 23.2874C356.046 23.5213 356.786 24.9529 356.975 26.5016C357.223 28.5599 356.895 30.6128 356.123 32.6457C353.677 39.0723 349.76 44.417 344.225 48.5632C343.159 49.361 342.277 50.271 341.774 51.5664ZM333.084 44.9357C332.077 46.8781 330.698 48.6717 329.152 50.3621L329.161 50.3521C329.052 50.4723 328.944 50.5948 328.837 50.717C328.608 50.9778 328.38 51.2371 328.134 51.469C326.254 53.2396 324.353 54.9905 322.243 55.217C321.603 55.2901 321.16 55.5523 320.564 56.1274C318.817 57.8153 317.038 59.5305 314.977 60.149C313.602 60.5669 312.868 59.9357 313.054 58.5629C313.174 57.6445 313.543 56.6777 314.023 55.7219C314.344 55.0924 314.355 54.8157 313.805 54.7837C312.917 54.732 312.708 54.0134 312.843 53.0514C312.981 52.0726 313.386 51.0451 313.952 50.0009C315.59 46.9996 317.803 44.4195 320.396 42.0914C320.85 41.6857 321.144 41.26 321.391 40.732C323.409 36.4305 326.469 32.9037 330.421 30.1414C331.399 29.4552 332.414 29.0547 333.194 29.3085C333.697 29.4681 334.055 29.2575 334.613 28.7032C336.162 27.1692 337.75 25.6911 339.576 24.8077C341.577 23.844 342.66 24.5812 342.209 26.619C342.012 27.5023 341.624 28.3929 341.142 29.2689C341.105 29.3358 341.068 29.4013 341.032 29.4651C340.62 30.2018 340.329 30.7216 341.302 30.7078C341.873 30.7028 342.09 31.2946 342.044 31.9983C341.992 32.9253 341.676 33.9044 341.153 34.9144C339.511 38.1023 337.292 40.9257 334.442 43.3324C333.89 43.7967 333.423 44.2859 333.084 44.9357Z" fill="#FFDBDB"/>
<path d="M334.998 62.0066L334.877 61.89L334.877 61.8896L334.998 62.0066ZM341.774 51.5664L341.62 51.5032L341.62 51.5031L341.774 51.5664ZM334.408 62.6766L334.284 62.5636L334.408 62.6766ZM333.1 64.061L332.992 63.9317L332.992 63.9317L333.1 64.061ZM321.149 69.8865L321.163 69.7169L321.163 69.7169L321.149 69.8865ZM317.683 71.1857L317.572 71.0586L317.572 71.0585L317.683 71.1857ZM306.545 77.7503L306.564 77.9195L306.564 77.9195L306.545 77.7503ZM301.486 73.3633L301.32 73.3708L301.32 73.3708L301.486 73.3633ZM302.542 67.4223L302.697 67.4822L302.697 67.4822L302.542 67.4223ZM301.649 65.2274L301.611 65.393L301.611 65.393L301.649 65.2274ZM298.736 60.9294L298.571 60.9365L298.571 60.9364L298.736 60.9294ZM300.019 54.5789L299.866 54.5118L299.867 54.5118L300.019 54.5789ZM311.513 39.6836L311.41 39.5505L311.41 39.5505L311.513 39.6836ZM313.242 37.0649L313.085 37.0106L313.085 37.0105L313.242 37.0649ZM329.572 17.2837L329.653 17.4328L329.652 17.4328L329.572 17.2837ZM335.574 16.6301L335.505 16.7844L335.504 16.7843L335.574 16.6301ZM338.567 15.897L338.454 15.7717L338.455 15.7717L338.567 15.897ZM348.338 9.33541L348.386 9.49836L348.386 9.49838L348.338 9.33541ZM355.125 14.5272L354.959 14.5189L354.959 14.5189L355.125 14.5272ZM353.774 19.9965L353.622 19.9289L353.622 19.9288L353.774 19.9965ZM353.604 20.3951L353.452 20.3259L353.452 20.3259L353.604 20.3951ZM354.736 23.2874L354.708 23.4551L354.708 23.455L354.736 23.2874ZM356.975 26.5016L357.14 26.4807L357.14 26.481L356.975 26.5016ZM356.123 32.6457L356.277 32.7078L356.277 32.7079L356.123 32.6457ZM344.225 48.5632L344.323 48.7007L344.323 48.7008L344.225 48.5632ZM333.084 44.9357L332.937 44.8556L332.938 44.855L333.084 44.9357ZM328.837 50.717L328.714 50.603L328.837 50.717ZM328.134 51.469L328.022 51.3435L328.022 51.3433L328.134 51.469ZM322.243 55.217L322.224 55.0478L322.225 55.0477L322.243 55.217ZM320.564 56.1274L320.45 56.0033L320.45 56.0033L320.564 56.1274ZM314.977 60.149L314.929 59.9858L314.93 59.9856L314.977 60.149ZM313.054 58.5629L313.218 58.586L313.218 58.5867L313.054 58.5629ZM314.023 55.7219L313.875 55.6437L313.876 55.6427L314.023 55.7219ZM313.805 54.7837L313.814 54.6138L313.814 54.6138L313.805 54.7837ZM312.843 53.0514L312.679 53.0268L312.679 53.0268L312.843 53.0514ZM313.952 50.0009L313.808 49.9179L313.808 49.9176L313.952 50.0009ZM320.396 42.0914L320.287 41.9631L320.288 41.9629L320.396 42.0914ZM321.391 40.732L321.242 40.658L321.242 40.6579L321.391 40.732ZM330.421 30.1414L330.515 30.282L330.514 30.2822L330.421 30.1414ZM333.194 29.3085L333.145 29.4711L333.144 29.4707L333.194 29.3085ZM334.613 28.7032L334.498 28.5808L334.498 28.5806L334.613 28.7032ZM339.576 24.8077L339.505 24.6537L339.505 24.6535L339.576 24.8077ZM342.209 26.619L342.371 26.6569L342.371 26.6572L342.209 26.619ZM341.142 29.2689L340.997 29.1849L340.997 29.1848L341.142 29.2689ZM341.032 29.4651L340.889 29.3802L340.889 29.3801L341.032 29.4651ZM341.302 30.7078L341.3 30.5376L341.301 30.5376L341.302 30.7078ZM342.044 31.9983L341.879 31.9882L341.879 31.9868L342.044 31.9983ZM341.153 34.9144L341.007 34.8346L341.007 34.8343L341.153 34.9144ZM334.442 43.3324L334.547 43.4639L334.547 43.4641L334.442 43.3324ZM334.877 61.8896C337.729 58.7878 340.109 55.3975 341.62 51.5032L341.928 51.6296C340.397 55.5754 337.989 59.0011 335.118 62.1235L334.877 61.8896ZM334.87 61.8968L334.877 61.89L335.118 62.1232L335.112 62.1301L334.87 61.8968ZM334.284 62.5636C334.476 62.3404 334.671 62.1153 334.87 61.8968L335.112 62.1301C334.916 62.3443 334.725 62.5658 334.532 62.7895L334.284 62.5636ZM332.992 63.9317C333.455 63.5244 333.865 63.0489 334.284 62.5636L334.532 62.7895C334.116 63.2717 333.691 63.7652 333.208 64.1903L332.992 63.9317ZM321.163 69.7169C325.814 70.1228 329.413 67.0833 332.992 63.9317L333.208 64.1903C329.649 67.3242 325.947 70.476 321.135 70.0561L321.163 69.7169ZM317.572 71.0585C318.147 70.5328 318.673 70.1621 319.245 69.9412C319.82 69.7194 320.428 69.6529 321.163 69.7169L321.135 70.0561C320.438 69.9953 319.88 70.0599 319.363 70.2598C318.843 70.4604 318.352 70.8018 317.793 71.3129L317.572 71.0585ZM306.527 77.5811C310.942 77.0878 314.259 74.0925 317.572 71.0586L317.793 71.3128C314.495 74.3333 311.101 77.4125 306.564 77.9195L306.527 77.5811ZM301.652 73.3558C301.717 74.8176 302.226 75.9484 303.06 76.675C303.896 77.4017 305.078 77.7425 306.527 77.5811L306.564 77.9195C305.046 78.0887 303.766 77.7346 302.846 76.9345C301.927 76.1343 301.389 74.9063 301.32 73.3708L301.652 73.3558ZM302.697 67.4822C301.994 69.4079 301.564 71.3774 301.652 73.3558L301.32 73.3708C301.23 71.3318 301.674 69.3148 302.387 67.3623L302.697 67.4822ZM301.687 65.0619C302.339 65.221 302.753 65.4736 302.904 65.9111C302.977 66.1232 302.981 66.36 302.94 66.6172C302.9 66.8741 302.814 67.162 302.697 67.4822L302.387 67.3623C302.501 67.0505 302.578 66.787 302.613 66.5626C302.648 66.3384 302.639 66.164 302.591 66.0243C302.499 65.7584 302.236 65.5456 301.611 65.393L301.687 65.0619ZM298.902 60.9223C298.945 61.9514 299.155 62.8676 299.594 63.5836C300.029 64.2946 300.698 64.8201 301.687 65.0619L301.611 65.393C300.54 65.1313 299.797 64.5538 299.313 63.7646C298.833 62.9805 298.615 61.9994 298.571 60.9365L298.902 60.9223ZM300.171 54.6461C299.309 56.7181 298.813 58.8161 298.902 60.9223L298.571 60.9364C298.479 58.7652 298.991 56.6156 299.866 54.5118L300.171 54.6461ZM311.617 39.8167C306.662 43.8791 302.657 48.6778 300.171 54.6461L299.867 54.5118C302.379 48.4801 306.423 43.6389 311.41 39.5505L311.617 39.8167ZM313.399 37.1191C313.038 38.2283 312.535 39.0644 311.617 39.8167L311.41 39.5505C312.27 38.8458 312.74 38.0688 313.085 37.0106L313.399 37.1191ZM329.652 17.4328C321.767 21.889 316.242 28.4065 313.399 37.1192L313.085 37.0105C315.956 28.2121 321.538 21.6292 329.492 17.1345L329.652 17.4328ZM335.504 16.7843C333.675 15.9063 331.584 16.3394 329.653 17.4328L329.492 17.1346C331.469 16.0154 333.679 15.5326 335.644 16.476L335.504 16.7843ZM338.679 16.0222C338.151 16.5226 337.682 16.8755 337.177 17.0187C336.662 17.1645 336.135 17.0867 335.505 16.7844L335.644 16.4759C336.228 16.7557 336.672 16.8084 337.088 16.6905C337.513 16.5701 337.933 16.2653 338.454 15.7717L338.679 16.0222ZM348.386 9.49838C344.604 10.669 341.601 13.26 338.679 16.0223L338.455 15.7717C341.377 13.0089 344.428 10.3677 348.29 9.17243L348.386 9.49838ZM354.959 14.5189C355.057 12.3728 354.421 10.8131 353.283 9.94232C352.143 9.07029 350.456 8.85662 348.386 9.49836L348.29 9.17245C350.421 8.51169 352.228 8.71127 353.481 9.66942C354.735 10.6289 355.392 12.3163 355.29 14.5354L354.959 14.5189ZM353.622 19.9288C354.353 18.1904 354.874 16.3832 354.959 14.5189L355.29 14.5354C355.203 16.4538 354.668 18.3025 353.926 20.0642L353.622 19.9288ZM353.452 20.3259C353.508 20.1961 353.565 20.064 353.622 19.9289L353.926 20.0641C353.869 20.2011 353.811 20.3349 353.755 20.4644L353.452 20.3259ZM354.708 23.455C354.145 23.3542 353.733 23.2095 353.447 23.0148C353.154 22.8156 352.993 22.5642 352.942 22.2681C352.892 21.9816 352.948 21.6711 353.046 21.3533C353.146 21.0343 353.296 20.6874 353.452 20.3259L353.755 20.4644C353.597 20.8307 353.455 21.1596 353.362 21.4574C353.269 21.7564 353.233 22.0037 353.268 22.2088C353.302 22.4042 353.405 22.5782 353.629 22.731C353.861 22.8883 354.222 23.0224 354.765 23.1197L354.708 23.455ZM356.811 26.5225C356.718 25.7669 356.492 25.0485 356.138 24.4949C355.784 23.9431 355.307 23.562 354.708 23.4551L354.764 23.1197C355.475 23.2466 356.024 23.6984 356.414 24.308C356.804 24.9159 357.043 25.6877 357.14 26.4807L356.811 26.5225ZM355.968 32.5837C356.732 30.5719 357.055 28.5475 356.811 26.5222L357.14 26.481C357.392 28.5723 357.057 30.6537 356.277 32.7078L355.968 32.5837ZM344.127 48.4256C349.636 44.2991 353.534 38.9809 355.969 32.5836L356.277 32.7079C353.82 39.1637 349.884 44.5349 344.323 48.7007L344.127 48.4256ZM341.62 51.5031C342.139 50.1665 343.048 49.2333 344.127 48.4256L344.323 48.7008C343.27 49.4887 342.414 50.3755 341.928 51.6296L341.62 51.5031ZM329.031 50.2454C330.571 48.5614 331.94 46.7801 332.937 44.8556L333.23 45.0158C332.214 46.9762 330.825 48.782 329.273 50.4787L329.031 50.2454ZM329.282 50.4687L329.273 50.4787L329.031 50.2454L329.041 50.2355L329.282 50.4687ZM328.714 50.603C328.821 50.481 328.929 50.3572 329.041 50.2355L329.282 50.4687C329.174 50.5874 329.067 50.7087 328.96 50.8311L328.714 50.603ZM328.022 51.3433C328.261 51.1179 328.484 50.8649 328.714 50.603L328.96 50.8311C328.732 51.0908 328.499 51.3563 328.246 51.5946L328.022 51.3433ZM322.225 55.0477C323.242 54.9386 324.218 54.461 325.18 53.7817C326.143 53.1022 327.08 52.2299 328.022 51.3435L328.246 51.5945C327.307 52.4786 326.354 53.3672 325.369 54.0624C324.383 54.7578 323.354 55.2689 322.26 55.3863L322.225 55.0477ZM320.45 56.0033C321.061 55.4139 321.536 55.1264 322.224 55.0478L322.262 55.3862C321.67 55.4537 321.259 55.6907 320.677 56.2515L320.45 56.0033ZM314.93 59.9856C316.946 59.3808 318.695 57.699 320.45 56.0033L320.678 56.2515C318.938 57.9316 317.13 59.6802 315.023 60.3124L314.93 59.9856ZM313.218 58.5867C313.129 59.2462 313.267 59.6727 313.534 59.8954C313.804 60.1205 314.264 60.1881 314.929 59.9858L315.024 60.3122C314.315 60.5277 313.72 60.4887 313.325 60.1595C312.928 59.8279 312.793 59.2524 312.89 58.5392L313.218 58.5867ZM314.17 55.8C313.694 56.748 313.335 57.695 313.218 58.586L312.889 58.5399C313.014 57.5939 313.392 56.6073 313.875 55.6437L314.17 55.8ZM313.814 54.6138C313.961 54.6223 314.092 54.6478 314.196 54.7062C314.309 54.77 314.382 54.8701 314.404 54.9998C314.424 55.1171 314.399 55.2438 314.358 55.3687C314.317 55.4963 314.251 55.6408 314.169 55.801L313.876 55.6427C313.954 55.4882 314.011 55.3621 314.044 55.2598C314.078 55.1547 314.083 55.0923 314.077 55.0577C314.073 55.0356 314.066 55.0211 314.036 55.0044C313.997 54.9822 313.924 54.9611 313.796 54.9536L313.814 54.6138ZM313.007 53.076C312.941 53.5454 312.965 53.924 313.089 54.1842C313.205 54.427 313.42 54.5908 313.814 54.6138L313.796 54.9536C313.301 54.9248 312.968 54.7035 312.791 54.3336C312.623 53.9811 312.61 53.5194 312.679 53.0268L313.007 53.076ZM314.097 50.084C313.536 51.1186 313.141 52.1256 313.007 53.076L312.679 53.0268C312.821 52.0197 313.236 50.9716 313.808 49.9179L314.097 50.084ZM320.506 42.2196C317.922 44.5384 315.723 47.1039 314.097 50.0843L313.808 49.9176C315.456 46.8953 317.683 44.3006 320.287 41.9631L320.506 42.2196ZM321.541 40.806C321.285 41.3519 320.978 41.797 320.505 42.2198L320.288 41.9629C320.722 41.5744 321.003 41.1681 321.242 40.658L321.541 40.806ZM330.514 30.2822C326.585 33.0291 323.545 36.5336 321.541 40.8061L321.242 40.6579C323.274 36.3274 326.354 32.7784 330.328 30.0007L330.514 30.2822ZM333.144 29.4707C332.798 29.3581 332.386 29.3868 331.932 29.5347C331.478 29.6823 330.995 29.9449 330.515 30.282L330.327 30.0008C330.825 29.6517 331.338 29.3709 331.831 29.2102C332.324 29.0498 332.81 29.0051 333.244 29.1462L333.144 29.4707ZM334.728 28.8256C334.448 29.1045 334.201 29.314 333.951 29.429C333.69 29.5487 333.433 29.5624 333.145 29.4711L333.243 29.1459C333.458 29.2141 333.632 29.2024 333.815 29.1181C334.009 29.0291 334.221 28.8562 334.498 28.5808L334.728 28.8256ZM339.647 24.9617C337.848 25.8318 336.278 27.2911 334.728 28.8258L334.498 28.5806C336.046 27.0473 337.651 25.5504 339.505 24.6537L339.647 24.9617ZM342.048 26.581C342.269 25.5787 342.094 24.9855 341.72 24.7293C341.334 24.4642 340.638 24.4844 339.646 24.9618L339.505 24.6535C340.515 24.1672 341.362 24.0743 341.904 24.4463C342.459 24.8272 342.6 25.6215 342.371 26.6569L342.048 26.581ZM340.997 29.1848C341.476 28.3168 341.856 27.4421 342.048 26.5807L342.371 26.6572C342.169 27.5625 341.773 28.4691 341.286 29.3529L340.997 29.1848ZM340.889 29.3801C340.924 29.3162 340.961 29.2512 340.997 29.1849L341.286 29.3528C341.249 29.4203 341.212 29.4864 341.176 29.5501L340.889 29.3801ZM341.305 30.878C341.054 30.8816 340.854 30.8525 340.712 30.7722C340.637 30.73 340.576 30.6724 340.536 30.5977C340.496 30.5236 340.481 30.4436 340.482 30.3656C340.484 30.2166 340.542 30.0549 340.614 29.8991C340.687 29.7396 340.787 29.5626 340.889 29.3802L341.176 29.5501C341.072 29.7361 340.98 29.9003 340.914 30.045C340.845 30.1935 340.814 30.299 340.814 30.3703C340.813 30.4024 340.819 30.4208 340.825 30.4322C340.831 30.4429 340.843 30.4578 340.871 30.474C340.936 30.5103 341.064 30.541 341.3 30.5376L341.305 30.878ZM341.879 31.9868C341.901 31.6513 341.858 31.3627 341.758 31.1659C341.663 30.9802 341.52 30.8761 341.304 30.878L341.301 30.5376C341.656 30.5345 341.906 30.7238 342.051 31.0086C342.191 31.2824 342.233 31.6416 342.21 32.0098L341.879 31.9868ZM341.007 34.8343C341.522 33.8382 341.828 32.8833 341.879 31.9882L342.21 32.0084C342.156 32.9674 341.83 33.9706 341.3 34.9944L341.007 34.8343ZM334.336 43.2008C337.169 40.8085 339.375 38.0027 341.007 34.8346L341.3 34.9942C339.647 38.202 337.414 41.043 334.547 43.4639L334.336 43.2008ZM332.938 44.855C333.291 44.178 333.776 43.6723 334.336 43.2006L334.547 43.4641C334.004 43.9211 333.555 44.3938 333.23 45.0164L332.938 44.855Z" fill="black"/>
<path d="M305.602 113.225C306.51 116.272 307.686 119.665 309.064 122.354C309.064 122.354 309.166 122.31 309.353 122.243C313.958 120.607 318.755 124.607 318.024 129.571C317.933 130.193 317.751 130.783 317.441 131.267L318.985 132.612C321.523 134.821 323.607 138.071 323.521 141.492C323.51 141.883 323.484 142.274 323.43 142.671C322.821 147.067 320.321 151.177 314.465 152.152C308.295 152.885 303.118 150.175 299.533 144.715C299.218 144.236 298.945 143.767 298.726 143.31C294.65 134.826 297.674 127.984 297.674 127.984C297.198 127.284 296.723 126.386 296.263 125.367C288.266 132.804 277.677 137.333 266.057 137.333C254.437 137.333 243.875 132.815 235.882 125.395L234.931 127.978C234.931 127.978 238.185 142.517 226.137 150.433C218.049 155.744 209.757 149.238 210.799 140.214C211.232 136.468 212.979 133.686 214.619 131.84C216.259 130 217.792 129.091 217.792 129.091C217.696 128.998 217.611 128.909 217.525 128.816C214.555 125.571 218.15 120.425 222.162 122.106L223.568 122.69C225.144 120.58 226.447 117.99 227.558 115.071H227.553C223.365 108.008 220.944 99.7002 220.944 90.8141C220.944 65.1196 241.144 44.3008 266.057 44.3008C290.969 44.3008 311.169 65.1252 311.169 90.8196C311.169 98.9455 309.15 106.581 305.602 113.231V113.225Z" fill="#FFFD9C"/>
<path d="M227.552 115.071C223.364 108.008 220.943 99.7002 220.943 90.8141C220.943 65.1197 241.143 44.3008 266.056 44.3008C290.968 44.3008 311.168 65.1252 311.168 90.8196C311.168 98.9455 309.149 106.581 305.601 113.231" stroke="black" stroke-width="0.455231" stroke-miterlimit="10"/>
<path d="M296.265 125.367C288.267 132.804 277.678 137.332 266.058 137.332C254.438 137.332 243.876 132.815 235.884 125.394" stroke="black" stroke-width="0.455231" stroke-miterlimit="10"/>
<path d="M292.103 112.443C292.103 112.443 293.988 120.321 296.264 125.362C296.724 126.387 297.199 127.285 297.675 127.984C297.675 127.984 294.651 134.827 298.727 143.311C298.946 143.768 299.219 144.236 299.534 144.716C303.119 150.175 308.296 152.886 314.466 152.153C320.322 151.178 322.822 147.068 323.431 142.672C323.485 142.275 323.511 141.884 323.522 141.493C323.607 138.072 321.524 134.821 318.986 132.612L317.442 131.268C317.752 130.783 317.934 130.194 318.025 129.571C318.756 124.607 313.959 120.608 309.354 122.244C309.167 122.31 309.065 122.354 309.065 122.354C307.687 119.666 306.511 116.272 305.603 113.226C304.321 108.917 303.578 105.292 303.578 105.292" stroke="black" stroke-width="0.455231" stroke-miterlimit="10"/>
<path d="M230.182 106.421C229.418 109.495 228.563 112.415 227.558 115.07C226.447 117.99 225.144 120.579 223.568 122.689L222.162 122.105C218.15 120.425 214.555 125.571 217.525 128.815C217.611 128.909 217.696 128.997 217.792 129.091C217.792 129.091 216.259 130 214.619 131.84C212.979 133.685 211.232 136.467 210.799 140.214C209.757 149.238 218.049 155.744 226.137 150.433C238.185 142.516 234.931 127.978 234.931 127.978L235.882 125.394L241.572 109.925" stroke="black" stroke-width="0.455231" stroke-miterlimit="10"/>
<path d="M276.315 89.5133C276.315 89.5133 275.107 89.6896 274.755 88.2793" stroke="black" stroke-width="0.455231" stroke-miterlimit="10"/>
<path d="M256.66 86.7484C256.66 86.7484 257.504 87.3269 257.232 88.4672L257.905 88.7702C263.066 91.0896 268.681 91.0565 273.89 88.6711L274.75 88.2744C274.552 87.0845 275.311 86.2471 275.311 86.2471" stroke="black" stroke-width="0.455231" stroke-miterlimit="10"/>
<path d="M255.591 89.4304C255.591 89.4304 256.83 89.8491 257.231 88.4663" stroke="black" stroke-width="0.455231" stroke-miterlimit="10"/>
<path d="M253.17 82.9363C253.694 81.5297 253.745 80.6335 253.325 80.2479C252.753 80.6666 252.182 81.0908 251.61 81.5095C251.503 81.4324 251.391 81.3497 251.284 81.2726C252.064 80.1653 253.314 79.2122 252.486 77.4272C255.51 82.1265 258.769 82.3964 262.482 78.4354C262.215 80.2644 261.077 81.0908 259.763 81.6692C259.186 81.9227 258.502 82.0273 257.872 82.0108C256.258 81.9833 254.495 80.8649 253.17 82.9363Z" fill="black"/>
<path d="M269.541 78.3967C270.898 80.0274 272.373 81.2559 274.606 81.03C276.823 80.8097 278.148 79.4875 278.901 77.3555C279.43 78.8925 279.857 80.1431 280.301 81.4377C279.467 81.939 278.955 79.2175 277.779 80.8978C278.164 81.5314 278.511 82.1043 278.858 82.6773L278.655 83.1565C277.352 80.8372 275.546 82.0382 273.906 82.0217C271.63 81.9941 269.862 80.6444 269.546 78.3912L269.541 78.3967Z" fill="black"/>
<path d="M332.607 97.7982C336.125 97.7982 338.978 94.8694 338.978 91.2565C338.978 87.6437 336.125 84.7148 332.607 84.7148C329.089 84.7148 326.236 87.6437 326.236 91.2565C326.236 94.8694 329.089 97.7982 332.607 97.7982Z" fill="#FFE09C" stroke="black" stroke-width="0.336014" stroke-miterlimit="10"/>
<path d="M337.285 90.1536C339.104 90.1536 340.579 88.6391 340.579 86.7709C340.579 84.9027 339.104 83.3882 337.285 83.3882C335.465 83.3882 333.99 84.9027 333.99 86.7709C333.99 88.6391 335.465 90.1536 337.285 90.1536Z" fill="#FFE09C" stroke="black" stroke-width="0.336014" stroke-miterlimit="10"/>
</g>
</g>
<path d="M233.497 23.3613V24.8994H238.741V26.2031H226.671V24.8994H231.886V23.3613H233.497ZM227.286 22.8779C230.113 22.5996 231.856 21.3398 231.856 19.8311V19.4795H233.512V19.8311C233.512 21.3398 235.247 22.5996 238.082 22.8779L237.511 24.123C235.291 23.8447 233.534 23.0098 232.677 21.7207C231.827 23.0098 230.077 23.8447 227.857 24.123L227.286 22.8779ZM228.092 28.2539V27.0088H237.232V30.29H229.703V31.2422H237.598V32.4873H228.106V29.1328H235.636V28.2539H228.092ZM243.691 21.6621C243.691 23.2954 244.819 24.9287 246.928 25.5879L246.093 26.8477C244.592 26.3643 243.5 25.3682 242.892 24.1084C242.299 25.478 241.171 26.5693 239.604 27.0967L238.769 25.8369C240.9 25.1191 242.035 23.3979 242.05 21.6621V21.501H239.194V20.1973H246.474V21.501H243.691V21.6621ZM240.659 29.2793V27.9609H249.697V32.6045H248.056V29.2793H240.659ZM248.056 27.3457V19.3623H249.697V27.3457H248.056ZM261.106 19.377V23.5371H262.952V24.8848H261.106V29.2646H259.48V19.377H261.106ZM250.677 22.1455V20.8418H253.797V19.3623H255.423V20.8418H258.528V22.1455H250.677ZM251.35 25.2217C251.35 23.6982 252.676 22.6875 254.602 22.6875C256.514 22.6875 257.832 23.6982 257.84 25.2217C257.832 26.7378 256.514 27.7266 254.602 27.7266C252.676 27.7266 251.35 26.7378 251.35 25.2217ZM252.625 32.3408V28.4883H254.251V31.0225H261.634V32.3408H252.625ZM252.932 25.2217C252.925 26.02 253.599 26.4741 254.602 26.4668C255.606 26.4741 256.287 26.02 256.287 25.2217C256.287 24.416 255.606 23.9473 254.602 23.9473C253.599 23.9473 252.925 24.416 252.932 25.2217ZM276.645 19.3623V32.6045H275.092V25.8516H273.598V31.9307H272.104V19.6113H273.598V24.5479H275.092V19.3623H276.645ZM265.659 29.5137V20.9297H270.61V22.248H267.299V28.1367C268.735 28.1221 269.922 28.0488 271.269 27.7998L271.386 29.1328C269.782 29.4551 268.398 29.499 266.552 29.5137H265.659ZM287.718 19.3623V24.8262H289.578V26.1885H287.718V32.6045H286.077V19.3623H287.718ZM277.083 28.9277C278.087 28.9277 279.251 28.9277 280.467 28.8984V27.6606C279.024 27.4116 278.087 26.5107 278.094 25.2656C278.087 23.7715 279.398 22.7827 281.302 22.7754C283.184 22.7827 284.51 23.7715 284.525 25.2656C284.51 26.5181 283.55 27.4189 282.108 27.6606V28.8398C283.221 28.7812 284.334 28.6934 285.374 28.5469L285.477 29.7334C282.635 30.2534 279.573 30.2754 277.318 30.2754L277.083 28.9277ZM277.332 22.1748V20.8857H280.467V19.4209H282.108V20.8857H285.228V22.1748H277.332ZM279.632 25.2656C279.625 26.0273 280.298 26.4741 281.302 26.4668C282.291 26.4741 282.957 26.0273 282.957 25.2656C282.957 24.4966 282.291 24.0278 281.302 24.0205C280.298 24.0278 279.625 24.4966 279.632 25.2656Z" fill="#1F1F1F"/>
</g>
</g>
<defs>
<linearGradient id="paint0_linear_1836_10878" x1="91.1572" y1="-0.20752" x2="91.1572" y2="143.101" gradientUnits="userSpaceOnUse">
<stop stop-color="#8CEEFF"/>
<stop offset="1" stop-color="#3AB7FF"/>
</linearGradient>
<linearGradient id="paint1_linear_1836_10878" x1="213.39" y1="-76.3885" x2="-178.433" y2="280.672" gradientUnits="userSpaceOnUse">
<stop stop-color="#7AAAFF"/>
<stop offset="1" stop-color="#3490E6"/>
</linearGradient>
<linearGradient id="paint2_linear_1836_10878" x1="234.487" y1="-0.208496" x2="234.487" y2="143.101" gradientUnits="userSpaceOnUse">
<stop stop-color="#FFD4FE"/>
<stop offset="1" stop-color="#F884B1"/>
</linearGradient>
<clipPath id="clip0_1836_10878">
<rect width="342" height="142" fill="white"/>
</clipPath>
</defs>
</svg>
