<svg width="142" height="21" viewBox="0 0 142 21" fill="none" xmlns="http://www.w3.org/2000/svg">
<g clip-path="url(#clip0_1440_11425)">
<path d="M0 19.9219V0.916339H4.76371V16.0006H12.7541V19.9219H0ZM9.37963 6.49782H14.8626V0.270996H19.7741V20.0697H14.8626V10.9167H9.37963V6.50275V6.49782Z" fill="#35B6FF"/>
<path d="M27.8136 0.472974C31.2127 0.472974 33.0256 2.45827 33.0256 5.83277V7.62101H34.3409V0.270996H38.5578V20.0697H34.3409V12.03H33.0256V14.6853C33.0256 18.0598 31.2127 20.0205 27.8136 20.0205C24.4144 20.0205 22.6016 18.0598 22.6016 14.6853V5.83277C22.6016 2.45827 24.4144 0.472974 27.8136 0.472974ZM30.4245 14.439L28.4146 5.53227C28.3555 5.27117 28.1239 5.0889 27.8579 5.0889C27.587 5.0889 27.3554 5.2761 27.3012 5.53719L25.3701 14.4439C25.2913 14.7986 25.5623 15.1385 25.9268 15.1385H29.8678C30.2324 15.1385 30.5082 14.7986 30.4245 14.439ZM39.8977 0.270996H44.1393V20.0697H39.8977V0.270996Z" fill="#35B6FF"/>
<path d="M46.1987 4.83766V0.916339H55.5537V6.92148H57.7853V0.270996H62.1254V20.0697H57.7853V11.3354H55.5537V20.0697H50.9378V4.83766H46.1987ZM63.5885 0.270996H67.9532V20.0697H63.5885V0.270996Z" fill="#35B6FF"/>
<path d="M73.9927 0.473137H86.0276V3.82301H78.7564V5.11369H86.8207V8.43893H73.9927V0.473137ZM74.6626 10.5966H81.5348V9.03501H86.6729V10.5966H93.5451V13.5967H74.6626V10.5966ZM79.5495 14.4194H88.6286C91.7815 14.4194 93.0721 15.4884 93.0721 17.5722C93.0721 19.6561 91.7815 20.7497 88.6286 20.7497H79.5495C76.3967 20.7497 75.106 19.6807 75.106 17.5722C75.106 15.4638 76.3967 14.4194 79.5495 14.4194ZM88.407 17.321V16.5771L79.648 17.9171V18.661L88.407 17.321ZM95.9737 2.58651V6.4832H93.5155V9.40941H88.604V0.197266H93.5155V2.58158H95.9737V2.58651Z" fill="#35B6FF"/>
<path d="M97.6831 0.842609H109.767V19.996H104.831V4.76393H97.688V0.842609H97.6831ZM118.6 19.996H113.689V0.197266H118.6V19.996Z" fill="#35B6FF"/>
<path d="M121.157 9.28112H141.995V11.8871H121.157V9.28112ZM122.098 17.5425L139.266 15.5818H122.098V12.7295H141.177V15.9809L125.945 17.7691H141.354V20.8431H122.103V17.5425H122.098ZM122.122 3.02966H136.064V2.35969H122.122V0H141.005V5.38443H127.162V6.02977H141.256V8.4338H122.127V3.02474L122.122 3.02966Z" fill="#35B6FF"/>
</g>
<defs>
<clipPath id="clip0_1440_11425">
<rect width="142" height="20.8382" fill="white"/>
</clipPath>
</defs>
</svg>
