<svg width="49" height="49" viewBox="0 0 49 49" fill="none" xmlns="http://www.w3.org/2000/svg">
<g clip-path="url(#clip0_1440_10062)">
<rect width="49" height="49" rx="7.25926" fill="white"/>
<mask id="mask0_1440_10062" style="mask-type:alpha" maskUnits="userSpaceOnUse" x="-68" y="-37" width="146" height="93">
<rect x="-67.5737" y="-36.3081" width="145.129" height="91.6601" rx="6.78964" fill="white"/>
</mask>
<g mask="url(#mask0_1440_10062)">
<mask id="mask1_1440_10062" style="mask-type:alpha" maskUnits="userSpaceOnUse" x="-68" y="-37" width="146" height="93">
<rect x="-67.5737" y="-36.3081" width="145.129" height="91.6601" rx="6.78964" fill="white"/>
</mask>
<g mask="url(#mask1_1440_10062)">
<rect x="-67.5737" y="-36.3081" width="145.129" height="91.6601" fill="url(#paint0_linear_1440_10062)"/>
<path d="M11.8943 12.716C16.1182 4.74226 24.0388 -0.990665 33.6961 -2.5566C47.8464 -4.85432 61.8564 3.10049 66.8803 16.2801C72.0824 29.9148 67.1912 44.9751 55.005 52.8541C47.3876 57.7794 37.81 58.8638 29.3547 56.1717C29.1044 55.3148 28.8087 54.4655 28.4712 53.6238L26.9205 49.7639C28.403 49.3923 29.8931 49.1117 31.4401 49.0435C32.3804 48.998 33.3359 48.6416 34.2383 48.289C37.7076 46.924 40.0205 43.5608 39.9409 39.8375C39.8537 35.6856 37.4536 32.3111 33.7302 31.1129C31.315 30.3395 29.0551 30.7186 26.9015 32.0343C26.5603 32.2428 25.9726 32.3604 25.6313 32.2163C22.0862 30.6883 18.287 32.895 18.105 36.7928C18.0367 38.2867 17.4604 38.6696 16.1561 38.8895C10.6544 39.8299 5.24381 39.4469 -0.14408 38.0819C-1.11473 37.8355 -2.14985 37.8393 -3.15083 37.6914C-4.79639 37.4449 -6.54433 37.4449 -8.05339 36.8497C-10.9464 35.7046 -11.7995 33.1604 -11.7123 30.2371C-11.6403 27.7384 -10.6279 25.7743 -8.23539 24.7923C-6.4192 24.053 -4.53098 24.307 -2.68825 24.8227C-2.47592 24.8795 -0.102372 25.3042 -0.102372 25.3042C-0.102372 25.3042 0.549785 22.9155 2.98021 23.0065C4.21249 23.0671 5.19073 24.0226 5.27793 25.2511C5.36135 26.4341 5.25518 27.6474 5.1111 28.8304C4.95564 30.1006 5.1111 30.5404 6.40404 30.5897C6.95004 30.6087 8.01548 30.6352 8.75863 30.6504C9.11505 30.6579 9.36908 30.3015 9.23638 29.9679C8.97096 29.2854 8.63351 28.0948 8.57664 26.3469C8.55768 21.3912 9.74825 16.7579 11.8981 12.7047L11.8943 12.716Z" fill="#00FFFF"/>
<path d="M26.9165 49.7676C24.8994 50.2643 22.9012 50.9392 20.812 51.5004C20.6983 51.5269 20.6679 51.6748 20.7589 51.7468C20.9561 51.9099 21.0736 52.0085 21.1988 52.0957C23.705 53.8929 26.4653 55.2541 29.3545 56.1716C33.3168 69.6774 26.4426 84.241 13.1112 89.5947C9.73292 90.9521 6.24842 91.5929 2.81701 91.5929C-8.14834 91.5929 -18.526 85.0296 -22.8598 74.2311L-38.2879 35.8183C-43.9791 21.6452 -37.1011 5.54221 -22.9281 -0.152801C-9.6157 -5.49519 5.40289 0.249112 11.8903 12.7159C9.7405 16.7692 8.54993 21.4025 8.56889 26.3582C8.62577 28.1061 8.96322 29.3005 9.22863 29.9792C9.35754 30.3128 9.10351 30.6655 8.75089 30.6617C8.00773 30.6427 6.94229 30.6199 6.3963 30.601C5.09957 30.5517 4.9479 30.1119 5.10336 28.8417C5.24744 27.6587 5.3536 26.4492 5.27019 25.2624C5.18298 24.0339 4.20474 23.0784 2.97247 23.0178C0.542042 22.9268 -0.110111 25.3155 -0.110111 25.3155C-0.110111 25.3155 -2.48367 24.8908 -2.696 24.8339C-4.53872 24.3183 -6.42315 24.0642 -8.24313 24.8036C-10.6356 25.7819 -11.648 27.7459 -11.72 30.2484C-11.8073 33.1679 -10.9541 35.7121 -8.06113 36.861C-6.55207 37.4562 -4.80413 37.4562 -3.15857 37.7027C-2.15759 37.8506 -1.12627 37.8468 -0.151825 38.0932C5.23227 39.4582 10.6467 39.8412 16.1483 38.9008C17.4526 38.6771 18.029 38.2942 18.0972 36.8041C18.2792 32.9063 22.0784 30.6996 25.6236 32.2276C25.9648 32.3717 26.5525 32.2541 26.8938 32.0456C29.0474 30.7299 31.3072 30.3507 33.7225 31.1242C37.442 32.3186 39.8459 35.6931 39.9331 39.8487C40.0128 43.5721 37.6961 46.9353 34.2305 48.3003C33.3319 48.6529 32.3764 49.0093 31.4323 49.0548C29.8854 49.123 28.3953 49.3998 26.9127 49.7752L26.9165 49.7676Z" fill="#37A0FF"/>
<path d="M29.3507 56.1717C33.313 69.6774 26.4388 84.241 13.1075 89.5947C9.72913 90.9521 6.24464 91.5929 2.81322 91.5929C-8.15213 91.5929 -18.5298 85.0296 -22.8636 74.2311L-38.2879 35.8183C-43.9791 21.6452 -37.1011 5.54221 -22.9281 -0.152801C-9.6157 -5.49519 5.40289 0.249112 11.8903 12.7159" stroke="black" stroke-width="0.28856" stroke-miterlimit="10"/>
<path d="M29.3507 56.1715C26.4615 55.2539 23.7012 53.8927 21.1949 52.0955C21.0698 52.0083 20.956 51.9097 20.7551 51.7467C20.6679 51.6747 20.6982 51.5268 20.8082 51.5002C22.8973 50.9391 24.8955 50.2642 26.9127 49.7675C28.3952 49.3959 29.8853 49.1153 31.4323 49.0471C32.3726 49.0016 33.3281 48.6451 34.2305 48.2925C37.6998 46.9275 40.0127 43.5644 39.9331 39.841C39.8459 35.6892 37.4458 32.3147 33.7224 31.1165C31.3071 30.343 29.0473 30.7222 26.8937 32.0379C26.5525 32.2464 25.9648 32.364 25.6235 32.2199C22.0784 30.6918 18.2792 32.8986 18.0972 36.7964C18.0289 38.2902 17.4526 38.6732 16.1483 38.8931C10.6466 39.8334 5.236 39.4505 -0.151892 38.0855C-1.12255 37.839 -2.15766 37.8428 -3.15864 37.695C-4.8042 37.4485 -6.55214 37.4485 -8.0612 36.8532C-10.9542 35.7082 -11.8073 33.164 -11.7201 30.2406C-11.6481 27.742 -10.6357 25.7779 -8.2432 24.7959C-6.42702 24.0565 -4.53879 24.3106 -2.69607 24.8262C-2.48374 24.8831 -0.110184 25.3078 -0.110184 25.3078C-0.110184 25.3078 0.541973 22.919 2.9724 23.01C4.20467 23.0707 5.18291 24.0262 5.27012 25.2547C5.35353 26.4377 5.24737 27.651 5.10329 28.834C4.94783 30.1042 5.10329 30.544 6.39623 30.5933C6.94222 30.6122 8.00766 30.6388 8.75082 30.6539C9.10723 30.6615 9.36127 30.3051 9.22856 29.9714C8.96315 29.289 8.6257 28.0984 8.56883 26.3504C8.54987 21.3948 9.74043 16.7615 11.8903 12.7082C16.1141 4.73445 24.0348 -0.998477 33.6921 -2.56441C47.8424 -4.86213 61.8524 3.09268 66.8763 16.2723C72.0784 29.907 67.1872 44.9673 55.001 52.8463C47.3836 57.7716 37.806 58.856 29.3507 56.1639V56.1715Z" stroke="black" stroke-width="0.297047" stroke-miterlimit="10"/>
<path d="M20.7969 25.1564C23.4017 25.7213 26.2189 25.8502 28.7251 24.8075C30.7119 23.981 32.4068 22.4567 33.1803 20.4206C33.241 20.2652 32.9907 20.2007 32.9338 20.3524C32.1603 22.3885 30.401 23.8938 28.3953 24.6635C25.9952 25.5848 23.3335 25.4445 20.8651 24.9061C20.7059 24.872 20.6338 25.1184 20.7969 25.1526V25.1564Z" fill="black"/>
<path d="M31.0951 19.6241C31.8155 20.4279 32.9871 20.6402 33.9502 20.1625C34.0981 20.0904 33.9691 19.8667 33.8213 19.9426C32.9568 20.371 31.9179 20.1587 31.2771 19.4459C31.1671 19.3207 30.9851 19.5027 31.0951 19.6279V19.6241Z" fill="black"/>
<path d="M23.0791 14.4522C22.3739 14.2475 21.5663 14.6987 20.8989 15.5556L21.6459 16.6211L20.1596 16.8182C20.0345 17.1064 19.9207 17.4135 19.8297 17.7358C19.2079 19.8894 19.6591 21.9066 20.8345 22.244C22.0099 22.5815 23.4621 21.1103 24.0839 18.9605C24.7057 16.8068 24.2545 14.7897 23.0791 14.4522Z" fill="black" stroke="black" stroke-width="0.127306" stroke-miterlimit="10" stroke-linecap="round"/>
<path d="M29.9043 13.1593C29.1991 12.9545 28.3915 13.4057 27.7241 14.2626L28.4711 15.3281L26.9848 15.5252C26.8596 15.8134 26.7459 16.1205 26.6549 16.4428C26.0331 18.5965 26.4843 20.6136 27.6597 20.9511C28.8351 21.2885 30.2873 19.8174 30.9091 17.6675C31.5309 15.5139 31.0797 13.4967 29.9043 13.1593Z" fill="black" stroke="black" stroke-width="0.127306" stroke-miterlimit="10" stroke-linecap="round"/>
</g>
<rect width="49" height="49" fill="#F6F7FC"/>
</g>
<g clip-path="url(#clip1_1440_10062)">
<path d="M36.982 23.7844C36.4697 23.1697 35.5981 22.2443 34.3805 21.2913C33.5288 20.6283 32.451 19.9101 31.1535 19.2954L30.2353 20.428C31.4662 20.9736 32.4909 21.6228 33.2893 22.2236C35.0059 23.5081 36.0638 24.8134 36.483 25.4073C35.4051 26.4915 31.0471 29.8203 24.5 29.8617C23.8746 29.8617 23.2691 29.8272 22.6836 29.765L21.6323 31.0634C22.4973 31.1877 23.4088 31.2636 24.3736 31.2775H24.6331C28.8647 31.2222 32.1582 29.8824 34.1875 28.7567C35.4384 28.0592 36.33 27.3824 36.8556 26.9404C38 25.9736 38 25.6766 38 25.4625C38 25.3106 38 24.9929 36.982 23.7844Z" fill="#6B7684"/>
<path d="M18.9576 29.0261C15.398 27.9418 13.1358 26.0979 12.4771 25.4073C13.3487 24.0606 17.6136 19.2402 24.4933 19.178C25.2851 19.1849 26.0436 19.2609 26.7622 19.3783L27.7735 18.1283C26.7955 17.9073 25.7442 17.7761 24.6264 17.7554H24.3669C19.949 17.8244 16.6355 19.6753 14.6195 21.236C12.7632 22.6794 11 24.7305 11 25.4626C11 25.6697 11 26.015 12.1378 26.9888C12.6567 27.4308 13.5416 28.1076 14.8125 28.8051C15.6575 29.2678 16.7353 29.7719 18.0062 30.2001L18.9576 29.0261Z" fill="#6B7684"/>
<path d="M24.4998 20.9393C24.8125 20.9393 25.1119 20.9807 25.398 21.0636L26.3428 19.8964C25.7772 19.6547 25.1518 19.5166 24.4998 19.5166C21.845 19.5166 19.6826 21.7611 19.6826 24.5166C19.6826 25.5042 19.9621 26.4227 20.4345 27.1962L21.3726 26.0359C21.1664 25.5732 21.0466 25.0622 21.0466 24.5166C21.0466 22.5415 22.5902 20.9393 24.4931 20.9393H24.4998Z" fill="#6B7684"/>
<path d="M24.4997 28.0937C24.3466 28.0937 24.2003 28.0799 24.0539 28.0661L23.0625 29.2885C23.5149 29.4335 23.994 29.5164 24.493 29.5164C27.1478 29.5164 29.3102 27.2719 29.3102 24.5164C29.3102 23.6946 29.1172 22.9142 28.7712 22.2305L27.7798 23.4528C27.8797 23.7912 27.9395 24.1504 27.9395 24.5164C27.9395 26.4915 26.3959 28.0937 24.493 28.0937H24.4997Z" fill="#6B7684"/>
<path d="M22.2247 28.9159L23.1295 27.7971L27.3745 22.5485L28.2794 21.4297L29.3772 20.0761L30.3087 18.9228L32.5376 16.1673C32.5376 16.1673 32.5709 16.1259 32.5842 16.1051C32.7772 15.8082 32.7239 15.4007 32.4578 15.1659C32.2116 14.9518 31.8656 14.9449 31.6194 15.1314C31.5729 15.1659 31.5329 15.2074 31.493 15.2488L28.9248 18.4256L27.9534 19.6272L27.288 20.4491L26.4031 21.5402L21.9984 26.9822L21.1135 28.0734L20.0955 29.3372L19.1175 30.5458L16.4561 33.84C16.2099 34.1369 16.2498 34.5858 16.5426 34.8413C16.669 34.9518 16.8287 35.0071 16.9817 35.0071C17.1746 35.0071 17.3676 34.9242 17.5073 34.7516L20.6212 30.898L21.6392 29.6342L22.218 28.9159H22.2247Z" fill="#6B7684"/>
</g>
</g>
<defs>
<linearGradient id="paint0_linear_1440_10062" x1="4.99052" y1="-36.3081" x2="4.99052" y2="55.352" gradientUnits="userSpaceOnUse">
<stop stop-color="#8CEEFF"/>
<stop offset="1" stop-color="#3AB7FF"/>
</linearGradient>
<clipPath id="clip0_1440_10062">
<rect width="49" height="49" rx="7.25926" fill="white"/>
</clipPath>
<clipPath id="clip1_1440_10062">
<rect width="27" height="20" fill="white" transform="translate(11 15)"/>
</clipPath>
</defs>
</svg>
