<svg width="390" height="288" viewBox="0 0 390 288" fill="none" xmlns="http://www.w3.org/2000/svg">
<mask id="mask0_1440_11491" style="mask-type:alpha" maskUnits="userSpaceOnUse" x="0" y="0" width="390" height="288">
<path d="M0 0H390V268C390 279.046 381.046 288 370 288H20C8.9543 288 0 279.046 0 268V0Z" fill="url(#paint0_linear_1440_11491)"/>
</mask>
<g mask="url(#mask0_1440_11491)">
<rect width="390" height="288" fill="url(#paint1_linear_1440_11491)"/>
<path fill-rule="evenodd" clip-rule="evenodd" d="M365.757 157.417C361.546 156.817 358.828 159.352 356.883 164.606C355.966 160.212 354.204 157.469 350.561 157.543C348.889 157.577 348.455 156.942 348.27 155.199C347.691 149.735 345.19 146.161 340.39 145.422C335.167 144.613 330.913 147.117 327.718 152.822C326.81 154.431 326.126 155.003 324.577 154.652C318.892 153.355 313.691 157.596 312.297 164.678C311.995 166.202 311.452 166.937 310.322 167.686C306.525 170.201 304.974 173.213 305.176 177.755C305.243 179.247 304.992 180.396 304.056 181.656C302.159 184.213 301.714 186.93 303.18 189.388C303.859 190.524 303.877 191.538 303.3 192.902C301.951 196.097 302.598 198.658 304.55 200.528C305.528 201.465 305.843 202.298 305.372 203.983C303.579 210.401 305.796 215.747 310.841 217.653C311.02 217.719 311.228 217.775 311.438 217.831C312.006 217.982 312.596 218.14 312.715 218.542C313.644 221.682 314.779 224.515 317.578 225.858C317.775 225.954 317.743 226.594 317.715 227.168C317.706 227.338 317.698 227.503 317.696 227.646C317.628 233.029 319.587 236.595 324.027 237.738C325.694 238.168 326.119 239.169 326.13 241.172C326.161 247.536 329.87 251.847 335.355 252.103C336.821 252.175 337.773 252.652 338.598 254.046C340.44 257.161 343.904 257.119 346.765 254.085C347.713 253.078 348.565 252.452 349.788 252.482C353.261 252.581 355.961 250.463 357.272 246.655C357.866 244.931 359.015 244.193 360.137 243.472C361.022 242.904 361.89 242.346 362.456 241.323C363.385 239.644 364.636 238.88 366.197 238.312C369.067 237.271 370.982 234.862 372.075 231.573C373.013 228.762 377.988 224.669 380.422 224.677C386.557 224.689 391.755 219.364 392.45 212.182C392.598 210.654 393.015 209.863 394.226 209.104C396.58 207.632 398.068 205.312 398.002 202.341C397.955 200.378 398.672 199.483 400.135 198.501C402.79 196.723 404.538 193.592 403.855 190.705C402.875 186.563 402.292 182.441 402.135 178.031C402.123 177.685 402.097 177.36 402.073 177.046C401.976 175.821 401.892 174.765 402.705 173.332C406.834 166.071 404.125 157.154 397.309 156.288C396.39 156.171 395.446 156.179 394.504 156.187C392.259 156.205 390.028 156.224 388.182 154.551C387.768 154.181 386.735 154.485 386.035 154.762C384.7 155.288 383.855 154.961 382.936 153.93C378.471 148.934 372.442 149.714 367.544 155.771C367.415 155.93 367.29 156.115 367.164 156.303C366.767 156.891 366.353 157.504 365.757 157.417ZM379.537 172.779C379.745 172.512 379.959 172.238 380.182 171.955L380.183 171.95C380.767 172.521 380.738 173.076 380.71 173.614C380.709 173.644 380.707 173.673 380.706 173.703C380.498 178.169 382.348 180.931 385.598 182.529C387.501 183.464 388.446 187.964 387.157 190.222C386.356 191.63 385.684 193.182 385.949 194.612C386.388 196.98 385.655 198.556 383.959 200.327C382.921 201.417 382.206 201.862 380.939 201.789C375.265 201.46 370.389 206.496 369.743 213.205C369.546 215.231 366.076 219.299 364.314 219.561C360.281 220.162 358.403 221.818 356.825 226.277C356.139 228.216 354.808 229.519 353.488 230.812C352.894 231.393 352.303 231.972 351.773 232.606C350.865 233.689 349.092 233.811 348.642 231.276C347.74 226.164 344.196 223.386 339.477 223.793C338.106 223.909 337.627 223.461 337.442 222.029C336.97 218.392 334.937 216.378 331.949 215.67C330.568 215.345 329.719 214.758 329.395 213.129C329.229 212.284 328.731 211.487 328.18 210.928C327.242 209.986 327.274 208.854 327.542 207.422C328.793 200.796 325.833 196.022 320.162 195.761C318.217 195.674 317.84 194.133 317.471 192.629C317.304 191.945 317.138 191.268 316.826 190.74C316.25 189.759 316.943 186.79 319.24 185.954C319.474 185.872 319.791 185.714 319.904 185.493C321.529 182.375 323.981 180.431 326.431 178.489C327.837 177.376 329.241 176.263 330.488 174.929C331.334 174.025 331.754 173.595 332.73 174.247C335.588 176.157 338.769 176.137 342.097 174.081C343.296 173.342 343.781 173.598 344.374 174.735C345.556 177.013 347.459 178.12 350.026 177.493C351.118 177.229 351.61 177.678 352.175 178.528C354.535 182.092 358.225 181.467 360.649 177.176C362.239 174.359 363.835 173.963 365.693 175.936C369.037 179.483 374.453 178.865 378.158 174.501C378.621 173.955 379.065 173.385 379.537 172.779Z" fill="#FFD4FE"/>
<path d="M356.883 164.606L356.65 164.683L356.81 165.454L357.106 164.654L356.883 164.606ZM365.757 157.417L365.826 157.188L365.825 157.188L365.757 157.417ZM350.561 157.543L350.591 157.311L350.591 157.311L350.561 157.543ZM348.27 155.199L348.033 155.256L348.033 155.256L348.27 155.199ZM340.39 145.422L340.32 145.651L340.32 145.651L340.39 145.422ZM327.718 152.822L327.923 152.909L327.924 152.908L327.718 152.822ZM324.577 154.652L324.491 154.878L324.491 154.878L324.577 154.652ZM312.297 164.678L312.531 164.688L312.531 164.688L312.297 164.678ZM310.322 167.686L310.435 167.871L310.436 167.871L310.322 167.686ZM305.176 177.755L304.938 177.799L304.938 177.799L305.176 177.755ZM304.056 181.656L303.87 181.54L303.87 181.54L304.056 181.656ZM303.18 189.388L302.969 189.525L302.969 189.525L303.18 189.388ZM303.3 192.902L303.082 192.843L303.081 192.843L303.3 192.902ZM304.55 200.528L304.729 200.351L304.729 200.351L304.55 200.528ZM305.372 203.983L305.602 204.012L305.602 204.012L305.372 203.983ZM310.841 217.653L310.728 217.87L310.729 217.871L310.841 217.653ZM311.438 217.831L311.345 218.055L311.345 218.055L311.438 217.831ZM312.715 218.542L312.485 218.635L312.485 218.635L312.715 218.542ZM317.578 225.858L317.709 225.648L317.708 225.647L317.578 225.858ZM317.715 227.168L317.477 227.191L317.477 227.191L317.715 227.168ZM317.696 227.646L317.458 227.677L317.458 227.677L317.696 227.646ZM324.027 237.738L324.119 237.514L324.119 237.513L324.027 237.738ZM326.13 241.172L326.368 241.137L326.368 241.137L326.13 241.172ZM335.355 252.103L335.402 251.872L335.401 251.872L335.355 252.103ZM338.598 254.046L338.809 253.909L338.809 253.909L338.598 254.046ZM346.765 254.085L346.929 254.227L346.93 254.227L346.765 254.085ZM349.788 252.482L349.83 252.251L349.829 252.251L349.788 252.482ZM357.272 246.655L357.047 246.612L357.047 246.612L357.272 246.655ZM360.137 243.472L360.027 243.285L360.137 243.472ZM362.456 241.323L362.662 241.408L362.662 241.408L362.456 241.323ZM366.197 238.312L366.144 238.097L366.144 238.097L366.197 238.312ZM372.075 231.573L371.85 231.532L371.85 231.532L372.075 231.573ZM380.422 224.677L380.386 224.908L380.386 224.908L380.422 224.677ZM392.45 212.182L392.687 212.17L392.687 212.17L392.45 212.182ZM394.226 209.104L394.119 208.915L394.119 208.915L394.226 209.104ZM398.002 202.341L398.24 202.302L398.24 202.302L398.002 202.341ZM400.135 198.501L400.021 198.316L400.021 198.317L400.135 198.501ZM403.855 190.705L403.623 190.788L403.623 190.788L403.855 190.705ZM402.135 178.031L401.897 178.072L401.897 178.073L402.135 178.031ZM402.073 177.046L402.31 176.994L402.31 176.994L402.073 177.046ZM402.705 173.332L402.5 173.244L402.5 173.244L402.705 173.332ZM397.309 156.288L397.244 156.517L397.244 156.517L397.309 156.288ZM394.504 156.187L394.537 155.955L394.504 156.187ZM388.182 154.551L388.358 154.371L388.357 154.37L388.182 154.551ZM386.035 154.762L386.096 154.975L386.096 154.975L386.035 154.762ZM382.936 153.93L383.126 153.765L383.126 153.764L382.936 153.93ZM367.544 155.771L367.365 155.646L367.365 155.646L367.544 155.771ZM367.164 156.303L367.357 156.408L367.357 156.408L367.164 156.303ZM380.182 171.955L380.363 172.078L380.408 172.022L380.418 171.955L380.182 171.955ZM379.537 172.779L379.355 172.658L379.537 172.779ZM380.183 171.95L380.364 171.775L380.024 171.443L379.947 171.95L380.183 171.95ZM380.71 173.614L380.473 173.637L380.473 173.637L380.71 173.614ZM380.706 173.703L380.468 173.726L380.468 173.727L380.706 173.703ZM385.598 182.529L385.73 182.319L385.73 182.319L385.598 182.529ZM387.157 190.222L386.953 190.134L386.953 190.135L387.157 190.222ZM385.949 194.612L385.714 194.684L385.714 194.684L385.949 194.612ZM383.959 200.327L383.797 200.183L383.796 200.184L383.959 200.327ZM380.939 201.789L380.89 202.019L380.89 202.019L380.939 201.789ZM369.743 213.205L369.98 213.193L369.98 213.192L369.743 213.205ZM364.314 219.561L364.315 219.79L364.315 219.79L364.314 219.561ZM356.825 226.277L356.601 226.231L356.601 226.232L356.825 226.277ZM353.488 230.812L353.331 230.662L353.331 230.662L353.488 230.812ZM351.773 232.606L351.949 232.735L351.949 232.735L351.773 232.606ZM348.642 231.276L348.407 231.347L348.408 231.348L348.642 231.276ZM339.477 223.793L339.463 224.023L339.463 224.023L339.477 223.793ZM337.442 222.029L337.678 221.967L337.678 221.967L337.442 222.029ZM331.949 215.67L332.036 215.445L332.036 215.445L331.949 215.67ZM329.395 213.129L329.161 213.204L329.161 213.205L329.395 213.129ZM328.18 210.928L328.363 210.756L328.362 210.755L328.18 210.928ZM327.542 207.422L327.308 207.414L327.308 207.414L327.542 207.422ZM320.162 195.761L320.208 195.53L320.208 195.53L320.162 195.761ZM317.471 192.629L317.239 192.713L317.471 192.629ZM316.826 190.74L316.615 190.876L316.615 190.876L316.826 190.74ZM319.24 185.954L319.189 185.738L319.187 185.739L319.24 185.954ZM319.904 185.493L319.695 185.414L319.694 185.416L319.904 185.493ZM326.431 178.489L326.298 178.319L326.431 178.489ZM330.488 174.929L330.323 174.788L330.323 174.788L330.488 174.929ZM332.73 174.247L332.884 174.05L332.73 174.247ZM342.097 174.081L341.992 173.891L341.992 173.891L342.097 174.081ZM344.374 174.735L344.59 174.607L344.59 174.607L344.374 174.735ZM350.026 177.493L350.002 177.269L350.001 177.269L350.026 177.493ZM352.175 178.528L352.381 178.384L352.381 178.383L352.175 178.528ZM360.649 177.176L360.854 177.263L360.854 177.263L360.649 177.176ZM365.693 175.936L365.506 176.105L365.506 176.105L365.693 175.936ZM378.158 174.501L378.332 174.632L378.332 174.632L378.158 174.501ZM357.106 164.654C358.072 162.045 359.217 160.15 360.61 158.982C361.988 157.825 363.64 157.354 365.689 157.646L365.825 157.188C363.662 156.88 361.85 157.376 360.331 158.651C358.826 159.914 357.639 161.914 356.66 164.558L357.106 164.654ZM350.53 157.774C352.28 157.738 353.574 158.376 354.55 159.559C355.532 160.75 356.194 162.499 356.65 164.683L357.117 164.529C356.656 162.319 355.977 160.499 354.938 159.239C353.893 157.97 352.484 157.273 350.591 157.311L350.53 157.774ZM348.033 155.256C348.126 156.13 348.284 156.783 348.67 157.205C349.066 157.638 349.667 157.792 350.53 157.774L350.591 157.311C349.783 157.328 349.331 157.182 349.046 156.87C348.75 156.547 348.599 156.011 348.507 155.142L348.033 155.256ZM340.32 145.651C344.997 146.371 347.46 149.846 348.033 155.256L348.507 155.142C347.923 149.624 345.383 145.951 340.461 145.193L340.32 145.651ZM327.924 152.908C329.505 150.084 331.335 148.077 333.393 146.873C335.447 145.671 337.754 145.253 340.32 145.651L340.461 145.193C337.803 144.782 335.372 145.212 333.194 146.486C331.02 147.757 329.126 149.855 327.513 152.736L327.924 152.908ZM324.491 154.878C325.294 155.06 325.93 155.016 326.495 154.661C327.041 154.318 327.468 153.715 327.923 152.909L327.513 152.735C327.06 153.539 326.691 154.025 326.281 154.283C325.889 154.529 325.408 154.595 324.662 154.426L324.491 154.878ZM312.531 164.688C313.219 161.191 314.841 158.423 316.964 156.69C319.081 154.963 321.719 154.245 324.491 154.878L324.663 154.426C321.75 153.762 318.945 154.516 316.691 156.355C314.444 158.189 312.769 161.082 312.063 164.668L312.531 164.688ZM310.436 167.871C311.019 167.483 311.471 167.087 311.814 166.578C312.155 166.07 312.376 165.469 312.531 164.688L312.063 164.667C311.916 165.411 311.714 165.939 311.426 166.367C311.14 166.793 310.755 167.139 310.209 167.501L310.436 167.871ZM305.414 177.711C305.314 175.466 305.649 173.622 306.46 172.037C307.27 170.455 308.567 169.108 310.435 167.871L310.209 167.501C308.28 168.778 306.903 170.195 306.039 171.883C305.176 173.569 304.836 175.502 304.938 177.799L305.414 177.711ZM304.242 181.772C305.224 180.45 305.483 179.241 305.414 177.711L304.938 177.799C305.004 179.254 304.76 180.341 303.87 181.54L304.242 181.772ZM303.39 189.251C301.974 186.875 302.397 184.259 304.242 181.772L303.87 181.54C301.921 184.167 301.455 186.984 302.969 189.525L303.39 189.251ZM303.519 192.962C303.817 192.257 303.968 191.627 303.949 191.019C303.93 190.41 303.742 189.84 303.39 189.251L302.969 189.525C303.296 190.072 303.457 190.577 303.473 191.1C303.489 191.624 303.361 192.183 303.082 192.843L303.519 192.962ZM304.729 200.351C302.833 198.536 302.209 196.064 303.519 192.961L303.081 192.843C301.694 196.13 302.362 198.781 304.37 200.704L304.729 200.351ZM305.602 204.012C305.843 203.146 305.891 202.473 305.735 201.887C305.58 201.303 305.23 200.831 304.729 200.351L304.37 200.704C304.848 201.161 305.144 201.575 305.273 202.063C305.402 202.549 305.372 203.135 305.143 203.954L305.602 204.012ZM310.955 217.435C306.024 215.573 303.832 210.342 305.602 204.012L305.143 203.954C303.325 210.46 305.568 215.921 310.728 217.87L310.955 217.435ZM311.532 217.607C311.319 217.55 311.122 217.498 310.954 217.435L310.729 217.871C310.919 217.941 311.137 217.999 311.345 218.055L311.532 217.607ZM312.945 218.449C312.862 218.168 312.623 217.997 312.372 217.881C312.12 217.763 311.811 217.682 311.532 217.607L311.345 218.055C311.633 218.132 311.904 218.204 312.118 218.304C312.334 218.405 312.449 218.514 312.485 218.635L312.945 218.449ZM317.708 225.647C314.992 224.344 313.875 221.591 312.945 218.449L312.485 218.635C313.414 221.774 314.567 224.686 317.449 226.068L317.708 225.647ZM317.953 227.145C317.967 226.861 317.983 226.545 317.969 226.288C317.962 226.159 317.947 226.034 317.917 225.929C317.888 225.834 317.834 225.708 317.709 225.648L317.448 226.068C317.421 226.055 317.437 226.046 317.457 226.115C317.475 226.175 317.487 226.264 317.493 226.379C317.506 226.609 317.491 226.9 317.477 227.191L317.953 227.145ZM317.934 227.615C317.936 227.477 317.944 227.316 317.953 227.145L317.477 227.191C317.468 227.36 317.46 227.529 317.458 227.677L317.934 227.615ZM324.119 237.513C321.947 236.955 320.39 235.807 319.381 234.144C318.369 232.477 317.901 230.28 317.934 227.615L317.458 227.677C317.424 230.395 317.9 232.673 318.961 234.42C320.024 236.172 321.667 237.378 323.935 237.962L324.119 237.513ZM326.368 241.137C326.363 240.126 326.254 239.331 325.912 238.731C325.564 238.121 324.991 237.739 324.119 237.514L323.935 237.962C324.731 238.167 325.203 238.5 325.487 238.999C325.778 239.508 325.887 240.215 325.892 241.208L326.368 241.137ZM335.401 251.872C330.051 251.622 326.398 247.417 326.368 241.137L325.892 241.207C325.923 247.655 329.689 252.072 335.309 252.334L335.401 251.872ZM338.809 253.909C338.385 253.193 337.92 252.698 337.36 252.375C336.799 252.052 336.158 251.909 335.402 251.872L335.308 252.334C336.018 252.368 336.586 252.5 337.074 252.782C337.563 253.064 337.986 253.505 338.387 254.182L338.809 253.909ZM346.601 253.944C345.209 255.419 343.698 256.14 342.334 256.14C340.972 256.14 339.703 255.422 338.809 253.909L338.387 254.182C339.335 255.785 340.718 256.603 342.264 256.603C343.808 256.602 345.46 255.785 346.929 254.227L346.601 253.944ZM349.829 252.251C348.493 252.218 347.567 252.918 346.601 253.944L346.93 254.227C347.86 253.239 348.638 252.686 349.747 252.713L349.829 252.251ZM357.047 246.612C356.404 248.48 355.428 249.911 354.209 250.862C352.993 251.811 351.514 252.299 349.83 252.251L349.746 252.713C351.535 252.764 353.142 252.243 354.472 251.206C355.799 250.17 356.829 248.638 357.496 246.698L357.047 246.612ZM360.027 243.285C358.902 244.007 357.674 244.792 357.047 246.612L357.496 246.698C358.057 245.07 359.127 244.378 360.246 243.659L360.027 243.285ZM362.25 241.239C361.723 242.19 360.918 242.712 360.027 243.285L360.246 243.659C361.125 243.095 362.057 242.502 362.662 241.408L362.25 241.239ZM366.144 238.097C364.543 238.679 363.222 239.48 362.25 241.239L362.662 241.408C363.547 239.808 364.729 239.081 366.25 238.528L366.144 238.097ZM371.85 231.532C370.772 234.774 368.905 237.095 366.144 238.097L366.25 238.528C369.228 237.447 371.192 234.95 372.301 231.613L371.85 231.532ZM380.457 224.446C379.789 224.443 378.976 224.72 378.136 225.155C377.291 225.593 376.395 226.204 375.55 226.901C373.87 228.286 372.342 230.055 371.85 231.532L372.301 231.613C372.746 230.28 374.174 228.597 375.825 227.235C376.645 226.558 377.507 225.972 378.309 225.556C379.116 225.138 379.837 224.906 380.386 224.908L380.457 224.446ZM392.213 212.195C391.527 219.283 386.42 224.458 380.457 224.446L380.386 224.908C386.693 224.921 391.983 219.445 392.687 212.17L392.213 212.195ZM394.119 208.915C393.486 209.312 393.038 209.732 392.734 210.268C392.434 210.798 392.288 211.418 392.213 212.195L392.687 212.17C392.76 211.419 392.896 210.879 393.144 210.442C393.388 210.011 393.755 209.656 394.333 209.293L394.119 208.915ZM397.764 202.38C397.828 205.262 396.393 207.493 394.119 208.915L394.332 209.293C396.768 207.77 398.308 205.363 398.24 202.302L397.764 202.38ZM400.021 198.317C399.276 198.816 398.689 199.315 398.301 199.96C397.911 200.608 397.74 201.373 397.764 202.381L398.24 202.302C398.217 201.347 398.381 200.683 398.703 200.147C399.027 199.608 399.531 199.167 400.25 198.685L400.021 198.317ZM403.623 190.788C404.279 193.56 402.601 196.589 400.021 198.316L400.25 198.685C402.978 196.858 404.798 193.623 404.088 190.623L403.623 190.788ZM401.897 178.073C402.054 182.498 402.64 186.633 403.623 190.788L404.088 190.623C403.111 186.492 402.529 182.385 402.373 177.989L401.897 178.073ZM401.835 177.097C401.86 177.412 401.885 177.732 401.897 178.072L402.373 177.989C402.361 177.638 402.335 177.308 402.31 176.994L401.835 177.097ZM402.5 173.244C401.646 174.75 401.738 175.87 401.835 177.097L402.31 176.994C402.213 175.772 402.138 174.78 402.91 173.419L402.5 173.244ZM397.244 156.517C400.554 156.938 402.886 159.316 403.883 162.508C404.879 165.699 404.529 169.677 402.5 173.244L402.909 173.419C405.01 169.726 405.37 165.615 404.34 162.316C403.311 159.018 400.881 156.504 397.373 156.058L397.244 156.517ZM394.471 156.418C395.415 156.41 396.343 156.403 397.244 156.517L397.374 156.058C396.436 155.939 395.476 155.947 394.537 155.955L394.471 156.418ZM388.007 154.73C389.917 156.462 392.232 156.436 394.471 156.418L394.537 155.955C392.286 155.974 390.139 155.986 388.358 154.371L388.007 154.73ZM386.096 154.975C386.438 154.839 386.85 154.702 387.221 154.642C387.606 154.579 387.875 154.612 388.008 154.731L388.357 154.37C388.076 154.119 387.621 154.119 387.212 154.186C386.787 154.255 386.333 154.408 385.975 154.549L386.096 154.975ZM382.747 154.096C383.216 154.622 383.686 154.992 384.231 155.152C384.785 155.315 385.388 155.254 386.096 154.975L385.975 154.549C385.348 154.797 384.861 154.835 384.428 154.708C383.988 154.578 383.576 154.269 383.126 153.765L382.747 154.096ZM367.723 155.896C370.141 152.906 372.81 151.252 375.397 150.935C377.982 150.619 380.544 151.632 382.747 154.096L383.126 153.764C380.863 151.233 378.178 150.137 375.408 150.476C372.639 150.815 369.845 152.579 367.365 155.646L367.723 155.896ZM367.357 156.408C367.485 156.219 367.603 156.044 367.723 155.896L367.365 155.646C367.227 155.816 367.095 156.012 366.97 156.197L367.357 156.408ZM365.689 157.646C366.089 157.704 366.423 157.518 366.688 157.266C366.943 157.024 367.164 156.695 367.357 156.408L366.97 156.197C366.767 156.499 366.582 156.77 366.382 156.96C366.192 157.14 366.021 157.217 365.826 157.188L365.689 157.646ZM380.001 171.832C379.777 172.116 379.563 172.391 379.355 172.658L379.719 172.901C379.927 172.633 380.14 172.36 380.363 172.078L380.001 171.832ZM379.947 171.95L379.947 171.955L380.418 171.955L380.419 171.95L379.947 171.95ZM380.948 173.592C380.962 173.326 380.979 173.024 380.909 172.714C380.838 172.399 380.68 172.085 380.364 171.775L380.002 172.125C380.269 172.386 380.389 172.635 380.443 172.875C380.498 173.12 380.487 173.365 380.473 173.637L380.948 173.592ZM380.944 173.679C380.945 173.65 380.947 173.621 380.948 173.592L380.473 173.637C380.471 173.667 380.47 173.696 380.468 173.726L380.944 173.679ZM385.73 182.319C384.133 181.534 382.888 180.467 382.067 179.056C381.246 177.645 380.841 175.878 380.944 173.679L380.468 173.727C380.363 175.994 380.779 177.841 381.644 179.327C382.508 180.813 383.814 181.926 385.467 182.738L385.73 182.319ZM387.362 190.31C388.05 189.104 388.126 187.348 387.808 185.803C387.648 185.024 387.386 184.283 387.038 183.674C386.692 183.068 386.253 182.576 385.73 182.319L385.467 182.738C385.895 182.949 386.287 183.371 386.613 183.942C386.938 184.51 387.188 185.211 387.341 185.956C387.65 187.459 387.553 189.083 386.953 190.134L387.362 190.31ZM386.183 194.539C385.934 193.194 386.564 191.712 387.362 190.31L386.953 190.135C386.148 191.549 385.433 193.17 385.714 194.684L386.183 194.539ZM384.122 200.47C384.984 199.57 385.619 198.701 385.977 197.743C386.336 196.782 386.408 195.752 386.183 194.539L385.714 194.684C385.928 195.84 385.854 196.783 385.532 197.644C385.209 198.509 384.63 199.313 383.797 200.183L384.122 200.47ZM380.89 202.019C381.556 202.058 382.1 201.961 382.62 201.696C383.132 201.434 383.598 201.021 384.123 200.47L383.796 200.184C383.283 200.723 382.872 201.077 382.45 201.293C382.036 201.504 381.589 201.592 380.987 201.558L380.89 202.019ZM369.98 213.192C370.298 209.886 371.657 207.008 373.616 205.003C375.572 203.001 378.132 201.86 380.89 202.019L380.987 201.558C378.071 201.389 375.357 202.601 373.295 204.712C371.236 206.82 369.834 209.815 369.506 213.218L369.98 213.192ZM364.315 219.79C364.827 219.714 365.423 219.372 366.01 218.914C366.605 218.449 367.224 217.838 367.789 217.175C368.355 216.512 368.873 215.791 369.264 215.103C369.652 214.42 369.926 213.749 369.98 213.193L369.506 213.217C369.461 213.674 369.228 214.271 368.854 214.928C368.484 215.581 367.988 216.273 367.441 216.913C366.895 217.553 366.304 218.135 365.746 218.57C365.181 219.012 364.682 219.278 364.313 219.333L364.315 219.79ZM357.049 226.322C357.833 224.108 358.678 222.631 359.796 221.632C360.908 220.637 362.326 220.086 364.315 219.79L364.313 219.333C362.27 219.637 360.732 220.215 359.503 221.313C358.279 222.407 357.395 223.987 356.601 226.231L357.049 226.322ZM353.644 230.962C354.961 229.673 356.339 228.328 357.049 226.321L356.601 226.232C355.938 228.104 354.656 229.365 353.331 230.662L353.644 230.962ZM351.949 232.735C352.468 232.114 353.049 231.545 353.644 230.962L353.331 230.662C352.74 231.241 352.138 231.83 351.597 232.477L351.949 232.735ZM348.408 231.348C348.639 232.654 349.225 233.345 349.946 233.523C350.669 233.701 351.441 233.341 351.949 232.735L351.597 232.477C351.196 232.955 350.628 233.197 350.125 233.073C349.621 232.949 349.095 232.434 348.877 231.205L348.408 231.348ZM339.463 224.023C344.052 223.628 347.52 226.32 348.407 231.347L348.877 231.205C347.959 226.009 344.339 223.144 339.491 223.563L339.463 224.023ZM337.206 222.09C337.299 222.817 337.472 223.349 337.841 223.673C338.216 224.004 338.753 224.084 339.463 224.023L339.492 223.563C338.83 223.619 338.441 223.533 338.188 223.31C337.928 223.082 337.769 222.673 337.678 221.967L337.206 222.09ZM331.861 215.895C334.767 216.584 336.745 218.534 337.206 222.09L337.678 221.967C337.196 218.25 335.107 216.172 332.036 215.445L331.861 215.895ZM329.161 213.205C329.329 214.049 329.637 214.643 330.099 215.067C330.559 215.49 331.154 215.729 331.861 215.895L332.036 215.445C331.363 215.286 330.843 215.069 330.452 214.71C330.063 214.352 329.785 213.838 329.629 213.054L329.161 213.205ZM327.997 211.101C328.529 211.64 329.004 212.405 329.161 213.204L329.629 213.054C329.454 212.162 328.933 211.334 328.363 210.756L327.997 211.101ZM327.308 207.414C327.037 208.863 326.988 210.087 327.997 211.101L328.362 210.755C327.496 209.884 327.511 208.846 327.776 207.43L327.308 207.414ZM320.116 195.992C322.883 196.12 324.981 197.345 326.24 199.346C327.5 201.349 327.926 204.144 327.308 207.414L327.776 207.431C328.41 204.075 327.981 201.169 326.656 199.064C325.33 196.956 323.113 195.664 320.208 195.53L320.116 195.992ZM317.239 192.713C317.421 193.457 317.614 194.253 318.019 194.87C318.434 195.501 319.07 195.945 320.117 195.992L320.208 195.53C319.31 195.49 318.785 195.12 318.432 194.582C318.07 194.031 317.89 193.305 317.704 192.545L317.239 192.713ZM316.615 190.876C316.91 191.375 317.07 192.021 317.239 192.713L317.704 192.545C317.537 191.868 317.366 191.16 317.037 190.603L316.615 190.876ZM319.187 185.739C317.94 186.193 317.143 187.221 316.735 188.238C316.531 188.748 316.42 189.263 316.399 189.72C316.378 190.172 316.445 190.586 316.615 190.876L317.037 190.604C316.92 190.403 316.856 190.079 316.875 189.672C316.894 189.27 316.992 188.807 317.176 188.348C317.545 187.426 318.243 186.552 319.293 186.17L319.187 185.739ZM319.694 185.416C319.67 185.462 319.613 185.522 319.51 185.587C319.41 185.65 319.293 185.701 319.189 185.738L319.29 186.171C319.421 186.125 319.579 186.056 319.725 185.964C319.867 185.874 320.025 185.745 320.114 185.57L319.694 185.416ZM326.298 178.319C323.852 180.258 321.35 182.236 319.695 185.414L320.113 185.572C321.707 182.514 324.11 180.605 326.565 178.66L326.298 178.319ZM330.323 174.788C329.093 176.103 327.706 177.203 326.298 178.319L326.565 178.66C327.967 177.548 329.389 176.422 330.653 175.07L330.323 174.788ZM332.884 174.05C332.375 173.71 331.943 173.607 331.495 173.794C331.285 173.882 331.094 174.024 330.91 174.192C330.726 174.358 330.533 174.564 330.323 174.788L330.653 175.07C330.867 174.842 331.043 174.655 331.206 174.507C331.369 174.36 331.502 174.267 331.626 174.215C331.843 174.124 332.11 174.132 332.577 174.444L332.884 174.05ZM341.992 173.891C340.364 174.897 338.784 175.398 337.269 175.42C335.753 175.443 334.285 174.987 332.884 174.05L332.577 174.444C334.033 175.418 335.584 175.907 337.206 175.883C338.828 175.859 340.503 175.321 342.203 174.271L341.992 173.891ZM344.59 174.607C344.295 174.041 343.996 173.625 343.568 173.484C343.118 173.336 342.607 173.511 341.992 173.891L342.202 174.271C342.786 173.911 343.116 173.845 343.358 173.925C343.62 174.011 343.861 174.292 344.159 174.862L344.59 174.607ZM350.001 177.269C348.771 177.569 347.71 177.453 346.815 176.995C345.915 176.535 345.168 175.722 344.59 174.607L344.158 174.862C344.762 176.025 345.557 176.905 346.546 177.411C347.539 177.919 348.713 178.043 350.051 177.717L350.001 177.269ZM352.381 178.383C352.096 177.956 351.811 177.598 351.439 177.388C351.053 177.172 350.596 177.125 350.002 177.269L350.05 177.717C350.548 177.597 350.882 177.643 351.157 177.797C351.445 177.959 351.688 178.25 351.969 178.673L352.381 178.383ZM360.444 177.089C359.255 179.195 357.789 180.341 356.383 180.57C354.982 180.798 353.537 180.129 352.381 178.384L351.969 178.672C353.174 180.491 354.754 181.292 356.393 181.026C358.028 180.76 359.62 179.448 360.854 177.263L360.444 177.089ZM365.879 175.766C364.94 174.769 364.005 174.299 363.045 174.536C362.094 174.77 361.245 175.67 360.444 177.089L360.854 177.263C361.644 175.865 362.387 175.158 363.096 174.983C363.796 174.811 364.588 175.129 365.506 176.105L365.879 175.766ZM377.983 174.371C376.172 176.504 373.956 177.708 371.797 177.955C369.638 178.203 367.511 177.498 365.879 175.766L365.506 176.105C367.218 177.921 369.471 178.68 371.783 178.415C374.094 178.149 376.438 176.863 378.332 174.632L377.983 174.371ZM379.355 172.658C378.882 173.265 378.442 173.829 377.983 174.371L378.332 174.632C378.801 174.08 379.248 173.505 379.719 172.901L379.355 172.658Z" fill="black"/>
<path d="M208.732 234.731H208.725C202.484 237.659 195.554 239.286 188.251 239.286C185.383 239.286 182.572 239.031 179.838 238.552C176.647 237.993 173.561 237.114 170.616 235.952C151.913 228.608 138.615 209.905 138.615 187.999C138.615 159.672 160.84 136.706 188.251 136.706C208.887 136.706 226.585 149.729 234.07 168.257C236.488 165.832 238.379 163.66 239.187 162.12C239.201 162.084 239.208 162.055 239.208 162.011C239.074 161.067 237.43 148 242.842 143.257C247.895 138.834 250.58 148.763 251.072 150.818C251.107 150.963 251.29 151 251.381 150.884C252.534 149.373 257.974 142.698 262.318 145.138C266.605 147.542 262.163 154.813 261.01 156.556C260.919 156.694 261.039 156.861 261.186 156.832C262.775 156.476 268.159 155.605 269.178 159.745C270.239 164.045 262.655 167.357 260.898 168.061C260.757 168.112 260.743 168.308 260.877 168.381C262.43 169.253 268.728 173.117 267.027 177.765C265.185 182.813 252.928 176.668 251.782 176.08C251.726 176.051 251.663 176.058 251.613 176.095C250.847 176.618 244.852 180.758 237.802 185.137C237.858 186.089 237.88 187.04 237.88 187.999C237.88 203.441 231.273 217.285 220.828 226.691C226.142 235.632 232.615 240.31 236.389 242.452C238.203 243.476 239.025 245.721 238.35 247.74C233.817 261.279 225.629 278.362 220.371 284.5C214.622 291.226 209.006 296.455 202.744 297.182C200.642 297.421 198.414 297.385 196.221 296.847C190.022 295.322 188.202 289.112 187.668 285.604C187.457 284.187 187.45 282.749 187.618 281.333C190.008 261.453 210.475 244.326 212.141 242.968C212.204 242.917 212.218 242.83 212.183 242.75C210.89 240.164 209.744 237.462 208.732 234.731Z" fill="#35B6FF"/>
<path d="M179.838 238.552L176.162 285.335C175.466 294.262 165.317 298.772 158.64 293.056C158.534 292.969 158.429 292.875 158.324 292.78C147.584 283.338 132.979 265.129 130.371 256.413C128.79 251.103 127.918 246.426 131.517 239.881C133.583 236.126 142.474 229.691 150.74 237.216C157.782 243.629 163.799 254.241 165.422 257.226C165.57 257.502 165.971 257.444 166.041 257.132L170.617 235.952C173.562 237.114 176.647 237.993 179.838 238.552Z" fill="#35B6FF"/>
<path d="M237.802 185.145C237.858 186.089 237.879 187.04 237.879 187.999C237.879 203.441 231.273 217.285 220.828 226.691" stroke="black" stroke-width="0.681299" stroke-miterlimit="10"/>
<path d="M208.725 234.731C202.484 237.659 195.554 239.286 188.251 239.286C185.383 239.286 182.572 239.031 179.838 238.552C176.647 237.993 173.561 237.114 170.616 235.952C151.913 228.608 138.615 209.905 138.615 187.999C138.615 159.672 160.84 136.706 188.251 136.706C208.887 136.706 226.585 149.729 234.07 168.257" stroke="black" stroke-width="0.681299" stroke-miterlimit="10"/>
<path d="M203.679 216.805C204.775 222.056 206.399 228.455 208.732 234.731C209.744 237.462 210.89 240.164 212.183 242.75C212.218 242.829 212.204 242.917 212.141 242.967C210.475 244.326 190.008 261.453 187.619 281.332C187.45 282.749 187.457 284.187 187.668 285.603C188.202 289.111 190.022 295.322 196.221 296.847C198.414 297.384 200.642 297.421 202.744 297.181C209.006 296.455 214.622 291.225 220.372 284.499C225.629 278.362 233.817 261.278 238.351 247.739C239.025 245.72 238.203 243.476 236.39 242.452C232.615 240.309 226.142 235.632 220.828 226.69H220.821C220.709 226.494 220.589 226.298 220.477 226.095C217.862 221.57 215.986 217.568 214.643 214.219" stroke="black" stroke-width="0.681299" stroke-miterlimit="10"/>
<path d="M170.666 235.734L170.617 235.952L166.041 257.132C165.971 257.444 165.57 257.502 165.422 257.226C163.799 254.241 157.782 243.629 150.74 237.216C142.474 229.691 133.583 236.126 131.517 239.881C127.918 246.426 128.79 251.103 130.371 256.413C132.979 265.129 147.584 283.338 158.324 292.78C158.429 292.875 158.534 292.969 158.64 293.056C165.317 298.772 175.466 294.262 176.162 285.335L179.838 238.552L179.852 238.349" stroke="black" stroke-width="0.681299" stroke-miterlimit="10"/>
<path d="M220.759 180.199C225.081 176.589 230.24 172.1 234.071 168.258C236.489 165.832 238.379 163.66 239.188 162.12C239.202 162.084 239.209 162.055 239.209 162.011C239.075 161.067 237.431 148 242.843 143.258C247.896 138.834 250.581 148.763 251.073 150.819C251.108 150.964 251.291 151 251.382 150.884C252.535 149.373 257.975 142.698 262.319 145.139C266.606 147.543 262.164 154.813 261.011 156.557C260.92 156.695 261.039 156.862 261.187 156.833C262.775 156.477 268.159 155.605 269.179 159.745C270.24 164.045 262.656 167.357 260.899 168.062C260.758 168.113 260.744 168.309 260.878 168.381C262.431 169.253 268.729 173.117 267.028 177.766C265.186 182.814 252.928 176.669 251.783 176.08C251.727 176.051 251.663 176.059 251.614 176.095C250.848 176.618 244.853 180.758 237.803 185.138C234.394 187.266 230.732 189.438 227.302 191.29" stroke="black" stroke-width="0.681299" stroke-miterlimit="10"/>
<path d="M164.643 180.394C169.443 181.484 174.173 181.891 178.798 179.835C182.502 178.186 186.122 175.317 187.598 171.322C187.71 171.025 187.247 170.901 187.141 171.192C185.7 175.085 182.081 177.874 178.468 179.45C173.991 181.397 169.401 180.968 164.769 179.922C164.474 179.857 164.341 180.329 164.643 180.394Z" fill="black"/>
<path d="M183.732 169.79C185.068 171.33 187.239 171.737 189.025 170.821C189.299 170.683 189.06 170.255 188.786 170.4C187.183 171.221 185.257 170.814 184.069 169.449C183.866 169.209 183.528 169.558 183.732 169.797V169.79Z" fill="black"/>
<path d="M168.873 159.882C167.566 159.49 166.069 160.354 164.832 161.996L166.217 164.037L163.461 164.415C163.23 164.967 163.019 165.555 162.85 166.172C161.697 170.298 162.534 174.162 164.713 174.808C166.891 175.455 169.583 172.637 170.736 168.518C171.889 164.393 171.052 160.529 168.873 159.882Z" fill="black" stroke="black" stroke-width="0.27252" stroke-miterlimit="10" stroke-linecap="round"/>
<path d="M181.525 157.413C180.218 157.02 178.72 157.885 177.483 159.526L178.868 161.567L176.113 161.945C175.881 162.497 175.67 163.085 175.501 163.703C174.349 167.828 175.185 171.692 177.364 172.339C179.543 172.985 182.235 170.167 183.387 166.049C184.54 161.923 183.704 158.059 181.525 157.413Z" fill="black" stroke="black" stroke-width="0.27252" stroke-miterlimit="10" stroke-linecap="round"/>
<path d="M220.035 123.871L211.348 162.991L271.224 162.897L281.001 123.871H220.035Z" fill="#E0E0E0" stroke="black" stroke-width="0.681299" stroke-miterlimit="10"/>
<path d="M220.034 123.871L245.618 143.431L281 123.871" stroke="black" stroke-width="0.681299" stroke-miterlimit="10"/>
<path d="M211.348 162.991L245.619 143.431L271.224 162.897" stroke="black" stroke-width="0.681299" stroke-linecap="round" stroke-linejoin="round"/>
<path d="M245.78 135.558C244.747 134.621 243.742 133.589 242.357 133.226C240.143 132.645 238.035 132.87 236.102 134.258C234.275 135.565 234.022 137.533 234.155 139.429C234.422 143.25 236.657 146.133 239.307 148.697C240.91 150.251 242.632 151.668 244.473 152.953C245.38 153.585 246.04 153.614 246.982 152.953C250.405 150.564 253.547 147.847 255.754 144.325C257.286 141.877 257.94 139.03 256.843 136.146C256.162 134.352 253.94 133.11 252.148 132.958C249.597 132.74 247.53 133.611 245.9 135.551" fill="#F42762"/>
<path d="M245.78 135.558C244.747 134.621 243.742 133.589 242.357 133.226C240.143 132.645 238.035 132.87 236.102 134.258C234.275 135.565 234.022 137.533 234.155 139.429C234.422 143.25 236.657 146.133 239.307 148.697C240.91 150.251 242.632 151.668 244.473 152.953C245.38 153.585 246.04 153.614 246.982 152.953C250.405 150.564 253.547 147.847 255.754 144.325C257.286 141.877 257.94 139.03 256.843 136.146C256.162 134.352 253.94 133.11 252.148 132.958C249.597 132.74 247.53 133.611 245.9 135.551" stroke="black" stroke-width="0.681299" stroke-linecap="round" stroke-linejoin="round"/>
<path d="M220.751 180.199C227.794 174.308 237.078 166.101 239.18 162.12C239.201 162.084 239.208 162.055 239.201 162.011C239.074 161.067 237.423 148 242.842 143.258C247.895 138.834 250.58 148.763 251.072 150.819C251.107 150.964 251.29 151 251.374 150.884C252.527 149.373 257.967 142.698 262.311 145.139C266.654 147.579 262.156 154.813 261.004 156.564C260.912 156.695 261.032 156.869 261.186 156.833C262.768 156.484 268.152 155.605 269.171 159.745C270.232 164.045 262.648 167.357 260.891 168.062C260.75 168.12 260.743 168.309 260.87 168.381C262.423 169.253 268.721 173.117 267.02 177.766C265.178 182.814 252.921 176.669 251.768 176.08C251.712 176.051 251.649 176.059 251.599 176.095C250.475 176.879 237.816 185.61 227.288 191.29" fill="#35B6FF"/>
<path d="M220.751 180.199C227.794 174.308 237.078 166.101 239.18 162.12C239.201 162.084 239.208 162.055 239.201 162.011C239.074 161.067 237.423 148 242.842 143.258C247.895 138.834 250.58 148.763 251.072 150.819C251.107 150.964 251.29 151 251.374 150.884C252.527 149.373 257.967 142.698 262.311 145.139C266.654 147.579 262.156 154.813 261.004 156.564C260.912 156.695 261.032 156.869 261.186 156.833C262.768 156.484 268.152 155.605 269.171 159.745C270.232 164.045 262.648 167.357 260.891 168.062C260.75 168.12 260.743 168.309 260.87 168.381C262.423 169.253 268.721 173.117 267.02 177.766C265.178 182.814 252.921 176.669 251.768 176.08C251.712 176.051 251.649 176.059 251.599 176.095C250.475 176.879 237.816 185.61 227.288 191.29" stroke="black" stroke-width="0.681299" stroke-miterlimit="10"/>
<path d="M47.4922 208.712C45.2193 216.292 43.7234 224.194 43.3392 232.847C41.4676 274.39 88.6337 302.451 88.6337 302.451C88.6337 302.451 147.118 335.698 212.204 315.622C277.289 295.546 338.048 223.203 338.048 223.203C338.048 223.203 362.16 195.412 375.663 173.21C389.166 151.007 441.433 43.5738 441.433 43.5738L448.275 49.4922C448.275 49.4922 420.677 111.076 380.06 181.085C354.963 224.348 312.598 263.109 283.884 286.412C251.403 312.773 211.845 327.877 170.781 328.838C155.317 329.201 138.747 327.633 122.05 322.811C55.2554 303.536 41.8573 260.539 41.8573 260.539C41.8573 260.539 33.4695 241.856 40.3887 212.802" fill="url(#paint2_linear_1440_11491)"/>
<path d="M47.4922 208.712C45.2193 216.292 43.7234 224.194 43.3392 232.847C41.4676 274.39 88.6337 302.451 88.6337 302.451C88.6337 302.451 147.118 335.698 212.204 315.622C277.289 295.546 338.048 223.203 338.048 223.203C338.048 223.203 362.16 195.412 375.663 173.21C389.166 151.007 441.433 43.5738 441.433 43.5738L448.275 49.4922C448.275 49.4922 420.677 111.076 380.06 181.085C354.963 224.348 312.598 263.109 283.884 286.412C251.403 312.773 211.845 327.877 170.781 328.838C155.317 329.201 138.747 327.633 122.05 322.811C55.2554 303.536 41.8573 260.539 41.8573 260.539C41.8573 260.539 33.4695 241.856 40.3887 212.802" stroke="black" stroke-width="0.433006" stroke-miterlimit="10"/>
<path d="M42.9032 198.098C45.9238 190.737 49.8504 182.827 54.9224 174.464C64.7186 158.082 74.1642 146.064 83.0937 139.577C93.4991 133.095 99.0793 140.929 95.3547 150.684C92.1673 159.033 85.7004 170.008 72.7761 182.662C64.6075 190.662 55.2207 197.909 45.9005 204.211C21.4239 220.763 -2.5612 230.791 -2.5612 230.791L-0.808783 220.093C-0.808783 220.093 27.6171 210.348 50.6441 192.519C50.7267 192.459 50.8145 192.399 50.8972 192.339C78.2662 173.207 88.0606 152.583 89.2869 148.208C90.5131 143.833 87.1529 139.619 76.1506 153.364C72.9969 156.904 60.6734 171.51 50.8972 192.339" fill="url(#paint3_linear_1440_11491)"/>
<path d="M42.9032 198.098C45.9238 190.737 49.8504 182.827 54.9224 174.464C64.7186 158.082 74.1642 146.064 83.0937 139.577C93.4991 133.095 99.0793 140.929 95.3547 150.684C92.1673 159.033 85.7004 170.008 72.7761 182.662C64.6075 190.662 55.2207 197.909 45.9005 204.211C21.4239 220.763 -2.5612 230.791 -2.5612 230.791L-0.808783 220.093C-0.808783 220.093 27.6171 210.348 50.6441 192.519C50.7267 192.459 50.8145 192.399 50.8972 192.339M50.8972 192.339C78.2662 173.207 88.0606 152.583 89.2869 148.208C90.5131 143.833 87.1529 139.619 76.1506 153.364C72.9969 156.904 60.6734 171.51 50.8972 192.339Z" stroke="black" stroke-width="0.433006" stroke-miterlimit="10"/>
</g>
<defs>
<linearGradient id="paint0_linear_1440_11491" x1="195" y1="0" x2="195" y2="288" gradientUnits="userSpaceOnUse">
<stop stop-color="#CFEFFF"/>
<stop offset="1" stop-color="#73CCFF"/>
</linearGradient>
<linearGradient id="paint1_linear_1440_11491" x1="195" y1="0" x2="195" y2="288" gradientUnits="userSpaceOnUse">
<stop offset="0.250558" stop-color="#CFEFFF"/>
<stop offset="1" stop-color="#73CCFF"/>
</linearGradient>
<linearGradient id="paint2_linear_1440_11491" x1="74.4963" y1="230.123" x2="236.675" y2="325.429" gradientUnits="userSpaceOnUse">
<stop stop-color="#BAFDBC"/>
<stop offset="1" stop-color="#4DDF22"/>
</linearGradient>
<linearGradient id="paint3_linear_1440_11491" x1="55.5228" y1="136.211" x2="52.7598" y2="232.38" gradientUnits="userSpaceOnUse">
<stop stop-color="#C3FFC9"/>
<stop offset="1" stop-color="#4DDF22"/>
</linearGradient>
</defs>
</svg>
