<svg width="390" height="844" viewBox="0 0 390 844" fill="none" xmlns="http://www.w3.org/2000/svg">
<mask id="mask0_391_2717" style="mask-type:alpha" maskUnits="userSpaceOnUse" x="0" y="0" width="390" height="844">
<rect width="390" height="844" fill="url(#paint0_linear_391_2717)"/>
</mask>
<g mask="url(#mask0_391_2717)">
<rect width="390" height="844" fill="url(#paint1_linear_391_2717)"/>
<path fill-rule="evenodd" clip-rule="evenodd" d="M344.808 598.602C337.268 597.869 333.166 601.726 331.127 609.58C328.372 603.105 324.567 599.108 318.199 599.353C315.277 599.466 314.35 598.541 313.572 595.967C311.131 587.895 305.813 582.693 297.205 581.777C287.837 580.774 281.032 584.639 276.92 593.209C275.748 595.626 274.698 596.499 271.891 596.036C261.586 594.326 253.574 600.801 252.979 611.343C252.848 613.612 252.087 614.72 250.302 615.872C244.302 619.738 242.368 624.258 243.908 630.978C244.415 633.186 244.275 634.896 242.963 636.799C240.304 640.656 240.234 644.696 243.444 648.283C244.931 649.941 245.229 651.442 244.573 653.484C243.042 658.266 244.844 662.036 248.754 664.733C250.713 666.085 251.483 667.307 251.098 669.82C249.629 679.393 254.912 687.23 264.254 689.865C264.585 689.957 264.963 690.032 265.347 690.107C266.382 690.31 267.458 690.521 267.771 691.113C270.22 695.73 272.949 699.884 278.206 701.769C278.577 701.903 278.688 702.852 278.788 703.704C278.817 703.957 278.846 704.201 278.88 704.413C280.166 712.389 284.53 717.599 292.613 719.126C295.648 719.702 296.654 721.168 297.197 724.135C298.911 733.56 306.539 739.808 316.222 739.983C318.811 740.035 320.604 740.707 322.415 742.74C326.456 747.287 332.518 747.095 336.743 742.496C338.143 740.969 339.472 740.009 341.624 740.009C347.739 740.026 351.92 736.789 353.223 731.099C353.815 728.523 355.637 727.387 357.416 726.278C358.819 725.403 360.196 724.545 360.921 723.009C362.111 720.487 364.105 719.309 366.694 718.41C371.453 716.761 374.182 713.122 375.24 708.209C376.15 704.011 383.804 697.763 388.073 697.684C398.832 697.475 406.556 689.394 405.9 678.73C405.76 676.461 406.285 675.274 408.209 674.105C411.953 671.836 413.956 668.345 413.064 663.947C412.469 661.041 413.492 659.689 415.802 658.179C419.992 655.447 422.24 650.744 420.289 646.494C417.49 640.394 415.39 634.312 413.965 627.784C413.854 627.273 413.724 626.792 413.598 626.327C413.109 624.517 412.686 622.956 413.737 620.803C419.082 609.894 412.005 596.787 399.829 595.757C398.187 595.618 396.534 595.665 394.885 595.711C390.954 595.822 387.048 595.933 383.375 593.523C382.553 592.991 380.821 593.48 379.666 593.916C377.462 594.745 375.896 594.291 374.016 592.799C364.883 585.564 354.518 586.943 347.511 596.098C347.327 596.338 347.157 596.617 346.984 596.899C346.441 597.785 345.876 598.708 344.808 598.602ZM372.223 621.401C372.513 621.001 372.811 620.59 373.123 620.167V620.159C374.278 620.976 374.372 621.793 374.464 622.583C374.469 622.627 374.474 622.67 374.479 622.713C375.276 629.277 379.183 633.264 385.204 635.491C388.728 636.794 391.524 643.366 389.885 646.728C388.866 648.824 388.107 651.127 388.935 653.215C390.306 656.677 389.448 659.017 386.981 661.678C385.472 663.317 384.354 663.995 382.147 663.934C372.273 663.66 365.164 671.23 365.784 681.103C365.968 684.083 361.035 690.182 358.062 690.632C351.26 691.661 348.448 694.162 346.878 700.764C346.196 703.636 344.237 705.597 342.294 707.544C341.42 708.418 340.55 709.29 339.799 710.24C338.512 711.864 335.486 712.108 334.054 708.403C331.173 700.932 324.34 696.983 316.304 697.753C313.967 697.974 313.025 697.333 312.336 695.237C310.581 689.915 306.552 687.034 301.212 686.104C298.746 685.677 297.129 684.846 296.149 682.467C295.643 681.232 294.578 680.081 293.483 679.281C291.621 677.931 291.384 676.269 291.476 674.157C291.92 664.384 285.577 657.485 275.725 657.309C272.347 657.252 271.296 655.003 270.272 652.81C269.805 651.811 269.344 650.823 268.67 650.059C267.421 648.641 267.85 644.258 271.596 642.946C271.979 642.817 272.485 642.573 272.623 642.245C274.619 637.609 278.348 634.665 282.073 631.725C284.209 630.039 286.344 628.353 288.151 626.35C289.377 624.993 289.99 624.345 291.843 625.267C297.267 627.966 302.752 627.821 307.962 624.68C309.838 623.552 310.742 623.91 312.06 625.557C314.688 628.858 318.257 630.413 322.524 629.399C324.34 628.972 325.305 629.613 326.5 630.84C331.495 635.986 337.7 634.934 340.772 628.545C342.787 624.352 345.437 623.712 349.153 626.54C355.841 631.625 365.026 630.52 370.289 623.979C370.947 623.159 371.566 622.307 372.223 621.401Z" fill="#FFD4FE"/>
<path d="M331.127 609.58L330.782 609.727L331.214 610.741L331.49 609.674L331.127 609.58ZM344.808 598.602L344.845 598.229L344.845 598.229L344.808 598.602ZM318.199 599.353L318.185 598.978L318.184 598.978L318.199 599.353ZM313.572 595.967L313.213 596.075L313.213 596.075L313.572 595.967ZM297.205 581.777L297.165 582.15L297.166 582.15L297.205 581.777ZM276.92 593.209L277.258 593.373L277.258 593.371L276.92 593.209ZM271.891 596.036L271.829 596.406L271.83 596.406L271.891 596.036ZM252.979 611.343L253.353 611.365L253.353 611.364L252.979 611.343ZM250.302 615.872L250.505 616.187L250.506 616.187L250.302 615.872ZM243.908 630.978L243.542 631.062L243.542 631.062L243.908 630.978ZM242.963 636.799L242.655 636.586L242.654 636.586L242.963 636.799ZM243.444 648.283L243.165 648.533L243.165 648.533L243.444 648.283ZM244.573 653.484L244.216 653.369L244.216 653.37L244.573 653.484ZM248.754 664.733L248.967 664.424L248.967 664.424L248.754 664.733ZM251.098 669.82L251.469 669.877L251.469 669.877L251.098 669.82ZM264.254 689.865L264.152 690.226L264.154 690.227L264.254 689.865ZM265.347 690.107L265.275 690.475L265.347 690.107ZM267.771 691.113L267.439 691.288L267.439 691.289L267.771 691.113ZM278.206 701.769L278.334 701.416L278.333 701.416L278.206 701.769ZM278.788 703.704L278.415 703.747L278.788 703.704ZM278.88 704.413L278.509 704.472L278.509 704.472L278.88 704.413ZM292.613 719.126L292.683 718.757L292.683 718.757L292.613 719.126ZM297.197 724.135L297.566 724.068L297.566 724.068L297.197 724.135ZM316.222 739.983L316.23 739.608L316.229 739.608L316.222 739.983ZM322.415 742.74L322.695 742.491L322.695 742.491L322.415 742.74ZM336.743 742.496L337.019 742.749L337.02 742.749L336.743 742.496ZM341.624 740.009L341.625 739.634H341.624V740.009ZM353.223 731.099L352.858 731.015L352.858 731.015L353.223 731.099ZM357.416 726.278L357.217 725.96L357.416 726.278ZM360.921 723.009L361.26 723.169L361.26 723.169L360.921 723.009ZM366.694 718.41L366.571 718.056L366.571 718.056L366.694 718.41ZM375.24 708.209L374.874 708.129L374.874 708.13L375.24 708.209ZM388.073 697.684L388.079 698.059L388.08 698.059L388.073 697.684ZM405.9 678.73L406.274 678.707L406.274 678.707L405.9 678.73ZM408.209 674.105L408.015 673.784L408.014 673.785L408.209 674.105ZM413.064 663.947L413.431 663.873L413.431 663.872L413.064 663.947ZM415.802 658.179L415.597 657.865L415.596 657.865L415.802 658.179ZM420.289 646.494L419.948 646.65L419.948 646.65L420.289 646.494ZM413.965 627.784L413.598 627.863L413.598 627.864L413.965 627.784ZM413.598 626.327L413.236 626.425L413.598 626.327ZM413.737 620.803L413.4 620.638L413.4 620.638L413.737 620.803ZM399.829 595.757L399.797 596.131L399.797 596.131L399.829 595.757ZM394.885 595.711L394.874 595.336L394.885 595.711ZM383.375 593.523L383.581 593.21L383.579 593.208L383.375 593.523ZM379.666 593.916L379.798 594.267L379.799 594.267L379.666 593.916ZM374.016 592.799L374.249 592.505L374.248 592.505L374.016 592.799ZM347.511 596.098L347.213 595.87L347.213 595.87L347.511 596.098ZM346.984 596.899L347.303 597.095V597.095L346.984 596.899ZM373.123 620.167L373.425 620.39L373.498 620.291V620.167H373.123ZM372.223 621.401L371.919 621.181V621.181L372.223 621.401ZM373.123 620.159L373.34 619.853L372.748 619.435V620.159H373.123ZM374.464 622.583L374.836 622.54V622.54L374.464 622.583ZM374.479 622.713L374.107 622.758L374.107 622.759L374.479 622.713ZM385.204 635.491L385.334 635.139L385.334 635.139L385.204 635.491ZM389.885 646.728L389.548 646.563L389.547 646.564L389.885 646.728ZM388.935 653.215L388.586 653.354L388.586 653.354L388.935 653.215ZM386.981 661.678L386.706 661.423L386.705 661.424L386.981 661.678ZM382.147 663.934L382.137 664.309H382.137L382.147 663.934ZM365.784 681.103L366.158 681.079L366.158 681.079L365.784 681.103ZM358.062 690.632L358.118 691.003H358.118L358.062 690.632ZM346.878 700.764L346.513 700.677L346.513 700.677L346.878 700.764ZM342.294 707.544L342.559 707.809L342.294 707.544ZM339.799 710.24L340.093 710.473L340.093 710.472L339.799 710.24ZM334.054 708.403L333.704 708.538L333.704 708.538L334.054 708.403ZM316.304 697.753L316.339 698.126L316.34 698.126L316.304 697.753ZM312.336 695.237L312.692 695.12L312.692 695.119L312.336 695.237ZM301.212 686.104L301.277 685.734L301.276 685.734L301.212 686.104ZM296.149 682.467L295.802 682.609L295.802 682.61L296.149 682.467ZM293.483 679.281L293.704 678.978L293.703 678.977L293.483 679.281ZM291.476 674.157L291.101 674.14L291.101 674.141L291.476 674.157ZM275.725 657.309L275.732 656.934H275.732L275.725 657.309ZM270.272 652.81L269.932 652.969L270.272 652.81ZM268.67 650.059L268.389 650.307L268.389 650.307L268.67 650.059ZM271.596 642.946L271.476 642.591L271.472 642.592L271.596 642.946ZM272.623 642.245L272.278 642.097L272.277 642.1L272.623 642.245ZM282.073 631.725L281.84 631.431L282.073 631.725ZM288.151 626.35L287.873 626.098L287.873 626.099L288.151 626.35ZM291.843 625.267L292.011 624.932L291.843 625.267ZM307.962 624.68L307.768 624.359L307.768 624.359L307.962 624.68ZM312.06 625.557L312.353 625.323L312.353 625.323L312.06 625.557ZM322.524 629.399L322.439 629.034L322.438 629.034L322.524 629.399ZM326.5 630.84L326.769 630.579L326.769 630.579L326.5 630.84ZM340.772 628.545L341.11 628.708L341.11 628.708L340.772 628.545ZM349.153 626.54L348.926 626.839L348.926 626.839L349.153 626.54ZM370.289 623.979L370.581 624.214L370.581 624.214L370.289 623.979ZM331.49 609.674C332.5 605.785 334.006 602.943 336.145 601.159C338.272 599.384 341.075 598.616 344.772 598.975L344.845 598.229C341.001 597.855 337.983 598.649 335.664 600.583C333.357 602.508 331.793 605.521 330.765 609.486L331.49 609.674ZM318.213 599.727C321.306 599.609 323.757 600.517 325.775 602.232C327.804 603.957 329.416 606.516 330.782 609.727L331.473 609.433C330.084 606.17 328.415 603.492 326.261 601.661C324.096 599.82 321.46 598.852 318.185 598.978L318.213 599.727ZM313.213 596.075C313.606 597.375 314.059 598.349 314.852 598.964C315.651 599.584 316.722 599.785 318.213 599.727L318.184 598.978C316.754 599.033 315.901 598.829 315.312 598.371C314.715 597.908 314.316 597.133 313.931 595.858L313.213 596.075ZM297.166 582.15C301.4 582.601 304.805 584.102 307.451 586.468C310.099 588.836 312.008 592.09 313.213 596.075L313.931 595.858C312.695 591.772 310.724 588.388 307.951 585.909C305.176 583.427 301.618 581.87 297.245 581.404L297.166 582.15ZM277.258 593.371C279.288 589.14 281.97 586.096 285.276 584.23C288.581 582.363 292.543 581.655 297.165 582.15L297.245 581.404C292.499 580.896 288.374 581.619 284.907 583.577C281.44 585.534 278.664 588.708 276.582 593.047L277.258 593.371ZM271.83 596.406C273.272 596.644 274.343 596.553 275.214 596.023C276.072 595.501 276.667 594.591 277.258 593.373L276.583 593.045C276.002 594.244 275.485 594.98 274.824 595.382C274.175 595.777 273.317 595.891 271.952 595.666L271.83 596.406ZM253.353 611.364C253.645 606.186 255.756 602.035 259.03 599.387C262.303 596.739 266.771 595.567 271.829 596.406L271.952 595.667C266.706 594.796 262.016 596.006 258.558 598.804C255.1 601.601 252.907 605.959 252.604 611.322L253.353 611.364ZM250.506 616.187C251.422 615.596 252.11 614.994 252.581 614.222C253.053 613.448 253.285 612.537 253.353 611.365L252.605 611.321C252.541 612.418 252.328 613.196 251.94 613.831C251.552 614.468 250.967 614.996 250.099 615.557L250.506 616.187ZM244.273 630.894C243.515 627.586 243.622 624.861 244.623 622.501C245.625 620.14 247.544 618.095 250.505 616.187L250.099 615.557C247.06 617.515 245.012 619.663 243.932 622.208C242.852 624.756 242.761 627.651 243.542 631.062L244.273 630.894ZM243.272 637.012C243.956 636.02 244.344 635.063 244.489 634.056C244.633 633.054 244.533 632.025 244.273 630.894L243.542 631.062C243.79 632.139 243.873 633.069 243.747 633.949C243.62 634.826 243.283 635.675 242.655 636.586L243.272 637.012ZM243.724 648.033C242.168 646.295 241.426 644.471 241.378 642.632C241.329 640.79 241.976 638.892 243.272 637.011L242.654 636.586C241.292 638.563 240.574 640.614 240.628 642.652C240.682 644.695 241.51 646.684 243.165 648.533L243.724 648.033ZM244.93 653.599C245.271 652.536 245.375 651.582 245.179 650.661C244.983 649.741 244.496 648.894 243.723 648.033L243.165 648.533C243.879 649.33 244.285 650.062 244.445 650.817C244.606 651.573 244.53 652.39 244.216 653.369L244.93 653.599ZM248.967 664.424C247.056 663.106 245.685 661.543 244.971 659.752C244.26 657.965 244.188 655.917 244.93 653.598L244.216 653.37C243.427 655.833 243.491 658.061 244.275 660.029C245.057 661.992 246.542 663.663 248.541 665.041L248.967 664.424ZM251.469 669.877C251.668 668.575 251.576 667.556 251.141 666.675C250.71 665.801 249.966 665.114 248.967 664.424L248.541 665.041C249.501 665.704 250.122 666.304 250.469 667.007C250.813 667.704 250.913 668.552 250.728 669.764L251.469 669.877ZM264.356 689.504C255.188 686.918 250.029 679.255 251.469 669.877L250.728 669.763C249.228 679.532 254.636 687.542 264.152 690.226L264.356 689.504ZM265.419 689.739C265.032 689.663 264.669 689.591 264.355 689.504L264.154 690.227C264.502 690.323 264.895 690.4 265.275 690.475L265.419 689.739ZM268.102 690.938C267.875 690.508 267.405 690.268 266.953 690.11C266.485 689.947 265.929 689.839 265.419 689.739L265.275 690.475C265.799 690.578 266.299 690.677 266.706 690.818C267.129 690.965 267.354 691.127 267.439 691.288L268.102 690.938ZM278.333 701.416C273.218 699.582 270.546 695.543 268.102 690.938L267.439 691.289C269.894 695.916 272.68 700.185 278.08 702.122L278.333 701.416ZM279.16 703.66C279.111 703.241 279.056 702.767 278.963 702.38C278.917 702.187 278.856 701.994 278.771 701.833C278.689 701.678 278.555 701.496 278.334 701.416L278.078 702.121C278.043 702.108 278.062 702.096 278.108 702.183C278.151 702.264 278.194 702.388 278.234 702.555C278.314 702.889 278.365 703.315 278.415 703.747L279.16 703.66ZM279.25 704.353C279.217 704.151 279.19 703.915 279.16 703.66L278.415 703.747C278.444 703.998 278.474 704.251 278.509 704.472L279.25 704.353ZM292.683 718.757C288.709 718.007 285.675 716.357 283.475 713.935C281.273 711.512 279.884 708.289 279.25 704.353L278.509 704.472C279.161 708.513 280.597 711.883 282.92 714.44C285.245 716.999 288.435 718.718 292.543 719.494L292.683 718.757ZM297.566 724.068C297.291 722.563 296.888 721.375 296.124 720.489C295.351 719.593 294.25 719.055 292.683 718.757L292.543 719.494C294.011 719.773 294.931 720.255 295.556 720.979C296.188 721.712 296.56 722.74 296.828 724.202L297.566 724.068ZM316.229 739.608C306.716 739.436 299.247 733.309 297.566 724.068L296.828 724.202C298.576 733.81 306.361 740.18 316.215 740.357L316.229 739.608ZM322.695 742.491C321.761 741.442 320.817 740.729 319.759 740.274C318.702 739.82 317.555 739.634 316.23 739.608L316.214 740.357C317.479 740.383 318.523 740.559 319.463 740.963C320.4 741.366 321.258 742.005 322.135 742.99L322.695 742.491ZM336.467 742.242C334.414 744.477 331.935 745.621 329.502 745.673C327.073 745.725 324.649 744.689 322.695 742.491L322.135 742.989C324.222 745.337 326.85 746.48 329.518 746.422C332.183 746.365 334.848 745.113 337.019 742.749L336.467 742.242ZM341.624 739.634C339.322 739.634 337.9 740.679 336.467 742.242L337.02 742.749C338.386 741.259 339.623 740.384 341.624 740.384V739.634ZM352.858 731.015C352.223 733.788 350.893 735.939 348.999 737.397C347.104 738.856 344.615 739.642 341.625 739.634L341.623 740.384C344.747 740.393 347.407 739.569 349.457 737.991C351.508 736.412 352.921 734.1 353.589 731.183L352.858 731.015ZM357.217 725.96C355.448 727.063 353.488 728.271 352.858 731.015L353.589 731.183C354.142 728.775 355.826 727.711 357.614 726.596L357.217 725.96ZM360.582 722.849C359.911 724.269 358.637 725.075 357.217 725.96L357.614 726.596C359.001 725.731 360.48 724.82 361.26 723.169L360.582 722.849ZM366.571 718.056C363.939 718.97 361.833 720.196 360.582 722.849L361.26 723.169C362.388 720.779 364.271 719.649 366.817 718.765L366.571 718.056ZM374.874 708.13C373.838 712.939 371.185 716.457 366.571 718.056L366.817 718.765C371.721 717.065 374.526 713.305 375.607 708.288L374.874 708.13ZM388.066 697.31C386.919 697.331 385.583 697.762 384.228 698.436C382.866 699.113 381.458 700.049 380.159 701.112C378.861 702.175 377.665 703.372 376.732 704.575C375.804 705.773 375.118 707.002 374.874 708.129L375.607 708.288C375.817 707.317 376.429 706.191 377.325 705.034C378.217 703.883 379.372 702.726 380.634 701.692C381.897 700.659 383.259 699.755 384.562 699.108C385.871 698.456 387.092 698.078 388.079 698.059L388.066 697.31ZM405.525 678.753C406.168 689.196 398.62 697.104 388.065 697.31L388.08 698.059C399.043 697.846 406.944 689.593 406.274 678.707L405.525 678.753ZM408.014 673.785C407.018 674.39 406.34 675.026 405.943 675.841C405.548 676.652 405.454 677.591 405.525 678.753L406.274 678.707C406.206 677.6 406.304 676.812 406.617 676.17C406.928 675.532 407.475 674.99 408.404 674.426L408.014 673.785ZM412.696 664.022C413.127 666.144 412.857 668.03 412.04 669.656C411.221 671.286 409.84 672.678 408.015 673.784L408.403 674.426C410.322 673.263 411.815 671.775 412.71 669.993C413.607 668.207 413.893 666.149 413.431 663.873L412.696 664.022ZM415.596 657.865C414.429 658.629 413.528 659.387 413.012 660.364C412.489 661.355 412.388 662.516 412.696 664.022L413.431 663.872C413.145 662.473 413.258 661.504 413.675 660.715C414.099 659.912 414.865 659.239 416.007 658.493L415.596 657.865ZM419.948 646.65C421.793 650.67 419.695 655.193 415.597 657.865L416.006 658.493C420.288 655.702 422.686 650.817 420.63 646.338L419.948 646.65ZM413.598 627.864C415.03 634.42 417.139 640.528 419.948 646.65L420.63 646.338C417.841 640.26 415.751 634.203 414.331 627.704L413.598 627.864ZM413.236 626.425C413.362 626.891 413.49 627.363 413.598 627.863L414.331 627.705C414.218 627.182 414.086 626.693 413.96 626.229L413.236 626.425ZM413.4 620.638C412.283 622.926 412.745 624.609 413.236 626.425L413.96 626.229C413.472 624.425 413.089 622.986 414.074 620.967L413.4 620.638ZM399.797 596.131C411.7 597.137 418.634 609.956 413.4 620.638L414.074 620.968C419.53 609.833 412.311 596.436 399.861 595.384L399.797 596.131ZM394.895 596.086C396.548 596.039 398.18 595.994 399.797 596.131L399.861 595.384C398.194 595.242 396.52 595.29 394.874 595.336L394.895 596.086ZM383.17 593.837C386.954 596.32 390.979 596.197 394.895 596.086L394.874 595.336C390.929 595.448 387.141 595.546 383.581 593.21L383.17 593.837ZM379.799 594.267C380.365 594.053 381.061 593.831 381.705 593.726C382.375 593.618 382.887 593.654 383.171 593.838L383.579 593.208C383.041 592.86 382.276 592.874 381.586 592.986C380.87 593.102 380.122 593.343 379.534 593.565L379.799 594.267ZM373.783 593.093C374.745 593.857 375.659 594.381 376.64 594.594C377.628 594.809 378.645 594.701 379.798 594.267L379.534 593.565C378.484 593.96 377.616 594.039 376.799 593.861C375.976 593.682 375.167 593.233 374.249 592.505L373.783 593.093ZM347.809 596.325C351.263 591.813 355.522 589.244 360.014 588.674C364.505 588.105 369.281 589.527 373.783 593.093L374.248 592.505C369.618 588.837 364.645 587.331 359.919 587.93C355.194 588.53 350.766 591.228 347.213 595.87L347.809 596.325ZM347.303 597.095C347.479 596.809 347.639 596.548 347.809 596.325L347.213 595.87C347.015 596.129 346.834 596.425 346.664 596.704L347.303 597.095ZM344.771 598.975C345.441 599.042 345.952 598.777 346.352 598.393C346.737 598.025 347.039 597.528 347.303 597.095L346.664 596.704C346.386 597.157 346.134 597.564 345.834 597.852C345.549 598.125 345.244 598.268 344.845 598.229L344.771 598.975ZM372.821 619.944C372.508 620.369 372.209 620.781 371.919 621.181L372.526 621.621C372.817 621.221 373.114 620.811 373.425 620.39L372.821 619.944ZM372.748 620.159V620.167H373.498V620.159H372.748ZM374.836 622.54C374.791 622.151 374.741 621.694 374.535 621.229C374.325 620.755 373.965 620.296 373.34 619.853L372.907 620.466C373.436 620.84 373.701 621.198 373.849 621.533C374.002 621.879 374.045 622.225 374.091 622.626L374.836 622.54ZM374.851 622.669C374.846 622.626 374.841 622.584 374.836 622.54L374.091 622.626C374.096 622.67 374.101 622.714 374.107 622.758L374.851 622.669ZM385.334 635.139C382.366 634.042 379.943 632.519 378.165 630.482C376.39 628.448 375.241 625.883 374.851 622.668L374.107 622.759C374.513 626.108 375.717 628.818 377.6 630.975C379.48 633.129 382.021 634.713 385.074 635.842L385.334 635.139ZM390.222 646.892C391.111 645.068 390.778 642.458 389.826 640.192C388.874 637.924 387.237 635.843 385.334 635.139L385.074 635.842C386.694 636.442 388.218 638.298 389.135 640.482C390.053 642.669 390.297 645.026 389.548 646.563L390.222 646.892ZM389.283 653.077C388.52 651.151 389.206 648.982 390.222 646.892L389.547 646.564C388.526 648.666 387.694 651.102 388.586 653.354L389.283 653.077ZM387.256 661.933C388.509 660.582 389.386 659.277 389.76 657.841C390.136 656.396 389.991 654.863 389.283 653.077L388.586 653.354C389.25 655.029 389.361 656.397 389.034 657.652C388.705 658.917 387.92 660.113 386.706 661.423L387.256 661.933ZM382.137 664.309C383.283 664.341 384.178 664.181 384.992 663.78C385.798 663.382 386.492 662.763 387.257 661.932L386.705 661.424C385.961 662.232 385.342 662.771 384.66 663.107C383.985 663.44 383.218 663.589 382.158 663.559L382.137 664.309ZM366.158 681.079C365.551 671.42 372.489 664.041 382.137 664.309L382.158 663.559C372.056 663.279 364.776 671.04 365.41 681.126L366.158 681.079ZM358.118 691.003C358.956 690.876 359.883 690.364 360.779 689.669C361.683 688.966 362.593 688.047 363.398 687.052C364.204 686.058 364.913 684.978 365.411 683.949C365.904 682.931 366.21 681.921 366.158 681.079L365.41 681.126C365.45 681.775 365.209 682.645 364.736 683.622C364.267 684.59 363.592 685.621 362.815 686.58C362.039 687.539 361.169 688.416 360.319 689.076C359.459 689.744 358.655 690.163 358.006 690.261L358.118 691.003ZM347.242 700.851C348.02 697.584 349.09 695.393 350.759 693.887C352.429 692.379 354.748 691.513 358.118 691.003L358.006 690.261C354.574 690.781 352.085 691.679 350.257 693.33C348.426 694.982 347.306 697.342 346.513 700.677L347.242 700.851ZM342.559 707.809C344.491 705.873 346.532 703.841 347.243 700.85L346.513 700.677C345.859 703.43 343.984 705.32 342.028 707.279L342.559 707.809ZM340.093 710.472C340.828 709.542 341.683 708.686 342.559 707.809L342.028 707.279C341.158 708.15 340.271 709.037 339.505 710.008L340.093 710.472ZM333.704 708.538C334.454 710.478 335.656 711.46 336.914 711.689C338.156 711.914 339.37 711.385 340.093 710.473L339.505 710.007C338.941 710.719 337.998 711.123 337.048 710.951C336.113 710.781 335.086 710.033 334.403 708.267L333.704 708.538ZM316.34 698.126C324.22 697.371 330.888 701.234 333.704 708.538L334.404 708.268C331.459 700.629 324.46 696.594 316.268 697.379L316.34 698.126ZM311.98 695.354C312.333 696.429 312.776 697.214 313.499 697.679C314.22 698.143 315.144 698.239 316.339 698.126L316.269 697.379C315.127 697.487 314.412 697.374 313.905 697.048C313.4 696.724 313.028 696.141 312.692 695.12L311.98 695.354ZM301.148 686.473C306.376 687.384 310.276 690.187 311.98 695.354L312.692 695.119C310.887 689.644 306.728 686.684 301.277 685.734L301.148 686.473ZM295.802 682.61C296.316 683.857 297.009 684.723 297.915 685.329C298.813 685.93 299.893 686.256 301.149 686.473L301.276 685.734C300.065 685.525 299.104 685.222 298.332 684.706C297.568 684.195 296.962 683.456 296.495 682.324L295.802 682.61ZM293.262 679.583C294.322 680.358 295.331 681.459 295.802 682.609L296.496 682.325C295.956 681.006 294.835 679.804 293.704 678.978L293.262 679.583ZM291.101 674.141C291.055 675.209 291.088 676.208 291.391 677.123C291.698 678.05 292.273 678.866 293.263 679.584L293.703 678.977C292.832 678.345 292.357 677.656 292.103 676.887C291.844 676.105 291.805 675.218 291.85 674.174L291.101 674.141ZM275.719 657.684C280.556 657.77 284.503 659.505 287.187 662.39C289.871 665.275 291.319 669.34 291.101 674.14L291.85 674.174C292.076 669.201 290.575 664.93 287.736 661.879C284.896 658.826 280.746 657.024 275.732 656.934L275.719 657.684ZM269.932 652.969C270.439 654.053 270.982 655.224 271.846 656.121C272.73 657.038 273.933 657.654 275.719 657.684L275.732 656.934C274.14 656.907 273.128 656.37 272.386 655.6C271.624 654.81 271.13 653.76 270.612 652.651L269.932 652.969ZM268.389 650.307C269.02 651.023 269.46 651.958 269.932 652.969L270.612 652.651C270.15 651.663 269.667 650.623 268.951 649.811L268.389 650.307ZM271.472 642.592C269.468 643.294 268.348 644.823 267.9 646.358C267.677 647.123 267.618 647.896 267.701 648.579C267.784 649.257 268.01 649.878 268.389 650.307L268.951 649.811C268.705 649.532 268.517 649.073 268.446 648.489C268.375 647.911 268.424 647.24 268.62 646.568C269.011 645.228 269.979 643.91 271.72 643.3L271.472 642.592ZM272.277 642.1C272.254 642.154 272.175 642.246 272.005 642.351C271.845 642.45 271.651 642.532 271.476 642.591L271.717 643.302C271.925 643.231 272.175 643.127 272.398 642.989C272.611 642.858 272.854 642.664 272.969 642.39L272.277 642.1ZM281.84 631.431C278.126 634.362 274.318 637.36 272.278 642.097L272.967 642.393C274.92 637.857 278.569 634.969 282.305 632.019L281.84 631.431ZM287.873 626.099C286.091 628.075 283.981 629.741 281.84 631.431L282.305 632.019C284.437 630.337 286.598 628.632 288.43 626.601L287.873 626.099ZM292.011 624.932C291.043 624.45 290.305 624.331 289.622 624.606C288.986 624.861 288.465 625.443 287.873 626.098L288.429 626.601C289.063 625.9 289.461 625.479 289.902 625.302C290.295 625.144 290.79 625.162 291.676 625.603L292.011 624.932ZM307.768 624.359C302.672 627.432 297.323 627.575 292.011 624.932L291.676 625.603C297.212 628.357 302.833 628.21 308.155 625.001L307.768 624.359ZM312.353 625.323C311.69 624.494 311.067 623.901 310.31 623.714C309.538 623.523 308.732 623.779 307.768 624.359L308.155 625.002C309.068 624.453 309.653 624.324 310.131 624.442C310.625 624.564 311.113 624.973 311.767 625.791L312.353 625.323ZM322.438 629.034C318.332 630.01 314.904 628.527 312.353 625.323L311.767 625.791C314.472 629.189 318.183 630.816 322.611 629.764L322.438 629.034ZM326.769 630.579C326.165 629.958 325.581 629.445 324.891 629.154C324.185 628.857 323.407 628.807 322.439 629.034L322.61 629.764C323.458 629.565 324.069 629.622 324.599 629.845C325.144 630.074 325.641 630.495 326.232 631.102L326.769 630.579ZM340.434 628.383C338.937 631.497 336.706 633.254 334.297 633.648C331.888 634.042 329.205 633.088 326.769 630.579L326.231 631.101C328.791 633.738 331.707 634.831 334.418 634.388C337.128 633.945 339.535 631.983 341.11 628.708L340.434 628.383ZM349.38 626.242C347.492 624.805 345.782 624.175 344.237 624.545C342.693 624.916 341.458 626.252 340.434 628.383L341.11 628.708C342.101 626.646 343.199 625.566 344.412 625.275C345.626 624.984 347.099 625.448 348.926 626.839L349.38 626.242ZM369.996 623.744C364.861 630.126 355.907 631.204 349.38 626.242L348.926 626.839C355.775 632.046 365.19 630.914 370.581 624.214L369.996 623.744ZM371.919 621.181C371.261 622.088 370.648 622.933 369.996 623.744L370.581 624.214C371.247 623.386 371.87 622.526 372.526 621.621L371.919 621.181Z" fill="black"/>
<path d="M269.843 251.254H269.836C263.351 254.201 256.15 255.838 248.563 255.838C245.583 255.838 242.662 255.582 239.821 255.1C236.506 254.537 233.3 253.652 230.24 252.483C210.808 245.091 196.991 226.266 196.991 204.217C196.991 175.704 220.082 152.587 248.563 152.587C270.004 152.587 288.392 165.696 296.169 184.346C298.681 181.904 300.646 179.718 301.486 178.168C301.5 178.131 301.508 178.102 301.508 178.058C301.369 177.108 299.66 163.956 305.283 159.182C310.534 154.729 313.323 164.723 313.835 166.792C313.871 166.939 314.061 166.975 314.156 166.858C315.354 165.338 321.006 158.619 325.519 161.075C329.974 163.495 325.358 170.813 324.161 172.568C324.066 172.707 324.19 172.875 324.343 172.846C325.994 172.488 331.588 171.61 332.646 175.777C333.749 180.105 325.869 183.439 324.044 184.148C323.898 184.199 323.883 184.397 324.022 184.47C325.636 185.347 332.179 189.237 330.412 193.916C328.498 198.997 315.762 192.812 314.572 192.219C314.514 192.19 314.448 192.198 314.397 192.234C313.601 192.76 307.372 196.928 300.047 201.336C300.105 202.294 300.127 203.251 300.127 204.217C300.127 219.759 293.263 233.694 282.411 243.161C287.932 252.161 294.658 256.869 298.579 259.026C300.463 260.057 301.318 262.316 300.617 264.348C295.906 277.976 287.399 295.171 281.936 301.348C275.963 308.118 270.128 313.382 263.621 314.113C261.437 314.354 259.122 314.318 256.844 313.777C250.403 312.241 248.512 305.991 247.957 302.46C247.737 301.034 247.73 299.586 247.905 298.161C250.388 278.151 271.654 260.912 273.385 259.545C273.45 259.494 273.465 259.406 273.429 259.326C272.085 256.723 270.894 254.003 269.843 251.254Z" fill="#35B6FF"/>
<path d="M239.821 255.1L236.002 302.189C235.279 311.174 224.734 315.714 217.796 309.961C217.687 309.873 217.577 309.778 217.468 309.683C206.309 300.179 191.134 281.85 188.425 273.077C186.781 267.733 185.876 263.025 189.615 256.438C191.762 252.658 201 246.181 209.588 253.755C216.905 260.21 223.156 270.891 224.843 273.896C224.997 274.174 225.413 274.116 225.486 273.801L230.24 252.483C233.3 253.653 236.506 254.537 239.821 255.1Z" fill="#35B6FF"/>
<path d="M300.047 201.343C300.105 202.294 300.127 203.251 300.127 204.216C300.127 219.759 293.263 233.694 282.411 243.161" stroke="black" stroke-width="0.707877" stroke-miterlimit="10"/>
<path d="M269.836 251.254C263.351 254.201 256.15 255.838 248.563 255.838C245.583 255.838 242.662 255.582 239.821 255.1C236.506 254.537 233.3 253.652 230.24 252.483C210.808 245.091 196.991 226.266 196.991 204.217C196.991 175.704 220.082 152.587 248.563 152.587C270.004 152.587 288.392 165.696 296.169 184.346" stroke="black" stroke-width="0.707877" stroke-miterlimit="10"/>
<path d="M264.592 233.211C265.731 238.497 267.418 244.938 269.843 251.254C270.894 254.003 272.085 256.723 273.428 259.326C273.465 259.406 273.45 259.494 273.385 259.545C271.654 260.912 250.388 278.151 247.905 298.161C247.73 299.586 247.737 301.034 247.956 302.46C248.511 305.991 250.403 312.241 256.844 313.777C259.122 314.318 261.437 314.354 263.621 314.113C270.128 313.382 275.962 308.118 281.936 301.348C287.399 295.171 295.906 277.976 300.617 264.348C301.318 262.316 300.463 260.057 298.579 259.026C294.657 256.869 287.932 252.161 282.411 243.161H282.404C282.287 242.964 282.163 242.767 282.046 242.562C279.329 238.007 277.379 233.979 275.984 230.609" stroke="black" stroke-width="0.707877" stroke-miterlimit="10"/>
<path d="M230.291 252.263L230.24 252.483L225.486 273.801C225.413 274.116 224.997 274.174 224.843 273.896C223.156 270.891 216.905 260.21 209.588 253.755C201 246.181 191.762 252.658 189.615 256.438C185.876 263.025 186.781 267.733 188.425 273.077C191.134 281.85 206.309 300.179 217.468 309.683C217.577 309.778 217.687 309.873 217.796 309.961C224.734 315.714 235.279 311.174 236.002 302.189L239.821 255.1L239.836 254.895" stroke="black" stroke-width="0.707877" stroke-miterlimit="10"/>
<path d="M282.338 196.365C286.829 192.731 292.189 188.213 296.169 184.346C298.681 181.904 300.646 179.718 301.486 178.168C301.5 178.132 301.508 178.102 301.508 178.058C301.369 177.108 299.66 163.956 305.283 159.182C310.534 154.73 313.323 164.723 313.835 166.792C313.871 166.939 314.061 166.975 314.156 166.858C315.354 165.338 321.006 158.619 325.519 161.075C329.974 163.495 325.358 170.813 324.161 172.568C324.066 172.707 324.19 172.875 324.343 172.846C325.994 172.488 331.588 171.61 332.646 175.777C333.749 180.105 325.87 183.439 324.044 184.148C323.898 184.2 323.883 184.397 324.022 184.47C325.636 185.347 332.179 189.237 330.412 193.916C328.499 198.997 315.763 192.812 314.572 192.22C314.514 192.19 314.448 192.198 314.397 192.234C313.601 192.761 307.372 196.928 300.047 201.336C296.505 203.478 292.7 205.664 289.137 207.528" stroke="black" stroke-width="0.707877" stroke-miterlimit="10"/>
<path d="M224.033 196.562C229.02 197.659 233.935 198.068 238.74 195.999C242.589 194.339 246.35 191.452 247.883 187.431C248 187.131 247.518 187.007 247.409 187.299C245.912 191.218 242.151 194.025 238.397 195.612C233.745 197.571 228.977 197.14 224.164 196.087C223.857 196.021 223.719 196.496 224.033 196.562Z" fill="black"/>
<path d="M243.867 185.888C245.254 187.438 247.511 187.847 249.366 186.926C249.651 186.787 249.402 186.356 249.118 186.502C247.453 187.328 245.452 186.919 244.217 185.544C244.006 185.303 243.655 185.654 243.867 185.895V185.888Z" fill="black"/>
<path d="M228.429 175.916C227.071 175.521 225.515 176.391 224.23 178.044L225.668 180.098L222.806 180.478C222.565 181.034 222.346 181.626 222.17 182.247C220.973 186.4 221.842 190.289 224.106 190.94C226.37 191.591 229.167 188.754 230.364 184.609C231.562 180.456 230.693 176.567 228.429 175.916Z" fill="black" stroke="black" stroke-width="0.283151" stroke-miterlimit="10" stroke-linecap="round"/>
<path d="M241.574 173.431C240.216 173.036 238.66 173.906 237.375 175.558L238.814 177.612L235.951 177.992C235.71 178.548 235.491 179.14 235.315 179.762C234.118 183.914 234.987 187.804 237.251 188.454C239.515 189.105 242.312 186.268 243.509 182.123C244.707 177.971 243.838 174.081 241.574 173.431Z" fill="black" stroke="black" stroke-width="0.283151" stroke-miterlimit="10" stroke-linecap="round"/>
<path d="M281.586 139.669L272.56 179.045L334.772 178.95L344.93 139.669H281.586Z" fill="#E0E0E0" stroke="black" stroke-width="0.707877" stroke-miterlimit="10"/>
<path d="M281.585 139.669L308.167 159.357L344.929 139.669" stroke="black" stroke-width="0.707877" stroke-miterlimit="10"/>
<path d="M272.56 179.045L308.168 159.357L334.772 178.95" stroke="black" stroke-width="0.707877" stroke-linecap="round" stroke-linejoin="round"/>
<path d="M308.336 151.432C307.262 150.489 306.218 149.451 304.779 149.086C302.479 148.501 300.288 148.727 298.28 150.124C296.381 151.44 296.118 153.421 296.257 155.329C296.534 159.175 298.857 162.077 301.61 164.658C303.275 166.222 305.064 167.648 306.977 168.942C307.919 169.578 308.606 169.607 309.584 168.942C313.141 166.537 316.405 163.802 318.698 160.257C320.29 157.793 320.969 154.927 319.83 152.025C319.122 150.219 316.814 148.969 314.952 148.815C312.301 148.596 310.154 149.473 308.46 151.425" fill="#F42762"/>
<path d="M308.336 151.432C307.262 150.489 306.218 149.451 304.779 149.086C302.479 148.501 300.288 148.727 298.28 150.124C296.381 151.44 296.118 153.421 296.257 155.329C296.534 159.175 298.857 162.077 301.61 164.658C303.275 166.222 305.064 167.648 306.977 168.942C307.919 169.578 308.606 169.607 309.584 168.942C313.141 166.537 316.405 163.802 318.698 160.257C320.29 157.793 320.969 154.927 319.83 152.025C319.122 150.219 316.814 148.969 314.952 148.815C312.301 148.596 310.154 149.473 308.46 151.425" stroke="black" stroke-width="0.707877" stroke-linecap="round" stroke-linejoin="round"/>
<path d="M282.331 196.365C289.648 190.436 299.295 182.174 301.478 178.168C301.5 178.132 301.508 178.102 301.5 178.058C301.369 177.108 299.653 163.956 305.283 159.182C310.534 154.73 313.323 164.723 313.835 166.792C313.871 166.939 314.061 166.975 314.149 166.858C315.346 165.338 320.999 158.619 325.512 161.075C330.025 163.532 325.351 170.813 324.153 172.575C324.058 172.707 324.183 172.882 324.343 172.846C325.986 172.495 331.58 171.61 332.639 175.777C333.742 180.105 325.862 183.439 324.037 184.148C323.89 184.207 323.883 184.397 324.015 184.47C325.629 185.347 332.172 189.237 330.405 193.916C328.491 198.997 315.755 192.812 314.558 192.22C314.499 192.19 314.433 192.198 314.382 192.234C313.214 193.024 300.062 201.811 289.122 207.528" fill="#35B6FF"/>
<path d="M282.331 196.365C289.648 190.436 299.295 182.174 301.478 178.168C301.5 178.132 301.508 178.102 301.5 178.058C301.369 177.108 299.653 163.956 305.283 159.182C310.534 154.73 313.323 164.723 313.835 166.792C313.871 166.939 314.061 166.975 314.149 166.858C315.346 165.338 320.999 158.619 325.512 161.075C330.025 163.532 325.351 170.813 324.153 172.575C324.058 172.707 324.183 172.882 324.343 172.846C325.986 172.495 331.58 171.61 332.639 175.777C333.742 180.105 325.862 183.439 324.037 184.148C323.89 184.207 323.883 184.397 324.015 184.47C325.629 185.347 332.172 189.237 330.405 193.916C328.491 198.997 315.755 192.812 314.558 192.22C314.499 192.19 314.433 192.198 314.382 192.234C313.214 193.024 300.062 201.811 289.122 207.528" stroke="black" stroke-width="0.707877" stroke-miterlimit="10"/>
<path fill-rule="evenodd" clip-rule="evenodd" d="M45.8083 393.089C38.2681 392.356 34.1656 396.213 32.1275 404.067C29.3721 397.592 25.567 393.595 19.1989 393.839C16.2773 393.953 15.3501 393.028 14.5716 390.453C12.1311 382.381 6.81274 377.18 -1.79464 376.264C-11.163 375.26 -17.9684 379.126 -22.0797 387.696C-23.2518 390.113 -24.3015 390.986 -27.1094 390.523C-37.4137 388.813 -45.4263 395.288 -46.0211 405.83C-46.1523 408.099 -46.9133 409.207 -48.6978 410.359C-54.6985 414.225 -56.6316 418.745 -55.0921 425.465C-54.5847 427.673 -54.7247 429.383 -56.0368 431.285C-58.696 435.143 -58.766 439.183 -55.5557 442.77C-54.0687 444.428 -53.7712 445.929 -54.4273 447.971C-55.9581 452.753 -54.1561 456.523 -50.2461 459.219C-48.2867 460.572 -47.5169 461.794 -47.9018 464.307C-49.3713 473.88 -44.088 481.717 -34.7458 484.352C-34.4146 484.444 -34.0367 484.518 -33.653 484.594C-32.6183 484.797 -31.5421 485.008 -31.2294 485.6C-28.7801 490.217 -26.051 494.37 -20.7938 496.255C-20.4229 496.39 -20.3119 497.339 -20.2124 498.191C-20.1829 498.444 -20.1543 498.688 -20.1203 498.9C-18.8344 506.876 -14.4695 512.085 -6.38698 513.613C-3.35166 514.189 -2.34572 515.655 -1.80338 518.622C-0.0889091 528.047 7.53876 534.295 17.222 534.469C19.8113 534.522 21.6045 535.194 23.4152 537.227C27.4564 541.774 33.5183 541.582 37.7433 536.983C39.1428 535.455 40.4724 534.496 42.6243 534.496C48.7387 534.513 52.9199 531.275 54.2232 525.586C54.8149 523.01 56.6367 521.874 58.4157 520.765C59.819 519.89 61.1957 519.031 61.9209 517.496C63.1105 514.974 65.1049 513.796 67.6941 512.897C72.4527 511.248 75.1818 507.609 76.2402 502.696C77.15 498.498 84.8039 492.25 89.0726 492.171C99.8318 491.962 107.556 483.881 106.9 473.217C106.76 470.948 107.285 469.761 109.209 468.592C112.953 466.323 114.956 462.832 114.064 458.434C113.469 455.528 114.492 454.175 116.802 452.666C120.992 449.934 123.24 445.231 121.289 440.981C118.49 434.881 116.39 428.798 114.965 422.271C114.854 421.759 114.724 421.279 114.598 420.814C114.109 419.004 113.686 417.442 114.737 415.29C120.082 404.381 113.005 391.274 100.829 390.244C99.1871 390.105 97.5338 390.151 95.8847 390.198C91.9545 390.309 88.0477 390.42 84.3753 388.01C83.553 387.478 81.8211 387.966 80.6664 388.403C78.4621 389.232 76.8963 388.778 75.0156 387.286C65.8834 380.051 55.5178 381.43 48.5112 390.584C48.3272 390.825 48.1565 391.104 47.9836 391.386C47.4411 392.272 46.8761 393.195 45.8083 393.089ZM73.2228 415.888C73.513 415.487 73.8109 415.077 74.1231 414.654V414.646C75.2777 415.463 75.3722 416.28 75.4638 417.07C75.4688 417.114 75.4738 417.157 75.479 417.2C76.2757 423.764 80.1826 427.751 86.2039 429.977C89.7278 431.281 92.524 437.853 90.8846 441.215C89.8657 443.311 89.1073 445.613 89.9347 447.702C91.3059 451.163 90.4479 453.504 87.9812 456.164C86.472 457.804 85.3536 458.482 83.1473 458.421C73.2727 458.147 66.1637 465.717 66.7842 475.589C66.968 478.57 62.0346 484.669 59.0622 485.119C52.2596 486.148 49.4481 488.649 47.8777 495.251C47.1958 498.123 45.2375 500.084 43.2936 502.03C42.4202 502.905 41.5497 503.777 40.7992 504.727C39.5122 506.351 36.4863 506.595 35.0537 502.89C32.1733 495.418 25.34 491.469 17.304 492.239C14.9675 492.46 14.0252 491.82 13.3357 489.724C11.5815 484.402 7.55195 481.521 2.21247 480.59C-0.254261 480.164 -1.87066 479.333 -2.85123 476.954C-3.35683 475.719 -4.42166 474.568 -5.51714 473.767C-7.37867 472.418 -7.61616 470.756 -7.52423 468.644C-7.07991 458.871 -13.4229 451.971 -23.2745 451.796C-26.6531 451.739 -27.7035 449.49 -28.7279 447.297C-29.1947 446.298 -29.6562 445.31 -30.33 444.546C-31.5787 443.128 -31.1497 438.745 -27.4036 437.433C-27.0206 437.304 -26.515 437.06 -26.3771 436.732C-24.3811 432.095 -20.6524 429.152 -16.9273 426.212C-14.7908 424.526 -12.6555 422.84 -10.849 420.837C-9.62325 419.48 -9.0104 418.832 -7.15651 419.754C-1.73277 422.453 3.75226 422.308 8.96151 419.167C10.8384 418.039 11.7423 418.397 13.06 420.044C15.6876 423.345 19.2574 424.9 23.5244 423.886C25.34 423.459 26.3052 424.1 27.5003 425.327C32.4951 430.473 38.7002 429.421 41.7721 423.032C43.7869 418.839 46.4375 418.199 50.1529 421.027C56.8406 426.112 66.0257 425.007 71.2886 418.466C71.9475 417.646 72.5658 416.794 73.2228 415.888Z" fill="#FFD4FE"/>
<path d="M32.1275 404.067L31.7824 404.214L32.2138 405.228L32.4905 404.161L32.1275 404.067ZM45.8083 393.089L45.8453 392.716L45.8446 392.716L45.8083 393.089ZM19.1989 393.839L19.1846 393.465L19.1844 393.465L19.1989 393.839ZM14.5716 390.453L14.2127 390.562L14.2127 390.562L14.5716 390.453ZM-1.79464 376.264L-1.83458 376.637L-1.83434 376.637L-1.79464 376.264ZM-22.0797 387.696L-21.7423 387.859L-21.7416 387.858L-22.0797 387.696ZM-27.1094 390.523L-27.1708 390.893L-27.1703 390.893L-27.1094 390.523ZM-46.0211 405.83L-45.6467 405.851L-45.6467 405.851L-46.0211 405.83ZM-48.6978 410.359L-48.4947 410.674L-48.4944 410.674L-48.6978 410.359ZM-55.0921 425.465L-55.4576 425.549L-55.4576 425.549L-55.0921 425.465ZM-56.0368 431.285L-56.3455 431.073L-56.3455 431.073L-56.0368 431.285ZM-55.5557 442.77L-55.8351 443.02L-55.8349 443.02L-55.5557 442.77ZM-54.4273 447.971L-54.7843 447.856L-54.7844 447.856L-54.4273 447.971ZM-50.2461 459.219L-50.033 458.911L-50.0332 458.911L-50.2461 459.219ZM-47.9018 464.307L-47.5311 464.364L-47.5311 464.364L-47.9018 464.307ZM-34.7458 484.352L-34.8476 484.713L-34.8462 484.714L-34.7458 484.352ZM-33.653 484.594L-33.7253 484.962L-33.653 484.594ZM-31.2294 485.6L-31.561 485.775L-31.5607 485.776L-31.2294 485.6ZM-20.7938 496.255L-20.6659 495.903L-20.6673 495.902L-20.7938 496.255ZM-20.2124 498.191L-20.5849 498.234L-20.2124 498.191ZM-20.1203 498.9L-20.4905 498.959L-20.4905 498.959L-20.1203 498.9ZM-6.38698 513.613L-6.31707 513.244L-6.31736 513.244L-6.38698 513.613ZM-1.80338 518.622L-1.43444 518.555L-1.4345 518.554L-1.80338 518.622ZM17.222 534.469L17.2296 534.094L17.2288 534.094L17.222 534.469ZM23.4152 537.227L23.6954 536.978L23.6952 536.978L23.4152 537.227ZM37.7433 536.983L38.0194 537.236L38.0197 537.236L37.7433 536.983ZM42.6243 534.496L42.6254 534.121H42.6243V534.496ZM54.2232 525.586L53.8577 525.502L53.8577 525.502L54.2232 525.586ZM58.4157 520.765L58.2173 520.447L58.4157 520.765ZM61.9209 517.496L62.26 517.656L62.26 517.656L61.9209 517.496ZM67.6941 512.897L67.5713 512.543L67.5711 512.543L67.6941 512.897ZM76.2402 502.696L75.8737 502.616L75.8737 502.617L76.2402 502.696ZM89.0726 492.171L89.0795 492.546L89.0799 492.546L89.0726 492.171ZM106.9 473.217L107.274 473.194L107.274 473.194L106.9 473.217ZM109.209 468.592L109.015 468.271L109.014 468.271L109.209 468.592ZM114.064 458.434L114.431 458.36L114.431 458.359L114.064 458.434ZM116.802 452.666L116.597 452.352L116.596 452.352L116.802 452.666ZM121.289 440.981L120.948 441.137L120.948 441.137L121.289 440.981ZM114.965 422.271L114.598 422.35L114.598 422.351L114.965 422.271ZM114.598 420.814L114.236 420.912L114.598 420.814ZM114.737 415.29L114.4 415.125L114.4 415.125L114.737 415.29ZM100.829 390.244L100.797 390.618L100.797 390.618L100.829 390.244ZM95.8847 390.198L95.8741 389.823L95.8847 390.198ZM84.3753 388.01L84.581 387.696L84.5791 387.695L84.3753 388.01ZM80.6664 388.403L80.7984 388.754L80.799 388.753L80.6664 388.403ZM75.0156 387.286L75.2487 386.992L75.2485 386.992L75.0156 387.286ZM48.5112 390.584L48.2134 390.356L48.2134 390.357L48.5112 390.584ZM47.9836 391.386L48.3034 391.582V391.582L47.9836 391.386ZM74.1231 414.654L74.4247 414.877L74.4981 414.777V414.654H74.1231ZM73.2228 415.888L72.9192 415.668V415.668L73.2228 415.888ZM74.1231 414.646L74.3396 414.34L73.7481 413.922V414.646H74.1231ZM75.4638 417.07L75.8363 417.027V417.027L75.4638 417.07ZM75.479 417.2L75.1067 417.245L75.1067 417.245L75.479 417.2ZM86.2039 429.977L86.334 429.626L86.334 429.626L86.2039 429.977ZM90.8846 441.215L90.5475 441.05L90.5473 441.051L90.8846 441.215ZM89.9347 447.702L89.586 447.84L89.586 447.84L89.9347 447.702ZM87.9812 456.164L87.7062 455.91L87.7053 455.91L87.9812 456.164ZM83.1473 458.421L83.1369 458.796H83.137L83.1473 458.421ZM66.7842 475.589L67.1584 475.566L67.1584 475.566L66.7842 475.589ZM59.0622 485.119L59.1183 485.49H59.1183L59.0622 485.119ZM47.8777 495.251L47.5128 495.164L47.5128 495.164L47.8777 495.251ZM43.2936 502.03L43.5589 502.295L43.2936 502.03ZM40.7992 504.727L41.0931 504.96L41.0935 504.959L40.7992 504.727ZM35.0537 502.89L34.7038 503.024L34.7039 503.025L35.0537 502.89ZM17.304 492.239L17.3393 492.613L17.3397 492.613L17.304 492.239ZM13.3357 489.724L13.692 489.606L13.6919 489.606L13.3357 489.724ZM2.21247 480.59L2.27682 480.221L2.27642 480.221L2.21247 480.59ZM-2.85123 476.954L-3.19827 477.096L-3.19792 477.097L-2.85123 476.954ZM-5.51714 473.767L-5.29589 473.465L-5.29705 473.464L-5.51714 473.767ZM-7.52423 468.644L-7.89884 468.627L-7.89887 468.628L-7.52423 468.644ZM-23.2745 451.796L-23.2679 451.421H-23.2682L-23.2745 451.796ZM-28.7279 447.297L-29.0677 447.456L-28.7279 447.297ZM-30.33 444.546L-30.6114 444.794L-30.6112 444.794L-30.33 444.546ZM-27.4036 437.433L-27.5238 437.078L-27.5275 437.079L-27.4036 437.433ZM-26.3771 436.732L-26.7216 436.584L-26.7228 436.587L-26.3771 436.732ZM-16.9273 426.212L-17.1596 425.918L-16.9273 426.212ZM-10.849 420.837L-11.1272 420.585L-11.1274 420.586L-10.849 420.837ZM-7.15651 419.754L-6.98946 419.418L-7.15651 419.754ZM8.96151 419.167L8.7683 418.846L8.76788 418.846L8.96151 419.167ZM13.06 420.044L13.3534 419.81L13.3528 419.81L13.06 420.044ZM23.5244 423.886L23.4386 423.521L23.4377 423.521L23.5244 423.886ZM27.5003 425.327L27.7694 425.066L27.769 425.065L27.5003 425.327ZM41.7721 423.032L42.1101 423.195L42.1101 423.195L41.7721 423.032ZM50.1529 421.027L49.9257 421.326L49.9259 421.326L50.1529 421.027ZM71.2886 418.466L71.5808 418.701L71.5809 418.701L71.2886 418.466ZM32.4905 404.161C33.4997 400.272 35.0065 397.43 37.1448 395.646C39.2724 393.871 42.0753 393.103 45.772 393.462L45.8446 392.716C42.0011 392.342 38.9826 393.136 36.6644 395.07C34.3569 396.995 32.7934 400.008 31.7645 403.973L32.4905 404.161ZM19.2133 394.214C22.3059 394.095 24.7568 395.003 26.7751 396.719C28.8043 398.444 30.4159 401.003 31.7824 404.214L32.4725 403.92C31.0837 400.656 29.415 397.979 27.2608 396.148C25.0957 394.307 22.46 393.339 19.1846 393.465L19.2133 394.214ZM14.2127 390.562C14.6057 391.862 15.0594 392.836 15.8517 393.451C16.6508 394.071 17.7224 394.272 19.2135 394.214L19.1844 393.465C17.7539 393.52 16.9011 393.316 16.3115 392.858C15.7152 392.395 15.316 391.62 14.9306 390.345L14.2127 390.562ZM-1.83434 376.637C2.39974 377.088 5.80518 378.589 8.4511 380.955C11.0994 383.323 13.0076 386.576 14.2127 390.562L14.9306 390.345C13.6951 386.258 11.7238 382.875 8.95103 380.396C6.17579 377.914 2.61835 376.357 -1.75494 375.891L-1.83434 376.637ZM-21.7416 387.858C-19.7117 383.627 -17.03 380.583 -13.7242 378.717C-10.4189 376.85 -6.45715 376.142 -1.83458 376.637L-1.7547 375.891C-6.50051 375.383 -10.6257 376.105 -14.093 378.063C-17.5598 380.021 -20.3365 383.195 -22.4178 387.534L-21.7416 387.858ZM-27.1703 390.893C-25.728 391.131 -24.6571 391.04 -23.7862 390.51C-22.9278 389.987 -22.3332 389.078 -21.7423 387.859L-22.4171 387.532C-22.9983 388.731 -23.5147 389.467 -24.1761 389.869C-24.825 390.264 -25.6829 390.378 -27.0484 390.153L-27.1703 390.893ZM-45.6467 405.851C-45.3545 400.672 -43.2439 396.522 -39.9705 393.874C-36.6974 391.226 -32.2294 390.054 -27.1708 390.893L-27.048 390.153C-32.2938 389.283 -36.9842 390.493 -40.4422 393.29C-43.8998 396.088 -46.0929 400.445 -46.3955 405.809L-45.6467 405.851ZM-48.4944 410.674C-47.5784 410.083 -46.8902 409.481 -46.4193 408.709C-45.9473 407.934 -45.7145 407.024 -45.6467 405.851L-46.3955 405.808C-46.4589 406.905 -46.6723 407.683 -47.0597 408.318C-47.4482 408.955 -48.0328 409.483 -48.9012 410.044L-48.4944 410.674ZM-54.7266 425.381C-55.4846 422.072 -55.3784 419.348 -54.3773 416.988C-53.3753 414.627 -51.4561 412.582 -48.4947 410.674L-48.9009 410.044C-51.9401 412.002 -53.9878 414.15 -55.0677 416.695C-56.1485 419.242 -56.2391 422.138 -55.4576 425.549L-54.7266 425.381ZM-55.7281 431.498C-55.044 430.507 -54.6559 429.55 -54.511 428.543C-54.3666 427.54 -54.4668 426.512 -54.7266 425.381L-55.4576 425.549C-55.2101 426.626 -55.1266 427.556 -55.2533 428.436C-55.3795 429.313 -55.7175 430.162 -56.3455 431.073L-55.7281 431.498ZM-55.2763 442.52C-56.8316 440.782 -57.5737 438.958 -57.6224 437.119C-57.6712 435.276 -57.0244 433.379 -55.7281 431.498L-56.3455 431.073C-57.7084 433.049 -58.4261 435.1 -58.3722 437.139C-58.3181 439.182 -57.4901 441.171 -55.8351 443.02L-55.2763 442.52ZM-54.0703 448.086C-53.729 447.023 -53.6252 446.069 -53.821 445.148C-54.0168 444.228 -54.5038 443.381 -55.2765 442.519L-55.8349 443.02C-55.1206 443.817 -54.7153 444.549 -54.5546 445.304C-54.394 446.059 -54.4695 446.876 -54.7843 447.856L-54.0703 448.086ZM-50.0332 458.911C-51.9444 457.593 -53.3149 456.03 -54.0286 454.238C-54.7404 452.452 -54.8125 450.404 -54.0701 448.085L-54.7844 447.856C-55.5729 450.32 -55.5094 452.548 -54.7254 454.516C-53.9433 456.479 -52.4578 458.15 -50.459 459.528L-50.0332 458.911ZM-47.5311 464.364C-47.3317 463.062 -47.4238 462.043 -47.8586 461.162C-48.2898 460.288 -49.0342 459.6 -50.033 458.911L-50.4591 459.528C-49.4985 460.191 -48.8783 460.79 -48.5311 461.494C-48.1873 462.19 -48.087 463.039 -48.2725 464.25L-47.5311 464.364ZM-34.644 483.991C-43.812 481.405 -48.9707 473.742 -47.5311 464.364L-48.2724 464.25C-49.772 474.019 -44.3639 482.029 -34.8476 484.713L-34.644 483.991ZM-33.5808 484.226C-33.9681 484.15 -34.3309 484.078 -34.6454 483.991L-34.8462 484.714C-34.4983 484.81 -34.1053 484.887 -33.7253 484.962L-33.5808 484.226ZM-30.8978 485.425C-31.125 484.995 -31.5946 484.754 -32.0472 484.597C-32.5147 484.434 -33.0706 484.326 -33.5808 484.226L-33.7253 484.962C-33.2008 485.065 -32.7011 485.163 -32.2937 485.305C-31.8713 485.452 -31.6464 485.613 -31.561 485.775L-30.8978 485.425ZM-20.6673 495.902C-25.7819 494.068 -28.4544 490.03 -30.8981 485.424L-31.5607 485.776C-29.1058 490.403 -26.32 494.672 -20.9204 496.608L-20.6673 495.902ZM-19.8399 498.147C-19.8889 497.728 -19.9438 497.253 -20.0367 496.867C-20.0831 496.673 -20.1436 496.481 -20.229 496.319C-20.311 496.164 -20.4451 495.983 -20.6659 495.903L-20.9217 496.608C-20.9571 496.595 -20.9382 496.583 -20.8919 496.67C-20.8491 496.751 -20.8061 496.874 -20.766 497.042C-20.6857 497.376 -20.6354 497.802 -20.5849 498.234L-19.8399 498.147ZM-19.75 498.84C-19.7825 498.638 -19.8101 498.402 -19.8399 498.147L-20.5849 498.234C-20.5556 498.485 -20.5261 498.738 -20.4905 498.959L-19.75 498.84ZM-6.31736 513.244C-10.2912 512.493 -13.3255 510.843 -15.5248 508.422C-17.7265 505.999 -19.1156 502.775 -19.7501 498.84L-20.4905 498.959C-19.8391 503 -18.4028 506.37 -16.08 508.927C-13.7547 511.486 -10.5652 513.205 -6.45661 513.981L-6.31736 513.244ZM-1.4345 518.554C-1.70944 517.05 -2.11163 515.861 -2.87645 514.975C-3.64929 514.08 -4.74976 513.542 -6.31707 513.244L-6.45689 513.981C-4.98888 514.26 -4.06872 514.742 -3.44418 515.466C-2.81161 516.198 -2.43966 517.226 -2.17227 518.689L-1.4345 518.554ZM17.2288 534.094C7.71618 533.923 0.246651 527.796 -1.43444 518.555L-2.17233 518.689C-0.424473 528.297 7.36133 534.667 17.2153 534.844L17.2288 534.094ZM23.6952 536.978C22.7613 535.929 21.8172 535.215 20.7585 534.761C19.7018 534.307 18.5545 534.121 17.2296 534.094L17.2145 534.844C18.4788 534.87 19.5227 535.046 20.4626 535.45C21.4004 535.853 22.2583 536.492 23.1351 537.476L23.6952 536.978ZM37.4671 536.729C35.4137 538.964 32.9349 540.107 30.5023 540.159C28.0727 540.211 25.6495 539.176 23.6954 536.978L23.1349 537.476C25.2221 539.824 27.8504 540.966 30.5183 540.909C33.1832 540.852 35.8479 539.6 38.0194 537.236L37.4671 536.729ZM42.6243 534.121C40.3223 534.121 38.8999 535.166 37.4668 536.729L38.0197 537.236C39.3858 535.745 40.6226 534.871 42.6243 534.871V534.121ZM53.8577 525.502C53.2226 528.275 51.893 530.426 49.9991 531.884C48.1042 533.342 45.6155 534.129 42.6254 534.121L42.6232 534.871C45.7475 534.879 48.4066 534.056 50.4566 532.478C52.5078 530.899 53.9206 528.586 54.5888 525.669L53.8577 525.502ZM58.2173 520.447C56.4478 521.55 54.4881 522.758 53.8577 525.502L54.5887 525.67C55.1417 523.262 56.8256 522.198 58.6141 521.083L58.2173 520.447ZM61.5818 517.336C60.9112 518.756 59.6371 519.561 58.2173 520.447L58.6141 521.083C60.001 520.218 61.4802 519.307 62.26 517.656L61.5818 517.336ZM67.5711 512.543C64.9393 513.456 62.8334 514.682 61.5817 517.336L62.26 517.656C63.3876 515.266 65.2705 514.135 67.8171 513.251L67.5711 512.543ZM75.8737 502.617C74.8377 507.426 72.1846 510.944 67.5713 512.543L67.8169 513.251C72.7207 511.552 75.526 507.792 76.6068 502.775L75.8737 502.617ZM89.0657 491.796C87.9191 491.817 86.5826 492.249 85.2276 492.923C83.8664 493.6 82.4576 494.536 81.1592 495.599C79.8609 496.662 78.6646 497.859 77.7324 499.062C76.8044 500.259 76.1181 501.489 75.8738 502.616L76.6067 502.775C76.8173 501.804 77.4289 500.678 78.3252 499.521C79.2173 498.37 80.372 497.213 81.6344 496.179C82.8967 495.145 84.2587 494.242 85.5616 493.594C86.8707 492.943 88.0917 492.564 89.0795 492.546L89.0657 491.796ZM106.525 473.24C107.168 483.682 99.6201 491.591 89.0653 491.796L89.0799 492.546C100.043 492.333 107.944 484.08 107.274 473.194L106.525 473.24ZM109.014 468.271C108.018 468.877 107.34 469.513 106.943 470.328C106.548 471.139 106.454 472.078 106.525 473.24L107.274 473.194C107.206 472.087 107.304 471.299 107.617 470.656C107.928 470.018 108.475 469.476 109.404 468.912L109.014 468.271ZM113.696 458.509C114.127 460.631 113.857 462.517 113.04 464.143C112.221 465.773 110.84 467.165 109.015 468.271L109.403 468.913C111.322 467.75 112.815 466.262 113.71 464.48C114.607 462.694 114.893 460.636 114.431 458.36L113.696 458.509ZM116.596 452.352C115.429 453.115 114.528 453.874 114.012 454.851C113.489 455.842 113.388 457.002 113.696 458.509L114.431 458.359C114.145 456.96 114.258 455.991 114.675 455.201C115.099 454.398 115.865 453.726 117.007 452.98L116.596 452.352ZM120.948 441.137C122.793 445.157 120.695 449.68 116.597 452.352L117.006 452.98C121.288 450.188 123.686 445.304 121.63 440.824L120.948 441.137ZM114.598 422.351C116.03 428.907 118.139 435.015 120.948 441.137L121.63 440.824C118.841 434.747 116.751 428.69 115.331 422.191L114.598 422.351ZM114.236 420.912C114.362 421.378 114.49 421.849 114.598 422.35L115.331 422.191C115.218 421.669 115.086 421.179 114.96 420.716L114.236 420.912ZM114.4 415.125C113.283 417.412 113.745 419.096 114.236 420.912L114.96 420.716C114.472 418.912 114.089 417.472 115.074 415.454L114.4 415.125ZM100.797 390.618C112.7 391.624 119.634 404.443 114.4 415.125L115.074 415.455C120.53 404.319 113.311 390.923 100.861 389.87L100.797 390.618ZM95.8952 390.573C97.548 390.526 99.1801 390.48 100.797 390.618L100.861 389.87C99.1942 389.729 97.5196 389.777 95.8741 389.823L95.8952 390.573ZM84.1695 388.324C87.9541 390.807 91.9795 390.684 95.8952 390.573L95.8741 389.823C91.9294 389.935 88.1412 390.033 84.581 387.696L84.1695 388.324ZM80.799 388.753C81.3654 388.539 82.0606 388.318 82.7055 388.213C83.3754 388.105 83.8874 388.141 84.1715 388.325L84.5791 387.695C84.0409 387.347 83.2758 387.361 82.5855 387.473C81.8702 387.589 81.1221 387.83 80.5338 388.052L80.799 388.753ZM74.7825 387.579C75.7453 388.343 76.6593 388.868 77.6399 389.081C78.6276 389.296 79.6447 389.188 80.7984 388.754L80.5344 388.052C79.4838 388.447 78.6158 388.526 77.7994 388.348C76.9759 388.169 76.1667 387.72 75.2487 386.992L74.7825 387.579ZM48.809 390.812C52.263 386.3 56.5216 383.731 61.0135 383.161C65.5051 382.592 70.281 384.013 74.7828 387.58L75.2485 386.992C70.618 383.324 65.6451 381.818 60.9191 382.417C56.1936 383.017 51.7661 385.715 48.2134 390.356L48.809 390.812ZM48.3034 391.582C48.4787 391.296 48.6391 391.034 48.8091 390.812L48.2134 390.357C48.0154 390.615 47.8344 390.912 47.6638 391.19L48.3034 391.582ZM45.7713 393.462C46.4407 393.528 46.9522 393.264 47.3524 392.88C47.7367 392.512 48.0385 392.015 48.3034 391.582L47.6638 391.19C47.3861 391.644 47.1343 392.051 46.8335 392.339C46.5486 392.612 46.2437 392.755 45.8453 392.716L45.7713 393.462ZM73.8214 414.431C73.5081 414.856 73.2094 415.267 72.9192 415.668L73.5264 416.108C73.8167 415.707 74.1136 415.298 74.4247 414.877L73.8214 414.431ZM73.7481 414.646V414.654H74.4981V414.646H73.7481ZM75.8363 417.027C75.7912 416.638 75.7407 416.181 75.535 415.716C75.3247 415.241 74.9648 414.782 74.3396 414.34L73.9065 414.953C74.436 415.327 74.7007 415.684 74.8492 416.02C75.0023 416.365 75.0448 416.712 75.0913 417.113L75.8363 417.027ZM75.8513 417.156C75.8463 417.113 75.8413 417.071 75.8363 417.027L75.0913 417.113C75.0963 417.157 75.1014 417.201 75.1067 417.245L75.8513 417.156ZM86.334 429.626C83.366 428.528 80.9425 427.006 79.1648 424.969C77.3897 422.935 76.2414 420.369 75.8513 417.155L75.1067 417.245C75.5133 420.595 76.7169 423.305 78.5997 425.462C80.4799 427.616 83.0206 429.2 86.0739 430.329L86.334 429.626ZM91.2217 441.379C92.1112 439.555 91.7775 436.945 90.8262 434.679C89.8742 432.411 88.2374 430.33 86.334 429.626L86.0738 430.329C87.6944 430.929 89.2176 432.785 90.1347 434.969C91.0526 437.156 91.2974 439.512 90.5475 441.05L91.2217 441.379ZM90.2833 447.564C89.5202 445.637 90.2058 443.469 91.2219 441.379L90.5473 441.051C89.5256 443.153 88.6944 445.589 89.586 447.84L90.2833 447.564ZM88.2562 456.419C89.5087 455.068 90.3863 453.764 90.7601 452.328C91.1362 450.883 90.9907 449.35 90.2833 447.564L89.586 447.84C90.2499 449.516 90.361 450.884 90.0343 452.139C89.7052 453.404 88.9204 454.6 87.7062 455.91L88.2562 456.419ZM83.137 458.796C84.2827 458.828 85.1783 458.668 85.9915 458.267C86.7976 457.869 87.4919 457.25 88.2571 456.418L87.7053 455.91C86.9613 456.719 86.3418 457.258 85.6598 457.594C84.9849 457.927 84.2182 458.076 83.1577 458.046L83.137 458.796ZM67.1584 475.566C66.5513 465.907 73.4892 458.528 83.1369 458.796L83.1577 458.046C73.0563 457.765 65.776 465.527 66.4099 475.613L67.1584 475.566ZM59.1183 485.49C59.9557 485.363 60.8827 484.851 61.7786 484.156C62.6831 483.453 63.5928 482.534 64.3982 481.539C65.2036 480.545 65.9127 479.465 66.4107 478.436C66.9038 477.417 67.2103 476.407 67.1584 475.566L66.4099 475.612C66.4499 476.262 66.2087 477.132 65.7356 478.109C65.2674 479.077 64.5919 480.108 63.8153 481.067C63.0388 482.026 62.1693 482.902 61.3186 483.563C60.4592 484.231 59.6549 484.65 59.0061 484.748L59.1183 485.49ZM48.2425 495.337C49.0196 492.07 50.0903 489.88 51.7591 488.373C53.4293 486.866 55.7478 486 59.1183 485.49L59.0061 484.748C55.574 485.267 53.0854 486.166 51.2566 487.817C49.4264 489.468 48.3061 491.829 47.5128 495.164L48.2425 495.337ZM43.5589 502.295C45.4914 500.36 47.5324 498.328 48.2425 495.337L47.5128 495.164C46.8592 497.917 44.9836 499.807 43.0282 501.765L43.5589 502.295ZM41.0935 504.959C41.8281 504.029 42.6827 503.173 43.5589 502.295L43.0282 501.765C42.1576 502.637 41.2712 503.524 40.5049 504.494L41.0935 504.959ZM34.7039 503.025C35.4539 504.964 36.6563 505.947 37.914 506.175C39.1565 506.401 40.37 505.872 41.0931 504.96L40.5053 504.494C39.9414 505.205 38.9985 505.61 38.0481 505.438C37.1129 505.268 36.086 504.52 35.4035 502.754L34.7039 503.025ZM17.3397 492.613C25.2195 491.858 31.8879 495.721 34.7038 503.024L35.4036 502.755C32.4587 495.116 25.4605 491.081 17.2682 491.866L17.3397 492.613ZM12.9795 489.841C13.3332 490.916 13.7764 491.701 14.4995 492.166C15.2204 492.629 16.1444 492.726 17.3393 492.613L17.2686 491.866C16.1271 491.974 15.4117 491.861 14.905 491.535C14.4004 491.211 14.0278 490.627 13.692 489.606L12.9795 489.841ZM2.14812 480.96C7.37624 481.871 11.276 484.674 12.9796 489.841L13.6919 489.606C11.8869 484.131 7.72765 481.171 2.27682 480.221L2.14812 480.96ZM-3.19792 477.097C-2.68388 478.344 -1.99121 479.21 -1.08516 479.816C-0.187195 480.416 0.892807 480.743 2.14852 480.96L2.27642 480.221C1.0654 480.011 0.103836 479.709 -0.668228 479.192C-1.43219 478.681 -2.03802 477.943 -2.50453 476.811L-3.19792 477.097ZM-5.73838 474.07C-4.67796 474.845 -3.66927 475.946 -3.19827 477.096L-2.50418 476.812C-3.04439 475.492 -4.16536 474.291 -5.29589 473.465L-5.73838 474.07ZM-7.89887 468.628C-7.94536 469.696 -7.91181 470.695 -7.60926 471.61C-7.3024 472.537 -6.72746 473.353 -5.73722 474.071L-5.29705 473.464C-6.16835 472.832 -6.64293 472.143 -6.89721 471.374C-7.1558 470.592 -7.19503 469.705 -7.14958 468.661L-7.89887 468.628ZM-23.2812 452.171C-18.4439 452.257 -14.4967 453.992 -11.813 456.876C-9.12887 459.761 -7.68062 463.827 -7.89884 468.627L-7.14962 468.661C-6.92352 463.688 -8.42462 459.417 -11.2639 456.366C-14.1035 453.313 -18.2536 451.51 -23.2679 451.421L-23.2812 452.171ZM-29.0677 447.456C-28.561 448.54 -28.0181 449.711 -27.1541 450.608C-26.2701 451.525 -25.0672 452.141 -23.2809 452.171L-23.2682 451.421C-24.8605 451.394 -25.872 450.857 -26.6141 450.087C-27.376 449.297 -27.8704 448.247 -28.3882 447.138L-29.0677 447.456ZM-30.6112 444.794C-29.9797 445.51 -29.5398 446.445 -29.0677 447.456L-28.3882 447.138C-28.8497 446.15 -29.3327 445.11 -30.0488 444.298L-30.6112 444.794ZM-27.5275 437.079C-29.5321 437.781 -30.652 439.31 -31.0998 440.845C-31.3232 441.61 -31.3819 442.383 -31.2986 443.066C-31.2161 443.744 -30.9897 444.364 -30.6114 444.794L-30.0486 444.298C-30.2947 444.019 -30.4829 443.56 -30.5541 442.976C-30.6245 442.397 -30.576 441.727 -30.3799 441.055C-29.9889 439.715 -29.0213 438.397 -27.2797 437.787L-27.5275 437.079ZM-26.7228 436.587C-26.7458 436.641 -26.8247 436.732 -26.9954 436.838C-27.1552 436.936 -27.3492 437.019 -27.5238 437.078L-27.2835 437.789C-27.075 437.718 -26.8247 437.614 -26.6015 437.476C-26.3892 437.345 -26.1464 437.15 -26.0314 436.877L-26.7228 436.587ZM-17.1596 425.918C-20.8736 428.849 -24.6822 431.847 -26.7215 436.584L-26.0327 436.88C-24.0799 432.344 -20.4312 429.455 -16.6949 426.506L-17.1596 425.918ZM-11.1274 420.586C-12.9092 422.561 -15.0188 424.228 -17.1596 425.918L-16.6949 426.506C-14.5629 424.823 -12.4019 423.119 -10.5705 421.088L-11.1274 420.586ZM-6.98946 419.418C-7.95728 418.937 -8.69518 418.818 -9.37816 419.093C-10.0141 419.348 -10.5348 419.929 -11.1272 420.585L-10.5707 421.088C-9.93745 420.387 -9.53886 419.966 -9.09844 419.789C-8.7051 419.63 -8.20964 419.649 -7.32357 420.09L-6.98946 419.418ZM8.76788 418.846C3.67165 421.919 -1.67715 422.062 -6.98946 419.418L-7.32357 420.09C-1.78839 422.844 3.83288 422.697 9.15514 419.488L8.76788 418.846ZM13.3528 419.81C12.6897 418.981 12.0668 418.388 11.3103 418.201C10.5375 418.01 9.73218 418.266 8.7683 418.846L9.15472 419.489C10.0677 418.94 10.6527 418.811 11.1306 418.929C11.6247 419.051 12.1125 419.46 12.7672 420.278L13.3528 419.81ZM23.4377 423.521C19.3315 424.497 15.9035 423.014 13.3534 419.81L12.7666 420.277C15.4716 423.676 19.1833 425.303 23.6111 424.251L23.4377 423.521ZM27.769 425.065C27.1649 424.445 26.5812 423.931 25.8906 423.641C25.1854 423.344 24.4068 423.293 23.4386 423.521L23.6103 424.251C24.4576 424.052 25.0694 424.109 25.5995 424.332C26.1442 424.561 26.6407 424.982 27.2316 425.589L27.769 425.065ZM41.4342 422.87C39.9368 425.984 37.706 427.741 35.2968 428.135C32.8879 428.529 30.2047 427.575 27.7694 425.066L27.2312 425.588C29.7907 428.225 32.7074 429.318 35.4178 428.875C38.1277 428.432 40.5355 426.469 42.1101 423.195L41.4342 422.87ZM50.38 420.729C48.4918 419.291 46.7817 418.662 45.2373 419.032C43.6926 419.403 42.4582 420.739 41.4341 422.87L42.1101 423.195C43.1008 421.133 44.199 420.052 45.4122 419.761C46.6256 419.47 48.0986 419.935 49.9257 421.326L50.38 420.729ZM70.9964 418.231C65.8614 424.613 56.9066 425.691 50.3798 420.729L49.9259 421.326C56.7746 426.533 66.1901 425.401 71.5808 418.701L70.9964 418.231ZM72.9192 415.668C72.2612 416.575 71.6483 417.42 70.9964 418.231L71.5809 418.701C72.2466 417.873 72.8703 417.012 73.5264 416.108L72.9192 415.668Z" fill="black"/>
<path d="M32.64 318.495C36.13 306.583 41.19 293.754 48.31 280.146C61.99 253.499 76.37 233.846 91.5 223.061C109.47 212.217 122.67 224.488 118.58 240.261C115.08 253.759 106.1 271.606 85.23 292.437C72.04 305.606 56.27 317.627 40.33 328.132C-1.53 355.727 -44.5 372.866 -44.5 372.866V355.677C-44.5 355.677 7.1 338.787 45.77 309.217C45.91 309.117 46.06 309.018 46.2 308.918C92.81 277.063 105.15 243.633 106.13 236.579C107.11 229.526 99.32 222.942 82.49 245.428C77.54 251.235 58.44 275.158 46.2 308.918" fill="url(#paint2_linear_391_2717)"/>
<path d="M32.64 318.495C36.13 306.583 41.19 293.754 48.31 280.146C61.99 253.499 76.37 233.846 91.5 223.061C109.47 212.217 122.67 224.488 118.58 240.261C115.08 253.759 106.1 271.606 85.23 292.437C72.04 305.606 56.27 317.627 40.33 328.132C-1.53 355.727 -44.5 372.866 -44.5 372.866V355.677C-44.5 355.677 7.1 338.787 45.77 309.217C45.91 309.117 46.06 309.018 46.2 308.918M46.2 308.918C92.81 277.063 105.15 243.633 106.13 236.579C107.11 229.526 99.32 222.942 82.49 245.428C77.54 251.235 58.44 275.158 46.2 308.918Z" stroke="black" stroke-width="0.75" stroke-miterlimit="10"/>
<path d="M40.34 328.122C37.2 340.703 35.43 353.712 35.65 367.808C36.66 435.488 120.7 475.393 120.7 475.393C120.7 475.393 224.75 522.362 334.73 481.958C444.71 441.554 541.92 316.799 541.92 316.799C541.92 316.799 580.59 268.783 601.57 231.112C622.55 193.442 701.57 12.7297 701.57 12.7297L713.95 21.5189C713.95 21.5189 672.72 124.824 609.94 243.373C571.15 316.63 502.18 384.648 455.13 425.931C401.91 472.63 335.36 501.901 264.78 508.385C238.2 510.829 209.52 510.271 180.29 504.445C63.36 481.16 35.92 412.951 35.92 412.951C35.92 412.951 19.58 383.621 28.53 335.615" fill="url(#paint3_linear_391_2717)"/>
<path d="M40.34 328.122C37.2 340.703 35.43 353.712 35.65 367.808C36.66 435.488 120.7 475.393 120.7 475.393C120.7 475.393 224.75 522.362 334.73 481.958C444.71 441.554 541.92 316.799 541.92 316.799C541.92 316.799 580.59 268.783 601.57 231.112C622.55 193.442 701.57 12.7297 701.57 12.7297L713.95 21.5189C713.95 21.5189 672.72 124.824 609.94 243.373C571.15 316.63 502.18 384.648 455.13 425.931C401.91 472.63 335.36 501.901 264.78 508.385C238.2 510.829 209.52 510.271 180.29 504.445C63.36 481.16 35.92 412.951 35.92 412.951C35.92 412.951 19.58 383.621 28.53 335.615" stroke="black" stroke-width="0.75" stroke-miterlimit="10"/>
</g>
<defs>
<linearGradient id="paint0_linear_391_2717" x1="195" y1="0" x2="195" y2="844" gradientUnits="userSpaceOnUse">
<stop stop-color="#CFEFFF"/>
<stop offset="1" stop-color="#73CCFF"/>
</linearGradient>
<linearGradient id="paint1_linear_391_2717" x1="195" y1="0" x2="195" y2="844" gradientUnits="userSpaceOnUse">
<stop stop-color="#CFEFFF"/>
<stop offset="1" stop-color="#73CCFF"/>
</linearGradient>
<linearGradient id="paint2_linear_391_2717" x1="37.4139" y1="218.945" x2="37.4139" y2="372.866" gradientUnits="userSpaceOnUse">
<stop stop-color="#C3FFC9"/>
<stop offset="1" stop-color="#4DDF22"/>
</linearGradient>
<linearGradient id="paint3_linear_391_2717" x1="89" y1="359.648" x2="369.603" y2="510.305" gradientUnits="userSpaceOnUse">
<stop stop-color="#BAFDBC"/>
<stop offset="1" stop-color="#4DDF22"/>
</linearGradient>
</defs>
</svg>
