<svg width="390" height="289" viewBox="0 0 390 289" fill="none" xmlns="http://www.w3.org/2000/svg">
<mask id="mask0_1875_4591" style="mask-type:alpha" maskUnits="userSpaceOnUse" x="0" y="0" width="390" height="289">
<path d="M0 0H390V269C390 280.046 381.046 289 370 289H20C8.9543 289 0 280.046 0 269V0Z" fill="url(#paint0_linear_1875_4591)"/>
</mask>
<g mask="url(#mask0_1875_4591)">
<path d="M0 0H390V269C390 280.046 381.046 289 370 289H20C8.9543 289 0 280.046 0 269V0Z" fill="url(#paint1_linear_1875_4591)"/>
<path d="M11.0578 326.937C-10.6774 325.409 -21.415 321.562 -19.544 313.985C-19.1871 312.57 -23.7536 312.144 -26.517 311.448C-51.945 305.043 -55.9648 294.781 -36.1687 285.195C-32.0853 283.22 -30.8638 281.627 -33.1986 279.48C-34.4274 278.355 -35.8125 276.657 -34.3589 275.802C-25.0164 270.375 -29.7121 264.804 -28.5237 259.227C-25.9277 247.002 10.1323 239.088 40.3713 243.72C47.8705 244.864 52.7432 243.745 59.65 243.042C77.6507 241.196 94.4085 238.707 111.2 235.518C122.899 233.295 135.937 235.236 143.567 239.243C147.784 241.452 151.541 242.386 159.556 241.605C171.686 240.429 181.368 242.204 187.712 245.796C190.981 247.642 194.27 248.089 200.534 247.803C229.976 246.459 252.454 253.649 253.251 264.379C253.555 268.637 270.97 275.876 282.583 276.513C296.175 277.253 306.282 279.743 310.935 284.388C313.47 286.915 316.765 288.831 323.755 289.856C333.406 291.273 333.508 296.26 346.256 297.019C361.999 297.953 371.027 301.919 371.103 308.026C371.147 310.175 373.826 311.44 378.072 312.739C390.861 316.661 391.515 322.702 379.039 327.031C373.46 328.971 371.641 330.805 371.549 333.394C371.264 343.074 354.161 351.095 328.164 353.416C319.979 354.149 315.95 355.248 314.421 358.317C310.368 366.486 296.067 371.182 274.062 372.981C271.51 373.189 267.244 373.333 266.772 373.825C261.673 379.196 250.255 382.19 237.554 384.934C235.321 385.414 235.094 387.281 234.179 388.526C227.09 398.025 205.552 403.807 179.08 402.958C172.13 402.737 168.771 403.584 165.075 405.628C157.707 409.707 147.33 411.75 134.09 410.53C128.436 410.007 124.297 410.401 119.747 411.993C109.906 415.431 98.7442 415.622 88.036 413.216C82.7545 412.029 78.0273 411.999 71.9393 412.649C53.4106 414.62 40.8852 412.982 30.0848 407.24C26.8667 405.532 23.7899 404.844 17.5202 404.86C-11.6096 404.947 -29.6582 397.364 -25.1439 386.964C-23.9236 384.13 -26.3555 383.139 -33.0562 382.124C-56.8102 378.573 -67.6271 372.027 -65.0461 362.607C-62.6907 353.953 -48.4331 348.306 -26.1866 345.347C-19.0917 344.404 -16.5556 343.418 -16.9285 340.508C-17.7333 334.165 -6.7712 330.107 11.0578 326.937Z" fill="#F7F7FC" stroke="black" stroke-width="0.4" stroke-miterlimit="10"/>
<path d="M198.477 349.792C181.161 350.655 172.223 348.089 172.76 340.554C172.866 339.146 169.214 339.226 166.951 338.85C146.121 335.391 141.683 325.893 156.095 314.482C159.068 312.132 159.833 310.459 157.727 308.632C156.62 307.676 155.318 306.182 156.358 305.197C163.047 298.939 158.658 294.054 158.903 288.528C159.435 276.417 186.87 264.874 211.271 266.1C217.322 266.399 221.023 264.792 226.378 263.367C240.334 259.642 253.23 255.427 266.067 250.532C275.01 247.121 285.524 247.595 292.032 250.651C295.629 252.334 298.705 252.834 304.923 251.214C314.336 248.77 322.186 249.445 327.629 252.238C330.433 253.672 333.08 253.751 337.981 252.799C361.014 248.327 379.616 252.864 381.574 263.163C382.34 267.25 396.959 272.38 406.188 271.746C416.99 270.998 425.263 272.319 429.504 276.313C431.815 278.486 434.648 279.985 440.283 280.224C448.064 280.556 448.761 285.371 458.901 284.733C471.421 283.941 479.026 286.807 479.842 292.708C480.143 294.783 482.41 295.719 485.918 296.519C496.481 298.937 497.744 304.712 488.449 310.246C484.293 312.724 483.087 314.695 483.335 317.21C484.309 326.61 471.826 336.214 451.628 341.261C445.269 342.852 442.231 344.35 441.406 347.484C439.223 355.827 428.536 361.911 411.419 366.023C409.434 366.5 406.091 367.098 405.78 367.625C402.427 373.372 393.8 377.499 384.132 381.523C382.432 382.229 382.484 384.06 381.917 385.363C377.507 395.32 361.252 403.236 340.288 405.266C334.784 405.799 332.242 406.982 329.583 409.358C324.282 414.099 316.358 417.194 305.774 417.44C301.255 417.542 298.041 418.37 294.653 420.4C287.324 424.787 278.553 426.175 269.817 424.999C265.509 424.419 261.78 424.9 257.063 426.184C242.707 430.088 232.635 429.852 223.413 425.458C220.666 424.152 218.156 423.818 213.218 424.508C190.275 427.73 175.114 422.336 177.384 411.785C177.994 408.911 175.955 408.213 170.55 407.953C151.392 407.075 142.058 401.905 142.926 392.511C143.71 383.882 154.245 376.881 171.409 371.622C176.883 369.944 178.759 368.717 178.105 365.941C176.685 359.889 184.821 354.781 198.477 349.792Z" fill="#F7F7FC" stroke="black" stroke-width="0.4" stroke-miterlimit="10"/>
<g clip-path="url(#clip0_1875_4591)">
<path d="M229.363 198.248C229.414 199.101 229.445 199.955 229.45 200.814C229.536 214.662 223.534 227.078 213.969 235.506C218.908 243.521 224.896 247.72 228.381 249.644C230.049 250.563 230.825 252.576 230.209 254.387C226.119 266.525 218.672 281.839 213.875 287.339C208.616 293.373 203.484 298.059 197.725 298.7C195.786 298.913 193.736 298.879 191.715 298.396C186.002 297.024 184.299 291.454 183.788 288.308C183.587 287.044 183.566 285.754 183.713 284.478C185.802 266.652 204.546 251.314 206.065 250.09C206.129 250.045 206.142 249.967 206.103 249.902C204.898 247.582 203.829 245.152 202.883 242.702C197.156 245.323 190.781 246.777 184.062 246.773C181.423 246.771 178.835 246.541 176.316 246.109C173.383 245.606 170.539 244.816 167.823 243.772C150.566 237.174 138.232 220.401 138.111 200.75C137.954 175.348 158.27 154.767 183.493 154.785C202.488 154.799 218.845 166.488 225.836 183.109C228.047 180.935 229.768 178.989 230.503 177.608C230.523 177.576 230.529 177.55 230.522 177.517C230.401 176.664 228.808 164.945 233.768 160.696C238.387 156.732 240.92 165.638 241.384 167.481C241.417 167.612 241.579 167.644 241.662 167.54C242.714 166.186 247.683 160.204 251.694 162.395C255.652 164.554 251.605 171.071 250.554 172.633C250.477 172.757 250.582 172.913 250.724 172.881C252.177 172.563 257.126 171.785 258.087 175.498C259.094 179.355 252.127 182.32 250.514 182.95C250.385 182.996 250.38 183.172 250.497 183.237C251.937 184.02 257.754 187.489 256.214 191.656C254.541 196.182 243.234 190.67 242.171 190.135C242.119 190.109 242.067 190.116 242.015 190.148C241.32 190.623 235.832 194.325 229.363 198.248Z" fill="#35B6FF"/>
<path d="M176.317 246.109L173.2 288.059C172.603 296.064 163.296 300.102 157.12 294.972C157.022 294.893 156.925 294.809 156.821 294.724C146.893 286.25 133.352 269.911 130.905 262.094C129.413 257.338 128.592 253.136 131.867 247.27C133.748 243.904 141.893 238.145 149.534 244.892C156.057 250.648 161.652 260.168 163.156 262.846C163.3 263.1 163.668 263.042 163.724 262.762L167.824 243.772C170.54 244.816 173.384 245.606 176.317 246.109Z" fill="#35B6FF"/>
<path d="M229.363 198.248C229.413 199.101 229.444 199.954 229.45 200.814C229.535 214.661 223.533 227.078 213.968 235.506" stroke="black" stroke-width="0.488777" stroke-miterlimit="10"/>
<path d="M202.883 242.702C197.156 245.323 190.781 246.777 184.062 246.773C181.423 246.771 178.835 246.541 176.316 246.109C173.383 245.606 170.539 244.816 167.823 243.772C150.566 237.174 138.232 220.401 138.111 200.75C137.954 175.348 158.27 154.767 183.493 154.785C202.488 154.799 218.845 166.488 225.836 183.109" stroke="black" stroke-width="0.488777" stroke-miterlimit="10"/>
<path d="M198.141 226.624C199.179 231.334 200.708 237.073 202.884 242.702C203.83 245.152 204.899 247.582 206.104 249.902C206.143 249.967 206.13 250.045 206.066 250.091C204.547 251.314 185.802 266.653 183.714 284.478C183.566 285.754 183.587 287.044 183.789 288.308C184.3 291.454 186.003 297.024 191.716 298.396C193.737 298.879 195.787 298.913 197.726 298.7C203.485 298.059 208.617 293.373 213.876 287.339C218.673 281.839 226.12 266.525 230.21 254.387C230.826 252.577 230.05 250.563 228.382 249.644C224.897 247.72 218.908 243.521 213.969 235.506C213.858 235.331 213.754 235.148 213.643 234.966C211.218 230.906 209.469 227.316 208.209 224.313" stroke="black" stroke-width="0.488777" stroke-miterlimit="10"/>
<path d="M167.861 243.583L167.824 243.772L163.724 262.762C163.668 263.042 163.3 263.1 163.156 262.846C161.652 260.168 156.057 250.648 149.534 244.892C141.893 238.145 133.748 243.904 131.867 247.27C128.592 253.136 129.413 257.338 130.905 262.094C133.352 269.911 146.893 286.25 156.821 294.724C156.925 294.809 157.022 294.893 157.12 294.972C163.296 300.102 172.603 296.064 173.2 288.059L176.317 246.109L176.329 245.927" stroke="black" stroke-width="0.488777" stroke-miterlimit="10"/>
<path d="M213.648 193.815C217.605 190.574 222.334 186.552 225.837 183.109C228.049 180.935 229.77 178.989 230.505 177.609C230.524 177.576 230.531 177.55 230.524 177.517C230.402 176.664 228.81 164.946 233.77 160.696C238.389 156.733 240.921 165.638 241.385 167.482C241.418 167.612 241.58 167.645 241.664 167.54C242.716 166.186 247.685 160.204 251.695 162.396C255.654 164.554 251.607 171.071 250.556 172.634C250.479 172.757 250.583 172.914 250.725 172.881C252.178 172.563 257.128 171.785 258.088 175.498C259.095 179.355 252.129 182.32 250.516 182.951C250.387 182.996 250.381 183.172 250.498 183.237C251.939 184.02 257.755 187.489 256.216 191.656C254.543 196.182 243.236 190.67 242.172 190.135C242.12 190.109 242.069 190.116 242.017 190.148C241.321 190.623 235.834 194.325 229.365 198.248C226.24 200.148 222.889 202.1 219.737 203.758" stroke="black" stroke-width="0.488777" stroke-miterlimit="10"/>
<path d="M162.808 157.382C162.808 157.382 163.879 147.45 171.553 141.737C178.789 136.349 182.094 131.186 188.392 128.885C194.69 126.577 201.48 124.361 208.707 125.884C213.48 126.89 224.314 129.145 230.245 136.516C234.422 141.716 236.536 148.811 237.768 152.479C241.846 164.629 242.491 171.644 243.328 174.191C245.985 182.302 249.882 196.569 248.621 200.717C247.36 204.859 247.336 207.386 243.839 205.553C240.342 203.72 238.149 204.702 238.681 199.779C239.214 194.855 230.122 184.701 230.122 184.701L190.063 164.892L162.815 157.382L162.808 157.382Z" fill="#FF6169" stroke="black" stroke-width="0.651702" stroke-miterlimit="10"/>
<path d="M257.884 207.667C258.541 205.075 257.191 202.273 254.763 200.741C254.789 200.669 254.814 200.598 254.833 200.519C255.628 197.381 253.486 193.927 250.045 192.804C248.075 192.158 246.104 192.43 244.628 193.361C244.213 193.126 243.772 192.93 243.305 192.78C239.864 191.657 236.427 193.29 235.632 196.428C235.613 196.513 235.6 196.598 235.582 196.689C234.241 197.359 233.219 198.531 232.828 200.061C232.032 203.2 234.175 206.653 237.616 207.776C238.102 207.933 238.588 208.031 239.073 208.083C239.489 210.448 241.346 212.618 243.938 213.467C246.699 214.367 249.448 213.49 250.839 211.498C254.058 212.236 257.133 210.617 257.885 207.673L257.884 207.667Z" fill="white" stroke="black" stroke-width="0.488777" stroke-miterlimit="10"/>
<path d="M233.442 158.051C233.442 158.051 237.741 177.652 232.271 181.042" stroke="black" stroke-width="0.488777" stroke-miterlimit="10" stroke-linecap="round"/>
<path d="M235.776 155.981C235.776 155.981 236.472 159.668 234.703 163.412" stroke="black" stroke-width="0.488777" stroke-miterlimit="10" stroke-linecap="round"/>
<path d="M236.833 179.41C235.777 174.915 233.583 171.572 224.09 168.641C222.257 168.073 219.914 167.785 218.192 167.517C215.921 165.379 214.048 163.71 210.629 161.923C206.866 159.96 201.369 157.989 197.312 157.602C197.092 157.582 196.865 157.562 196.645 157.536C193.779 155.255 190.66 152.908 186.157 151.517C181.971 150.225 178.703 150.02 175.387 150.226C174.446 149.757 170.993 147.664 168.233 146.919C161.334 145.071 156.25 147.184 155.086 152.401C153.62 158.991 160.315 163.412 167.171 165.52C168.92 166.062 170.636 166.33 172.246 166.364C175.136 169.232 179.776 171.912 185.245 173.603C187.565 174.321 189.825 174.792 191.948 175.034C194.85 177.83 199.406 180.432 204.758 182.084C207.266 182.861 209.707 183.351 211.979 183.574C213.545 184.832 215.383 186.039 217.446 187.134C226.511 191.934 233.195 191.425 236.463 187.578C237.921 185.859 238.239 181.912 236.846 179.41L236.833 179.41Z" fill="white" stroke="black" stroke-width="0.488777" stroke-miterlimit="10"/>
<path d="M162.018 193.948C166.441 194.928 170.796 195.295 175.04 193.455C178.44 191.979 181.754 189.409 183.09 185.827C183.192 185.56 182.765 185.449 182.669 185.71C181.359 189.2 178.05 191.699 174.734 193.11C170.625 194.852 166.4 194.465 162.132 193.524C161.86 193.465 161.739 193.889 162.018 193.948Z" fill="black"/>
<path d="M179.524 184.457C180.762 185.839 182.762 186.205 184.4 185.385C184.651 185.262 184.429 184.877 184.178 185.007C182.708 185.742 180.933 185.376 179.833 184.151C179.644 183.936 179.335 184.248 179.524 184.464L179.524 184.457Z" fill="black"/>
<path d="M165.797 175.563C164.592 175.21 163.219 175.984 162.09 177.456L163.375 179.287L160.842 179.624C160.632 180.119 160.441 180.646 160.289 181.2C159.252 184.898 160.043 188.364 162.051 188.945C164.06 189.526 166.521 187.001 167.559 183.308C168.597 179.61 167.806 176.144 165.797 175.563Z" fill="black" stroke="black" stroke-width="0.195511" stroke-miterlimit="10" stroke-linecap="round"/>
<path d="M177.425 173.35C176.22 172.997 174.847 173.772 173.718 175.243L175.003 177.074L172.47 177.411C172.26 177.906 172.069 178.433 171.917 178.987C170.88 182.685 171.671 186.151 173.679 186.732C175.688 187.313 178.149 184.788 179.187 181.096C180.225 177.397 179.433 173.931 177.425 173.35Z" fill="black" stroke="black" stroke-width="0.195511" stroke-miterlimit="10" stroke-linecap="round"/>
<path d="M212.673 143.296L204.897 178.378L259.992 178.325L268.772 143.336L212.673 143.296Z" fill="#E0E0E0" stroke="black" stroke-width="0.488777" stroke-miterlimit="10"/>
<path d="M212.675 143.296L236.325 160.853L268.773 143.336" stroke="black" stroke-width="0.488777" stroke-miterlimit="10"/>
<path d="M204.898 178.378L236.324 160.854L259.993 178.326" stroke="black" stroke-width="0.488777" stroke-linecap="round" stroke-linejoin="round"/>
<path d="M236.43 153.794C235.474 152.953 234.543 152.028 233.267 151.701C231.227 151.178 229.288 151.379 227.517 152.622C225.843 153.793 225.621 155.558 225.754 157.258C226.021 160.684 228.094 163.271 230.546 165.572C232.029 166.967 233.622 168.238 235.323 169.392C236.161 169.96 236.769 169.986 237.632 169.394C240.769 167.253 243.645 164.82 245.656 161.662C247.052 159.468 247.638 156.915 246.613 154.329C245.976 152.72 243.925 151.604 242.275 151.466C239.926 151.269 238.029 152.05 236.54 153.788" fill="#F42762"/>
<path d="M236.43 153.794C235.474 152.953 234.543 152.028 233.267 151.701C231.227 151.178 229.288 151.379 227.517 152.622C225.843 153.793 225.621 155.558 225.754 157.258C226.021 160.684 228.094 163.271 230.546 165.572C232.029 166.967 233.622 168.238 235.323 169.392C236.161 169.96 236.769 169.986 237.632 169.394C240.769 167.253 243.645 164.82 245.656 161.662C247.052 159.468 247.638 156.915 246.613 154.329C245.976 152.72 243.925 151.604 242.275 151.466C239.926 151.269 238.029 152.05 236.54 153.788" stroke="black" stroke-width="0.488777" stroke-linecap="round" stroke-linejoin="round"/>
<path d="M213.648 193.815C220.095 188.537 228.593 181.183 230.505 177.615C230.524 177.582 230.531 177.556 230.524 177.517C230.402 176.67 228.81 164.952 233.77 160.702C238.396 156.739 240.921 165.644 241.385 167.488C241.418 167.618 241.587 167.651 241.664 167.547C242.716 166.193 247.685 160.211 251.695 162.402C255.654 164.567 251.607 171.077 250.556 172.646C250.472 172.764 250.583 172.92 250.725 172.888C252.179 172.576 257.128 171.791 258.088 175.505C259.089 179.361 252.129 182.326 250.516 182.957C250.387 183.009 250.381 183.178 250.498 183.244C251.932 184.026 257.749 187.495 256.209 191.663C254.543 196.188 243.23 190.67 242.166 190.142C242.114 190.116 242.056 190.122 242.011 190.155C240.974 190.857 229.381 198.678 219.724 203.765" fill="#35B6FF"/>
<path d="M213.648 193.815C220.095 188.537 228.593 181.183 230.505 177.615C230.524 177.582 230.531 177.556 230.524 177.517C230.402 176.67 228.81 164.952 233.77 160.702C238.396 156.739 240.921 165.644 241.385 167.488C241.418 167.618 241.587 167.651 241.664 167.547C242.716 166.193 247.685 160.211 251.695 162.402C255.654 164.567 251.607 171.077 250.556 172.646C250.472 172.764 250.583 172.92 250.725 172.888C252.179 172.576 257.128 171.791 258.088 175.505C259.089 179.361 252.129 182.326 250.516 182.957C250.387 183.009 250.381 183.178 250.498 183.244C251.932 184.026 257.749 187.495 256.209 191.663C254.543 196.188 243.23 190.67 242.166 190.142C242.114 190.116 242.056 190.122 242.011 190.155C240.974 190.857 229.381 198.678 219.724 203.765" stroke="black" stroke-width="0.488777" stroke-miterlimit="10"/>
<path d="M262.549 233.012C264.193 233.012 265.526 231.679 265.526 230.035C265.526 228.39 264.193 227.057 262.549 227.057C260.904 227.057 259.571 228.39 259.571 230.035C259.571 231.679 260.904 233.012 262.549 233.012Z" fill="white" stroke="black" stroke-width="0.291989" stroke-miterlimit="10"/>
</g>
<path d="M47.4931 212.512C45.2203 219.855 43.7244 227.51 43.3401 235.893C41.4686 276.138 88.6346 303.321 88.6346 303.321C88.6346 303.321 147.119 335.529 212.205 316.081C277.29 296.633 338.049 226.55 338.049 226.55C338.049 226.55 362.161 199.628 375.664 178.119C389.167 156.61 441.434 52.5342 441.434 52.5342L448.276 58.2677C448.276 58.2677 420.678 117.927 380.061 185.749C354.964 227.659 312.599 265.209 283.885 287.783C251.404 313.321 211.846 327.953 170.782 328.884C155.318 329.235 138.748 327.716 122.051 323.045C55.2564 304.373 41.8583 262.72 41.8583 262.72C41.8583 262.72 33.4705 244.62 40.3896 216.474" fill="url(#paint2_linear_1875_4591)"/>
<path d="M47.4931 212.512C45.2203 219.855 43.7244 227.51 43.3401 235.893C41.4686 276.138 88.6346 303.321 88.6346 303.321C88.6346 303.321 147.119 335.529 212.205 316.081C277.29 296.633 338.049 226.55 338.049 226.55C338.049 226.55 362.161 199.628 375.664 178.119C389.167 156.61 441.434 52.5342 441.434 52.5342L448.276 58.2677C448.276 58.2677 420.678 117.927 380.061 185.749C354.964 227.659 312.599 265.209 283.885 287.783C251.404 313.321 211.846 327.953 170.782 328.884C155.318 329.235 138.748 327.716 122.051 323.045C55.2564 304.373 41.8583 262.72 41.8583 262.72C41.8583 262.72 33.4705 244.62 40.3896 216.474" stroke="black" stroke-width="0.4" stroke-miterlimit="10"/>
<path d="M42.9023 206.907C45.9228 199.775 49.8494 192.112 54.9214 184.01C64.7177 168.141 74.1632 156.499 83.0927 150.214C93.4981 143.935 99.0783 151.523 95.3537 160.974C92.1663 169.062 85.6994 179.694 72.7751 191.953C64.6065 199.703 55.2197 206.724 45.8995 212.828C21.4229 228.863 -2.56218 238.577 -2.56218 238.577L-0.809759 228.214C-0.809759 228.214 27.6161 218.773 50.6431 201.502C50.7258 201.444 50.8136 201.386 50.8962 201.327C78.2652 182.793 88.0597 162.814 89.2859 158.575C90.5121 154.337 87.1519 150.255 76.1496 163.57C72.996 167 60.6724 181.149 50.8962 201.327" fill="url(#paint3_linear_1875_4591)"/>
<path d="M42.9023 206.907C45.9228 199.775 49.8494 192.112 54.9214 184.01C64.7177 168.141 74.1632 156.499 83.0927 150.214C93.4981 143.935 99.0783 151.523 95.3537 160.974C92.1663 169.062 85.6994 179.694 72.7751 191.953C64.6065 199.703 55.2197 206.724 45.8995 212.828C21.4229 228.863 -2.56218 238.577 -2.56218 238.577L-0.809759 228.214C-0.809759 228.214 27.6161 218.773 50.6431 201.502C50.7258 201.444 50.8136 201.386 50.8962 201.327M50.8962 201.327C78.2653 182.793 88.0596 162.814 89.2859 158.575C90.5121 154.337 87.1519 150.255 76.1496 163.57C72.996 167 60.6724 181.149 50.8962 201.327Z" stroke="black" stroke-width="0.433006" stroke-miterlimit="10"/>
</g>
<path d="M112.099 200.197C113.81 200.197 115.197 198.81 115.197 197.099C115.197 195.387 113.81 194 112.099 194C110.387 194 109 195.387 109 197.099C109 198.81 110.387 200.197 112.099 200.197Z" fill="white" stroke="black" stroke-width="0.303865" stroke-miterlimit="10"/>
<path d="M97.5998 157.549C97.3469 156.482 97.3841 155.391 97.7932 154.393C98.7899 151.959 101.624 150.845 104.591 151.49C103.929 150.876 103.372 150.162 102.963 149.363C101.296 146.13 102.672 142.782 106.034 141.884C107.715 141.431 109.567 141.684 111.219 142.444L111.278 142.306C108.645 140.44 107.373 137.353 108.407 134.834C109.441 132.323 112.431 131.21 115.503 132.001L115.562 131.863C112.015 130.212 110.103 126.51 111.308 123.585C112.282 121.212 114.997 120.091 117.876 120.628C114.067 118.132 112.044 113.924 112.981 110.292C111.122 113.494 106.845 114.777 102.539 113.502C104.874 115.391 105.938 118.271 104.971 120.643C103.773 123.569 99.9204 124.598 96.3726 122.947L96.3131 123.085C98.9461 124.951 100.218 128.038 99.1841 130.557C98.1502 133.068 95.1602 134.182 92.0883 133.391L92.0288 133.529C93.6726 134.297 95.1081 135.572 95.9412 137.192C97.6073 140.425 96.2312 143.773 92.8693 144.671C92.0362 144.894 91.166 144.948 90.2958 144.848C92.7577 146.729 93.9106 149.701 92.9139 152.128C92.4974 153.141 91.761 153.917 90.8313 154.447C87.5289 153.095 88.533 150.461 86.6661 155.015C84.5686 160.137 90.3553 157.787 93.204 159.146C96.6626 160.805 98.1428 166.495 100.248 161.373C102.144 156.751 100.582 159.623 97.6147 157.549H97.5998Z" fill="#8FEFA6" stroke="black" stroke-width="0.4" stroke-linecap="round" stroke-linejoin="round"/>
<path d="M109.56 118.608L97.1094 148.972" stroke="black" stroke-width="0.4" stroke-linecap="round" stroke-linejoin="round"/>
<path d="M83.7799 162.571C83.3336 161.573 82.6419 160.751 81.7196 160.237C79.4659 158.985 76.58 159.945 74.661 162.364C74.8023 161.458 74.8023 160.536 74.6387 159.653C73.9767 156.06 70.8751 154.332 67.7065 155.798C66.1222 156.536 64.828 157.926 64.0099 159.584L63.8834 159.515C64.8057 156.359 63.9206 153.126 61.5925 151.836C59.2645 150.546 56.2596 151.613 54.3406 154.209L54.2141 154.14C55.9844 150.561 55.2182 146.438 52.5183 144.933C50.3241 143.712 47.5274 144.587 45.601 146.875C47.0514 142.468 46.0845 137.875 43.1465 135.656C46.5382 136.954 50.6514 135.188 53.2398 131.41C52.5629 134.389 53.4778 137.33 55.672 138.551C58.3794 140.056 62.0091 138.375 63.7719 134.788L63.8983 134.858C62.976 138.014 63.8611 141.247 66.1892 142.537C68.5173 143.827 71.5222 142.759 73.4412 140.164L73.5676 140.233C72.7494 141.892 72.4073 143.819 72.742 145.616C73.404 149.21 76.5056 150.938 79.6742 149.471C80.4551 149.11 81.1692 148.58 81.7865 147.943C81.013 150.999 81.9055 154.063 84.1592 155.315C85.0964 155.837 86.1452 155.967 87.1939 155.775C88.9493 152.589 86.5691 151.183 90.7864 153.525C95.5318 156.159 89.5889 158.071 88.1906 160.974C86.4947 164.507 88.7931 169.897 84.0551 167.263C79.7708 164.883 82.7386 166.119 83.7873 162.587L83.7799 162.571Z" fill="#8FEFA6" stroke="black" stroke-width="0.4" stroke-linecap="round" stroke-linejoin="round"/>
<path d="M50.8379 139.933L78.9681 155.56" stroke="black" stroke-width="0.4" stroke-linecap="round" stroke-linejoin="round"/>
<path d="M92.1856 165.005C93.7699 169.643 91.4046 174.735 86.9121 176.363C82.4196 177.998 77.4882 175.556 75.9114 170.918C74.3271 166.28 76.6924 161.189 81.1849 159.561C85.6774 157.925 90.6087 160.367 92.1856 165.005Z" fill="#F96E6E" stroke="black" stroke-width="0.4" stroke-miterlimit="10"/>
<path d="M108.467 159.092C110.051 163.73 107.686 168.821 103.193 170.449C98.7008 172.085 93.7695 169.643 92.1927 165.005C90.6084 160.367 92.9736 155.276 97.4661 153.648C101.959 152.012 106.89 154.454 108.467 159.092Z" fill="#F96E6E" stroke="black" stroke-width="0.4" stroke-miterlimit="10"/>
<path d="M97.459 153.641C99.0433 158.279 96.678 163.37 92.1855 164.998C87.693 166.634 82.7617 164.192 81.1848 159.554C79.6006 154.916 81.9658 149.824 86.4583 148.196C90.9508 146.561 95.8822 149.003 97.459 153.641Z" fill="#F96E6E" stroke="black" stroke-width="0.4" stroke-miterlimit="10"/>
<path d="M94.8996 154.254C96.0004 157.487 94.3566 161.035 91.2178 162.179" stroke="black" stroke-width="0.4" stroke-miterlimit="10" stroke-linecap="round"/>
<path d="M105.848 161.112C106.466 162.924 105.603 165.543 103.416 166.664" stroke="black" stroke-width="0.4" stroke-miterlimit="10" stroke-linecap="round"/>
<g clip-path="url(#clip1_1875_4591)">
<path d="M289.681 230.044L293.613 247.262C295.228 246.826 296.71 245.843 297.749 244.369L300.424 240.563L295.979 221.084L289.681 230.044Z" fill="#FDFFFF"/>
<path d="M326.047 169.023L332.072 195.412C337.247 186.683 334.719 175.125 326.047 169.023Z" fill="#FDFFFF"/>
<path d="M304.728 190.019L305.43 189.022L301.133 170.203C300.065 171.158 299.089 172.239 298.233 173.454L294.687 178.503L298.029 193.137C300.571 193.354 303.162 192.252 304.735 190.012L304.728 190.019Z" fill="#FDFFFF"/>
<path d="M316.799 165.421C314.032 165.07 311.238 165.302 308.604 166.067L311.926 180.631C313.562 179.781 315.739 179.907 317.494 181.143C319.91 182.836 320.64 185.974 319.123 188.137L314.987 194.028L319.432 213.507L325.731 204.547L316.799 165.421Z" fill="#FDFFFF"/>
<path d="M302.334 212.04L306.779 231.511L313.077 222.551L308.633 203.073L302.334 212.04Z" fill="#FDFFFF"/>
<path d="M331.264 196.669C331.552 196.262 331.818 195.84 332.071 195.412L326.046 169.024C326.046 169.024 326.032 169.017 326.032 169.01C323.189 167.008 320.015 165.829 316.806 165.421L325.738 204.54L331.271 196.669H331.264Z" fill="#FF7B85"/>
<path d="M308.633 203.073L313.078 222.552L319.432 213.508L314.988 194.029L308.633 203.073Z" fill="#37DD8A"/>
<path d="M310.367 181.986C310.781 181.396 311.315 180.947 311.926 180.631L308.604 166.067C305.866 166.868 303.303 168.258 301.126 170.203L305.423 189.022L310.367 181.986Z" fill="#37DD8A"/>
<path d="M294.392 191.824C295.501 192.603 296.758 193.039 298.022 193.144L294.68 178.51L292.587 181.495C290.235 184.844 291.043 189.471 294.392 191.831V191.824Z" fill="#FF7B85"/>
<path d="M295.979 221.084L300.424 240.562L306.779 231.511L302.334 212.04L295.979 221.084Z" fill="#FF7B85"/>
<path d="M285.616 235.844C283.263 239.193 284.071 243.821 287.42 246.18C289.295 247.493 291.563 247.823 293.614 247.268L289.681 230.051L285.609 235.844H285.616Z" fill="#37DD8A"/>
<path d="M326.048 169.023C326.048 169.023 326.034 169.016 326.027 169.009C323.183 167.008 320.009 165.836 316.8 165.421C314.033 165.07 311.239 165.302 308.605 166.067C305.867 166.868 303.304 168.258 301.127 170.203C300.06 171.158 299.084 172.239 298.227 173.454L294.681 178.503L292.588 181.487C290.236 184.837 291.044 189.464 294.393 191.824C295.503 192.603 296.759 193.038 298.023 193.144C300.565 193.361 303.156 192.259 304.729 190.019L305.431 189.022L310.375 181.986C310.789 181.396 311.323 180.947 311.934 180.631C313.57 179.781 315.747 179.907 317.502 181.143C319.918 182.836 320.648 185.974 319.131 188.137L314.995 194.028L308.64 203.073L302.342 212.033L295.987 221.077L289.688 230.037L285.616 235.83C283.263 239.179 284.071 243.807 287.42 246.166C289.295 247.479 291.563 247.809 293.614 247.254C295.229 246.819 296.71 245.836 297.75 244.361L300.425 240.555L306.78 231.511L313.078 222.551L319.433 213.507L325.732 204.547L331.265 196.676C331.553 196.268 331.82 195.847 332.073 195.419C337.248 186.691 334.72 175.133 326.048 169.03V169.023Z" stroke="black" stroke-width="0.45" stroke-miterlimit="10"/>
</g>
<path d="M84.6203 227.999C84.5589 226.351 83.4657 225.006 82.0287 224.626C82.0287 224.579 82.0287 224.533 82.0287 224.482C81.9591 222.486 80.3746 220.931 78.4912 221.002C77.4103 221.045 76.4727 221.615 75.8791 222.469C75.6375 222.423 75.3877 222.398 75.1298 222.41C73.2464 222.482 71.7807 224.161 71.8544 226.156C71.8544 226.211 71.8626 226.262 71.8667 226.317C71.2976 226.989 70.9659 227.885 71.0028 228.862C71.0765 230.857 72.661 232.413 74.5402 232.341C74.8064 232.333 75.0643 232.286 75.31 232.214C75.8709 233.504 77.1196 234.375 78.5403 234.32C80.047 234.261 81.2876 233.17 81.6847 231.716C83.4002 231.466 84.6899 229.876 84.6203 228.004V227.999Z" fill="white" stroke="black" stroke-width="0.2868" stroke-miterlimit="10"/>
<path d="M28.6203 130.999C28.5589 129.351 27.4657 128.006 26.0287 127.626C26.0287 127.579 26.0287 127.533 26.0287 127.482C25.9591 125.486 24.3746 123.931 22.4912 124.002C21.4103 124.045 20.4727 124.615 19.8791 125.469C19.6375 125.423 19.3877 125.398 19.1298 125.41C17.2464 125.482 15.7807 127.161 15.8544 129.156C15.8544 129.211 15.8626 129.262 15.8667 129.317C15.2976 129.989 14.9659 130.885 15.0028 131.862C15.0765 133.857 16.661 135.413 18.5402 135.341C18.8064 135.333 19.0643 135.286 19.31 135.214C19.8709 136.504 21.1196 137.375 22.5403 137.32C24.047 137.261 25.2876 136.17 25.6847 134.716C27.4002 134.466 28.6899 132.876 28.6203 131.004V130.999Z" fill="white" stroke="black" stroke-width="0.2868" stroke-miterlimit="10"/>
<path d="M314.86 130.72C320.305 130.72 324.72 126.305 324.72 120.86C324.72 115.414 320.305 111 314.86 111C309.414 111 305 115.414 305 120.86C305 126.305 309.414 130.72 314.86 130.72Z" fill="white" stroke="black" stroke-width="0.5" stroke-miterlimit="10"/>
<path d="M322.099 119.197C324.914 119.197 327.197 116.914 327.197 114.099C327.197 111.283 324.914 109 322.099 109C319.283 109 317 111.283 317 114.099C317 116.914 319.283 119.197 322.099 119.197Z" fill="white" stroke="black" stroke-width="0.5" stroke-miterlimit="10"/>
<path d="M72.0985 110.197C73.8098 110.197 75.1971 108.81 75.1971 107.099C75.1971 105.387 73.8098 104 72.0985 104C70.3873 104 69 105.387 69 107.099C69 108.81 70.3873 110.197 72.0985 110.197Z" fill="white" stroke="black" stroke-width="0.303865" stroke-miterlimit="10"/>
<path d="M357.099 173.197C358.81 173.197 360.197 171.81 360.197 170.099C360.197 168.387 358.81 167 357.099 167C355.387 167 354 168.387 354 170.099C354 171.81 355.387 173.197 357.099 173.197Z" fill="white" stroke="black" stroke-width="0.303865" stroke-miterlimit="10"/>
<defs>
<linearGradient id="paint0_linear_1875_4591" x1="195" y1="0" x2="195" y2="289" gradientUnits="userSpaceOnUse">
<stop stop-color="#CFEFFF"/>
<stop offset="1" stop-color="#73CCFF"/>
</linearGradient>
<linearGradient id="paint1_linear_1875_4591" x1="195" y1="-8.13377e-09" x2="195.202" y2="359.75" gradientUnits="userSpaceOnUse">
<stop stop-color="#AEE2FF"/>
<stop offset="1" stop-color="#FFE6F0"/>
</linearGradient>
<linearGradient id="paint2_linear_1875_4591" x1="74.4972" y1="233.253" x2="233.992" y2="330.006" gradientUnits="userSpaceOnUse">
<stop stop-color="#BAFDBC"/>
<stop offset="1" stop-color="#4DDF22"/>
</linearGradient>
<linearGradient id="paint3_linear_1875_4591" x1="55.5218" y1="146.953" x2="52.9287" y2="240.122" gradientUnits="userSpaceOnUse">
<stop stop-color="#C3FFC9"/>
<stop offset="1" stop-color="#4DDF22"/>
</linearGradient>
<clipPath id="clip0_1875_4591">
<path d="M128.549 125L268.977 125.099L269.934 279.876C270 290.505 261.45 299.116 250.838 299.108L148.84 299.036C138.228 299.029 129.572 290.406 129.506 279.777L128.549 125Z" fill="white"/>
</clipPath>
<clipPath id="clip1_1875_4591">
<rect width="51" height="82.7881" fill="white" transform="translate(284 165)"/>
</clipPath>
</defs>
</svg>
