<svg width="54" height="54" viewBox="0 0 54 54" fill="none" xmlns="http://www.w3.org/2000/svg">
<g clip-path="url(#clip0_666_543)">
<mask id="mask0_666_543" style="mask-type:alpha" maskUnits="userSpaceOnUse" x="-66" y="-1" width="140" height="88">
<rect x="-65.917" y="-1" width="139.333" height="88" rx="6.51852" fill="white"/>
</mask>
<g mask="url(#mask0_666_543)">
<mask id="mask1_666_543" style="mask-type:alpha" maskUnits="userSpaceOnUse" x="-66" y="-1" width="140" height="88">
<rect x="-65.917" y="-1" width="139.333" height="88" rx="6.51852" fill="white"/>
</mask>
<g mask="url(#mask1_666_543)">
<rect x="-65.917" y="-1" width="139.333" height="88" rx="6.51852" fill="url(#paint0_linear_666_543)"/>
</g>
<path d="M54.1063 57.2672C54.7403 59.3385 55.5609 61.6457 56.5232 63.4735C56.5232 63.4735 56.594 63.4435 56.7246 63.3986C59.9396 62.2862 63.2889 65.0054 62.7779 68.38C62.7145 68.8033 62.5877 69.204 62.3714 69.5336L63.4493 70.4475C65.2209 71.9495 66.6755 74.1593 66.6159 76.4852C66.6084 76.7512 66.5897 77.0171 66.5525 77.2868C66.1273 80.2756 64.3817 83.0698 60.2939 83.7327C55.9861 84.2309 52.372 82.3881 49.8693 78.6763C49.6492 78.3505 49.459 78.0321 49.3061 77.7212C46.4603 71.9532 48.5713 67.3013 48.5713 67.3013C48.2394 66.8257 47.9075 66.2152 47.5867 65.5222C42.0033 70.5786 34.6109 73.6574 26.4987 73.6574C18.3865 73.6574 11.0128 70.5861 5.43311 65.541L4.76922 67.2976C4.76922 67.2976 7.04063 77.1819 -1.36994 82.5641C-7.01678 86.1748 -12.8053 81.7514 -12.078 75.6163C-11.7759 73.0694 -10.5563 71.1779 -9.41127 69.9232C-8.26624 68.6722 -7.1958 68.0542 -7.1958 68.0542C-7.26294 67.9905 -7.32262 67.9306 -7.38229 67.8669C-9.45603 65.6608 -6.94591 62.1626 -4.14487 63.3049L-3.16395 63.702C-2.06367 62.2674 -1.15362 60.5071 -0.377831 58.522H-0.38156C-3.30568 53.7203 -4.99525 48.0721 -4.99525 42.0307C-4.99525 24.5618 9.10691 10.4077 26.4987 10.4077C43.8905 10.4077 57.9927 24.5656 57.9927 42.0344C57.9927 47.559 56.5828 52.7502 54.1063 57.271V57.2672Z" fill="#FFFD9C"/>
<path d="M-0.380186 58.522C-3.30431 53.7203 -4.99388 48.0721 -4.99388 42.0307C-4.99388 24.5618 9.10829 10.4077 26.5001 10.4077C43.8919 10.4077 57.9941 24.5656 57.9941 42.0344C57.9941 47.559 56.5842 52.7502 54.1077 57.271" stroke="black" stroke-width="0.305556" stroke-miterlimit="10"/>
<path d="M44.6819 56.7349C44.6819 56.7349 45.9985 62.0909 47.5874 65.518C47.9082 66.2147 48.2401 66.8252 48.5721 67.3009C48.5721 67.3009 46.461 71.9527 49.3068 77.7208C49.4597 78.0316 49.65 78.35 49.87 78.6758C52.3727 82.3876 55.9868 84.2304 60.2947 83.7322C64.3825 83.0693 66.128 80.2752 66.5532 77.2863C66.5905 77.0166 66.6091 76.7507 66.6166 76.4848C66.6762 74.1588 65.2216 71.949 63.45 70.4471L62.3721 69.5332C62.5884 69.2036 62.7153 68.8028 62.7787 68.3796C63.2896 65.0049 59.9403 62.2857 56.7253 63.3981C56.5947 63.443 56.5239 63.473 56.5239 63.473C55.5616 61.6452 54.7411 59.338 54.107 57.2668C53.2119 54.3378 52.6934 51.8733 52.6934 51.8733" stroke="black" stroke-width="0.305556" stroke-miterlimit="10"/>
<path d="M1.45358 52.6415C0.920226 54.7315 0.323467 56.7166 -0.377725 58.5219C-1.15351 60.507 -2.06357 62.2674 -3.16384 63.7019L-4.14477 63.3049C-6.94581 62.1625 -9.45592 65.6608 -7.38219 67.8669C-7.32251 67.9305 -7.26283 67.9905 -7.1957 68.0541C-7.1957 68.0541 -8.26613 68.6721 -9.41117 69.9231C-10.5562 71.1779 -11.7758 73.0693 -12.0779 75.6162C-12.8052 81.7513 -7.01667 86.1747 -1.36984 82.5641C7.04074 77.1818 4.76932 67.2976 4.76932 67.2976L5.43322 65.5409L9.4054 55.0237" stroke="black" stroke-width="0.305556" stroke-miterlimit="10"/>
<path d="M33.6608 41.1468C33.6608 41.1468 32.8178 41.2666 32.5717 40.3078" stroke="black" stroke-width="0.305556" stroke-miterlimit="10"/>
<path d="M19.9393 39.2662C19.9393 39.2662 20.5286 39.6595 20.3384 40.4348L20.8084 40.6408C24.4113 42.2176 28.3313 42.1951 31.9678 40.5734L32.5683 40.3037C32.4303 39.4947 32.9599 38.9254 32.9599 38.9254" stroke="black" stroke-width="0.305556" stroke-miterlimit="10"/>
<path d="M19.1931 41.0901C19.1931 41.0901 20.0584 41.3748 20.3381 40.4347" stroke="black" stroke-width="0.305556" stroke-miterlimit="10"/>
<path d="M17.5038 36.6742C17.8694 35.7179 17.9054 35.1086 17.612 34.8465C17.2129 35.1311 16.8138 35.4195 16.4148 35.7042C16.3402 35.6517 16.2618 35.5955 16.1872 35.5431C16.7318 34.7903 17.6045 34.1423 17.0264 32.9288C19.1375 36.1237 21.4126 36.3072 24.0048 33.6142C23.8183 34.8577 23.0239 35.4195 22.1063 35.8128C21.7035 35.9851 21.2261 36.0562 20.786 36.045C19.6596 36.0263 18.4288 35.2659 17.5038 36.6742Z" fill="black"/>
<path d="M28.9307 33.5883C29.878 34.6969 30.9074 35.5322 32.4665 35.3786C34.0143 35.2288 34.9393 34.3299 35.4652 32.8804C35.8344 33.9254 36.1328 34.7756 36.4424 35.6558C35.8605 35.9966 35.5025 34.1463 34.6819 35.2887C34.9505 35.7194 35.1929 36.109 35.4354 36.4985L35.2936 36.8243C34.3836 35.2475 33.1229 36.064 31.9779 36.0528C30.389 36.0341 29.1545 35.1164 28.9344 33.5845L28.9307 33.5883Z" fill="black"/>
</g>
</g>
<defs>
<linearGradient id="paint0_linear_666_543" x1="3.74967" y1="-1" x2="3.74967" y2="87" gradientUnits="userSpaceOnUse">
<stop stop-color="#FFD4FE"/>
<stop offset="1" stop-color="#F884B1"/>
</linearGradient>
<clipPath id="clip0_666_543">
<rect width="54" height="54" rx="8" fill="white"/>
</clipPath>
</defs>
</svg>
