<svg width="54" height="54" viewBox="0 0 54 54" fill="none" xmlns="http://www.w3.org/2000/svg">
<g clip-path="url(#clip0_426_3131)">
<mask id="mask0_426_3131" style="mask-type:alpha" maskUnits="userSpaceOnUse" x="-66" y="-1" width="140" height="88">
<rect x="-65.917" y="-1" width="139.333" height="88" rx="6.51852" fill="white"/>
</mask>
<g mask="url(#mask0_426_3131)">
<mask id="mask1_426_3131" style="mask-type:alpha" maskUnits="userSpaceOnUse" x="-66" y="-1" width="140" height="88">
<rect x="-65.917" y="-1" width="139.333" height="88" rx="6.51852" fill="white"/>
</mask>
<g mask="url(#mask1_426_3131)">
<rect x="-65.917" y="-1" width="139.333" height="88" rx="6.51852" fill="url(#paint0_linear_426_3131)"/>
</g>
<path d="M54.1063 57.2672C54.7403 59.3385 55.5609 61.6457 56.5232 63.4735C56.5232 63.4735 56.594 63.4435 56.7246 63.3986C59.9396 62.2862 63.2889 65.0054 62.7779 68.38C62.7145 68.8033 62.5877 69.204 62.3714 69.5336L63.4493 70.4475C65.2209 71.9495 66.6755 74.1593 66.6159 76.4852C66.6084 76.7512 66.5897 77.0171 66.5525 77.2868C66.1273 80.2756 64.3817 83.0698 60.2939 83.7327C55.9861 84.2309 52.372 82.3881 49.8693 78.6763C49.6492 78.3505 49.459 78.0321 49.3061 77.7212C46.4603 71.9532 48.5713 67.3013 48.5713 67.3013C48.2394 66.8257 47.9075 66.2152 47.5867 65.5222C42.0033 70.5786 34.6109 73.6574 26.4987 73.6574C18.3865 73.6574 11.0128 70.5861 5.43311 65.541L4.76922 67.2976C4.76922 67.2976 7.04063 77.1819 -1.36994 82.5641C-7.01678 86.1748 -12.8053 81.7514 -12.078 75.6163C-11.7759 73.0694 -10.5563 71.1779 -9.41127 69.9232C-8.26624 68.6722 -7.1958 68.0542 -7.1958 68.0542C-7.26294 67.9905 -7.32262 67.9306 -7.38229 67.8669C-9.45603 65.6608 -6.94591 62.1626 -4.14487 63.3049L-3.16395 63.702C-2.06367 62.2674 -1.15362 60.5071 -0.377831 58.522H-0.38156C-3.30568 53.7203 -4.99525 48.0721 -4.99525 42.0307C-4.99525 24.5618 9.10691 10.4077 26.4987 10.4077C43.8905 10.4077 57.9927 24.5656 57.9927 42.0344C57.9927 47.559 56.5828 52.7502 54.1063 57.271V57.2672Z" fill="#FFFD9C"/>
<path d="M-0.379957 58.522C-3.30408 53.7203 -4.99365 48.0721 -4.99365 42.0307C-4.99365 24.5618 9.10852 10.4077 26.5003 10.4077C43.8921 10.4077 57.9943 24.5656 57.9943 42.0344C57.9943 47.559 56.5845 52.7502 54.1079 57.271" stroke="black" stroke-width="0.305556" stroke-miterlimit="10"/>
<path d="M44.6821 56.7349C44.6821 56.7349 45.9987 62.0909 47.5876 65.518C47.9084 66.2147 48.2403 66.8252 48.5723 67.3009C48.5723 67.3009 46.4612 71.9527 49.307 77.7208C49.4599 78.0316 49.6502 78.35 49.8702 78.6758C52.3729 82.3876 55.987 84.2304 60.2948 83.7322C64.3826 83.0693 66.1282 80.2752 66.5534 77.2863C66.5907 77.0166 66.6093 76.7507 66.6168 76.4848C66.6764 74.1588 65.2218 71.949 63.4502 70.4471L62.3723 69.5332C62.5886 69.2036 62.7154 68.8028 62.7789 68.3796C63.2898 65.0049 59.9405 62.2857 56.7255 63.3981C56.5949 63.443 56.5241 63.473 56.5241 63.473C55.5618 61.6452 54.7413 59.338 54.1072 57.2668C53.2121 54.3378 52.6936 51.8733 52.6936 51.8733" stroke="black" stroke-width="0.305556" stroke-miterlimit="10"/>
<path d="M1.45347 52.6416C0.92012 54.7316 0.323361 56.7167 -0.377832 58.522C-1.15362 60.5071 -2.06368 62.2675 -3.16395 63.702L-4.14487 63.3049C-6.94591 62.1626 -9.45603 65.6608 -7.38229 67.8669C-7.32262 67.9306 -7.26294 67.9905 -7.1958 68.0542C-7.1958 68.0542 -8.26624 68.6722 -9.41127 69.9232C-10.5563 71.1779 -11.7759 73.0694 -12.078 75.6163C-12.8053 81.7514 -7.01678 86.1748 -1.36994 82.5641C7.04063 77.1819 4.76922 67.2976 4.76922 67.2976L5.43311 65.541L9.40529 55.0237" stroke="black" stroke-width="0.305556" stroke-miterlimit="10"/>
<path d="M33.6609 41.1468C33.6609 41.1468 32.8179 41.2667 32.5718 40.3079" stroke="black" stroke-width="0.305556" stroke-miterlimit="10"/>
<path d="M19.9395 39.2661C19.9395 39.2661 20.5288 39.6594 20.3385 40.4347L20.8085 40.6407C24.4114 42.2176 28.3314 42.1951 31.9679 40.5733L32.5684 40.3036C32.4304 39.4946 32.96 38.9253 32.96 38.9253" stroke="black" stroke-width="0.305556" stroke-miterlimit="10"/>
<path d="M19.1929 41.0903C19.1929 41.0903 20.0582 41.3749 20.3379 40.4348" stroke="black" stroke-width="0.305556" stroke-miterlimit="10"/>
<path d="M17.5036 36.6742C17.8691 35.7178 17.9052 35.1086 17.6118 34.8464C17.2127 35.131 16.8136 35.4194 16.4145 35.7041C16.3399 35.6517 16.2616 35.5955 16.187 35.543C16.7316 34.7902 17.6043 34.1422 17.0262 32.9287C19.1372 36.1236 21.4124 36.3071 24.0046 33.6141C23.8181 34.8576 23.0236 35.4194 22.1061 35.8127C21.7033 35.985 21.2259 36.0562 20.7858 36.0449C19.6594 36.0262 18.4286 35.2659 17.5036 36.6742Z" fill="black"/>
<path d="M28.9307 33.5883C29.878 34.6969 30.9074 35.5322 32.4665 35.3786C34.0143 35.2288 34.9393 34.3299 35.4652 32.8804C35.8344 33.9254 36.1328 34.7756 36.4424 35.6558C35.8605 35.9966 35.5025 34.1463 34.6819 35.2887C34.9505 35.7194 35.1929 36.109 35.4353 36.4985L35.2936 36.8243C34.3836 35.2475 33.1229 36.064 31.9779 36.0528C30.389 36.0341 29.1544 35.1164 28.9344 33.5845L28.9307 33.5883Z" fill="black"/>
</g>
</g>
<defs>
<linearGradient id="paint0_linear_426_3131" x1="3.74967" y1="-1" x2="3.74967" y2="87" gradientUnits="userSpaceOnUse">
<stop stop-color="#FFD4FE"/>
<stop offset="1" stop-color="#F884B1"/>
</linearGradient>
<clipPath id="clip0_426_3131">
<rect width="54" height="54" rx="8" fill="white"/>
</clipPath>
</defs>
</svg>
