<svg width="30" height="30" viewBox="0 0 30 30" fill="none" xmlns="http://www.w3.org/2000/svg">
<g clip-path="url(#clip0_1567_3977)">
<path d="M15.1311 21.517H14.862C10.446 21.4618 7.04436 20.1508 4.95367 19.0399C3.63578 18.343 2.71809 17.6668 2.17989 17.2252C1 16.2523 1 15.9073 1 15.7003C1 14.9689 2.82849 12.9197 4.76047 11.4776C6.85116 9.92509 10.2873 8.0759 14.862 8H15.1311C19.692 8.069 23.135 9.95269 25.2395 11.5328C26.5022 12.485 27.4061 13.4096 27.9374 14.0237C28.9931 15.238 28.9931 15.5485 28.9931 15.7003C28.9931 15.9142 28.9931 16.2109 27.8063 17.1769C27.2612 17.6185 26.3366 18.2947 25.0394 18.9916C22.9349 20.1163 19.5195 21.4618 15.1311 21.5101V21.517ZM2.53869 15.6451C3.51848 16.6525 7.98965 20.0542 15 20.0956C21.7895 20.0542 26.309 16.7215 27.4268 15.6451C26.9921 15.0517 25.9019 13.7546 24.1148 12.4643C22.2104 11.0912 19.0917 9.45589 15 9.42139C7.86545 9.48349 3.44258 14.2997 2.53869 15.6451Z" fill="#81CAF3"/>
<path d="M14.9995 19.7504C12.2464 19.7504 10.0039 17.5079 10.0039 14.7548C10.0039 12.0018 12.2464 9.75928 14.9995 9.75928C17.7526 9.75928 19.995 12.0018 19.995 14.7548C19.995 17.5079 17.7526 19.7504 14.9995 19.7504ZM14.9995 11.1876C13.0261 11.1876 11.4253 12.7884 11.4253 14.7617C11.4253 16.7351 13.0261 18.3359 14.9995 18.3359C16.9729 18.3359 18.5736 16.7351 18.5736 14.7617C18.5736 12.7884 16.9729 11.1876 14.9995 11.1876Z" fill="#81CAF3"/>
</g>
<defs>
<clipPath id="clip0_1567_3977">
<rect width="28" height="13.517" fill="white" transform="translate(1 8)"/>
</clipPath>
</defs>
</svg>
