<svg width="27" height="27" viewBox="0 0 27 27" fill="none" xmlns="http://www.w3.org/2000/svg">
<g clip-path="url(#clip0_1440_11381)">
<path d="M24.5345 12.4665C24.0991 11.944 23.3582 11.1574 22.3232 10.3474C21.5993 9.78382 20.6831 9.17332 19.5803 8.65088L18.7999 9.61359C19.8461 10.0773 20.7171 10.6291 21.3957 11.1398C22.8548 12.2317 23.7541 13.3411 24.1104 13.846C23.1942 14.7676 19.4898 17.597 13.9248 17.6322C13.3932 17.6322 12.8786 17.6029 12.3809 17.55L11.4873 18.6536C12.2225 18.7593 12.9973 18.8239 13.8174 18.8356H14.0379C17.6348 18.7887 20.4343 17.6498 22.1592 16.693C23.2225 16.1001 23.9803 15.5248 24.4271 15.1492C25.3998 14.3273 25.3998 14.0749 25.3998 13.8929C25.3998 13.7638 25.3998 13.4938 24.5345 12.4665Z" fill="#6B7684"/>
<path d="M9.21417 16.9224C6.18848 16.0008 4.26561 14.4334 3.70572 13.8464C4.44659 12.7017 8.07176 8.60437 13.9195 8.55154C14.5925 8.55741 15.2373 8.62198 15.8481 8.72177L16.7077 7.65927C15.8763 7.47143 14.9828 7.3599 14.0326 7.34229H13.8121C10.0568 7.40099 7.2404 8.97419 5.52678 10.3008C3.9489 11.5277 2.4502 13.2712 2.4502 13.8934C2.4502 14.0695 2.4502 14.363 3.41728 15.1907C3.85841 15.5664 4.61059 16.1417 5.69079 16.7346C6.40904 17.1279 7.32523 17.5564 8.40543 17.9203L9.21417 16.9224Z" fill="#6B7684"/>
<path d="M13.9247 10.0481C14.1905 10.0481 14.445 10.0833 14.6881 10.1538L15.4912 9.16173C15.0105 8.95627 14.4789 8.83887 13.9247 8.83887C11.6681 8.83887 9.83008 10.7467 9.83008 13.0889C9.83008 13.9283 10.0676 14.709 10.4691 15.3665L11.2666 14.3803C11.0913 13.987 10.9895 13.5526 10.9895 13.0889C10.9895 11.41 12.3015 10.0481 13.919 10.0481H13.9247Z" fill="#6B7684"/>
<path d="M13.9247 16.1298C13.7946 16.1298 13.6702 16.118 13.5458 16.1063L12.7031 17.1453C13.0877 17.2686 13.4949 17.339 13.9191 17.339C16.1756 17.339 18.0136 15.4312 18.0136 13.089C18.0136 12.3905 17.8496 11.7271 17.5555 11.146L16.7129 12.185C16.7977 12.4727 16.8486 12.7779 16.8486 13.089C16.8486 14.7679 15.5365 16.1298 13.9191 16.1298H13.9247Z" fill="#6B7684"/>
<path d="M11.9909 16.8287L12.76 15.8778L16.3682 11.4164L17.1374 10.4655L18.0706 9.31492L18.8623 8.3346L20.7569 5.9924C20.7569 5.9924 20.7852 5.95718 20.7965 5.93957C20.9605 5.68715 20.9153 5.34081 20.689 5.14123C20.4798 4.95925 20.1857 4.95338 19.9765 5.11188C19.9369 5.14123 19.9029 5.17645 19.869 5.21167L17.686 7.91195L16.8603 8.93336L16.2947 9.63191L15.5425 10.5594L11.7986 15.1851L11.0464 16.1126L10.1811 17.1868L9.34978 18.2141L7.08758 21.0142C6.87832 21.2666 6.91226 21.6481 7.1611 21.8653C7.26855 21.9593 7.40429 22.0062 7.53436 22.0062C7.69837 22.0062 7.86238 21.9358 7.98115 21.789L10.6279 18.5135L11.4932 17.4392L11.9852 16.8287H11.9909Z" fill="#6B7684"/>
</g>
<defs>
<clipPath id="clip0_1440_11381">
<rect width="22.95" height="17" fill="white" transform="translate(2.4502 5)"/>
</clipPath>
</defs>
</svg>
