<svg width="24" height="24" viewBox="0 0 24 24" fill="none" xmlns="http://www.w3.org/2000/svg">
<g clip-path="url(#clip0_1440_11415)">
<path d="M11.9479 23C12.6352 23 13.1221 22.4081 13.4753 21.4916L19.7283 5.15752C19.9001 4.71838 19.9956 4.32697 19.9956 4.00239C19.9956 3.38186 19.6137 3 18.9932 3C18.6686 3 18.2772 3.09547 17.8381 3.2673L1.41804 9.55847C0.616131 9.86396 -0.00439453 10.3508 -0.00439453 11.0477C-0.00439453 11.926 0.663863 12.222 1.58033 12.4988L6.73546 14.0644C7.34644 14.2554 7.69012 14.2363 8.10062 13.8544L18.5732 4.06921C18.6973 3.95465 18.8405 3.97375 18.9359 4.05967C19.0314 4.15513 19.041 4.29833 18.9264 4.42243L9.17938 14.9332C8.80706 15.3246 8.77842 15.6492 8.95981 16.2888L10.4777 21.3294C10.7641 22.2936 11.06 23 11.9479 23Z" fill="#35B6FF"/>
</g>
<defs>
<clipPath id="clip0_1440_11415">
<rect width="24.0043" height="24" fill="white" transform="translate(-0.00439453)"/>
</clipPath>
</defs>
</svg>
