<svg width="139" height="99" viewBox="0 0 139 99" fill="none" xmlns="http://www.w3.org/2000/svg">
<g clip-path="url(#clip0_258_2783)">
<path d="M0 39.89V1.31H9.67V31.93H25.89V39.89H0ZM19.04 12.64H30.17V0H40.14V40.19H30.17V21.61H19.04V12.65V12.64Z" fill="black"/>
<path d="M56.46 0.4C63.36 0.4 67.04 4.43 67.04 11.28V14.91H69.71V0H78.27V40.19H69.71V23.87H67.04V29.26C67.04 36.11 63.36 40.09 56.46 40.09C49.56 40.09 45.88 36.11 45.88 29.26V11.28C45.88 4.43 49.56 0.4 56.46 0.4ZM61.76 28.75L57.68 10.67C57.56 10.14 57.09 9.77 56.55 9.77C56 9.77 55.53 10.15 55.42 10.68L51.5 28.76C51.34 29.48 51.89 30.17 52.63 30.17H60.63C61.37 30.17 61.93 29.48 61.76 28.75ZM80.99 0H89.6V40.19H80.99V0Z" fill="black"/>
<path d="M93.78 9.27V1.31H112.77V13.5H117.3V0H126.11V40.19H117.3V22.46H112.77V40.19H103.4V9.27H93.78ZM129.08 0H137.94V40.19H129.08V0Z" fill="black"/>
<path d="M0.820007 57.6301H25.25V64.4301H10.49V67.0501H26.86V73.8001H0.820007V57.6301ZM2.18001 78.1801H16.13V75.0101H26.56V78.1801H40.51V84.2701H2.18001V78.1801ZM12.1 85.9401H30.53C36.93 85.9401 39.55 88.1101 39.55 92.3401C39.55 96.5701 36.93 98.7901 30.53 98.7901H12.1C5.70001 98.7901 3.08001 96.6201 3.08001 92.3401C3.08001 88.0601 5.70001 85.9401 12.1 85.9401ZM30.08 91.8301V90.3201L12.3 93.0401V94.5501L30.08 91.8301ZM45.44 61.9201V69.8301H40.45V75.7701H30.48V57.0901H40.45V61.9301H45.44V61.9201Z" fill="black"/>
<path d="M48.9 58.3901H73.43V97.2701H63.41V66.3501H48.91V58.3901H48.9ZM91.36 97.2701H81.39V57.0801H91.36V97.2701Z" fill="black"/>
<path d="M96.55 75.5099H138.85V80.7999H96.55V75.5099ZM98.46 92.2799L133.31 88.2999H98.46V82.5099H137.19V89.1099L106.27 92.7399H137.55V98.9799H98.47V92.2799H98.46ZM98.51 62.8199H126.81V61.4599H98.51V56.6799H136.84V67.6099H108.74V68.9199H137.35V73.7999H98.52V62.8199H98.51Z" fill="black"/>
</g>
<defs>
<clipPath id="clip0_258_2783">
<rect width="138.86" height="98.98" fill="white"/>
</clipPath>
</defs>
</svg>
