<svg width="390" height="843" viewBox="0 0 390 843" fill="none" xmlns="http://www.w3.org/2000/svg">
<path d="M168.421 407.676L142.112 306.484L194.402 376.919L252.258 303.799L230.014 397.245L427.808 249.46L289.13 426.666L437.1 397.245L278.589 464.261L517.737 666.231L233.619 494.164L181.56 620.56L186.94 523.947L50.1238 550.694L150.046 471.285L-92.0832 456.087L132.82 431.191L97.57 376.919L168.421 407.676Z" fill="#FFD4FE" stroke="black" stroke-width="0.821816" stroke-miterlimit="10"/>
<path d="M207.562 443.442L219.9 297.794L280.188 335.608L254.361 197.993L320.709 233.736L245.19 -32.7075L339.721 -18.1449L350.108 284.996L280.758 234.689L313.971 385.553L234.967 331.85L207.759 443.464C207.726 443.584 207.562 443.551 207.573 443.431L207.562 443.442Z" fill="url(#paint0_linear_250_2229)" stroke="black" stroke-width="0.821816" stroke-miterlimit="10"/>
<path d="M209.874 441.711L131.385 500.29L128.876 574.494L21.0754 632.142L67.0204 677.824L11.8382 697.317L60.435 732.327L-143.2 830.079L-96.5209 863.708L91.905 734.463L53.8385 700.374L95.5429 679.84L47.8009 631.725L153.223 585.002L149.465 507.576L209.896 442.083C210.137 441.831 210.115 441.535 209.863 441.711H209.874Z" fill="url(#paint1_linear_250_2229)" stroke="black" stroke-width="0.821816" stroke-miterlimit="10"/>
<path d="M230.474 571.919L243.426 557.598C244.237 556.71 245.278 556.052 246.439 555.724L267.094 549.785C268.42 549.39 269.844 549.456 271.137 549.938L272.639 550.497C280.309 553.346 281.909 563.493 275.466 568.555L265.472 576.401C264.114 577.475 263.029 578.866 262.328 580.455L247.162 614.073C244.719 619.497 235.613 658.604 235.613 658.604L235.756 697.153L155.086 693.953L152.577 669.211C150.55 663.436 144.008 655.624 139.088 648.468C129.928 635.166 124.734 619.475 124.208 603.225L124.043 598.086L126.136 599.401C128.591 600.946 131.527 601.515 134.376 601.022L136.173 600.716C139.965 600.058 143.186 597.593 144.808 594.097C145.542 592.53 145.904 590.843 145.904 589.144C145.904 587.446 145.509 585.649 144.731 584.027L144.293 583.151C143.69 581.901 142.868 580.773 141.871 579.809L136.699 574.834C134.913 574.505 133.401 573.376 132.568 571.766L123.923 554.913C122.838 552.787 122.498 550.366 122.948 548.032L124.821 538.488C125.577 534.587 128.47 531.442 132.283 530.335L138.683 528.472L142.353 527.157C141.115 524.747 140.797 521.854 141.674 519.082L146.791 503.007C147.712 500.125 149.816 497.769 152.577 496.542L160.762 492.871C164.148 491.359 168.071 491.732 171.128 493.836L183.455 502.35C185.877 504.015 187.488 506.623 187.915 509.527L190.6 527.552C191.421 532.976 193.481 538.148 196.659 542.641L202.204 514.732C202.434 513.592 202.477 512.431 202.313 511.269L195.487 459.593C195.114 456.766 195.892 453.895 197.656 451.649L201.984 446.126C205.348 441.853 211.397 440.801 215.999 443.705L216.043 443.738C217.719 444.801 219.067 446.302 219.933 448.088L234.583 478.353C235.153 479.525 235.493 480.774 235.602 482.067L238.396 514.534C238.462 515.301 238.44 516.079 238.342 516.835L232.764 558.912L230.43 571.919H230.474Z" fill="url(#paint2_linear_250_2229)"/>
<path d="M145.926 589.155C145.926 590.854 145.564 592.541 144.83 594.108C143.208 597.592 139.987 600.069 136.195 600.726L134.398 601.033C131.549 601.526 128.613 600.946 126.158 599.411L124.065 598.097C123.09 597.472 122.203 596.716 121.436 595.828L109.766 582.329C106.928 579.041 106.38 574.362 108.363 570.516L117.305 553.182L122.981 548.042C122.531 550.376 122.871 552.798 123.956 554.924L132.601 571.776C133.423 573.387 134.946 574.527 136.732 574.845L141.904 579.819C142.901 580.784 143.723 581.912 144.326 583.161L144.764 584.038C145.542 585.649 145.937 587.402 145.937 589.155H145.926Z" fill="url(#paint3_linear_250_2229)"/>
<path d="M202.598 586.832L221.215 580.86C222.3 580.51 223.275 579.885 224.042 579.03L230.485 571.908L243.437 557.586C244.248 556.699 245.289 556.042 246.45 555.713L267.105 549.774C268.431 549.379 269.855 549.445 271.148 549.927L272.65 550.486C280.32 553.335 281.92 563.482 275.477 568.544L265.483 576.39C264.125 577.464 263.04 578.855 262.339 580.444L247.173 614.062C244.73 619.486 235.624 658.593 235.624 658.593L235.767 697.142L155.097 693.942L152.588 669.2C150.561 663.425 144.019 655.613 139.099 648.457C129.939 635.155 124.745 619.464 124.219 603.214L124.054 598.075" stroke="black" stroke-width="0.931391" stroke-miterlimit="10"/>
<path d="M191.882 566.944L196.703 542.641L202.247 514.732C202.478 513.592 202.521 512.431 202.357 511.269L195.53 459.593C195.158 456.766 195.936 453.895 197.7 451.649L202.028 446.126C205.392 441.853 211.441 440.801 216.043 443.705L216.087 443.738C217.763 444.801 219.111 446.302 219.977 448.088L234.627 478.353C235.197 479.525 235.536 480.774 235.646 482.067L238.44 514.534C238.506 515.301 238.484 516.079 238.385 516.835L232.808 558.912L230.474 571.919" stroke="black" stroke-width="0.931391" stroke-miterlimit="10"/>
<path d="M168.169 525.251L161.924 531.157C158.91 533.995 154.516 534.827 150.681 533.282L147.865 532.165C145.411 531.168 143.526 529.36 142.386 527.168C141.148 524.757 140.83 521.865 141.707 519.092L146.824 503.018C147.745 500.136 149.848 497.78 152.61 496.553L160.795 492.882C164.181 491.37 168.104 491.742 171.161 493.846L183.488 502.36C185.91 504.026 187.52 506.634 187.948 509.537L190.632 527.563C191.454 532.987 193.514 538.159 196.692 542.651" stroke="black" stroke-width="0.931391" stroke-miterlimit="10"/>
<path d="M165.299 560.436L156.971 535.814" stroke="black" stroke-width="0.931391" stroke-miterlimit="10"/>
<path d="M142.386 527.157L138.716 528.472L132.316 530.335C128.503 531.441 125.621 534.586 124.854 538.487L122.981 548.031C122.531 550.365 122.871 552.787 123.956 554.912L132.601 571.765C133.423 573.376 134.946 574.515 136.732 574.833C137.368 574.943 138.003 574.998 138.628 574.998C142.715 574.998 146.528 572.631 148.281 568.807L150.583 563.799" stroke="black" stroke-width="0.931391" stroke-miterlimit="10"/>
<path d="M122.981 548.031L117.305 553.171L108.363 570.505C106.38 574.352 106.928 579.03 109.766 582.318L121.436 595.817C122.192 596.694 123.09 597.461 124.065 598.086L126.158 599.4C128.613 600.945 131.549 601.515 134.398 601.022L136.195 600.715C139.987 600.058 143.208 597.592 144.83 594.097C145.564 592.53 145.926 590.843 145.926 589.144C145.926 587.446 145.531 585.649 144.753 584.027L144.315 583.15C143.712 581.901 142.89 580.773 141.893 579.808L136.721 574.834" stroke="black" stroke-width="0.931391" stroke-miterlimit="10"/>
<path d="M155.108 693.953L152.741 668.795C150.714 663.02 144.172 655.207 139.252 648.052C130.092 634.749 124.898 619.058 124.372 602.808L124.208 597.669" stroke="black" stroke-width="1.09575" stroke-miterlimit="10"/>
<path d="M202.74 586.416L220.294 580.784C222.081 580.214 223.669 579.184 224.93 577.803L242.79 558.058C244.116 556.59 245.826 555.538 247.732 554.99L265.944 549.752C268.124 549.127 270.447 549.215 272.573 550.004C277.066 551.67 279.498 555.801 279.498 559.986C279.498 563.044 278.194 566.134 275.444 568.303L265.648 575.995C264.289 577.069 263.204 578.461 262.503 580.05L247.338 613.667C244.894 619.091 235.788 658.199 235.788 658.199V697.164" stroke="black" stroke-width="1.09575" stroke-miterlimit="10"/>
<path d="M192.024 566.528L202.39 514.315C202.62 513.176 202.664 512.014 202.499 510.853L195.673 459.177C195.3 456.35 196.078 453.479 197.842 451.233L202.171 445.71C205.535 441.437 211.583 440.385 216.185 443.289L216.229 443.321C217.906 444.384 219.253 445.886 220.119 447.672L234.769 477.936C235.339 479.109 235.679 480.358 235.788 481.651L238.583 514.118C238.648 514.885 238.626 515.663 238.528 516.419L232.95 558.496" stroke="black" stroke-width="1.09575" stroke-miterlimit="10"/>
<path d="M192.024 535.397L188.112 509.121C187.685 506.217 186.074 503.621 183.652 501.944L171.325 493.43C168.268 491.326 164.345 490.954 160.959 492.466L152.774 496.137C150.013 497.364 147.898 499.72 146.989 502.601L141.871 518.676C140.995 521.448 141.302 524.341 142.551 526.752C143.679 528.954 145.575 530.762 148.03 531.749L150.846 532.866C154.692 534.411 159.075 533.578 162.088 530.74L168.334 524.834" stroke="black" stroke-width="1.09575" stroke-miterlimit="10"/>
<path d="M165.441 560.03L157.124 535.397" stroke="black" stroke-width="1.09575" stroke-miterlimit="10"/>
<path d="M142.529 526.741L138.858 528.056L132.459 529.919C128.646 531.025 125.764 534.17 124.997 538.071L123.123 547.615C122.674 549.949 123.013 552.371 124.098 554.496L132.744 571.349C133.566 572.96 135.089 574.1 136.875 574.417C137.51 574.527 138.146 574.582 138.77 574.582C142.858 574.582 146.671 572.215 148.424 568.391L150.725 563.383" stroke="black" stroke-width="1.09575" stroke-miterlimit="10"/>
<path d="M123.123 547.615L117.447 552.754L108.506 570.089C106.522 573.935 107.07 578.614 109.908 581.901L121.578 595.401C122.334 596.278 123.233 597.045 124.208 597.669L126.301 598.984C128.755 600.529 131.692 601.099 134.541 600.606L136.338 600.299C140.129 599.642 143.351 597.176 144.972 593.681C145.706 592.114 146.068 590.426 146.068 588.728C146.068 587.03 145.674 585.232 144.896 583.611L144.457 582.734C143.855 581.485 143.033 580.356 142.036 579.392L136.864 574.417" stroke="black" stroke-width="1.09575" stroke-miterlimit="10"/>
<path opacity="0.69" d="M198.5 593.155C195.509 593.845 192.791 595.39 190.523 597.461C184.891 602.6 173.758 615.07 172.552 634.322C170.92 660.226 202.083 603.762 202.083 603.762C202.083 603.762 209.37 590.635 198.5 593.155Z" fill="#383838"/>
<path d="M278.589 697.602C296.789 696.134 304.711 688.869 305.106 664.751C306.958 688.803 315.022 695.575 333.563 695.925C315.077 697.405 307.44 704.659 307.045 728.776C305.194 704.724 296.844 697.953 278.589 697.591V697.602Z" fill="#9CFFA6" stroke="black" stroke-width="0.547877" stroke-miterlimit="10"/>
<path d="M317.466 728.283C328.128 727.56 332.807 724.317 333.135 713.677C334.121 724.273 338.811 727.22 349.659 727.297C338.822 728.031 334.319 731.264 333.99 741.903C333.004 731.307 328.15 728.36 317.455 728.283H317.466Z" fill="#9CFFA6" stroke="black" stroke-width="0.547877" stroke-miterlimit="10"/>
<path d="M46.8695 322.229C54.3009 322.229 60.3253 316.205 60.3253 308.773C60.3253 301.342 54.3009 295.318 46.8695 295.318C39.438 295.318 33.4136 301.342 33.4136 308.773C33.4136 316.205 39.438 322.229 46.8695 322.229Z" fill="#9CFFA6" stroke="black" stroke-width="0.547877" stroke-miterlimit="10"/>
<path d="M71.491 326.963C75.3339 326.963 78.4491 323.848 78.4491 320.005C78.4491 316.162 75.3339 313.047 71.491 313.047C67.6482 313.047 64.533 316.162 64.533 320.005C64.533 323.848 67.6482 326.963 71.491 326.963Z" fill="#9CFFA6" stroke="black" stroke-width="0.547877" stroke-miterlimit="10"/>
<path d="M123.222 771.05C128.16 771.05 132.163 767.047 132.163 762.109C132.163 757.171 128.16 753.168 123.222 753.168C118.283 753.168 114.28 757.171 114.28 762.109C114.28 767.047 118.283 771.05 123.222 771.05Z" fill="#9CFFA6" stroke="black" stroke-width="0.547877" stroke-miterlimit="10"/>
<path d="M133.982 764.728C138.073 764.728 141.389 761.411 141.389 757.32C141.389 753.229 138.073 749.913 133.982 749.913C129.891 749.913 126.575 753.229 126.575 757.32C126.575 761.411 129.891 764.728 133.982 764.728Z" fill="#9CFFA6" stroke="black" stroke-width="0.547877" stroke-miterlimit="10"/>
<defs>
<linearGradient id="paint0_linear_250_2229" x1="136.738" y1="184.98" x2="419.61" y2="242.296" gradientUnits="userSpaceOnUse">
<stop offset="0.44" stop-color="#9CFFA6"/>
<stop offset="0.63" stop-color="#6EEC59"/>
<stop offset="0.73" stop-color="#4CDE21"/>
</linearGradient>
<linearGradient id="paint1_linear_250_2229" x1="-88.7231" y1="869.859" x2="215.654" y2="447.363" gradientUnits="userSpaceOnUse">
<stop offset="0.44" stop-color="#9CFFA6"/>
<stop offset="0.48" stop-color="#96FC9C"/>
<stop offset="0.55" stop-color="#87F683"/>
<stop offset="0.63" stop-color="#6EEC59"/>
<stop offset="0.73" stop-color="#4CDE21"/>
</linearGradient>
<linearGradient id="paint2_linear_250_2229" x1="201.13" y1="569.607" x2="201.13" y2="412.903" gradientUnits="userSpaceOnUse">
<stop offset="0.24" stop-color="#9CFFA6"/>
<stop offset="0.31" stop-color="#96FC9C"/>
<stop offset="0.42" stop-color="#87F683"/>
<stop offset="0.57" stop-color="#6EEC59"/>
<stop offset="0.73" stop-color="#4CDE21"/>
</linearGradient>
<linearGradient id="paint3_linear_250_2229" x1="126.542" y1="574.615" x2="126.542" y2="535.858" gradientUnits="userSpaceOnUse">
<stop offset="0.24" stop-color="#9CFFA6"/>
<stop offset="0.31" stop-color="#96FC9C"/>
<stop offset="0.42" stop-color="#87F683"/>
<stop offset="0.57" stop-color="#6EEC59"/>
<stop offset="0.73" stop-color="#4CDE21"/>
</linearGradient>
</defs>
</svg>
