<svg width="18" height="23" viewBox="0 0 18 23" fill="none" xmlns="http://www.w3.org/2000/svg">
<g clip-path="url(#clip0_1288_3804)">
<path d="M2.28135 1.14404C1.93386 1.61767 1.74854 2.18372 1.74854 2.78442V11.7372C1.74854 12.3379 1.93386 12.904 2.28135 13.3776L8.2466 7.42832C8.33927 7.33591 8.33927 7.18573 8.2466 7.08176L2.28135 1.14404Z" fill="#35B6FF"/>
<path d="M15.1619 0.531391C14.687 0.184832 14.1194 0 13.5171 0H4.5403C3.93798 0 3.37041 0.184832 2.89551 0.531391L8.86076 6.46911C8.95342 6.56153 9.104 6.56153 9.20825 6.46911L15.1619 0.531391Z" fill="#35B6FF"/>
<path d="M9.72953 20.9554L10.9226 22.0991L17.0847 15.9072L16.0307 14.8675C15.8801 14.7173 15.6369 14.7173 15.4863 14.8675L9.72953 20.4009C9.56737 20.5511 9.56737 20.8052 9.72953 20.967V20.9554Z" fill="#35B6FF"/>
<path d="M10.9111 22.1102C10.969 22.1679 11.0385 22.2257 11.108 22.2835C12.2895 23.2654 14.0617 23.2076 15.1621 22.0986L17.1196 20.1463C18.2895 18.9796 18.2895 17.0735 17.1196 15.9068C17.027 15.8144 10.9111 22.0986 10.9111 22.0986V22.1102Z" fill="#35B6FF"/>
<path d="M9.19635 8.05222C9.10369 7.95981 8.95311 7.95981 8.84886 8.05222L2.57087 14.3134H2.55929L0.879753 16C-0.301714 17.1783 -0.301714 19.0844 0.879753 20.2627L2.73303 22.111C3.9145 23.2893 5.83728 23.2893 7.00717 22.111L8.64037 20.4822L14.9647 14.1748C15.0574 14.0824 15.0574 13.9322 14.9647 13.8282L9.17319 8.05222H9.19635Z" fill="#35B6FF"/>
<path d="M15.7756 13.3776C16.1231 12.904 16.3084 12.3379 16.3084 11.7372V2.78442C16.3084 2.18372 16.1231 1.61767 15.7756 1.14404L9.82194 7.08176C9.72928 7.17418 9.72928 7.32435 9.82194 7.42832L11.7795 9.38061L15.7872 13.3776H15.7756Z" fill="#35B6FF"/>
</g>
<defs>
<clipPath id="clip0_1288_3804">
<rect width="18" height="23" fill="white"/>
</clipPath>
</defs>
</svg>
