<svg width="18" height="23" viewBox="0 0 18 23" fill="none" xmlns="http://www.w3.org/2000/svg">
<g clip-path="url(#clip0_1195_4021)">
<path d="M2.28135 1.14355C1.93386 1.61719 1.74854 2.18323 1.74854 2.78394V11.7367C1.74854 12.3374 1.93386 12.9035 2.28135 13.3771L8.2466 7.42783C8.33927 7.33542 8.33927 7.18524 8.2466 7.08127L2.28135 1.14355Z" fill="#6A7382" fill-opacity="0.8"/>
<path d="M15.1619 0.531391C14.687 0.184832 14.1194 0 13.5171 0H4.5403C3.93798 0 3.37041 0.184832 2.89551 0.531391L8.86076 6.46911C8.95342 6.56153 9.104 6.56153 9.20825 6.46911L15.1619 0.531391Z" fill="#6A7382" fill-opacity="0.8"/>
<path d="M9.72953 20.9554L10.9226 22.0991L17.0847 15.9072L16.0307 14.8675C15.8801 14.7173 15.6369 14.7173 15.4863 14.8675L9.72953 20.4009C9.56737 20.5511 9.56737 20.8052 9.72953 20.967V20.9554Z" fill="#6A7382" fill-opacity="0.8"/>
<path d="M10.9111 22.1107C10.969 22.1684 11.0385 22.2262 11.108 22.284C12.2895 23.2659 14.0617 23.2081 15.1621 22.0991L17.1196 20.1468C18.2895 18.9801 18.2895 17.074 17.1196 15.9073C17.027 15.8148 10.9111 22.0991 10.9111 22.0991V22.1107Z" fill="#6A7382" fill-opacity="0.8"/>
<path d="M9.19635 8.05173C9.10369 7.95932 8.95311 7.95932 8.84886 8.05173L2.57087 14.3129H2.55929L0.879753 15.9995C-0.301714 17.1778 -0.301714 19.0839 0.879753 20.2622L2.73303 22.1105C3.9145 23.2888 5.83728 23.2888 7.00717 22.1105L8.64037 20.4817L14.9647 14.1743C15.0574 14.0819 15.0574 13.9317 14.9647 13.8277L9.17319 8.05173H9.19635Z" fill="#6A7382" fill-opacity="0.8"/>
<path d="M15.7756 13.3771C16.1231 12.9035 16.3084 12.3374 16.3084 11.7367V2.78394C16.3084 2.18323 16.1231 1.61719 15.7756 1.14355L9.82194 7.08127C9.72928 7.17369 9.72928 7.32387 9.82194 7.42783L11.7795 9.38012L15.7872 13.3771H15.7756Z" fill="#6A7382" fill-opacity="0.8"/>
</g>
<defs>
<clipPath id="clip0_1195_4021">
<rect width="18" height="23" fill="white"/>
</clipPath>
</defs>
</svg>
