<svg width="66" height="57" viewBox="0 0 66 57" fill="none" xmlns="http://www.w3.org/2000/svg">
<g opacity="0.27">
<g clip-path="url(#clip0_1288_3740)">
<path d="M0.853516 56.6209L32.4494 38.5L56.0649 56.5299" stroke="black" stroke-width="0.757878" stroke-linecap="round" stroke-linejoin="round"/>
<path d="M9.44043 20.3797L42.1353 0.470215L64.6594 20.3797" stroke="black" stroke-width="0.757878" stroke-miterlimit="10"/>
<path d="M9.22807 20.3792C9.01586 20.3792 8.83397 20.5232 8.7885 20.7354L0.853516 56.6209L56.0573 56.5299L65.0003 20.6672C65.0382 20.5156 64.9245 20.3716 64.7729 20.3716" stroke="black" stroke-width="0.757878" stroke-miterlimit="10"/>
<path d="M64.6589 20.3794C64.7725 20.3794 64.8104 20.531 64.7119 20.584L32.449 38.5003L9.3186 20.728C9.16703 20.6143 9.2504 20.3794 9.43987 20.3794" stroke="black" stroke-width="0.757878" stroke-miterlimit="10"/>
<path d="M32.7301 30.5671C31.6903 29.6536 30.6788 28.648 29.2852 28.2939C27.057 27.7274 24.9349 27.9469 22.9897 29.2995C21.1505 30.5741 20.8959 32.4932 21.0303 34.3415C21.2991 38.0664 23.5485 40.8777 26.2153 43.3775C27.8281 44.8929 29.5611 46.2738 31.4144 47.5273C32.3269 48.1433 32.9918 48.1717 33.9397 47.5273C37.3846 45.1974 40.5465 42.549 42.7676 39.1144C44.3097 36.728 44.9675 33.952 43.864 31.1407C43.1779 29.3915 40.9426 28.1806 39.1388 28.0319C36.5711 27.8194 34.4915 28.6692 32.8504 30.56" fill="#F42762"/>
<path d="M32.7301 30.5671C31.6903 29.6536 30.6788 28.648 29.2852 28.2939C27.057 27.7274 24.9349 27.9469 22.9897 29.2995C21.1505 30.5741 20.8959 32.4932 21.0303 34.3415C21.2991 38.0664 23.5485 40.8777 26.2153 43.3775C27.8281 44.8929 29.5611 46.2738 31.4144 47.5272C32.3269 48.1433 32.9918 48.1717 33.9397 47.5272C37.3846 45.1974 40.5465 42.549 42.7676 39.1144C44.3097 36.728 44.9675 33.952 43.864 31.1407C43.1779 29.3915 40.9426 28.1806 39.1388 28.0319C36.5711 27.8194 34.4915 28.6692 32.8504 30.56" stroke="black" stroke-width="0.685671" stroke-linecap="round" stroke-linejoin="round"/>
</g>
</g>
<defs>
<clipPath id="clip0_1288_3740">
<rect width="65.0032" height="57" fill="white" transform="translate(0.383301)"/>
</clipPath>
</defs>
</svg>
