<svg width="342" height="390" viewBox="0 0 342 390" fill="none" xmlns="http://www.w3.org/2000/svg">
<mask id="mask0_1836_10480" style="mask-type:alpha" maskUnits="userSpaceOnUse" x="0" y="0" width="342" height="390">
<rect width="342" height="390" rx="30" fill="white"/>
</mask>
<g mask="url(#mask0_1836_10480)">
<mask id="mask1_1836_10480" style="mask-type:alpha" maskUnits="userSpaceOnUse" x="-102" y="0" width="546" height="390">
<path d="M-101.581 0H443.58V362.043C443.58 377.483 431.063 390 415.623 390H-73.6241C-89.0643 390 -101.581 377.483 -101.581 362.043V0Z" fill="url(#paint0_linear_1836_10480)"/>
</mask>
<g mask="url(#mask1_1836_10480)">
<rect x="-101.581" width="545.161" height="390" fill="url(#paint1_linear_1836_10480)"/>
<g clip-path="url(#clip0_1836_10480)">
<path d="M216.298 277.022C216.362 278.224 216.398 279.425 216.398 280.635C216.398 300.13 207.779 317.617 194.143 329.492C201.076 340.771 209.53 346.677 214.454 349.382C216.811 350.675 217.893 353.508 217.004 356.057C211.098 373.15 200.406 394.717 193.556 402.466C186.046 410.966 178.729 417.569 170.558 418.477C167.807 418.779 164.9 418.733 162.04 418.055C153.952 416.129 151.586 408.289 150.889 403.86C150.614 402.081 150.596 400.265 150.816 398.468C153.933 373.37 180.645 351.757 182.809 350.033C182.901 349.969 182.919 349.859 182.864 349.767C181.177 346.502 179.682 343.082 178.362 339.634C170.219 343.33 161.168 345.384 151.641 345.384C147.9 345.384 144.232 345.063 140.665 344.458C136.511 343.751 132.485 342.642 128.643 341.175C104.233 331.904 86.8926 308.301 86.8926 280.635C86.8926 244.873 115.878 215.878 151.641 215.878C178.573 215.878 201.662 232.319 211.428 255.712C214.583 252.649 217.04 249.907 218.095 247.963C218.122 247.917 218.131 247.881 218.122 247.835C217.957 246.634 215.802 230.137 222.872 224.149C229.456 218.565 232.968 231.1 233.61 233.695C233.656 233.878 233.885 233.924 234.005 233.777C235.508 231.87 242.606 223.443 248.273 226.524C253.866 229.559 248.071 238.738 246.567 240.939C246.457 241.113 246.604 241.333 246.806 241.288C248.869 240.838 255.893 239.738 257.223 244.965C258.616 250.393 248.713 254.575 246.42 255.464C246.237 255.528 246.228 255.776 246.393 255.868C248.429 256.968 256.645 261.846 254.426 267.715C252.014 274.088 236.031 266.34 234.527 265.588C234.454 265.551 234.38 265.56 234.307 265.606C233.317 266.275 225.504 271.493 216.298 277.022Z" fill="#35B6FF"/>
<path d="M140.665 344.458L135.879 403.521C134.962 414.79 121.73 420.485 113.018 413.268C112.881 413.158 112.743 413.039 112.596 412.92C98.594 400.999 79.539 378.01 76.137 367.006C74.0646 360.312 72.9367 354.398 77.6317 346.136C80.3276 341.395 91.9275 333.279 102.702 342.77C111.899 350.867 119.749 364.264 121.858 368.033C122.06 368.391 122.582 368.308 122.665 367.914L128.644 341.175C132.486 342.642 136.511 343.751 140.665 344.458Z" fill="#35B6FF"/>
<path d="M216.297 277.023C216.361 278.224 216.398 279.425 216.398 280.636C216.398 300.131 207.778 317.618 194.143 329.493" stroke="black" stroke-width="0.687739" stroke-miterlimit="10"/>
<path d="M178.362 339.634C170.219 343.33 161.168 345.384 151.641 345.384C147.9 345.384 144.232 345.063 140.665 344.458C136.511 343.751 132.485 342.642 128.643 341.175C104.233 331.904 86.8926 308.301 86.8926 280.635C86.8926 244.873 115.878 215.878 151.641 215.878C178.573 215.878 201.662 232.319 211.428 255.712" stroke="black" stroke-width="0.687739" stroke-miterlimit="10"/>
<path d="M171.777 317.003C173.207 323.633 175.326 331.712 178.361 339.634C179.681 343.082 181.176 346.503 182.863 349.767C182.918 349.859 182.9 349.969 182.808 350.033C180.644 351.757 153.932 373.37 150.815 398.468C150.595 400.265 150.613 402.081 150.888 403.86C151.585 408.289 153.951 416.129 162.039 418.055C164.9 418.734 167.806 418.779 170.557 418.477C178.728 417.569 186.045 410.967 193.555 402.466C200.405 394.718 211.097 373.15 217.003 356.058C217.892 353.508 216.81 350.675 214.453 349.382C209.529 346.677 201.075 340.771 194.142 329.493C193.986 329.245 193.84 328.988 193.684 328.731C190.282 323.019 187.833 317.966 186.073 313.739" stroke="black" stroke-width="0.687739" stroke-miterlimit="10"/>
<path d="M128.699 340.909L128.644 341.175L122.665 367.914C122.582 368.308 122.06 368.391 121.858 368.033C119.749 364.264 111.899 350.867 102.702 342.77C91.9275 333.279 80.3276 341.395 77.6317 346.136C72.9367 354.398 74.0646 360.312 76.137 367.006C79.539 378.01 98.594 400.999 112.596 412.92C112.743 413.039 112.881 413.158 113.018 413.268C121.73 420.485 134.962 414.79 135.879 403.521L140.665 344.458L140.684 344.201" stroke="black" stroke-width="0.687739" stroke-miterlimit="10"/>
<path d="M194.052 270.797C199.691 266.23 206.431 260.563 211.429 255.712C214.583 252.649 217.041 249.908 218.095 247.964C218.123 247.918 218.132 247.881 218.123 247.835C217.958 246.634 215.803 230.137 222.873 224.15C229.457 218.565 232.969 231.1 233.61 233.695C233.656 233.879 233.886 233.925 234.005 233.778C235.509 231.871 242.606 223.443 248.273 226.524C253.867 229.56 248.071 238.739 246.567 240.94C246.457 241.114 246.604 241.334 246.806 241.288C248.869 240.839 255.893 239.738 257.223 244.965C258.617 250.394 248.713 254.575 246.421 255.465C246.237 255.529 246.228 255.776 246.393 255.868C248.429 256.968 256.645 261.847 254.426 267.715C252.014 274.089 236.031 266.34 234.527 265.588C234.454 265.551 234.381 265.561 234.307 265.606C233.317 266.276 225.504 271.493 216.298 277.023C211.85 279.7 207.082 282.451 202.598 284.79" stroke="black" stroke-width="0.687739" stroke-miterlimit="10"/>
<path d="M122.29 219.555C122.29 219.555 123.895 205.571 134.825 197.519C145.132 189.927 149.864 182.655 158.814 179.409C167.763 176.154 177.41 173.027 187.644 175.163C194.402 176.576 209.743 179.739 218.087 190.11C223.965 197.428 226.9 207.414 228.614 212.576C234.291 229.678 235.143 239.554 236.308 243.139C240.003 254.556 245.404 274.638 243.58 280.479C241.755 286.311 241.7 289.869 236.757 287.292C231.815 284.716 228.697 286.1 229.495 279.168C230.293 272.235 217.491 257.949 217.491 257.949L160.868 230.1L122.299 219.555L122.29 219.555Z" fill="#FF6169" stroke="black" stroke-width="0.916985" stroke-miterlimit="10"/>
<path d="M256.655 290.255C257.609 286.605 255.72 282.662 252.29 280.507C252.327 280.406 252.364 280.306 252.391 280.195C253.546 275.776 250.539 270.916 245.67 269.338C242.882 268.431 240.085 268.816 237.985 270.127C237.398 269.797 236.775 269.522 236.115 269.311C231.245 267.734 226.358 270.035 225.202 274.455C225.175 274.574 225.157 274.694 225.129 274.822C223.222 275.766 221.764 277.417 221.195 279.572C220.04 283.992 223.048 288.852 227.917 290.429C228.605 290.649 229.292 290.787 229.98 290.86C230.549 294.189 233.162 297.242 236.83 298.434C240.736 299.7 244.643 298.462 246.632 295.656C251.19 296.692 255.564 294.409 256.655 290.264L256.655 290.255Z" fill="white" stroke="black" stroke-width="0.687739" stroke-miterlimit="10"/>
<path d="M222.433 220.426C222.433 220.426 228.356 248.018 220.571 252.796" stroke="black" stroke-width="0.687739" stroke-miterlimit="10" stroke-linecap="round"/>
<path d="M225.76 217.511C225.76 217.511 226.714 222.701 224.174 227.974" stroke="black" stroke-width="0.687739" stroke-miterlimit="10" stroke-linecap="round"/>
<path d="M227.054 250.494C225.596 244.167 222.515 239.463 209.082 235.345C206.486 234.548 203.167 234.144 200.728 233.768C197.528 230.761 194.887 228.413 190.054 225.9C184.736 223.14 176.96 220.371 171.21 219.83C170.898 219.803 170.577 219.775 170.266 219.738C166.222 216.529 161.82 213.228 155.447 211.275C149.523 209.459 144.893 209.175 140.188 209.468C138.859 208.808 133.98 205.864 130.074 204.819C120.308 202.224 113.082 205.204 111.386 212.549C109.249 221.829 118.704 228.046 128.405 231.008C130.881 231.769 133.311 232.145 135.594 232.191C139.666 236.226 146.222 239.995 153.962 242.37C157.244 243.378 160.445 244.038 163.452 244.378C167.542 248.312 173.979 251.97 181.554 254.29C185.102 255.382 188.559 256.069 191.778 256.381C193.988 258.151 196.583 259.847 199.499 261.388C212.309 268.137 221.791 267.412 226.458 261.993C228.54 259.572 229.026 254.015 227.073 250.494L227.054 250.494Z" fill="white" stroke="black" stroke-width="0.687739" stroke-miterlimit="10"/>
<path d="M120.849 271.035C127.112 272.41 133.283 272.924 139.317 270.329C144.15 268.247 148.872 264.625 150.798 259.582C150.945 259.206 150.339 259.05 150.202 259.417C148.313 264.332 143.6 267.853 138.886 269.843C133.045 272.3 127.057 271.759 121.014 270.439C120.629 270.356 120.455 270.952 120.849 271.035Z" fill="black"/>
<path d="M145.754 257.656C147.497 259.6 150.33 260.114 152.659 258.958C153.017 258.784 152.705 258.243 152.347 258.426C150.257 259.463 147.744 258.949 146.194 257.225C145.928 256.923 145.488 257.363 145.754 257.665L145.754 257.656Z" fill="black"/>
<path d="M126.369 245.149C124.664 244.653 122.71 245.745 121.097 247.817L122.903 250.394L119.308 250.871C119.006 251.568 118.731 252.31 118.511 253.09C117.007 258.298 118.098 263.177 120.941 263.993C123.783 264.809 127.295 261.251 128.799 256.052C130.303 250.843 129.212 245.965 126.369 245.149Z" fill="black" stroke="black" stroke-width="0.275096" stroke-miterlimit="10" stroke-linecap="round"/>
<path d="M142.875 242.021C141.17 241.526 139.216 242.617 137.602 244.689L139.409 247.266L135.814 247.743C135.512 248.44 135.237 249.182 135.017 249.962C133.513 255.17 134.604 260.049 137.447 260.865C140.289 261.681 143.801 258.123 145.305 252.924C146.809 247.715 145.718 242.837 142.875 242.021Z" fill="black" stroke="black" stroke-width="0.275096" stroke-miterlimit="10" stroke-linecap="round"/>
<path d="M193.117 199.675L181.783 249.073L259.901 248.944L272.656 199.675L193.117 199.675Z" fill="#E0E0E0" stroke="black" stroke-width="0.687739" stroke-miterlimit="10"/>
<path d="M193.116 199.675L226.494 224.369L272.655 199.675" stroke="black" stroke-width="0.687739" stroke-miterlimit="10"/>
<path d="M181.783 249.073L226.495 224.37L259.901 248.945" stroke="black" stroke-width="0.687739" stroke-linecap="round" stroke-linejoin="round"/>
<path d="M226.706 214.429C225.358 213.246 224.047 211.944 222.24 211.486C219.352 210.752 216.601 211.036 214.079 212.788C211.695 214.438 211.365 216.924 211.539 219.317C211.888 224.14 214.804 227.781 218.261 231.018C220.352 232.98 222.598 234.768 225.001 236.391C226.184 237.189 227.045 237.226 228.274 236.391C232.74 233.374 236.839 229.945 239.718 225.497C241.717 222.407 242.57 218.813 241.14 215.172C240.25 212.907 237.352 211.339 235.014 211.147C231.685 210.871 228.989 211.972 226.862 214.42" fill="#F42762"/>
<path d="M226.706 214.429C225.358 213.246 224.047 211.944 222.24 211.486C219.352 210.752 216.601 211.036 214.079 212.788C211.695 214.438 211.365 216.924 211.539 219.317C211.888 224.14 214.804 227.781 218.261 231.018C220.352 232.98 222.598 234.768 225.001 236.391C226.184 237.189 227.045 237.226 228.274 236.391C232.74 233.374 236.839 229.945 239.718 225.497C241.717 222.407 242.57 218.813 241.14 215.172C240.25 212.907 237.352 211.339 235.014 211.147C231.685 210.871 228.989 211.972 226.862 214.42" stroke="black" stroke-width="0.687739" stroke-linecap="round" stroke-linejoin="round"/>
<path d="M194.052 270.796C203.24 263.359 215.353 252.997 218.095 247.972C218.123 247.927 218.132 247.89 218.123 247.835C217.958 246.643 215.803 230.146 222.873 224.158C229.466 218.574 232.969 231.109 233.61 233.704C233.656 233.888 233.895 233.933 234.005 233.787C235.509 231.879 242.606 223.452 248.273 226.533C253.867 229.578 248.071 238.748 246.567 240.957C246.448 241.123 246.604 241.343 246.806 241.297C248.869 240.857 255.893 239.747 257.223 244.974C258.607 250.402 248.713 254.584 246.421 255.473C246.237 255.547 246.228 255.785 246.393 255.877C248.42 256.977 256.636 261.856 254.417 267.724C252.014 274.097 236.022 266.34 234.518 265.597C234.445 265.56 234.362 265.569 234.298 265.615C232.822 266.606 216.316 277.628 202.58 284.799" fill="#35B6FF"/>
<path d="M194.052 270.796C203.24 263.359 215.353 252.997 218.095 247.972C218.123 247.927 218.132 247.89 218.123 247.835C217.958 246.643 215.803 230.146 222.873 224.158C229.466 218.574 232.969 231.109 233.61 233.704C233.656 233.888 233.895 233.933 234.005 233.787C235.509 231.879 242.606 223.452 248.273 226.533C253.867 229.578 248.071 238.748 246.567 240.957C246.448 241.123 246.604 241.343 246.806 241.297C248.869 240.857 255.893 239.747 257.223 244.974C258.607 250.402 248.713 254.584 246.421 255.473C246.237 255.547 246.228 255.785 246.393 255.877C248.42 256.977 256.636 261.856 254.417 267.724C252.014 274.097 236.022 266.34 234.518 265.597C234.445 265.56 234.362 265.569 234.298 265.615C232.822 266.606 216.316 277.628 202.58 284.799" stroke="black" stroke-width="0.687739" stroke-miterlimit="10"/>
</g>
</g>
<g clip-path="url(#clip1_1836_10480)">
<path d="M66.6287 223.222C66.3255 221.982 66.3701 220.716 66.8605 219.557C68.0554 216.729 71.4528 215.436 75.0106 216.185C74.217 215.472 73.5482 214.643 73.0578 213.715C71.0604 209.96 72.7101 206.072 76.7405 205.029C78.7557 204.502 80.976 204.797 82.9556 205.68L83.0269 205.519C79.8703 203.352 78.3455 199.767 79.585 196.841C80.8244 193.925 84.4091 192.632 88.0917 193.551L88.1631 193.39C83.9097 191.473 81.6181 187.174 83.0626 183.776C84.2307 181.02 87.4854 179.718 90.9362 180.342C86.3708 177.444 83.9454 172.557 85.0689 168.338C82.8397 172.057 77.7124 173.547 72.5495 172.066C75.3495 174.26 76.6246 177.605 75.4654 180.36C74.0298 183.758 69.4108 184.953 65.1574 183.036L65.0861 183.196C68.2427 185.364 69.7675 188.949 68.528 191.874C67.2886 194.79 63.704 196.083 60.0213 195.165L59.9499 195.325C61.9206 196.217 63.6415 197.698 64.6402 199.579C66.6376 203.334 64.988 207.222 60.9575 208.266C59.9588 208.525 58.9156 208.587 57.8723 208.471C60.8238 210.656 62.2059 214.107 61.011 216.926C60.5117 218.103 59.6289 219.004 58.5143 219.619C54.5552 218.049 55.759 214.99 53.5208 220.279C51.0062 226.227 57.9436 223.498 61.3588 225.077C65.5052 227.003 67.2796 233.612 69.8031 227.663C72.077 222.294 70.2044 225.63 66.6465 223.222H66.6287Z" fill="#8FEFA6" stroke="black" stroke-width="0.735765" stroke-linecap="round" stroke-linejoin="round"/>
<path d="M80.9679 177.997L66.041 213.26" stroke="black" stroke-width="0.735765" stroke-linecap="round" stroke-linejoin="round"/>
<path d="M50.0608 229.054C49.5258 227.895 48.6965 226.941 47.5908 226.343C44.889 224.89 41.4292 226.004 39.1287 228.814C39.2981 227.761 39.2981 226.691 39.1019 225.666C38.3083 221.492 34.59 219.485 30.7914 221.188C28.892 222.045 27.3405 223.659 26.3596 225.585L26.2081 225.505C27.3138 221.84 26.2526 218.085 23.4616 216.587C20.6706 215.088 17.0682 216.328 14.7676 219.342L14.616 219.262C16.7383 215.106 15.8198 210.317 12.583 208.569C9.95249 207.151 6.59973 208.168 4.29024 210.825C6.02904 205.706 4.86984 200.373 1.34766 197.796C5.41377 199.303 10.3448 197.252 13.4479 192.864C12.6365 196.324 13.7333 199.74 16.3638 201.158C19.6095 202.906 23.961 200.953 26.0743 196.788L26.2259 196.868C25.1202 200.534 26.1813 204.288 28.9723 205.786C31.7633 207.285 35.3657 206.045 37.6663 203.031L37.8179 203.111C36.837 205.037 36.4268 207.276 36.8281 209.363C37.6217 213.537 41.3401 215.543 45.1387 213.84C46.075 213.421 46.931 212.805 47.6711 212.065C46.7437 215.615 47.8138 219.173 50.5156 220.627C51.6391 221.233 52.8964 221.385 54.1537 221.162C56.2581 217.461 53.4047 215.829 58.4606 218.549C64.1496 221.608 57.025 223.828 55.3486 227.199C53.3155 231.302 56.0708 237.563 50.3908 234.504C45.2546 231.739 48.8125 233.175 50.0697 229.072L50.0608 229.054Z" fill="#8FEFA6" stroke="black" stroke-width="0.735765" stroke-linecap="round" stroke-linejoin="round"/>
<path d="M10.5674 202.764L44.2912 220.913" stroke="black" stroke-width="0.735765" stroke-linecap="round" stroke-linejoin="round"/>
<path d="M60.1377 231.882C62.037 237.269 59.2014 243.182 53.8156 245.073C48.4298 246.972 42.5179 244.136 40.6275 238.749C38.7282 233.363 41.5638 227.45 46.9496 225.559C52.3354 223.66 58.2473 226.496 60.1377 231.882Z" fill="#F96E6E" stroke="black" stroke-width="0.735765" stroke-miterlimit="10"/>
<path d="M79.6563 225.015C81.5556 230.401 78.72 236.314 73.3342 238.205C67.9484 240.105 62.0364 237.268 60.146 231.882C58.2467 226.495 61.0823 220.582 66.4681 218.692C71.854 216.792 77.7659 219.628 79.6563 225.015Z" fill="#F96E6E" stroke="black" stroke-width="0.735765" stroke-miterlimit="10"/>
<path d="M66.46 218.683C68.3593 224.07 65.5237 229.983 60.1379 231.874C54.7521 233.773 48.8401 230.937 46.9498 225.551C45.0504 220.164 47.886 214.251 53.2719 212.36C58.6577 210.461 64.5696 213.297 66.46 218.683Z" fill="#F96E6E" stroke="black" stroke-width="0.735765" stroke-miterlimit="10"/>
<path d="M63.3914 219.396C64.7111 223.151 62.7405 227.271 58.9775 228.6" stroke="black" stroke-width="0.735765" stroke-miterlimit="10" stroke-linecap="round"/>
<path d="M76.5174 227.36C77.2575 229.465 76.2231 232.506 73.6016 233.808" stroke="black" stroke-width="0.735765" stroke-miterlimit="10" stroke-linecap="round"/>
</g>
<path d="M44.2209 325.37C44.1012 322.256 41.9699 319.717 39.1682 318.998C39.1682 318.91 39.1682 318.822 39.1682 318.726C39.0325 314.958 35.9434 312.019 32.2717 312.155C30.1644 312.235 28.3365 313.313 27.1791 314.926C26.7082 314.838 26.2212 314.79 25.7184 314.814C22.0466 314.95 19.189 318.12 19.3327 321.888C19.3327 321.992 19.3487 322.088 19.3566 322.192C18.2471 323.461 17.6006 325.154 17.6724 326.999C17.8161 330.767 20.9052 333.706 24.569 333.57C25.0878 333.554 25.5907 333.466 26.0696 333.331C27.1631 335.766 29.5977 337.411 32.3675 337.307C35.3049 337.195 37.7235 335.135 38.4977 332.388C41.8422 331.917 44.3566 328.915 44.2209 325.378V325.37Z" fill="white" stroke="black" stroke-width="0.698925" stroke-miterlimit="10"/>
<path d="M300.86 270.72C306.305 270.72 310.72 266.305 310.72 260.86C310.72 255.414 306.305 251 300.86 251C295.414 251 291 255.414 291 260.86C291 266.305 295.414 270.72 300.86 270.72Z" fill="#9CFFA6" stroke="black" stroke-width="0.5" stroke-miterlimit="10"/>
<path d="M308.099 259.197C310.914 259.197 313.197 256.914 313.197 254.099C313.197 251.283 310.914 249 308.099 249C305.283 249 303 251.283 303 254.099C303 256.914 305.283 259.197 308.099 259.197Z" fill="#9CFFA6" stroke="black" stroke-width="0.5" stroke-miterlimit="10"/>
<mask id="mask2_1836_10480" style="mask-type:alpha" maskUnits="userSpaceOnUse" x="-103" y="0" width="548" height="406">
<path d="M-103 0H444.889V377.903C444.889 393.421 432.31 406 416.792 406H-74.9031C-90.4206 406 -103 393.421 -103 377.903V0Z" fill="url(#paint2_linear_1836_10480)"/>
</mask>
<g mask="url(#mask2_1836_10480)">
<path d="M-103 0H444.889V377.903C444.889 393.421 432.31 406 416.792 406H-74.9031C-90.4206 406 -103 393.421 -103 377.903V0Z" fill="url(#paint3_linear_1836_10480)"/>
<path d="M-87.4652 459.296C-118 457.15 -133.084 451.745 -130.456 441.101C-129.955 439.112 -136.37 438.514 -140.252 437.536C-175.974 428.538 -181.622 414.122 -153.811 400.655C-148.075 397.881 -146.359 395.643 -149.639 392.626C-151.365 391.046 -153.311 388.661 -151.269 387.459C-138.144 379.835 -144.741 372.009 -143.071 364.174C-139.424 347 -88.7654 335.882 -46.2842 342.389C-35.749 343.997 -28.9038 342.425 -19.2008 341.437C6.0875 338.844 29.6295 335.346 53.2192 330.866C69.6544 327.744 87.9706 330.47 98.6896 336.1C104.614 339.203 109.892 340.515 121.151 339.417C138.192 337.766 151.795 340.259 160.706 345.305C165.299 347.899 169.919 348.527 178.719 348.125C220.08 346.237 251.658 356.338 252.779 371.412C253.206 377.394 277.671 387.564 293.985 388.459C313.08 389.497 327.279 392.995 333.815 399.521C337.377 403.072 342.005 405.763 351.826 407.203C365.384 409.193 365.527 416.2 383.437 417.267C405.552 418.578 418.235 424.15 418.343 432.729C418.404 435.748 422.167 437.526 428.133 439.35C446.1 444.86 447.018 453.346 429.492 459.428C421.654 462.153 419.098 464.729 418.969 468.366C418.569 481.966 394.542 493.234 358.019 496.495C346.522 497.525 340.861 499.069 338.713 503.38C333.019 514.857 312.928 521.453 282.015 523.981C278.43 524.273 272.437 524.475 271.774 525.166C264.61 532.712 248.57 536.918 230.727 540.773C227.59 541.448 227.271 544.07 225.985 545.819C216.026 559.164 185.769 567.287 148.58 566.094C138.816 565.783 134.098 566.973 128.905 569.845C118.554 575.575 103.977 578.445 85.3761 576.732C77.4335 575.997 71.6177 576.55 65.2264 578.787C51.4009 583.616 35.7205 583.885 20.6771 580.504C13.2575 578.837 6.6165 578.795 -1.93617 579.708C-27.9662 582.477 -45.5623 580.176 -60.7353 572.109C-65.2562 569.71 -69.5785 568.743 -78.3865 568.765C-119.309 568.888 -144.665 558.236 -138.323 543.625C-136.609 539.644 -140.025 538.251 -149.438 536.826C-182.809 531.837 -198.005 522.641 -194.379 509.407C-191.07 497.249 -171.041 489.316 -139.788 485.16C-129.821 483.834 -126.258 482.449 -126.782 478.361C-127.912 469.45 -112.512 463.749 -87.4652 459.296Z" fill="#F7F7FC" stroke="black" stroke-width="0.561938" stroke-miterlimit="10"/>
<path d="M175.829 491.404C151.503 492.617 138.947 489.011 139.7 478.426C139.849 476.448 134.72 476.56 131.54 476.032C102.277 471.172 96.0425 457.829 116.289 441.799C120.466 438.497 121.541 436.147 118.583 433.58C117.027 432.237 115.198 430.138 116.658 428.755C126.056 419.963 119.889 413.1 120.234 405.338C120.982 388.324 159.523 372.108 193.803 373.829C202.303 374.25 207.503 371.991 215.026 369.99C234.631 364.757 252.749 358.836 270.782 351.959C283.346 347.167 298.117 347.833 307.26 352.127C312.312 354.491 316.634 355.193 325.37 352.917C338.593 349.484 349.62 350.432 357.267 354.355C361.207 356.37 364.926 356.481 371.81 355.144C404.168 348.861 430.302 355.235 433.051 369.703C434.129 375.446 454.665 382.653 467.631 381.762C482.806 380.71 494.428 382.566 500.386 388.177C503.633 391.23 507.613 393.335 515.529 393.671C526.46 394.137 527.44 400.903 541.684 400.006C559.273 398.893 569.957 402.919 571.104 411.21C571.526 414.125 574.712 415.44 579.639 416.564C594.478 419.96 596.253 428.074 583.195 435.848C577.356 439.329 575.661 442.098 576.01 445.632C577.379 458.836 559.841 472.329 531.466 479.419C522.534 481.654 518.265 483.759 517.106 488.161C514.04 499.882 499.026 508.43 474.98 514.206C472.191 514.875 467.494 515.716 467.057 516.456C462.347 524.531 450.228 530.329 436.645 535.981C434.257 536.972 434.33 539.545 433.534 541.376C427.339 555.363 404.503 566.484 375.051 569.336C367.319 570.086 363.748 571.746 360.012 575.085C352.565 581.745 341.434 586.093 326.565 586.438C320.216 586.583 315.701 587.745 310.942 590.598C300.646 596.76 288.323 598.709 276.051 597.059C269.998 596.244 264.76 596.919 258.134 598.723C237.966 604.208 223.815 603.876 210.86 597.703C207.001 595.869 203.475 595.398 196.538 596.368C164.307 600.895 143.008 593.317 146.196 578.494C147.054 574.457 144.19 573.477 136.596 573.112C109.682 571.878 96.5697 564.615 97.7881 551.417C98.8901 539.295 113.691 529.46 137.803 522.071C145.492 519.714 148.128 517.99 147.209 514.09C145.215 505.588 156.644 498.412 175.829 491.404Z" fill="#F7F7FC" stroke="black" stroke-width="0.561938" stroke-miterlimit="10"/>
<g clip-path="url(#clip2_1836_10480)">
<path d="M219.221 278.508C219.292 279.707 219.335 280.906 219.343 282.114C219.463 301.567 211.031 319.01 197.593 330.85C204.532 342.11 212.945 348.008 217.841 350.711C220.184 352.003 221.274 354.831 220.408 357.374C214.662 374.426 204.201 395.94 197.462 403.667C190.073 412.144 182.864 418.727 174.774 419.627C172.05 419.927 169.17 419.879 166.331 419.2C158.305 417.273 155.913 409.448 155.195 405.028C154.911 403.253 154.882 401.441 155.089 399.648C158.023 374.606 184.356 353.057 186.49 351.339C186.581 351.275 186.598 351.165 186.543 351.073C184.851 347.815 183.349 344.401 182.019 340.959C173.974 344.641 165.019 346.684 155.579 346.678C151.872 346.675 148.236 346.352 144.697 345.746C140.577 345.038 136.582 343.928 132.766 342.462C108.522 333.194 91.1954 309.629 91.0247 282.023C90.804 246.337 119.345 217.425 154.78 217.45C181.464 217.468 204.444 233.891 214.265 257.24C217.371 254.186 219.789 251.452 220.822 249.513C220.849 249.467 220.858 249.43 220.849 249.385C220.678 248.186 218.441 231.723 225.409 225.753C231.898 220.185 235.455 232.696 236.107 235.286C236.154 235.469 236.381 235.515 236.498 235.368C237.977 233.466 244.957 225.062 250.591 228.141C256.152 231.173 250.467 240.329 248.99 242.524C248.882 242.697 249.029 242.917 249.228 242.871C251.27 242.424 258.223 241.331 259.573 246.548C260.987 251.966 251.2 256.131 248.934 257.017C248.753 257.081 248.745 257.328 248.91 257.42C250.933 258.519 259.104 263.393 256.942 269.248C254.592 275.605 238.707 267.862 237.213 267.111C237.14 267.074 237.067 267.083 236.995 267.129C236.017 267.796 228.309 272.997 219.221 278.508Z" fill="#35B6FF"/>
<path d="M144.699 345.746L140.321 404.679C139.482 415.924 126.406 421.597 117.73 414.39C117.593 414.28 117.456 414.161 117.31 414.042C103.363 402.137 84.3405 379.184 80.9018 368.201C78.8071 361.52 77.6531 355.618 82.254 347.377C84.8959 342.648 96.3393 334.558 107.074 344.036C116.237 352.122 124.097 365.496 126.21 369.258C126.412 369.615 126.929 369.533 127.009 369.14L132.767 342.462C136.583 343.929 140.579 345.039 144.699 345.746Z" fill="#35B6FF"/>
<path d="M219.219 278.508C219.29 279.706 219.334 280.905 219.341 282.113C219.461 301.566 211.029 319.01 197.591 330.85" stroke="black" stroke-width="0.686655" stroke-miterlimit="10"/>
<path d="M182.019 340.959C173.974 344.641 165.019 346.684 155.579 346.678C151.872 346.675 148.236 346.352 144.697 345.746C140.577 345.038 136.582 343.928 132.766 342.462C108.522 333.194 91.1954 309.629 91.0247 282.023C90.804 246.337 119.345 217.425 154.78 217.45C181.464 217.468 204.444 233.891 214.265 257.24" stroke="black" stroke-width="0.686655" stroke-miterlimit="10"/>
<path d="M175.357 318.372C176.816 324.988 178.964 333.051 182.021 340.959C183.35 344.401 184.852 347.815 186.544 351.073C186.599 351.165 186.582 351.275 186.491 351.339C184.358 353.057 158.024 374.606 155.09 399.647C154.883 401.441 154.913 403.252 155.196 405.028C155.914 409.448 158.306 417.273 166.332 419.2C169.171 419.879 172.051 419.927 174.775 419.627C182.865 418.727 190.075 412.144 197.464 403.667C204.203 395.94 214.664 374.426 220.409 357.374C221.275 354.831 220.185 352.003 217.842 350.711C212.947 348.008 204.533 342.11 197.595 330.85C197.439 330.603 197.292 330.347 197.136 330.09C193.73 324.387 191.272 319.344 189.502 315.124" stroke="black" stroke-width="0.686655" stroke-miterlimit="10"/>
<path d="M132.82 342.197L132.767 342.462L127.009 369.14C126.929 369.533 126.412 369.615 126.21 369.258C124.097 365.496 116.237 352.122 107.074 344.036C96.3393 334.558 84.8959 342.648 82.254 347.377C77.6531 355.618 78.8071 361.52 80.9018 368.201C84.3405 379.184 103.363 402.137 117.31 414.042C117.456 414.161 117.593 414.28 117.73 414.39C126.406 421.597 139.482 415.924 140.321 404.679L144.699 345.746L144.716 345.49" stroke="black" stroke-width="0.686655" stroke-miterlimit="10"/>
<path d="M197.142 272.28C202.702 267.728 209.345 262.077 214.267 257.24C217.373 254.187 219.791 251.452 220.824 249.513C220.851 249.468 220.86 249.431 220.851 249.385C220.68 248.186 218.443 231.724 225.411 225.754C231.9 220.186 235.457 232.696 236.109 235.286C236.156 235.469 236.383 235.515 236.501 235.369C237.979 233.467 244.959 225.063 250.593 228.141C256.154 231.174 250.469 240.329 248.992 242.524C248.884 242.698 249.031 242.918 249.231 242.872C251.272 242.425 258.225 241.332 259.575 246.549C260.989 251.966 251.202 256.132 248.937 257.018C248.755 257.082 248.748 257.329 248.912 257.421C250.936 258.52 259.107 263.394 256.944 269.248C254.594 275.606 238.709 267.863 237.215 267.111C237.142 267.075 237.069 267.084 236.997 267.13C236.02 267.797 228.311 272.998 219.223 278.509C214.833 281.178 210.125 283.919 205.697 286.25" stroke="black" stroke-width="0.686655" stroke-miterlimit="10"/>
<path d="M125.722 221.098C125.722 221.098 127.225 207.145 138.006 199.119C148.171 191.55 152.815 184.297 161.662 181.064C170.51 177.822 180.049 174.709 190.202 176.848C196.907 178.262 212.127 181.429 220.459 191.784C226.328 199.09 229.297 209.056 231.028 214.209C236.758 231.278 237.664 241.134 238.84 244.712C242.572 256.107 248.047 276.149 246.275 281.977C244.503 287.795 244.47 291.345 239.557 288.771C234.644 286.196 231.564 287.575 232.311 280.658C233.059 273.741 220.287 259.476 220.287 259.476L164.011 231.648L125.731 221.098L125.722 221.098Z" fill="#FF6169" stroke="black" stroke-width="0.91554" stroke-miterlimit="10"/>
<path d="M259.288 291.74C260.21 288.099 258.314 284.163 254.903 282.01C254.939 281.909 254.975 281.809 255.001 281.699C256.119 277.289 253.109 272.438 248.274 270.86C245.507 269.953 242.738 270.335 240.665 271.642C240.082 271.312 239.462 271.037 238.807 270.826C233.972 269.249 229.144 271.542 228.026 275.952C228 276.071 227.982 276.19 227.956 276.318C226.072 277.259 224.638 278.905 224.088 281.055C222.97 285.464 225.98 290.316 230.814 291.893C231.497 292.114 232.179 292.251 232.861 292.325C233.445 295.647 236.054 298.696 239.695 299.888C243.574 301.153 247.436 299.921 249.391 297.122C253.913 298.159 258.233 295.884 259.288 291.749L259.288 291.74Z" fill="white" stroke="black" stroke-width="0.686655" stroke-miterlimit="10"/>
<path d="M224.95 222.037C224.95 222.037 230.99 249.574 223.305 254.336" stroke="black" stroke-width="0.686655" stroke-miterlimit="10" stroke-linecap="round"/>
<path d="M228.229 219.13C228.229 219.13 229.206 224.31 226.722 229.569" stroke="black" stroke-width="0.686655" stroke-miterlimit="10" stroke-linecap="round"/>
<path d="M229.714 252.044C228.23 245.729 225.149 241.033 211.813 236.915C209.236 236.117 205.945 235.712 203.526 235.336C200.336 232.332 197.705 229.988 192.901 227.477C187.614 224.719 179.893 221.95 174.193 221.407C173.883 221.379 173.565 221.351 173.256 221.314C169.23 218.109 164.848 214.812 158.521 212.858C152.641 211.043 148.051 210.756 143.391 211.045C142.07 210.385 137.218 207.445 133.341 206.399C123.649 203.803 116.508 206.771 114.872 214.099C112.812 223.358 122.218 229.568 131.849 232.531C134.307 233.292 136.717 233.669 138.98 233.716C143.039 237.745 149.558 241.51 157.241 243.886C160.5 244.894 163.675 245.556 166.658 245.896C170.734 249.824 177.135 253.48 184.654 255.8C188.177 256.892 191.606 257.58 194.798 257.894C196.998 259.661 199.58 261.356 202.479 262.895C215.213 269.639 224.603 268.922 229.194 263.518C231.242 261.104 231.689 255.559 229.732 252.044L229.714 252.044Z" fill="white" stroke="black" stroke-width="0.686655" stroke-miterlimit="10"/>
<path d="M124.611 272.467C130.825 273.844 136.942 274.36 142.905 271.775C147.68 269.701 152.337 266.09 154.214 261.059C154.357 260.684 153.756 260.528 153.622 260.894C151.781 265.797 147.133 269.307 142.475 271.29C136.702 273.738 130.766 273.194 124.77 271.872C124.388 271.789 124.219 272.384 124.611 272.467Z" fill="black"/>
<path d="M149.204 259.134C150.942 261.075 153.753 261.59 156.054 260.438C156.407 260.265 156.095 259.725 155.741 259.907C153.676 260.94 151.184 260.426 149.638 258.704C149.372 258.402 148.939 258.841 149.204 259.143L149.204 259.134Z" fill="black"/>
<path d="M129.92 246.639C128.227 246.144 126.298 247.231 124.712 249.298L126.518 251.871L122.959 252.344C122.663 253.039 122.395 253.78 122.182 254.558C120.724 259.754 121.836 264.623 124.657 265.439C127.479 266.255 130.937 262.708 132.395 257.52C133.853 252.324 132.741 247.456 129.92 246.639Z" fill="black" stroke="black" stroke-width="0.274662" stroke-miterlimit="10" stroke-linecap="round"/>
<path d="M146.255 243.53C144.562 243.035 142.633 244.122 141.047 246.189L142.853 248.762L139.294 249.235C138.998 249.93 138.73 250.671 138.517 251.449C137.059 256.645 138.171 261.514 140.992 262.33C143.814 263.146 147.272 259.599 148.73 254.412C150.188 249.215 149.076 244.347 146.255 243.53Z" fill="black" stroke="black" stroke-width="0.274662" stroke-miterlimit="10" stroke-linecap="round"/>
<path d="M195.774 201.309L184.849 250.593L262.25 250.52L274.584 201.365L195.774 201.309Z" fill="#E0E0E0" stroke="black" stroke-width="0.686655" stroke-miterlimit="10"/>
<path d="M195.775 201.31L229 225.975L274.585 201.365" stroke="black" stroke-width="0.686655" stroke-miterlimit="10"/>
<path d="M184.85 250.594L228.999 225.975L262.251 250.521" stroke="black" stroke-width="0.686655" stroke-linecap="round" stroke-linejoin="round"/>
<path d="M229.148 216.057C227.805 214.876 226.498 213.576 224.705 213.117C221.838 212.383 219.114 212.665 216.627 214.411C214.274 216.056 213.963 218.535 214.15 220.924C214.525 225.737 217.437 229.372 220.882 232.604C222.966 234.564 225.203 236.35 227.593 237.971C228.77 238.768 229.625 238.805 230.837 237.973C235.243 234.966 239.283 231.547 242.109 227.111C244.07 224.029 244.893 220.442 243.453 216.809C242.558 214.548 239.677 212.981 237.359 212.787C234.059 212.511 231.395 213.607 229.302 216.048" fill="#F42762"/>
<path d="M229.148 216.057C227.805 214.876 226.498 213.576 224.705 213.117C221.838 212.383 219.114 212.665 216.627 214.411C214.274 216.056 213.963 218.535 214.15 220.924C214.525 225.737 217.437 229.372 220.882 232.604C222.966 234.564 225.203 236.35 227.593 237.971C228.77 238.768 229.625 238.805 230.837 237.973C235.243 234.966 239.283 231.547 242.109 227.111C244.07 224.029 244.893 220.442 243.453 216.809C242.558 214.548 239.677 212.981 237.359 212.787C234.059 212.511 231.395 213.607 229.302 216.048" stroke="black" stroke-width="0.686655" stroke-linecap="round" stroke-linejoin="round"/>
<path d="M197.142 272.28C206.2 264.865 218.139 254.534 220.824 249.522C220.851 249.476 220.86 249.439 220.851 249.384C220.68 248.195 218.443 231.732 225.411 225.762C231.909 220.194 235.457 232.705 236.109 235.295C236.156 235.478 236.392 235.524 236.501 235.377C237.979 233.475 244.959 225.071 250.593 228.15C256.154 231.191 250.469 240.337 248.992 242.542C248.875 242.706 249.031 242.926 249.231 242.88C251.272 242.443 258.225 241.34 259.575 246.557C260.98 251.975 251.202 256.14 248.936 257.026C248.755 257.099 248.748 257.337 248.912 257.429C250.926 258.528 259.097 263.402 256.935 269.256C254.594 275.614 238.7 267.862 237.206 267.12C237.133 267.083 237.051 267.092 236.988 267.138C235.531 268.125 219.245 279.112 205.678 286.258" fill="#35B6FF"/>
<path d="M197.142 272.28C206.2 264.865 218.139 254.534 220.824 249.522C220.851 249.476 220.86 249.439 220.851 249.384C220.68 248.195 218.443 231.732 225.411 225.762C231.909 220.194 235.457 232.705 236.109 235.295C236.156 235.478 236.392 235.524 236.501 235.377C237.979 233.475 244.959 225.071 250.593 228.15C256.154 231.191 250.469 240.337 248.992 242.542C248.875 242.706 249.031 242.926 249.231 242.88C251.272 242.443 258.225 241.34 259.575 246.557C260.98 251.975 251.202 256.14 248.936 257.026C248.755 257.099 248.748 257.337 248.912 257.429C250.926 258.528 259.097 263.402 256.935 269.256C254.594 275.614 238.7 267.862 237.206 267.12C237.133 267.083 237.051 267.092 236.988 267.138C235.531 268.125 219.245 279.112 205.678 286.258" stroke="black" stroke-width="0.686655" stroke-miterlimit="10"/>
<path d="M265.841 327.346C268.151 327.346 270.024 325.473 270.024 323.163C270.024 320.853 268.151 318.98 265.841 318.98C263.531 318.98 261.658 320.853 261.658 323.163C261.658 325.473 263.531 327.346 265.841 327.346Z" fill="white" stroke="black" stroke-width="0.410199" stroke-miterlimit="10"/>
</g>
</g>
<path d="M54.4819 281.246C56.8859 281.246 58.8348 279.297 58.8348 276.893C58.8348 274.489 56.8859 272.54 54.4819 272.54C52.0778 272.54 50.1289 274.489 50.1289 276.893C50.1289 279.297 52.0778 281.246 54.4819 281.246Z" fill="white" stroke="black" stroke-width="0.426883" stroke-miterlimit="10"/>
<path d="M76.4988 229.389C76.1435 227.89 76.1958 226.358 76.7705 224.955C78.1706 221.536 82.1518 219.971 86.321 220.878C85.391 220.014 84.6073 219.011 84.0326 217.889C81.692 213.348 83.6251 208.644 88.3481 207.382C90.7096 206.745 93.3114 207.101 95.6311 208.169L95.7147 207.975C92.0157 205.354 90.2289 201.017 91.6814 197.478C93.1338 193.951 97.3343 192.387 101.65 193.498L101.733 193.304C96.7492 190.984 94.0638 185.784 95.7565 181.674C97.1254 178.341 100.939 176.766 104.983 177.521C99.6332 174.015 96.791 168.103 98.1076 163C95.4953 167.499 89.487 169.3 83.437 167.51C86.718 170.163 88.2123 174.209 86.8539 177.542C85.1716 181.653 79.7589 183.098 74.7747 180.779L74.6911 180.973C78.3901 183.594 80.1769 187.931 78.7244 191.47C77.272 194.997 73.0715 196.562 68.756 195.45L68.6724 195.645C70.9816 196.723 72.9983 198.514 74.1686 200.79C76.5092 205.332 74.5761 210.036 69.8531 211.298C68.6828 211.611 67.4603 211.686 66.2377 211.546C69.6964 214.189 71.316 218.364 69.9158 221.773C69.3307 223.197 68.2962 224.287 66.9901 225.031C62.3507 223.132 63.7613 219.432 61.1386 225.829C58.1919 233.025 66.3213 229.724 70.3233 231.633C75.1822 233.963 77.2616 241.957 80.2187 234.762C82.8832 228.267 80.6889 232.302 76.5197 229.389H76.4988Z" fill="#8FEFA6" stroke="black" stroke-width="0.561938" stroke-linecap="round" stroke-linejoin="round"/>
<path d="M93.3014 174.683L75.8096 217.339" stroke="black" stroke-width="0.561938" stroke-linecap="round" stroke-linejoin="round"/>
<path d="M57.0836 236.445C56.4567 235.042 55.4849 233.888 54.1892 233.165C51.0231 231.407 46.9688 232.755 44.273 236.154C44.4715 234.881 44.4715 233.586 44.2416 232.346C43.3116 227.297 38.9544 224.869 34.503 226.93C32.2774 227.966 30.4592 229.918 29.3098 232.248L29.1322 232.151C30.4279 227.717 29.1844 223.176 25.9138 221.363C22.6433 219.551 18.4218 221.051 15.7259 224.697L15.5483 224.6C18.0352 219.573 16.9589 213.779 13.1659 211.665C10.0834 209.95 6.15454 211.18 3.44821 214.394C5.48579 208.202 4.12741 201.751 0 198.633C4.7648 200.456 10.5432 197.975 14.1795 192.667C13.2286 196.853 14.5138 200.985 17.5963 202.7C21.3998 204.815 26.499 202.452 28.9754 197.414L29.1531 197.511C27.8574 201.945 29.1008 206.487 32.3714 208.299C35.642 210.112 39.8634 208.612 42.5593 204.966L42.7369 205.063C41.5875 207.393 41.1069 210.101 41.5771 212.625C42.5071 217.674 46.8644 220.101 51.3157 218.041C52.4128 217.534 53.416 216.789 54.2832 215.894C53.1965 220.188 54.4504 224.492 57.6165 226.25C58.9331 226.984 60.4064 227.167 61.8798 226.898C64.3458 222.421 61.002 220.446 66.9267 223.737C73.5932 227.437 65.2444 230.123 63.2799 234.201C60.8975 239.163 64.1263 246.737 57.4702 243.036C51.4515 239.692 55.6207 241.429 57.0941 236.467L57.0836 236.445Z" fill="#8FEFA6" stroke="black" stroke-width="0.561938" stroke-linecap="round" stroke-linejoin="round"/>
<path d="M10.8057 204.641L50.3243 226.595" stroke="black" stroke-width="0.561938" stroke-linecap="round" stroke-linejoin="round"/>
<path d="M68.8924 239.864C71.1181 246.38 67.7953 253.532 61.484 255.819C55.1727 258.117 48.2449 254.687 46.0297 248.171C43.804 241.655 47.1269 234.502 53.4381 232.215C59.7494 229.917 66.6772 233.348 68.8924 239.864Z" fill="#F96E6E" stroke="black" stroke-width="0.561938" stroke-miterlimit="10"/>
<path d="M91.7655 231.557C93.9911 238.073 90.6683 245.225 84.357 247.512C78.0458 249.81 71.118 246.379 68.9028 239.863C66.6771 233.348 69.9999 226.195 76.3112 223.908C82.6225 221.61 89.5502 225.041 91.7655 231.557Z" fill="#F96E6E" stroke="black" stroke-width="0.561938" stroke-miterlimit="10"/>
<path d="M76.3006 223.899C78.5263 230.414 75.2035 237.567 68.8922 239.854C62.5809 242.152 55.6531 238.721 53.4379 232.205C51.2123 225.689 54.5351 218.537 60.8463 216.25C67.1576 213.952 74.0854 217.383 76.3006 223.899Z" fill="#F96E6E" stroke="black" stroke-width="0.561938" stroke-miterlimit="10"/>
<path d="M72.7046 224.761C74.251 229.302 71.9418 234.286 67.5322 235.894" stroke="black" stroke-width="0.561938" stroke-miterlimit="10" stroke-linecap="round"/>
<path d="M88.0868 234.395C88.9541 236.94 87.742 240.619 84.6699 242.194" stroke="black" stroke-width="0.561938" stroke-miterlimit="10" stroke-linecap="round"/>
</g>
<defs>
<linearGradient id="paint0_linear_1836_10480" x1="171" y1="0" x2="171" y2="390" gradientUnits="userSpaceOnUse">
<stop stop-color="#CFEFFF"/>
<stop offset="1" stop-color="#73CCFF"/>
</linearGradient>
<linearGradient id="paint1_linear_1836_10480" x1="171" y1="-1.09764e-08" x2="171.263" y2="485.476" gradientUnits="userSpaceOnUse">
<stop stop-color="#AEE2FF"/>
<stop offset="1" stop-color="#FFE6F0"/>
</linearGradient>
<linearGradient id="paint2_linear_1836_10480" x1="170.945" y1="0" x2="170.945" y2="406" gradientUnits="userSpaceOnUse">
<stop stop-color="#CFEFFF"/>
<stop offset="1" stop-color="#73CCFF"/>
</linearGradient>
<linearGradient id="paint3_linear_1836_10480" x1="170.945" y1="-1.14267e-08" x2="171.229" y2="505.393" gradientUnits="userSpaceOnUse">
<stop stop-color="#AEE2FF"/>
<stop offset="1" stop-color="#FFE6F0"/>
</linearGradient>
<clipPath id="clip0_1836_10480">
<rect width="199.105" height="245" fill="white" transform="translate(73.999 174)"/>
</clipPath>
<clipPath id="clip1_1836_10480">
<rect width="90.2571" height="78" fill="white" transform="translate(1 168)"/>
</clipPath>
<clipPath id="clip2_1836_10480">
<path d="M77.5918 175.606L274.871 175.745L276.216 393.182C276.308 408.115 264.297 420.211 249.389 420.201L106.098 420.1C91.1897 420.089 79.029 407.975 78.9367 393.043L77.5918 175.606Z" fill="white"/>
</clipPath>
</defs>
</svg>
