<svg width="40" height="40" viewBox="0 0 40 40" fill="none" xmlns="http://www.w3.org/2000/svg">
<mask id="mask0_194_517" style="mask-type:alpha" maskUnits="userSpaceOnUse" x="0" y="0" width="40" height="40">
<circle cx="20" cy="20" r="20" fill="white"/>
</mask>
<g mask="url(#mask0_194_517)">
<path d="M42.6029 62.0722H42.598C38.2454 64.0544 33.4126 65.1561 28.3199 65.1561C26.3201 65.1561 24.3595 64.984 22.4528 64.6594C20.2276 64.2806 18.0758 63.6855 16.0221 62.8985C2.97922 57.9259 -6.2944 45.2606 -6.2944 30.4262C-6.2944 11.2439 9.20411 -4.30859 28.3199 -4.30859C42.7107 -4.30859 55.0527 4.51038 60.2728 17.0576C61.9589 15.4148 63.2774 13.9442 63.841 12.9014C63.8508 12.8768 63.8557 12.8572 63.8557 12.8276C63.7626 12.1882 62.6157 3.33976 66.3898 0.127942C69.914 -2.86746 71.7864 3.85621 72.1295 5.24816C72.154 5.34653 72.2814 5.37112 72.3451 5.29242C73.149 4.26937 76.9427 -0.250786 79.9718 1.40185C82.9618 3.02989 79.864 7.95336 79.0602 9.13382C78.9965 9.22727 79.0798 9.34039 79.1827 9.32072C80.2904 9.07971 84.045 8.48948 84.7557 11.2931C85.4958 14.2048 80.2071 16.4477 78.9817 16.9248C78.8837 16.9592 78.8739 17.092 78.967 17.1412C80.0503 17.7314 84.442 20.3481 83.2558 23.496C81.9716 26.9144 73.4235 22.7533 72.6245 22.3549C72.5853 22.3352 72.5412 22.3401 72.5069 22.3647C71.9726 22.7189 67.7916 25.5224 62.8754 28.4883C62.9146 29.1327 62.9294 29.777 62.9294 30.4262C62.9294 40.8831 58.322 50.2578 51.0383 56.6274C54.7439 62.6821 59.2581 65.8497 61.8902 67.3006C63.1548 67.9941 63.7283 69.514 63.2578 70.8813C60.0963 80.0495 54.3861 91.618 50.7197 95.7741C46.7103 100.329 42.794 103.87 38.4268 104.362C36.9613 104.524 35.4075 104.5 33.8782 104.136C29.5551 103.103 28.2856 98.8974 27.9131 96.5218C27.7661 95.5626 27.7612 94.5888 27.8788 93.6297C29.5453 80.1676 43.8184 68.5696 44.9801 67.6499C45.0242 67.6154 45.034 67.5564 45.0095 67.5023C44.1076 65.7513 43.3087 63.9216 42.6029 62.0722Z" fill="#35B6FF"/>
<path d="M42.598 62.0722C38.2454 64.0544 33.4126 65.1561 28.3199 65.1561C26.3201 65.1561 24.3595 64.984 22.4528 64.6594C20.2276 64.2806 18.0758 63.6855 16.0221 62.8985C2.97922 57.9259 -6.2944 45.2606 -6.2944 30.4262C-6.2944 11.2439 9.20411 -4.30859 28.3199 -4.30859C42.7107 -4.30859 55.0527 4.51037 60.2727 17.0576" stroke="black" stroke-width="0.475116" stroke-miterlimit="10"/>
<path d="M11.8558 25.2761C15.2035 26.0139 18.5022 26.2893 21.7274 24.8974C24.3105 23.7809 26.8348 21.838 27.8641 19.1328C27.9425 18.9312 27.619 18.8475 27.5455 19.0443C26.5407 21.6806 24.0164 23.5694 21.497 24.6367C18.3748 25.9549 15.1741 25.6647 11.944 24.9564C11.7382 24.9121 11.645 25.2318 11.8558 25.2761Z" fill="black"/>
<path d="M25.1683 18.0951C26.0995 19.1378 27.6141 19.4132 28.8591 18.7935C29.0502 18.7 28.8836 18.4098 28.6924 18.5082C27.5749 19.064 26.2319 18.7886 25.4035 17.8639C25.2614 17.7016 25.0261 17.9377 25.1683 18.1V18.0951Z" fill="black"/>
<path d="M14.8065 11.3862C13.8949 11.1206 12.8508 11.7059 11.9882 12.8175L12.9538 14.1996L11.0324 14.4554C10.8706 14.8292 10.7236 15.2276 10.606 15.6457C9.80211 18.4394 10.3854 21.0561 11.9048 21.4939C13.4243 21.9316 15.3016 20.0232 16.1054 17.2344C16.9093 14.4406 16.326 11.824 14.8065 11.3862Z" fill="black" stroke="black" stroke-width="0.190047" stroke-miterlimit="10" stroke-linecap="round"/>
<path d="M23.6292 9.71386C22.7175 9.44826 21.6735 10.0336 20.8109 11.1452L21.7764 12.5273L19.8551 12.783C19.6933 13.1568 19.5463 13.5553 19.4286 13.9733C18.6248 16.7671 19.2081 19.3837 20.7275 19.8215C22.247 20.2592 24.1243 18.3508 24.9281 15.562C25.7319 12.7683 25.1487 10.1516 23.6292 9.71386Z" fill="black" stroke="black" stroke-width="0.190047" stroke-miterlimit="10" stroke-linecap="round"/>
</g>
</svg>
