<svg width="142" height="21" viewBox="0 0 142 21" fill="none" xmlns="http://www.w3.org/2000/svg">
<g clip-path="url(#clip0_1440_3592)">
<path d="M0 19.9219V0.916278H4.76371V16.0006H12.7541V19.9219H0ZM9.37963 6.49776H14.8626V0.270935H19.7741V20.0697H14.8626V10.9166H9.37963V6.50268V6.49776Z" fill="#35B6FF"/>
<path d="M27.8136 0.472913C31.2127 0.472913 33.0256 2.45821 33.0256 5.83271V7.62095H34.3409V0.270935H38.5578V20.0697H34.3409V12.03H33.0256V14.6852C33.0256 18.0597 31.2127 20.0204 27.8136 20.0204C24.4144 20.0204 22.6016 18.0597 22.6016 14.6852V5.83271C22.6016 2.45821 24.4144 0.472913 27.8136 0.472913ZM30.4245 14.4389L28.4146 5.53221C28.3555 5.27111 28.1239 5.08884 27.8579 5.08884C27.587 5.08884 27.3554 5.27604 27.3012 5.53713L25.3701 14.4439C25.2913 14.7985 25.5623 15.1385 25.9268 15.1385H29.8678C30.2324 15.1385 30.5082 14.7985 30.4245 14.4389ZM39.8977 0.270935H44.1393V20.0697H39.8977V0.270935Z" fill="#35B6FF"/>
<path d="M46.1987 4.8376V0.916278H55.5537V6.92142H57.7853V0.270935H62.1254V20.0697H57.7853V11.3354H55.5537V20.0697H50.9378V4.8376H46.1987ZM63.5885 0.270935H67.9532V20.0697H63.5885V0.270935Z" fill="#35B6FF"/>
<path d="M73.9927 0.472893H86.0276V3.82276H78.7564V5.11345H86.8207V8.43869H73.9927V0.472893ZM74.6626 10.5964H81.5348V9.03477H86.6729V10.5964H93.5451V13.5965H74.6626V10.5964ZM79.5495 14.4192H88.6286C91.7815 14.4192 93.0721 15.4882 93.0721 17.572C93.0721 19.6558 91.7815 20.7495 88.6286 20.7495H79.5495C76.3967 20.7495 75.106 19.6805 75.106 17.572C75.106 15.4636 76.3967 14.4192 79.5495 14.4192ZM88.407 17.3208V16.5769L79.648 17.9168V18.6607L88.407 17.3208ZM95.9737 2.58627V6.48295H93.5155V9.40916H88.604V0.197021H93.5155V2.58134H95.9737V2.58627Z" fill="#35B6FF"/>
<path d="M97.6831 0.842365H109.767V19.9958H104.831V4.76369H97.688V0.842365H97.6831ZM118.6 19.9958H113.689V0.197021H118.6V19.9958Z" fill="#35B6FF"/>
<path d="M121.157 9.28112H141.995V11.8871H121.157V9.28112ZM122.098 17.5425L139.266 15.5818H122.098V12.7295H141.177V15.9809L125.945 17.7691H141.354V20.8431H122.103V17.5425H122.098ZM122.122 3.02966H136.064V2.35969H122.122V0H141.005V5.38443H127.162V6.02977H141.256V8.4338H122.127V3.02474L122.122 3.02966Z" fill="#35B6FF"/>
</g>
<defs>
<clipPath id="clip0_1440_3592">
<rect width="142" height="20.8382" fill="white"/>
</clipPath>
</defs>
</svg>
