<svg width="390" height="844" viewBox="0 0 390 844" fill="none" xmlns="http://www.w3.org/2000/svg">
<mask id="mask0_315_2609" style="mask-type:alpha" maskUnits="userSpaceOnUse" x="0" y="0" width="390" height="844">
<rect width="390" height="844" fill="white"/>
</mask>
<g mask="url(#mask0_315_2609)">
<rect width="390" height="844" fill="url(#paint0_linear_315_2609)"/>
<path d="M542.95 246.544L479.644 237.351C441.759 231.843 403.43 243.864 375.457 270.005C360.145 284.311 338.39 289.376 318.339 283.296L255.722 264.309C229 256.21 202.052 276.261 202.131 304.185C202.17 316.324 189.499 324.344 178.543 319.103L151.161 306.008C144.362 302.756 136.706 308.481 137.908 315.93C142.125 341.863 117.039 362.87 92.2491 354.16L-123.761 278.281L-112.026 350.495L130.282 395.642C152.343 399.75 172.434 382.103 171.202 359.688L170.808 352.633C170.443 346.021 176.877 341.144 183.134 343.282L202.17 349.746C213.886 353.736 226.064 345.046 226.104 332.67C226.222 303.229 255.791 283.021 283.271 293.613L323.787 309.24C347.504 318.393 374.422 312.008 391.518 293.179C415.746 266.467 449.7 250.604 485.743 249.165L542.645 246.889C543.088 246.879 543.334 246.594 542.95 246.525L542.95 246.544Z" fill="#9CFFA6" stroke="black" stroke-width="0.5" stroke-miterlimit="10"/>
<path d="M188.966 178.527C198.919 159.737 217.585 146.227 240.342 142.537C273.688 137.122 306.703 155.868 318.542 186.926C330.801 219.057 319.275 254.547 290.557 273.114C272.607 284.721 250.037 287.276 230.112 280.932C229.522 278.913 228.825 276.911 228.03 274.928L224.375 265.832C227.869 264.956 231.38 264.295 235.026 264.134C237.242 264.027 239.493 263.187 241.62 262.356C249.795 259.139 255.246 251.214 255.058 242.44C254.853 232.656 249.197 224.704 240.423 221.88C234.731 220.058 229.406 220.951 224.331 224.051C223.526 224.543 222.141 224.82 221.337 224.48C212.983 220.88 204.03 226.08 203.601 235.265C203.44 238.785 202.082 239.688 199.009 240.206C186.044 242.422 173.293 241.52 160.597 238.303C158.309 237.722 155.87 237.731 153.511 237.383C149.633 236.802 145.514 236.802 141.958 235.399C135.141 232.701 133.13 226.705 133.336 219.816C133.506 213.928 135.891 209.3 141.529 206.986C145.809 205.243 150.259 205.842 154.601 207.057C155.102 207.191 160.695 208.192 160.695 208.192C160.695 208.192 162.232 202.563 167.959 202.777C170.863 202.92 173.168 205.172 173.374 208.067C173.57 210.854 173.32 213.714 172.981 216.501C172.614 219.495 172.981 220.531 176.028 220.647C177.314 220.692 179.825 220.754 181.576 220.79C182.416 220.808 183.015 219.968 182.702 219.182C182.077 217.574 181.281 214.768 181.147 210.649C181.103 198.971 183.908 188.052 188.974 178.501L188.966 178.527Z" fill="#00FFFF"/>
<path d="M224.366 265.841C219.613 267.011 214.904 268.602 209.981 269.924C209.713 269.987 209.641 270.335 209.856 270.505C210.32 270.889 210.597 271.121 210.892 271.327C216.798 275.562 223.303 278.77 230.112 280.932C239.449 312.759 223.249 347.078 191.834 359.695C183.873 362.893 175.661 364.403 167.575 364.403C141.735 364.403 117.28 348.937 107.067 323.49L70.7101 232.969C57.2985 199.569 73.5067 161.622 106.906 148.202C138.277 135.612 173.669 149.149 188.957 178.527C183.891 188.079 181.085 198.998 181.13 210.676C181.264 214.795 182.059 217.609 182.684 219.209C182.988 219.995 182.389 220.826 181.558 220.817C179.807 220.772 177.296 220.719 176.01 220.674C172.954 220.558 172.597 219.521 172.963 216.528C173.302 213.74 173.553 210.89 173.356 208.093C173.151 205.198 170.845 202.947 167.941 202.804C162.214 202.589 160.677 208.218 160.677 208.218C160.677 208.218 155.084 207.218 154.584 207.084C150.241 205.869 145.8 205.27 141.512 207.012C135.873 209.318 133.488 213.946 133.318 219.843C133.113 226.723 135.123 232.718 141.94 235.426C145.497 236.829 149.616 236.829 153.493 237.409C155.852 237.758 158.283 237.749 160.579 238.33C173.267 241.546 186.026 242.449 198.991 240.233C202.064 239.706 203.423 238.803 203.583 235.292C204.012 226.106 212.965 220.906 221.319 224.507C222.124 224.847 223.509 224.57 224.313 224.078C229.388 220.978 234.713 220.084 240.405 221.907C249.17 224.722 254.835 232.674 255.04 242.467C255.228 251.241 249.769 259.166 241.602 262.383C239.484 263.214 237.233 264.054 235.008 264.161C231.363 264.322 227.851 264.974 224.357 265.859L224.366 265.841Z" fill="#37A0FF"/>
<path d="M228.021 274.928C228.816 276.911 229.513 278.913 230.103 280.932C223.294 278.77 216.789 275.562 210.883 271.327C210.589 271.121 210.32 270.889 209.847 270.505C209.641 270.335 209.713 269.986 209.972 269.924C214.895 268.602 219.604 267.011 224.357 265.841L228.012 274.936L228.021 274.928Z" fill="#00FFFF"/>
<path d="M230.103 280.932C239.44 312.759 223.241 347.078 191.825 359.695C183.864 362.893 175.652 364.403 167.566 364.403C141.726 364.403 117.271 348.937 107.058 323.49L70.7101 232.969C57.2985 199.569 73.5067 161.622 106.906 148.202C138.277 135.612 173.669 149.149 188.957 178.527" stroke="black" stroke-width="0.68" stroke-miterlimit="10"/>
<path d="M230.103 280.932C223.294 278.77 216.79 275.562 210.884 271.327C210.589 271.121 210.321 270.889 209.847 270.505C209.642 270.335 209.713 269.986 209.972 269.924C214.895 268.602 219.604 267.011 224.358 265.841C227.851 264.965 231.363 264.304 235.008 264.143C237.224 264.036 239.476 263.196 241.602 262.365C249.778 259.148 255.228 251.223 255.041 242.449C254.835 232.665 249.179 224.712 240.405 221.889C234.713 220.066 229.388 220.96 224.313 224.06C223.509 224.552 222.124 224.829 221.32 224.489C212.965 220.888 204.012 226.088 203.584 235.274C203.423 238.794 202.065 239.697 198.991 240.215C186.026 242.431 173.276 241.528 160.579 238.312C158.292 237.731 155.852 237.74 153.494 237.391C149.616 236.811 145.497 236.811 141.941 235.408C135.123 232.709 133.113 226.714 133.318 219.825C133.488 213.937 135.874 209.308 141.512 206.994C145.792 205.252 150.241 205.851 154.584 207.066C155.084 207.2 160.677 208.2 160.677 208.2C160.677 208.2 162.214 202.571 167.942 202.786C170.846 202.929 173.151 205.18 173.356 208.075C173.553 210.863 173.303 213.722 172.963 216.51C172.597 219.503 172.963 220.54 176.01 220.656C177.297 220.701 179.807 220.763 181.559 220.799C182.399 220.817 182.997 219.977 182.684 219.191C182.059 217.582 181.264 214.777 181.13 210.658C181.085 198.98 183.891 188.061 188.957 178.509C198.911 159.719 217.576 146.209 240.334 142.519C273.679 137.104 306.694 155.85 318.533 186.908C330.792 219.039 319.266 254.529 290.549 273.096C272.598 284.703 250.028 287.258 230.103 280.914V280.932Z" stroke="black" stroke-width="0.7" stroke-miterlimit="10"/>
<path d="M209.945 207.843C216.083 209.174 222.722 209.478 228.628 207.021C233.31 205.073 237.304 201.481 239.127 196.683C239.27 196.317 238.68 196.165 238.546 196.522C236.723 201.321 232.578 204.868 227.851 206.682C222.195 208.853 215.923 208.522 210.106 207.253C209.731 207.173 209.561 207.754 209.945 207.834V207.843Z" fill="black"/>
<path d="M234.213 194.807C235.91 196.701 238.671 197.201 240.941 196.076C241.289 195.906 240.985 195.379 240.637 195.557C238.6 196.567 236.151 196.067 234.641 194.387C234.382 194.092 233.953 194.521 234.213 194.816V194.807Z" fill="black"/>
<path d="M215.324 182.619C213.662 182.137 211.759 183.2 210.186 185.22L211.947 187.73L208.444 188.195C208.149 188.874 207.881 189.598 207.667 190.357C206.201 195.432 207.265 200.186 210.035 200.981C212.804 201.776 216.227 198.309 217.692 193.243C219.157 188.168 218.094 183.415 215.324 182.619Z" fill="black" stroke="black" stroke-width="0.3" stroke-miterlimit="10" stroke-linecap="round"/>
<path d="M231.407 179.573C229.745 179.09 227.842 180.153 226.269 182.173L228.03 184.683L224.527 185.148C224.232 185.827 223.964 186.551 223.75 187.31C222.284 192.385 223.348 197.139 226.118 197.934C228.887 198.729 232.31 195.263 233.775 190.196C235.24 185.121 234.177 180.368 231.407 179.573Z" fill="black" stroke="black" stroke-width="0.3" stroke-miterlimit="10" stroke-linecap="round"/>
<path d="M121.738 188.856C130.477 192.109 140.949 192.814 148.267 186.059C148.553 185.791 148.124 185.371 147.838 185.631C140.681 192.243 130.414 191.447 121.899 188.275C121.533 188.141 121.372 188.722 121.738 188.856Z" fill="black"/>
<path d="M132.594 164.365C131.004 163.686 128.985 164.499 127.18 166.313L128.618 169.02L125.08 169.047C124.705 169.681 124.347 170.369 124.044 171.093C121.971 175.945 122.435 180.797 125.08 181.931C127.725 183.066 131.558 180.046 133.631 175.194C135.704 170.343 135.239 165.491 132.594 164.356V164.365Z" fill="black" stroke="black" stroke-width="0.3" stroke-miterlimit="10" stroke-linecap="round"/>
<path d="M148.927 163.329C147.337 162.65 145.318 163.463 143.513 165.277L144.951 167.984L141.413 168.011C141.038 168.645 140.68 169.333 140.377 170.057C138.304 174.909 138.768 179.76 141.413 180.895C144.058 182.03 147.891 179.01 149.964 174.158C152.037 169.306 151.572 164.455 148.927 163.32V163.329Z" fill="black" stroke="black" stroke-width="0.3" stroke-miterlimit="10" stroke-linecap="round"/>
<path d="M33.8598 185.72C39.3053 185.72 43.7197 181.305 43.7197 175.86C43.7197 170.414 39.3053 166 33.8598 166C28.4144 166 24 170.414 24 175.86C24 181.305 28.4144 185.72 33.8598 185.72Z" fill="#9CFFA6" stroke="black" stroke-width="0.5" stroke-miterlimit="10"/>
<path d="M41.0985 174.197C43.9144 174.197 46.1971 171.914 46.1971 169.099C46.1971 166.283 43.9144 164 41.0985 164C38.2827 164 36 166.283 36 169.099C36 171.914 38.2827 174.197 41.0985 174.197Z" fill="#9CFFA6" stroke="black" stroke-width="0.5" stroke-miterlimit="10"/>
<path d="M277 137.839C295.215 136.59 303.19 131.093 303.77 113C305.455 131.019 313.467 136.031 332 136.161C313.486 137.41 305.792 142.907 305.23 161C303.564 142.981 295.252 137.969 277 137.839Z" fill="#9CFFA6" stroke="black" stroke-width="0.5" stroke-miterlimit="10"/>
<path d="M308 146.146C315.617 145.184 318.952 140.947 319.195 127C319.899 140.889 323.25 144.753 331 144.854C323.258 145.816 320.04 150.053 319.805 164C319.109 150.111 315.633 146.247 308 146.146Z" fill="#9CFFA6" stroke="black" stroke-width="0.5" stroke-miterlimit="10"/>
<path d="M33.8598 691.72C39.3053 691.72 43.7197 687.305 43.7197 681.86C43.7197 676.414 39.3053 672 33.8598 672C28.4144 672 24 676.414 24 681.86C24 687.305 28.4144 691.72 33.8598 691.72Z" fill="#9CFFA6" stroke="black" stroke-width="0.5" stroke-miterlimit="10"/>
<path d="M41.0985 680.197C43.9144 680.197 46.1971 677.914 46.1971 675.099C46.1971 672.283 43.9144 670 41.0985 670C38.2827 670 36 672.283 36 675.099C36 677.914 38.2827 680.197 41.0985 680.197Z" fill="#9CFFA6" stroke="black" stroke-width="0.5" stroke-miterlimit="10"/>
<path d="M273 663.839C291.215 662.59 299.19 657.093 299.77 639C301.455 657.019 309.467 662.031 328 662.161C309.486 663.41 301.792 668.907 301.23 687C299.564 668.981 291.252 663.969 273 663.839Z" fill="#9CFFA6" stroke="black" stroke-width="0.5" stroke-miterlimit="10"/>
<path d="M330 680.146C337.617 679.184 340.952 674.947 341.195 661C341.899 674.889 345.25 678.753 353 678.854C345.258 679.816 342.04 684.053 341.805 698C341.109 684.111 337.633 680.247 330 680.146Z" fill="#9CFFA6" stroke="black" stroke-width="0.5" stroke-miterlimit="10"/>
</g>
<defs>
<linearGradient id="paint0_linear_315_2609" x1="195" y1="0" x2="195" y2="844" gradientUnits="userSpaceOnUse">
<stop stop-color="#9FDFFF"/>
<stop offset="1" stop-color="#3AB7FF"/>
</linearGradient>
</defs>
</svg>
