<svg width="170" height="25" viewBox="0 0 170 25" fill="none" xmlns="http://www.w3.org/2000/svg">
<g clip-path="url(#clip0_332_2416)">
<path d="M0 23.8501V1.09696H5.70303V19.1556H15.269V23.8501H0ZM11.2291 7.77902H17.7932V0.324371H23.6732V24.0271H17.7932V13.0692H11.2291V7.78491V7.77902Z" fill="white"/>
<path d="M33.2982 0.566175C37.3676 0.566175 39.5379 2.94293 39.5379 6.98283V9.12368H41.1126V0.324371H46.161V24.0271H41.1126V14.4021H39.5379V17.5809C39.5379 21.6208 37.3676 23.9681 33.2982 23.9681C29.2288 23.9681 27.0585 21.6208 27.0585 17.5809V6.98283C27.0585 2.94293 29.2288 0.566175 33.2982 0.566175ZM36.424 17.286L34.0177 6.62307C33.9469 6.3105 33.6697 6.09228 33.3513 6.09228C33.0269 6.09228 32.7497 6.3164 32.6848 6.62897L30.373 17.2919C30.2786 17.7166 30.603 18.1235 31.0394 18.1235H35.7575C36.1939 18.1235 36.5242 17.7166 36.424 17.286ZM47.7652 0.324371H52.843V24.0271H47.7652V0.324371Z" fill="white"/>
<path d="M55.3082 5.7915V1.09696H66.5079V8.28621H69.1795V0.324371H74.3754V24.0271H69.1795V13.5705H66.5079V24.0271H60.9818V5.7915H55.3082ZM76.127 0.324371H81.3523V24.0271H76.127V0.324371Z" fill="white"/>
<path d="M88.5829 0.56617H102.991V4.57658H94.2859V6.12176H103.94V10.1027H88.5829V0.56617ZM89.385 12.6859H97.6122V10.8163H103.763V12.6859H111.991V16.2775H89.385V12.6859ZM95.2354 17.2624H106.105C109.879 17.2624 111.425 18.5422 111.425 21.0369C111.425 23.5316 109.879 24.8409 106.105 24.8409H95.2354C91.4609 24.8409 89.9158 23.5611 89.9158 21.0369C89.9158 18.5127 91.4609 17.2624 95.2354 17.2624ZM105.839 20.7362V19.8456L95.3534 21.4498V22.3403L105.839 20.7362ZM114.898 3.09626V7.76131H111.955V11.2645H106.075V0.235901H111.955V3.09037H114.898V3.09626Z" fill="white"/>
<path d="M116.945 1.00849H131.412V23.9386H125.502V5.70303H116.95V1.00849H116.945ZM141.986 23.9386H136.106V0.235901H141.986V23.9386Z" fill="white"/>
<path d="M145.047 11.1112H169.994V14.2311H145.047V11.1112ZM146.174 21.0016L166.727 18.6543H146.174V15.2396H169.015V19.132L150.78 21.2729H169.228V24.953H146.179V21.0016H146.174ZM146.203 3.62706H162.893V2.82498H146.203V0H168.809V6.44614H152.236V7.21874H169.11V10.0968H146.209V3.62116L146.203 3.62706Z" fill="white"/>
</g>
<defs>
<clipPath id="clip0_332_2416">
<rect width="170" height="24.9471" fill="white"/>
</clipPath>
</defs>
</svg>
