<svg width="54" height="54" viewBox="0 0 54 54" fill="none" xmlns="http://www.w3.org/2000/svg">
<g clip-path="url(#clip0_426_3001)">
<mask id="mask0_426_3001" style="mask-type:alpha" maskUnits="userSpaceOnUse" x="-75" y="-41" width="161" height="102">
<rect x="-74.4688" y="-40.0132" width="159.938" height="101.013" rx="7.48246" fill="white"/>
</mask>
<g mask="url(#mask0_426_3001)">
<mask id="mask1_426_3001" style="mask-type:alpha" maskUnits="userSpaceOnUse" x="-75" y="-41" width="161" height="102">
<rect x="-74.4688" y="-40.0132" width="159.938" height="101.013" rx="7.48246" fill="white"/>
</mask>
<g mask="url(#mask1_426_3001)">
<rect x="-74.4688" y="-40.0132" width="159.938" height="101.013" fill="url(#paint0_linear_426_3001)"/>
<path d="M13.1079 14.0136C17.7628 5.22618 26.4917 -1.09174 37.1344 -2.81746C52.7286 -5.34964 68.1683 3.41688 73.7048 17.9414C79.4377 32.9673 74.0474 49.5644 60.6177 58.2474C52.223 63.6752 41.6681 64.8703 32.35 61.9035C32.0742 60.9592 31.7483 60.0232 31.3764 59.0956L29.6674 54.8419C31.3012 54.4324 32.9434 54.1232 34.6482 54.048C35.6845 53.9978 36.7374 53.605 37.7319 53.2164C41.5553 51.7122 44.1042 48.0058 44.0164 43.9025C43.9203 39.327 41.2753 35.6082 37.172 34.2877C34.5103 33.4353 32.0199 33.8532 29.6465 35.3031C29.2704 35.5329 28.6228 35.6625 28.2467 35.5037C24.3398 33.8198 20.1529 36.2517 19.9524 40.5472C19.8771 42.1935 19.242 42.6155 17.8046 42.8579C11.7416 43.8942 5.77883 43.4721 -0.158841 41.9679C-1.22854 41.6963 -2.36928 41.7004 -3.4724 41.5375C-5.28588 41.2659 -7.21218 41.2659 -8.87523 40.6098C-12.0634 39.3479 -13.0036 36.5441 -12.9075 33.3225C-12.8281 30.5689 -11.7124 28.4044 -9.07579 27.3222C-7.07428 26.5074 -4.99338 26.7873 -2.96263 27.3556C-2.72863 27.4183 -0.112878 27.8863 -0.112878 27.8863C-0.112878 27.8863 0.605826 25.2538 3.28425 25.3541C4.64227 25.4209 5.72033 26.4739 5.81644 27.8278C5.90837 29.1315 5.79136 30.4686 5.63258 31.7723C5.46126 33.1721 5.63258 33.6568 7.05746 33.7111C7.65916 33.732 8.83333 33.7613 9.65232 33.778C10.0451 33.7863 10.3251 33.3935 10.1788 33.0258C9.88631 32.2737 9.51443 30.9617 9.45175 29.0354C9.43085 23.574 10.7429 18.4679 13.1121 14.0011L13.1079 14.0136Z" fill="#00FFFF"/>
<path d="M29.6631 54.846C27.4402 55.3934 25.2381 56.1372 22.9357 56.7556C22.8104 56.7849 22.7769 56.9478 22.8772 57.0272C23.0945 57.2069 23.224 57.3155 23.3619 57.4116C26.1239 59.3923 29.1659 60.8923 32.3499 61.9035C36.7165 76.7874 29.1408 92.8371 14.4492 98.7372C10.7261 100.233 6.88605 100.939 3.1045 100.939C-8.97977 100.939 -20.4164 93.7062 -25.1924 81.8058L-42.1948 39.4733C-48.4667 23.854 -40.8869 6.10783 -25.2676 -0.168303C-10.5969 -6.05583 5.95424 0.274621 13.1037 14.0136C10.7345 18.4804 9.42241 23.5866 9.44331 29.0479C9.50599 30.9742 9.87787 32.2904 10.1704 33.0384C10.3124 33.4061 10.0325 33.7947 9.64387 33.7905C8.82488 33.7696 7.65073 33.7445 7.04902 33.7236C5.61997 33.6693 5.45283 33.1846 5.62415 31.7848C5.78293 30.4811 5.89993 29.1482 5.808 27.8403C5.71189 26.4864 4.63383 25.4335 3.27582 25.3666C0.597389 25.2663 -0.121311 27.8988 -0.121311 27.8988C-0.121311 27.8988 -2.73706 27.4308 -2.97106 27.3681C-5.00182 26.7998 -7.07854 26.5199 -9.08423 27.3347C-11.7209 28.4127 -12.8365 30.5772 -12.9159 33.335C-13.012 36.5525 -12.0719 39.3563 -8.88366 40.6224C-7.22061 41.2784 -5.29432 41.2784 -3.48084 41.55C-2.37771 41.713 -1.24116 41.7088 -0.167278 41.9804C5.76621 43.4846 11.7331 43.9067 17.7962 42.8704C19.2336 42.6239 19.8687 42.2018 19.9439 40.5597C20.1445 36.2642 24.3314 33.8323 28.2383 35.5162C28.6143 35.675 29.262 35.5455 29.6381 35.3156C32.0115 33.8657 34.5019 33.4479 37.1636 34.3003C41.2627 35.6165 43.9119 39.3354 44.008 43.915C44.0957 48.0183 41.5427 51.7247 37.7235 53.2289C36.7332 53.6175 35.6802 54.0103 34.6398 54.0605C32.9349 54.1357 31.2928 54.4407 29.659 54.8544L29.6631 54.846Z" fill="#37A0FF"/>
<path d="M32.3458 61.9035C36.7123 76.7874 29.1367 92.8371 14.445 98.7372C10.7219 100.233 6.88188 100.939 3.10033 100.939C-8.98394 100.939 -20.4205 93.7062 -25.1966 81.8058L-42.1948 39.4733C-48.4667 23.854 -40.8869 6.10783 -25.2676 -0.168303C-10.5969 -6.05583 5.95425 0.274621 13.1037 14.0136" stroke="black" stroke-width="0.318004" stroke-miterlimit="10"/>
<path d="M32.3459 61.9036C29.1619 60.8924 26.1199 59.3923 23.3579 57.4117C23.22 57.3156 23.0947 57.207 22.8732 57.0273C22.7771 56.9479 22.8105 56.7849 22.9317 56.7557C25.2341 56.1373 27.4361 55.3935 29.6591 54.8461C31.2929 54.4366 32.9351 54.1274 34.6399 54.0522C35.6762 54.002 36.7291 53.6093 37.7236 53.2207C41.547 51.7164 44.0959 48.0101 44.0081 43.9068C43.912 39.3313 41.267 35.6124 37.1637 34.292C34.502 33.4396 32.0116 33.8574 29.6382 35.3074C29.2621 35.5372 28.6145 35.6667 28.2384 35.5079C24.3315 33.824 20.1446 36.2559 19.9441 40.5514C19.8688 42.1977 19.2337 42.6198 17.7963 42.8621C11.7333 43.8984 5.77053 43.4764 -0.167142 41.9721C-1.23684 41.7005 -2.37758 41.7047 -3.48071 41.5417C-5.29418 41.2701 -7.22048 41.2701 -8.88353 40.6141C-12.0717 39.3522 -13.0119 36.5484 -12.9158 33.3268C-12.8364 30.5731 -11.7207 28.4086 -9.0841 27.3264C-7.08259 26.5116 -5.00168 26.7916 -2.97093 27.3598C-2.73693 27.4225 -0.121178 27.8905 -0.121178 27.8905C-0.121178 27.8905 0.597525 25.258 3.27595 25.3583C4.63397 25.4252 5.71203 26.4782 5.80813 27.832C5.90006 29.1357 5.78306 30.4728 5.62428 31.7765C5.45296 33.1763 5.62428 33.661 7.04915 33.7154C7.65086 33.7362 8.82502 33.7655 9.64401 33.7822C10.0368 33.7906 10.3167 33.3978 10.1705 33.0301C9.87801 32.2779 9.50612 30.9659 9.44344 29.0396C9.42255 23.5783 10.7346 18.4721 13.1038 14.0053C17.7587 5.21788 26.4876 -1.10004 37.1303 -2.82577C52.7245 -5.35795 68.1641 3.40858 73.7007 17.9331C79.4336 32.959 74.0433 49.5561 60.6135 58.2391C52.2189 63.667 41.664 64.862 32.3459 61.8953V61.9036Z" stroke="black" stroke-width="0.327358" stroke-miterlimit="10"/>
<path d="M22.9191 27.7235C25.7897 28.3461 28.8944 28.4882 31.6564 27.3391C33.8459 26.4281 35.7137 24.7484 36.5661 22.5045C36.633 22.3332 36.3572 22.2622 36.2945 22.4293C35.4421 24.6732 33.5033 26.332 31.2928 27.1803C28.6478 28.1957 25.7145 28.0411 22.9943 27.4477C22.8188 27.4101 22.7394 27.6817 22.9191 27.7193V27.7235Z" fill="black"/>
<path d="M34.268 21.627C35.0619 22.5129 36.3531 22.7469 37.4144 22.2204C37.5774 22.141 37.4353 21.8944 37.2724 21.978C36.3196 22.4502 35.1747 22.2162 34.4686 21.4306C34.3474 21.2927 34.1468 21.4933 34.268 21.6312V21.627Z" fill="black"/>
<path d="M25.4343 15.9275C24.6571 15.7018 23.7671 16.1991 23.0317 17.1434L23.8548 18.3176L22.2169 18.5349C22.079 18.8524 21.9536 19.1909 21.8533 19.5461C21.1681 21.9194 21.6653 24.1424 22.9606 24.5143C24.256 24.8862 25.8564 23.2649 26.5416 20.8957C27.2269 18.5223 26.7297 16.2993 25.4343 15.9275Z" fill="black" stroke="black" stroke-width="0.140296" stroke-miterlimit="10" stroke-linecap="round"/>
<path d="M32.9558 14.5027C32.1786 14.277 31.2886 14.7743 30.5532 15.7186L31.3763 16.8928L29.7383 17.11C29.6005 17.4276 29.4751 17.7661 29.3748 18.1212C28.6895 20.4946 29.1868 22.7176 30.4821 23.0895C31.7775 23.4614 33.3778 21.8401 34.0631 19.4709C34.7484 17.0975 34.2511 14.8745 32.9558 14.5027Z" fill="black" stroke="black" stroke-width="0.140296" stroke-miterlimit="10" stroke-linecap="round"/>
</g>
</g>
</g>
<defs>
<linearGradient id="paint0_linear_426_3001" x1="5.50002" y1="-40.0132" x2="5.50002" y2="61" gradientUnits="userSpaceOnUse">
<stop stop-color="#8CEEFF"/>
<stop offset="1" stop-color="#3AB7FF"/>
</linearGradient>
<clipPath id="clip0_426_3001">
<rect width="54" height="54" rx="8" fill="white"/>
</clipPath>
</defs>
</svg>
