<svg width="49" height="49" viewBox="0 0 49 49" fill="none" xmlns="http://www.w3.org/2000/svg">
<g clip-path="url(#clip0_1440_9798)">
<g filter="url(#filter0_f_1440_9798)">
<mask id="mask0_1440_9798" style="mask-type:alpha" maskUnits="userSpaceOnUse" x="-68" y="-37" width="146" height="93">
<rect x="-67.5737" y="-36.3081" width="145.129" height="91.6601" rx="6.78964" fill="white"/>
</mask>
<g mask="url(#mask0_1440_9798)">
<mask id="mask1_1440_9798" style="mask-type:alpha" maskUnits="userSpaceOnUse" x="-68" y="-37" width="146" height="93">
<rect x="-67.5737" y="-36.3081" width="145.129" height="91.6601" rx="6.78964" fill="white"/>
</mask>
<g mask="url(#mask1_1440_9798)">
<rect x="-67.5737" y="-36.3081" width="145.129" height="91.6601" fill="url(#paint0_linear_1440_9798)"/>
<path d="M11.8943 12.716C16.1182 4.74226 24.0388 -0.990665 33.6961 -2.5566C47.8464 -4.85432 61.8564 3.10049 66.8803 16.2801C72.0824 29.9148 67.1912 44.9751 55.005 52.8541C47.3876 57.7794 37.81 58.8638 29.3547 56.1717C29.1044 55.3148 28.8087 54.4655 28.4712 53.6238L26.9205 49.7639C28.403 49.3923 29.8931 49.1117 31.4401 49.0435C32.3804 48.998 33.3359 48.6416 34.2383 48.289C37.7076 46.924 40.0205 43.5608 39.9409 39.8375C39.8537 35.6856 37.4536 32.3111 33.7302 31.1129C31.315 30.3395 29.0551 30.7186 26.9015 32.0343C26.5603 32.2428 25.9726 32.3604 25.6313 32.2163C22.0862 30.6883 18.287 32.895 18.105 36.7928C18.0367 38.2867 17.4604 38.6696 16.1561 38.8895C10.6544 39.8299 5.24381 39.4469 -0.14408 38.0819C-1.11473 37.8355 -2.14985 37.8393 -3.15083 37.6914C-4.79639 37.4449 -6.54433 37.4449 -8.05339 36.8497C-10.9464 35.7046 -11.7995 33.1604 -11.7123 30.2371C-11.6403 27.7384 -10.6279 25.7743 -8.23539 24.7923C-6.4192 24.053 -4.53098 24.307 -2.68825 24.8227C-2.47592 24.8795 -0.102372 25.3042 -0.102372 25.3042C-0.102372 25.3042 0.549785 22.9155 2.98021 23.0065C4.21249 23.0671 5.19073 24.0226 5.27793 25.2511C5.36135 26.4341 5.25518 27.6474 5.1111 28.8304C4.95564 30.1006 5.1111 30.5404 6.40404 30.5897C6.95004 30.6087 8.01548 30.6352 8.75863 30.6504C9.11505 30.6579 9.36908 30.3015 9.23638 29.9679C8.97096 29.2854 8.63351 28.0948 8.57664 26.3469C8.55768 21.3912 9.74825 16.7579 11.8981 12.7047L11.8943 12.716Z" fill="#00FFFF"/>
<path d="M26.9165 49.7676C24.8994 50.2643 22.9012 50.9392 20.812 51.5004C20.6983 51.5269 20.6679 51.6748 20.7589 51.7468C20.9561 51.9099 21.0736 52.0085 21.1988 52.0957C23.705 53.8929 26.4653 55.2541 29.3545 56.1716C33.3168 69.6774 26.4426 84.241 13.1112 89.5947C9.73292 90.9521 6.24842 91.5929 2.81701 91.5929C-8.14834 91.5929 -18.526 85.0296 -22.8598 74.2311L-38.2879 35.8183C-43.9791 21.6452 -37.1011 5.54221 -22.9281 -0.152801C-9.6157 -5.49519 5.40289 0.249112 11.8903 12.7159C9.7405 16.7692 8.54993 21.4025 8.56889 26.3582C8.62577 28.1061 8.96322 29.3005 9.22863 29.9792C9.35754 30.3128 9.10351 30.6655 8.75089 30.6617C8.00773 30.6427 6.94229 30.6199 6.3963 30.601C5.09957 30.5517 4.9479 30.1119 5.10336 28.8417C5.24744 27.6587 5.3536 26.4492 5.27019 25.2624C5.18298 24.0339 4.20474 23.0784 2.97247 23.0178C0.542042 22.9268 -0.110111 25.3155 -0.110111 25.3155C-0.110111 25.3155 -2.48367 24.8908 -2.696 24.8339C-4.53872 24.3183 -6.42315 24.0642 -8.24313 24.8036C-10.6356 25.7819 -11.648 27.7459 -11.72 30.2484C-11.8073 33.1679 -10.9541 35.7121 -8.06113 36.861C-6.55207 37.4562 -4.80413 37.4562 -3.15857 37.7027C-2.15759 37.8506 -1.12627 37.8468 -0.151825 38.0932C5.23227 39.4582 10.6467 39.8412 16.1483 38.9008C17.4526 38.6771 18.029 38.2942 18.0972 36.8041C18.2792 32.9063 22.0784 30.6996 25.6236 32.2276C25.9648 32.3717 26.5525 32.2541 26.8938 32.0456C29.0474 30.7299 31.3072 30.3507 33.7225 31.1242C37.442 32.3186 39.8459 35.6931 39.9331 39.8487C40.0128 43.5721 37.6961 46.9353 34.2305 48.3003C33.3319 48.6529 32.3764 49.0093 31.4323 49.0548C29.8854 49.123 28.3953 49.3998 26.9127 49.7752L26.9165 49.7676Z" fill="#37A0FF"/>
<path d="M29.3507 56.1717C33.313 69.6774 26.4388 84.241 13.1075 89.5947C9.72913 90.9521 6.24464 91.5929 2.81322 91.5929C-8.15213 91.5929 -18.5298 85.0296 -22.8636 74.2311L-38.2879 35.8183C-43.9791 21.6452 -37.1011 5.54221 -22.9281 -0.152801C-9.6157 -5.49519 5.40289 0.249112 11.8903 12.7159" stroke="black" stroke-width="0.28856" stroke-miterlimit="10"/>
<path d="M29.3507 56.1715C26.4615 55.2539 23.7012 53.8927 21.1949 52.0955C21.0698 52.0083 20.956 51.9097 20.7551 51.7467C20.6679 51.6747 20.6982 51.5268 20.8082 51.5002C22.8973 50.9391 24.8955 50.2642 26.9127 49.7675C28.3952 49.3959 29.8853 49.1153 31.4323 49.0471C32.3726 49.0016 33.3281 48.6451 34.2305 48.2925C37.6998 46.9275 40.0127 43.5644 39.9331 39.841C39.8459 35.6892 37.4458 32.3147 33.7224 31.1165C31.3071 30.343 29.0473 30.7222 26.8937 32.0379C26.5525 32.2464 25.9648 32.364 25.6235 32.2199C22.0784 30.6918 18.2792 32.8986 18.0972 36.7964C18.0289 38.2902 17.4526 38.6732 16.1483 38.8931C10.6466 39.8334 5.236 39.4505 -0.151892 38.0855C-1.12255 37.839 -2.15766 37.8428 -3.15864 37.695C-4.8042 37.4485 -6.55214 37.4485 -8.0612 36.8532C-10.9542 35.7082 -11.8073 33.164 -11.7201 30.2406C-11.6481 27.742 -10.6357 25.7779 -8.2432 24.7959C-6.42702 24.0565 -4.53879 24.3106 -2.69607 24.8262C-2.48374 24.8831 -0.110184 25.3078 -0.110184 25.3078C-0.110184 25.3078 0.541973 22.919 2.9724 23.01C4.20467 23.0707 5.18291 24.0262 5.27012 25.2547C5.35353 26.4377 5.24737 27.651 5.10329 28.834C4.94783 30.1042 5.10329 30.544 6.39623 30.5933C6.94222 30.6122 8.00766 30.6388 8.75082 30.6539C9.10723 30.6615 9.36127 30.3051 9.22856 29.9714C8.96315 29.289 8.6257 28.0984 8.56883 26.3504C8.54987 21.3948 9.74043 16.7615 11.8903 12.7082C16.1141 4.73445 24.0348 -0.998477 33.6921 -2.56441C47.8424 -4.86213 61.8524 3.09268 66.8763 16.2723C72.0784 29.907 67.1872 44.9673 55.001 52.8463C47.3836 57.7716 37.806 58.856 29.3507 56.1639V56.1715Z" stroke="black" stroke-width="0.297047" stroke-miterlimit="10"/>
<path d="M20.7969 25.1564C23.4017 25.7213 26.2189 25.8502 28.7251 24.8075C30.7119 23.981 32.4068 22.4567 33.1803 20.4206C33.241 20.2652 32.9907 20.2007 32.9338 20.3524C32.1603 22.3885 30.401 23.8938 28.3953 24.6635C25.9952 25.5848 23.3335 25.4445 20.8651 24.9061C20.7059 24.872 20.6338 25.1184 20.7969 25.1526V25.1564Z" fill="black"/>
<path d="M31.0951 19.6241C31.8155 20.4279 32.9871 20.6402 33.9502 20.1625C34.0981 20.0904 33.9691 19.8667 33.8213 19.9426C32.9568 20.371 31.9179 20.1587 31.2771 19.4459C31.1671 19.3207 30.9851 19.5027 31.0951 19.6279V19.6241Z" fill="black"/>
<path d="M23.0791 14.4522C22.3739 14.2475 21.5663 14.6987 20.8989 15.5556L21.6459 16.6211L20.1596 16.8182C20.0345 17.1064 19.9207 17.4135 19.8297 17.7358C19.2079 19.8894 19.6591 21.9066 20.8345 22.244C22.0099 22.5815 23.4621 21.1103 24.0839 18.9605C24.7057 16.8068 24.2545 14.7897 23.0791 14.4522Z" fill="black" stroke="black" stroke-width="0.127306" stroke-miterlimit="10" stroke-linecap="round"/>
<path d="M29.9043 13.1593C29.1991 12.9545 28.3915 13.4057 27.7241 14.2626L28.4711 15.3281L26.9848 15.5252C26.8596 15.8134 26.7459 16.1205 26.6549 16.4428C26.0331 18.5965 26.4843 20.6136 27.6597 20.9511C28.8351 21.2885 30.2873 19.8174 30.9091 17.6675C31.5309 15.5139 31.0797 13.4967 29.9043 13.1593Z" fill="black" stroke="black" stroke-width="0.127306" stroke-miterlimit="10" stroke-linecap="round"/>
</g>
</g>
</g>
<rect x="5.25" y="17.25" width="39.5" height="15.5" rx="7.75" fill="white" fillOpacity="0.8"/>
<rect x="5.25" y="17.25" width="39.5" height="15.5" rx="7.75" stroke="white" stroke-width="0.5"/>
<path d="M17.5134 21.6328V25.3281H16.6541V21.6328H17.5134ZM11.7712 23.5391C11.7712 22.6016 12.5681 21.9297 13.6462 21.9375C14.7166 21.9297 15.5134 22.6016 15.5212 23.5391C15.5134 24.4844 14.7166 25.1484 13.6462 25.1484C12.5681 25.1484 11.7712 24.4844 11.7712 23.5391ZM12.4978 28.6094V26.7734H14.0525V26.2656H12.4978V25.6172H14.9041V27.3828H13.3416V27.957C14.1814 27.9492 14.7127 27.9258 15.3416 27.8047L15.4275 28.4453C14.6736 28.5938 14.0603 28.6094 12.9509 28.6094H12.4978ZM12.615 23.5391C12.615 24.082 13.0525 24.4453 13.6462 24.4453C14.24 24.4453 14.6736 24.082 14.6775 23.5391C14.6736 22.9961 14.24 22.6484 13.6462 22.6484C13.0525 22.6484 12.615 22.9961 12.615 23.5391ZM15.1853 26.3125V25.6172H17.5134V28.6562H16.6697V26.3125H15.1853ZM21.0644 23.6406C21.0644 24.7969 21.7441 26.0156 22.8847 26.4922L22.4081 27.1797C21.5722 26.8164 20.9628 26.0781 20.6386 25.1797C20.3144 26.1484 19.6933 26.9609 18.8691 27.3516L18.3691 26.6719C19.4823 26.1562 20.1777 24.8398 20.1816 23.6406V23.0469H18.6269V22.3281H22.6112V23.0469H21.0644V23.6406ZM23.4003 28.6953V21.6328H24.2753V28.6953H23.4003ZM27.1075 22C28.1856 21.9961 28.9786 22.6797 28.9825 23.6328C28.9786 24.6016 28.1856 25.2773 27.1075 25.2812C26.0372 25.2773 25.2286 24.6016 25.2325 23.6328C25.2286 22.6797 26.0372 21.9961 27.1075 22ZM25.8263 28.5V25.8438H26.6778V27.793C27.0802 27.7695 27.4981 27.7109 27.9044 27.5781L28.0294 28.2578C27.4044 28.4766 26.8028 28.5039 26.2013 28.5H25.8263ZM26.0841 23.6328C26.0763 24.1953 26.5216 24.5703 27.1075 24.5703C27.6934 24.5703 28.1348 24.1953 28.1388 23.6328C28.1348 23.082 27.6934 22.7148 27.1075 22.7109C26.5216 22.7148 26.0763 23.082 26.0841 23.6328ZM27.7872 26.5078V25.8594H29.1466V25.3203H29.9981V25.8594H31.3419V26.5078H27.7872ZM28.2169 27.6953C28.2091 27.082 28.7598 26.6953 29.5606 26.6953C30.3536 26.6953 30.9083 27.082 30.9122 27.6953C30.9083 28.3047 30.3536 28.6875 29.5606 28.6875C28.7559 28.6875 28.2091 28.3047 28.2169 27.6953ZM28.9903 27.6953C28.9864 27.9453 29.2286 28.0859 29.5606 28.0859C29.8927 28.0859 30.1309 27.9453 30.1309 27.6953C30.1309 27.4492 29.8927 27.3047 29.5606 27.2969C29.2286 27.3047 28.9864 27.4492 28.9903 27.6953ZM29.8575 25.1328V21.6328H30.7247V23.1406H31.7091V23.8594H30.7247V25.1328H29.8575ZM35.1194 21.7734C36.6819 21.7734 37.6623 22.2852 37.6663 23.1484C37.6623 23.9922 36.6819 24.4961 35.1194 24.4922C33.5725 24.4961 32.5725 23.9922 32.5725 23.1484C32.5725 22.2852 33.5725 21.7734 35.1194 21.7734ZM31.9084 25.6719V24.9688H38.3459V25.6719H31.9084ZM32.6663 28.6094V26.2344H37.5647V28.6094H32.6663ZM33.4788 23.1484C33.4709 23.5742 34.0881 23.8164 35.1194 23.8203C36.1506 23.8164 36.7678 23.5742 36.7678 23.1484C36.7678 22.6992 36.1506 22.4531 35.1194 22.4531C34.0881 22.4531 33.4709 22.6992 33.4788 23.1484ZM33.5256 27.9062H36.7209V26.9219H33.5256V27.9062Z" fill="#1F1F1F"/>
</g>
<defs>
<filter id="filter0_f_1440_9798" x="-75.5737" y="-44.3081" width="161.128" height="107.66" filterUnits="userSpaceOnUse" color-interpolation-filters="sRGB">
<feFlood flood-opacity="0" result="BackgroundImageFix"/>
<feBlend mode="normal" in="SourceGraphic" in2="BackgroundImageFix" result="shape"/>
<feGaussianBlur stdDeviation="4" result="effect1_foregroundBlur_1440_9798"/>
</filter>
<linearGradient id="paint0_linear_1440_9798" x1="4.99052" y1="-36.3081" x2="4.99052" y2="55.352" gradientUnits="userSpaceOnUse">
<stop stop-color="#8CEEFF"/>
<stop offset="1" stop-color="#3AB7FF"/>
</linearGradient>
<clipPath id="clip0_1440_9798">
<rect width="49" height="49" rx="7.25926" fill="white"/>
</clipPath>
</defs>
</svg>
